<svg width="208" height="244" viewBox="0 0 208 244" fill="none" xmlns="http://www.w3.org/2000/svg">
<path d="M168.478 190.616C168.354 189.157 168.218 187.687 168.086 186.212L168.062 185.892C167.838 183.276 167.638 180.639 167.543 178.014C165.964 177.607 164.394 177.159 162.84 176.675C162.588 176.599 162.34 176.524 162.096 176.444C157.103 174.859 152.216 172.912 147.434 170.552C143.395 168.566 139.379 166.326 135.571 163.726C135.499 165.446 135.408 167.179 135.287 168.926C144.018 174.459 152.923 179.492 162.272 183.539C162.528 183.651 162.788 183.759 163.043 183.867C163.052 184.067 163.059 184.263 163.067 184.463C163.167 186.536 163.303 188.61 163.511 190.687C164.142 197.084 165.186 203.42 166.604 209.654C169 220.186 172.616 230.058 176.991 239.631C174.299 229.455 172.138 219.095 170.591 208.615C169.712 202.642 169.008 196.64 168.478 190.616Z" fill="#8F8D8D"/>
<path d="M60.1667 170.552C55.3841 172.912 50.4974 174.859 45.504 176.444C45.26 176.524 45.012 176.599 44.76 176.675C43.2067 177.159 41.6361 177.607 40.0587 178.014C39.9614 180.639 39.7627 183.276 39.5387 185.892L39.5147 186.212C39.3827 187.687 39.2467 189.157 39.1227 190.616C38.5907 196.64 37.888 202.642 37.0094 208.615C35.464 219.095 33.3014 229.455 30.6094 239.631C34.984 230.058 38.5987 220.186 40.9974 209.654C42.4147 203.42 43.4574 197.084 44.0894 190.687C44.2974 188.61 44.4334 186.536 44.532 184.463C44.54 184.263 44.5481 184.067 44.5561 183.867C44.8121 183.759 45.0721 183.651 45.3281 183.539C54.6774 179.492 63.5827 174.459 72.312 168.926C72.1934 167.179 72.1014 165.446 72.0281 163.726C68.2214 166.326 64.2054 168.566 60.1667 170.552Z" fill="#8F8D8D"/>
<path d="M64.3977 125.019C59.2844 123.859 54.2897 122.312 49.3951 120.379H49.391C49.147 120.285 48.9084 120.179 48.6684 120.086H48.6644C47.1417 119.472 45.631 118.832 44.1297 118.139C42.727 120.232 41.2364 122.272 39.7351 124.272L39.547 124.526C38.7044 125.659 37.8524 126.779 37.0137 127.886C33.5417 132.486 29.9377 136.966 26.207 141.286C19.6577 148.899 12.6657 156.005 5.33105 162.605C13.7404 157.579 21.683 151.819 28.955 144.726C33.2617 140.526 37.3177 136.006 41.0564 131.152C42.271 129.579 43.4257 127.979 44.5484 126.326H44.5524C44.6604 126.179 44.7684 126.019 44.8724 125.859C45.1404 125.939 45.4044 126.006 45.6671 126.086C54.6257 128.592 63.7071 130.179 72.8724 131.272C73.0284 129.725 73.2084 128.192 73.4031 126.659C70.3751 126.259 67.3631 125.699 64.3977 125.019Z" fill="#8F8D8D"/>
<path d="M181.395 141.286C177.663 136.966 174.059 132.486 170.587 127.886C169.748 126.779 168.896 125.659 168.053 124.526L167.865 124.272C166.364 122.272 164.873 120.232 163.471 118.139C161.968 118.832 160.459 119.472 158.936 120.086H158.932C158.692 120.179 158.452 120.285 158.209 120.379H158.205C153.311 122.312 148.316 123.859 143.203 125.019C140.237 125.699 137.225 126.259 134.197 126.659C134.392 128.192 134.572 129.725 134.728 131.272C143.893 130.179 152.975 128.592 161.932 126.086C162.196 126.006 162.46 125.939 162.728 125.859C162.832 126.019 162.94 126.179 163.047 126.326H163.052C164.175 127.979 165.329 129.579 166.543 131.152C170.283 136.006 174.339 140.526 178.645 144.726C185.917 151.819 193.86 157.579 202.269 162.605C194.935 156.005 187.943 148.899 181.395 141.286Z" fill="#8F8D8D"/>
<path d="M146.691 74.4589C146.571 74.7256 146.451 74.9789 146.323 75.2322C143.829 80.3922 141.041 85.3389 137.936 90.0722C135.136 94.3389 132.099 98.5122 128.763 102.312C129.323 103.979 129.837 105.659 130.313 107.339C138.328 97.6589 145.911 87.6455 152.464 76.6455C152.62 76.3922 152.768 76.1389 152.919 75.8722C153.091 75.9122 153.263 75.9522 153.435 75.9788C155.24 76.3522 157.055 76.6588 158.888 76.9122C164.533 77.6588 170.219 77.9523 175.901 77.7923C185.497 77.5389 194.803 75.7922 204.024 73.1389C194.663 73.8055 185.269 73.8456 175.908 73.1656C170.579 72.7789 165.257 72.1922 159.959 71.4055C158.672 71.2189 157.381 71.0322 156.084 70.8455L155.804 70.7923C153.503 70.4456 151.193 70.0722 148.916 69.5788C148.2 71.2322 147.461 72.8589 146.691 74.4589Z" fill="#8F8D8D"/>
<path d="M48.7122 76.9122C50.5455 76.6588 52.3602 76.3522 54.1655 75.9788C54.3375 75.9522 54.5095 75.9122 54.6815 75.8722C54.8322 76.1389 54.9802 76.3922 55.1362 76.6455C61.6882 87.6455 69.2722 97.6589 77.2868 107.339C77.7628 105.659 78.2775 103.979 78.8375 102.312C75.5002 98.5122 72.4642 94.3389 69.6642 90.0722C66.5589 85.3389 63.7709 80.3922 61.2775 75.2322C61.1495 74.9789 61.0295 74.7256 60.9095 74.4589C60.1388 72.8589 59.4002 71.2322 58.6842 69.5788C56.4068 70.0722 54.0975 70.4456 51.7962 70.7923L51.5162 70.8455C50.2189 71.0322 48.9269 71.2189 47.6415 71.4055C42.3429 72.1922 37.0215 72.7789 31.6922 73.1656C22.3309 73.8456 12.9375 73.8055 3.57617 73.1389C12.7975 75.7922 22.1029 77.5389 31.7002 77.7923C37.3815 77.9523 43.0668 77.6588 48.7122 76.9122Z" fill="#8F8D8D"/>
<path d="M66.527 10.8452C73.1883 18.8719 78.7977 28.0454 83.2643 37.8187C87.123 46.272 90.3843 55.432 92.2697 64.792L92.4736 64.6587C93.5843 63.9387 94.763 63.352 95.9777 62.8854L95.9016 62.6719C95.8136 62.4319 95.7216 62.192 95.6296 61.952C91.7736 51.5654 87.991 41.1786 82.6683 31.5653C79.3523 25.592 75.4937 20.0452 71.2777 14.8452C69.2483 12.3386 67.159 9.91192 65.0417 7.51192C63.907 6.21859 62.7643 4.93861 61.6176 3.67194C61.1176 3.09861 60.631 2.51192 60.103 1.97858C59.4443 1.31192 57.9577 0.272018 56.959 0.61869C60.355 3.76535 63.523 7.23192 66.527 10.8452Z" fill="#8F8D8D"/>
<path d="M115.331 64.792C117.216 55.432 120.478 46.272 124.336 37.8187C128.803 28.0454 134.412 18.8719 141.074 10.8452C144.078 7.23192 147.246 3.76535 150.642 0.61869C149.643 0.272018 148.156 1.31192 147.498 1.97858C146.97 2.51192 146.483 3.09861 145.983 3.67194C144.836 4.93861 143.694 6.21859 142.559 7.51192C140.442 9.91192 138.352 12.3386 136.323 14.8452C132.107 20.0452 128.248 25.592 124.932 31.5653C119.61 41.1786 115.826 51.5654 111.971 61.952C111.879 62.192 111.787 62.4319 111.699 62.6719L111.623 62.8854C112.838 63.352 114.016 63.9387 115.127 64.6587L115.331 64.792Z" fill="#8F8D8D"/>
<path d="M123.033 77.1787C120.68 74.7387 117.72 73.032 114.732 71.8454C114.384 71.712 114.04 71.5788 113.692 71.4588C110.484 70.3255 107.136 69.7921 103.8 69.8855C100.464 69.7921 97.1157 70.3255 93.9077 71.4588L93.3077 71.6721C90.1717 72.8587 87.0357 74.6187 84.5664 77.1787C85.5811 72.8187 88.1384 69.0187 91.4344 66.4454L91.7504 66.1921C91.9811 66.0188 92.2091 65.8588 92.4451 65.6988C92.8091 65.4454 93.1757 65.2187 93.5557 65.0054C94.4344 64.4987 95.3491 64.072 96.2851 63.712H96.2891C96.4717 63.6454 96.6597 63.5787 96.8477 63.512C98.9131 62.792 101.074 62.4054 103.22 62.2721C103.416 62.2587 103.608 62.2454 103.8 62.2454C103.992 62.2454 104.184 62.2587 104.38 62.2721C106.524 62.4054 108.686 62.792 110.752 63.512C110.94 63.5787 111.128 63.6454 111.312 63.712H111.314C112.25 64.072 113.165 64.4987 114.044 65.0054C114.424 65.2187 114.79 65.4454 115.154 65.6988C115.39 65.8588 115.618 66.0188 115.85 66.1921L116.013 66.3255C119.382 68.8988 122.002 72.752 123.033 77.1787Z" fill="#8F8D8D"/>
<path d="M125.727 89.179C125.439 90.1257 125.04 90.9791 124.544 91.7658C124.428 91.9391 124.304 92.1258 124.18 92.2991C121.208 96.4458 115.607 98.3124 111.343 99.3658C108.855 99.9924 106.337 100.406 103.8 100.539C101.263 100.406 98.7452 99.9924 96.2572 99.3658C91.9932 98.3124 86.3919 96.4458 83.4199 92.2991C83.2959 92.1258 83.1719 91.9391 83.0559 91.7658C82.5599 90.9791 82.1612 90.1257 81.8732 89.179C80.7746 85.5924 81.8653 82.3524 83.8466 79.7124C83.9626 79.5524 84.0866 79.3924 84.2106 79.2457C84.6346 78.7257 85.0893 78.2191 85.5693 77.7658C87.1279 76.2324 88.9213 74.9924 90.588 74.0991C94.7426 71.8858 99.2493 70.7524 103.8 70.6457C108.351 70.7524 112.857 71.8858 117.013 74.0991C119.191 75.2591 121.592 77.0324 123.389 79.2457C123.513 79.3924 123.637 79.5524 123.753 79.7124C124.264 80.3924 124.716 81.1124 125.084 81.8724C126.151 84.0457 126.541 86.5124 125.727 89.179Z" fill="#8F8D8D"/>
<path d="M134.31 160.512C134.302 160.832 134.294 161.152 134.286 161.472C134.268 161.912 134.256 162.352 134.24 162.792C134.182 164.565 134.106 166.339 134.006 168.112C133.978 168.539 133.954 168.965 133.926 169.392C133.235 180.251 131.588 191.103 127.632 201.051C124.464 209.013 119.814 216.477 113.702 221.855C111.747 223.573 109.638 225.083 107.384 226.321C106.862 226.609 106.338 226.881 105.802 227.133C106.586 224.68 107.316 222.211 108.015 219.733C108.447 218.195 108.863 216.649 109.254 215.095C110.036 212.035 110.74 208.947 111.367 205.837L111.375 205.797C111.48 205.279 111.583 204.759 111.683 204.236C111.895 203.141 112.095 202.043 112.291 200.939V200.932C112.866 197.623 113.358 194.295 113.756 190.955C116.038 171.832 115.551 152.112 112.123 133.205C110.174 122.445 107.38 111.885 103.468 101.832L103.444 101.819L103.408 101.872C114.871 135.832 117.28 172.872 109.598 208.123C109.063 210.592 108.475 213.053 107.836 215.503C107.236 217.804 106.606 220.109 105.918 222.395C105.371 224.228 104.791 226.055 104.164 227.852C104.044 227.9 103.924 227.948 103.8 227.996C102.774 227.6 101.759 227.137 100.767 226.617C100.584 226.521 100.4 226.421 100.216 226.321C90.9151 221.204 84.151 211.563 79.9684 201.051C76.0124 191.103 74.3658 180.251 73.6751 169.392C73.6471 168.965 73.6231 168.539 73.5951 168.112C73.4951 166.339 73.4204 164.565 73.3591 162.792C73.3431 162.352 73.3311 161.912 73.3151 161.472C73.3071 161.152 73.299 160.832 73.291 160.512C73.0564 151.232 73.2164 141.912 74.0311 132.672C74.0671 132.259 74.1071 131.845 74.1471 131.419C74.2911 129.885 74.4497 128.339 74.6377 126.805C74.6857 126.392 74.7337 125.979 74.7897 125.552C74.9137 124.565 75.0497 123.565 75.1897 122.579C75.8404 118.005 76.7084 113.485 77.8191 109.045C77.8871 108.779 77.9577 108.512 78.0297 108.245C78.4777 106.499 78.9604 104.752 79.4884 103.045C79.6164 102.632 79.7444 102.219 79.8724 101.805C80.7791 98.9787 81.7897 96.192 82.9284 93.472C85.6097 96.8053 89.5084 98.6721 93.3724 99.8587C93.6404 99.9387 93.9084 100.019 94.1751 100.099C94.7751 100.272 95.3737 100.432 95.9617 100.579C98.3351 101.152 100.876 101.579 103.448 101.725L103.8 101.752C106.494 101.605 109.158 101.179 111.639 100.579C112.49 100.365 113.358 100.125 114.228 99.8587C114.76 99.6987 115.291 99.5254 115.819 99.3254C119.139 98.1387 122.359 96.352 124.672 93.472C125.811 96.192 126.822 98.9787 127.728 101.805C127.856 102.219 127.984 102.632 128.112 103.045C128.64 104.752 129.123 106.499 129.57 108.245C129.642 108.512 129.714 108.779 129.782 109.045C130.892 113.485 131.76 118.005 132.411 122.579C132.551 123.565 132.687 124.565 132.811 125.552C132.867 125.979 132.915 126.392 132.963 126.805C133.15 128.339 133.31 129.885 133.454 131.419C133.494 131.845 133.534 132.259 133.57 132.672C134.384 141.912 134.544 151.232 134.31 160.512Z" fill="#8F8D8D"/>
<path d="M152.464 76.645C145.911 87.645 138.328 97.6584 130.313 107.338C129.837 105.658 129.323 103.978 128.763 102.312C132.099 98.5117 135.136 94.3383 137.936 90.0717C141.041 85.3383 143.829 80.3917 146.323 75.2317C146.451 74.9784 146.571 74.7251 146.691 74.4584C147.461 72.8584 148.2 71.2317 148.916 69.5783C151.193 70.0717 153.503 70.4451 155.804 70.7917L156.084 70.845C157.381 71.0317 158.672 71.2184 159.959 71.405C165.257 72.1917 170.579 72.7784 175.908 73.1651C185.269 73.845 194.663 73.805 204.024 73.1384C194.803 75.7917 185.497 77.5384 175.901 77.7917C170.219 77.9518 164.533 77.6583 158.888 76.9117C157.055 76.6583 155.24 76.3517 153.435 75.9783C153.263 75.9517 153.091 75.9117 152.919 75.8717C152.768 76.1384 152.62 76.3917 152.464 76.645ZM132.411 122.578C132.551 123.565 132.687 124.565 132.811 125.552C132.867 125.978 132.915 126.392 132.963 126.805C133.149 128.338 133.309 129.885 133.453 131.418C133.493 131.845 133.533 132.258 133.569 132.672C134.384 141.912 134.544 151.232 134.309 160.512C134.301 160.832 134.293 161.152 134.285 161.472C134.268 161.912 134.256 162.352 134.24 162.792C134.181 164.565 134.105 166.338 134.005 168.112C133.977 168.538 133.953 168.965 133.925 169.392C133.235 180.25 131.588 191.102 127.632 201.05C123.449 211.562 116.685 221.204 107.384 226.321C106.861 226.609 106.337 226.881 105.801 227.133C106.585 224.68 107.316 222.21 108.015 219.733C110.652 210.356 112.593 200.712 113.756 190.954C116.037 171.832 115.551 152.112 112.123 133.205C110.173 122.445 107.38 111.885 103.468 101.832L103.444 101.818L103.408 101.872C115.675 138.205 117.572 178.069 107.836 215.502C106.752 219.653 105.569 223.813 104.164 227.852C104.044 227.9 103.924 227.948 103.8 227.996C102.581 227.524 101.383 226.965 100.216 226.321C90.9147 221.204 84.1506 211.562 79.968 201.05C76.012 191.102 74.3653 180.25 73.6747 169.392C73.6467 168.965 73.6227 168.538 73.5947 168.112C73.4947 166.338 73.42 164.565 73.3587 162.792C73.3427 162.352 73.3306 161.912 73.3146 161.472C73.3066 161.152 73.2986 160.832 73.2906 160.512C73.056 151.232 73.216 141.912 74.0307 132.672C74.0667 132.258 74.1067 131.845 74.1467 131.418C74.2907 129.885 74.4493 128.338 74.6373 126.805C74.6853 126.392 74.7333 125.978 74.7893 125.552C74.9133 124.565 75.0493 123.565 75.1893 122.578C75.84 118.005 76.708 113.485 77.8187 109.045C77.8867 108.778 77.9573 108.512 78.0293 108.245C78.4773 106.498 78.96 104.752 79.488 103.045C79.616 102.632 79.744 102.218 79.872 101.805C80.7787 98.9784 81.7893 96.1917 82.928 93.4717C85.6093 96.805 89.508 98.6718 93.372 99.8584C94.2427 100.125 95.1093 100.365 95.9613 100.578C98.3347 101.152 100.876 101.578 103.448 101.725L103.8 101.752C106.493 101.605 109.157 101.178 111.639 100.578C112.489 100.365 113.357 100.125 114.228 99.8584C118.092 98.6718 121.991 96.805 124.672 93.4717C125.811 96.1917 126.821 98.9784 127.728 101.805C127.856 102.218 127.984 102.632 128.112 103.045C128.64 104.752 129.123 106.498 129.569 108.245C129.641 108.512 129.713 108.778 129.781 109.045C130.892 113.485 131.76 118.005 132.411 122.578ZM143.203 125.018C148.316 123.858 153.311 122.312 158.205 120.378H158.209C158.452 120.285 158.692 120.178 158.932 120.085H158.936C160.459 119.472 161.968 118.832 163.471 118.138C164.873 120.232 166.364 122.272 167.865 124.272L168.053 124.525C168.896 125.658 169.748 126.778 170.587 127.885C174.059 132.485 177.663 136.965 181.395 141.285C187.943 148.898 194.935 156.005 202.269 162.605C193.86 157.578 185.917 151.818 178.645 144.725C174.339 140.525 170.283 136.005 166.543 131.152C165.329 129.578 164.175 127.978 163.052 126.325H163.047C162.94 126.178 162.832 126.018 162.728 125.858C162.46 125.938 162.196 126.005 161.932 126.085C152.975 128.592 143.893 130.178 134.728 131.272C134.572 129.725 134.392 128.192 134.197 126.658C137.225 126.258 140.237 125.698 143.203 125.018ZM45.6667 126.085C45.404 126.005 45.14 125.938 44.872 125.858C44.768 126.018 44.66 126.178 44.552 126.325H44.548C43.4253 127.978 42.2707 129.578 41.056 131.152C37.3173 136.005 33.2613 140.525 28.9547 144.725C21.6827 151.818 13.74 157.578 5.33066 162.605C12.6653 156.005 19.6573 148.898 26.2066 141.285C29.9373 136.965 33.5413 132.485 37.0133 127.885C37.852 126.778 38.704 125.658 39.5466 124.525L39.7347 124.272C41.236 122.272 42.7266 120.232 44.1293 118.138C45.6306 118.832 47.1413 119.472 48.664 120.085H48.668C48.908 120.178 49.1466 120.285 49.3906 120.378H49.3947C54.2893 122.312 59.284 123.858 64.3973 125.018C67.3627 125.698 70.3747 126.258 73.4027 126.658C73.208 128.192 73.028 129.725 72.872 131.272C63.7067 130.178 54.6253 128.592 45.6667 126.085ZM55.136 76.645C54.98 76.3917 54.832 76.1384 54.6813 75.8717C54.5093 75.9117 54.3373 75.9517 54.1653 75.9783C52.36 76.3517 50.5453 76.6583 48.712 76.9117C43.0666 77.6583 37.3813 77.9518 31.7 77.7917C22.1027 77.5384 12.7973 75.7917 3.57598 73.1384C12.9373 73.805 22.3307 73.845 31.692 73.1651C37.0213 72.7784 42.3427 72.1917 47.6413 71.405C48.9267 71.2184 50.2187 71.0317 51.516 70.845L51.796 70.7917C54.0973 70.4451 56.4066 70.0717 58.684 69.5783C59.4 71.2317 60.1386 72.8584 60.9093 74.4584C61.0293 74.7251 61.1493 74.9784 61.2773 75.2317C63.7707 80.3917 66.5587 85.3383 69.664 90.0717C72.464 94.3383 75.5 98.5117 78.8373 102.312C78.2773 103.978 77.7626 105.658 77.2867 107.338C69.272 97.6584 61.688 87.645 55.136 76.645ZM81.8733 89.1783C80.7746 85.5917 81.8653 82.3517 83.8467 79.7117C83.9627 79.5517 84.0867 79.3917 84.2107 79.245C86.0093 77.0317 88.4107 75.2584 90.588 74.0984C94.7427 71.8851 99.2493 70.7517 103.8 70.645C108.351 70.7517 112.857 71.8851 117.013 74.0984C119.191 75.2584 121.592 77.0317 123.389 79.245C123.513 79.3917 123.637 79.5517 123.753 79.7117C125.735 82.3517 126.825 85.5917 125.727 89.1783C125.439 90.125 125.04 90.9784 124.544 91.765C124.428 91.9384 124.304 92.125 124.18 92.2984C121.208 96.4451 115.607 98.3117 111.343 99.3651C108.855 99.9917 106.337 100.405 103.8 100.538C101.263 100.405 98.7453 99.9917 96.2573 99.3651C91.9933 98.3117 86.392 96.4451 83.42 92.2984C83.296 92.125 83.172 91.9384 83.056 91.765C82.56 90.9784 82.1613 90.125 81.8733 89.1783ZM91.7506 66.1917C91.9813 66.0184 92.2093 65.8584 92.4453 65.6984C92.8093 65.4451 93.176 65.2184 93.556 65.005C94.4347 64.4984 95.3493 64.0717 96.2853 63.7117H96.2893C96.472 63.645 96.66 63.5783 96.848 63.5117C98.9133 62.7917 101.075 62.405 103.22 62.2717C103.416 62.2584 103.608 62.245 103.8 62.245C103.992 62.245 104.184 62.2584 104.38 62.2717C106.524 62.405 108.687 62.7917 110.752 63.5117C110.94 63.5783 111.128 63.645 111.312 63.7117H111.315C112.251 64.0717 113.165 64.4984 114.044 65.005C114.424 65.2184 114.791 65.4451 115.155 65.6984C115.391 65.8584 115.619 66.0184 115.851 66.1917C119.299 68.7784 121.987 72.6717 123.033 77.1783C120.409 74.4583 117.029 72.6451 113.692 71.4584C110.484 70.3251 107.136 69.7918 103.8 69.8851C100.464 69.7918 97.116 70.3251 93.908 71.4584C90.5707 72.6451 87.1907 74.4583 84.5667 77.1783C85.6133 72.6717 88.3013 68.7784 91.7506 66.1917ZM83.264 37.8184C78.7973 28.0451 73.188 18.8717 66.5266 10.845C63.5226 7.23167 60.3533 3.76511 56.9587 0.618439C57.9573 0.271774 59.4427 1.31166 60.1027 1.97833C60.6293 2.51167 61.1173 3.09836 61.6173 3.67169C62.764 4.93835 63.9067 6.21834 65.0413 7.51167C67.1587 9.91167 69.248 12.3383 71.2773 14.845C75.4933 20.045 79.352 25.5917 82.668 31.565C87.9906 41.1784 91.7733 51.5651 95.6293 61.9518C95.7213 62.1918 95.8133 62.4317 95.9013 62.6717L95.9773 62.8851C94.7627 63.3518 93.584 63.9384 92.4733 64.6584L92.2693 64.7917C90.384 55.4317 87.1227 46.2718 83.264 37.8184ZM111.699 62.6717C111.787 62.4317 111.879 62.1918 111.971 61.9518C115.827 51.5651 119.609 41.1784 124.932 31.565C128.248 25.5917 132.107 20.045 136.323 14.845C138.352 12.3383 140.441 9.91167 142.559 7.51167C143.693 6.21834 144.836 4.93835 145.983 3.67169C146.483 3.09836 146.969 2.51167 147.497 1.97833C148.157 1.31166 149.643 0.271774 150.641 0.618439C147.245 3.76511 144.077 7.23167 141.073 10.845C134.412 18.8717 128.803 28.0451 124.336 37.8184C120.477 46.2718 117.216 55.4317 115.331 64.7917L115.127 64.6584C114.016 63.9384 112.837 63.3518 111.623 62.8851L111.699 62.6717ZM135.571 163.725C139.379 166.325 143.395 168.565 147.433 170.552C152.216 172.912 157.103 174.858 162.096 176.444C162.34 176.524 162.588 176.598 162.84 176.674C164.393 177.158 165.964 177.606 167.543 178.013C167.637 180.638 167.837 183.276 168.061 185.892L168.085 186.212C168.217 187.686 168.353 189.157 168.477 190.616C169.008 196.64 169.712 202.641 170.591 208.614C172.137 219.094 174.299 229.454 176.991 239.63C172.616 230.057 169 220.185 166.604 209.653C165.185 203.42 164.141 197.084 163.511 190.686C163.303 188.609 163.167 186.536 163.067 184.462C163.059 184.262 163.052 184.066 163.043 183.866C162.788 183.758 162.528 183.65 162.272 183.538C152.923 179.492 144.017 174.458 135.287 168.925C135.408 167.178 135.499 165.445 135.571 163.725ZM45.328 183.538C45.072 183.65 44.812 183.758 44.556 183.866C44.548 184.066 44.54 184.262 44.532 184.462C44.4333 186.536 44.2973 188.609 44.0893 190.686C43.4573 197.084 42.4147 203.42 40.9973 209.653C38.5987 220.185 34.984 230.057 30.6093 239.63C33.3013 229.454 35.464 219.094 37.0093 208.614C37.888 202.641 38.5907 196.64 39.1227 190.616C39.2467 189.157 39.3826 187.686 39.5146 186.212L39.5387 185.892C39.7627 183.276 39.9613 180.638 40.0587 178.013C41.636 177.606 43.2066 177.158 44.76 176.674C45.012 176.598 45.26 176.524 45.504 176.444C50.4973 174.858 55.384 172.912 60.1667 170.552C64.2053 168.565 68.2213 166.325 72.028 163.725C72.1013 165.445 72.1933 167.178 72.312 168.925C63.5826 174.458 54.6773 179.492 45.328 183.538ZM158.824 77.645C164.653 78.4317 170.539 78.725 176.404 78.5117C186.528 78.1517 196.9 76.485 206.601 72.9384C206.937 72.8184 207.268 72.6984 207.6 72.565C206.932 72.605 206.265 72.645 205.603 72.6717C205.071 72.6984 204.539 72.7251 204.008 72.7518C194.655 73.1784 185.289 73.0318 175.944 72.3518C170.611 71.9651 165.293 71.3784 159.995 70.5917C158.824 70.4184 157.657 70.2184 156.495 70.0184V70.005L156.247 69.965C153.939 69.5384 151.628 69.0717 149.32 68.6317L149.148 68.5917C149.012 68.8984 148.872 69.1918 148.724 69.4851L148.7 69.5384C147.921 71.165 147.109 72.7784 146.271 74.3651C146.143 74.6184 146.011 74.8583 145.879 75.1117C143.339 79.885 140.553 84.5117 137.561 88.9251C134.676 93.1784 131.548 97.165 128.336 101.072C127.372 98.2984 126.289 95.5784 125.084 92.9251C127.688 89.2584 127.88 84.4717 125.551 80.4717C124.987 79.5117 124.336 78.6184 123.625 77.8184C122.981 72.6451 119.949 68.1517 116.049 65.2984C117.096 60.6184 118.26 55.9917 119.761 51.445C126.275 31.7117 137.217 14.765 150.985 0.805023L151.189 0.605026L150.913 0.365051C150.367 -0.0216217 149.635 -0.114883 148.932 0.151779C147.973 0.525116 147.213 1.4317 146.507 2.20503C145.356 3.47169 144.217 4.75172 143.079 6.03172C135.264 14.8451 128.088 24.0717 122.559 34.9251C118.215 43.4584 114.556 52.5784 111.351 61.7917C111.248 62.0717 111.155 62.3517 111.056 62.645L111.044 62.6717L110.936 62.6317C109.105 61.9917 107.2 61.605 105.303 61.405C104.807 61.3517 104.307 61.3118 103.8 61.2851C103.293 61.3118 102.793 61.3517 102.297 61.405C100.4 61.605 98.4947 61.9917 96.664 62.6317L96.5573 62.6717L96.5453 62.645C96.444 62.3517 96.352 62.0717 96.2493 61.7917C93.0453 52.5784 89.384 43.4584 85.0413 34.9251C79.512 24.0717 72.336 14.8451 64.5213 6.03172C63.3827 4.75172 62.244 3.47169 61.0933 2.20503C60.3866 1.4317 59.6266 0.525116 58.668 0.151779C57.9653 -0.114883 57.2333 -0.0216217 56.6866 0.365051L56.4107 0.605026L56.6146 0.805023C70.3826 14.765 81.3253 31.7117 87.8387 51.445C89.34 55.9917 90.5026 60.6184 91.5506 65.2984C87.6506 68.1517 84.6187 72.6451 83.9747 77.8184C83.264 78.6184 82.612 79.5117 82.0493 80.4717C79.72 84.4717 79.912 89.2584 82.516 92.9251C81.3107 95.5784 80.228 98.2984 79.264 101.072C76.052 97.165 72.924 93.1784 70.0387 88.9251C67.0467 84.5117 64.2613 79.885 61.72 75.1117C61.5893 74.8583 61.4573 74.6184 61.3293 74.3651C60.4906 72.7784 59.6787 71.165 58.9 69.5384L58.876 69.4851C58.728 69.1918 58.588 68.8984 58.452 68.5917L58.28 68.6317C55.9707 69.0717 53.6627 69.5384 51.352 69.965L51.1053 70.005V70.0184C49.9427 70.2184 48.776 70.4184 47.6053 70.5917C42.3067 71.3784 36.9893 71.9651 31.656 72.3518C22.3107 73.0318 12.9453 73.1784 3.59199 72.7518C3.06133 72.7251 2.52933 72.6984 1.99867 72.6717C1.33467 72.645 0.668 72.605 0 72.565C0.332 72.6984 0.663999 72.8184 0.998665 72.9384C10.7 76.485 21.072 78.1517 31.196 78.5117C37.0613 78.725 42.9466 78.4317 48.776 77.645C50.7013 77.3917 52.6387 77.0984 54.5773 76.7518C60.7893 88.2851 68.1973 99.2051 77.0346 108.258C75.5 113.845 74.3773 119.592 73.5747 125.418C70.3747 125.032 67.1827 124.552 63.9973 123.885C59.164 122.885 54.3613 121.565 49.6467 119.938C49.4027 119.858 49.1627 119.778 48.92 119.698C47.3533 119.152 45.7986 118.565 44.2573 117.952L44.2133 117.938C43.9333 117.818 43.6493 117.712 43.3693 117.592L43.2626 117.752C41.808 119.818 40.3773 121.925 38.9146 123.992L38.756 124.218H38.752C38.012 125.258 37.2653 126.298 36.5013 127.312C33.0347 131.912 29.4307 136.378 25.7027 140.725C19.1587 148.325 12.2773 155.552 5.07865 162.338C4.68265 162.725 4.28265 163.098 3.88398 163.472C3.36798 163.952 2.85334 164.418 2.33734 164.898C2.65734 164.738 2.98 164.578 3.3 164.418C12.5893 159.685 21.28 153.058 29.0066 145.645C33.4893 141.352 37.6813 136.658 41.54 131.658C42.8186 130.005 44.0853 128.312 45.312 126.592C54.2293 129.578 63.4626 131.752 72.74 132.565C71.9213 141.258 71.7213 150.045 71.8813 158.658C71.9013 159.872 71.9333 161.112 71.976 162.338C67.8293 165.045 63.6387 167.632 59.264 169.872C54.792 172.178 50.1853 174.205 45.5 175.925C45.256 176.018 45.012 176.098 44.768 176.192C43.2093 176.756 41.64 177.278 40.0653 177.769L39.9893 177.793C39.7093 177.882 39.4347 177.969 39.1547 178.053L39.1466 178.249C38.9986 180.898 38.8827 183.552 38.724 186.196L38.704 186.48C38.6227 187.81 38.528 189.141 38.412 190.472C37.888 196.496 37.1813 202.497 36.3066 208.47C34.768 218.942 32.7586 229.318 30.2773 239.55C30.1373 240.118 29.9973 240.685 29.8573 241.252C29.6733 241.984 29.4893 242.714 29.3027 243.442C29.4893 243.102 29.6733 242.758 29.8573 242.414C35.1 232.514 38.8907 221.452 41.5 210.372C43.0107 203.948 44.0933 197.39 44.744 190.782C44.96 188.601 45.148 186.396 45.292 184.178C54.7053 180.658 63.9387 176.125 72.408 170.285C74.0707 192.337 80.004 215.582 98.0706 226.825C99.2173 227.54 100.416 228.184 101.639 228.746C102.265 229.038 102.905 229.31 103.548 229.558L103.8 229.654C104.26 229.482 104.719 229.294 105.171 229.098C105.435 228.986 105.697 228.866 105.961 228.746C107.184 228.184 108.383 227.54 109.529 226.825C127.596 215.582 133.529 192.337 135.192 170.285C143.661 176.125 152.895 180.658 162.308 184.178C162.452 186.396 162.64 188.601 162.856 190.782C163.507 197.39 164.589 203.948 166.1 210.372C168.709 221.452 172.5 232.514 177.743 242.414C177.927 242.758 178.111 243.102 178.297 243.442C178.111 242.714 177.927 241.984 177.743 241.252C177.603 240.685 177.463 240.118 177.323 239.55C174.841 229.318 172.832 218.942 171.295 208.47C170.419 202.497 169.712 196.496 169.188 190.472C169.072 189.141 168.976 187.81 168.896 186.48L168.877 186.196C168.717 183.552 168.601 180.898 168.453 178.249L168.445 178.053C168.165 177.969 167.889 177.882 167.611 177.793L167.535 177.769C165.96 177.278 164.389 176.756 162.832 176.192C162.588 176.098 162.344 176.018 162.101 175.925C157.415 174.205 152.808 172.178 148.336 169.872C143.961 167.632 139.771 165.045 135.623 162.338C135.667 161.112 135.699 159.872 135.719 158.658C135.879 150.045 135.679 141.258 134.86 132.565C144.137 131.752 153.371 129.578 162.288 126.592C163.515 128.312 164.781 130.005 166.06 131.658C169.92 136.658 174.111 141.352 178.593 145.645C186.32 153.058 195.011 159.685 204.3 164.418C204.619 164.578 204.943 164.738 205.263 164.898C204.747 164.418 204.232 163.952 203.716 163.472C203.317 163.098 202.917 162.725 202.521 162.338C195.321 155.552 188.441 148.325 181.897 140.725C178.169 136.378 174.567 131.912 171.099 127.312C170.335 126.298 169.588 125.258 168.849 124.218H168.845L168.685 123.992C167.223 121.925 165.792 119.818 164.337 117.752L164.231 117.592C163.951 117.712 163.667 117.818 163.387 117.938L163.343 117.952C161.801 118.565 160.247 119.152 158.68 119.698C158.436 119.778 158.197 119.858 157.953 119.938C153.239 121.565 148.436 122.885 143.603 123.885C140.417 124.552 137.225 125.032 134.025 125.418C133.223 119.592 132.099 113.845 130.565 108.258C139.403 99.2051 146.811 88.2851 153.023 76.7518C154.961 77.0984 156.899 77.3917 158.824 77.645Z" fill="#5D5B5B"/>
<path d="M103.517 88.6719C94.8192 88.6719 86.3565 87.152 86.7725 83.8853C87.5712 77.632 95.0286 72.4319 103.819 72.4319C116.471 72.4319 123.663 81.6186 121.399 84.952C119.754 87.3786 111.535 88.6719 103.517 88.6719Z" fill="#858686"/>
<path d="M103.801 100.539C101.263 100.406 98.7458 99.9924 96.2578 99.3658C91.9938 98.3124 86.3925 96.4458 83.4205 92.2991C83.2965 92.1258 83.1725 91.9391 83.0565 91.7658C82.5605 90.9791 82.1618 90.1257 81.8738 89.179C81.5738 88.1924 81.4365 87.2457 81.4365 86.3124C81.4379 83.859 82.4072 81.6324 83.8472 79.7124C83.9632 79.5524 84.0872 79.3924 84.2112 79.2457C84.4579 78.939 84.7165 78.6458 84.9845 78.3525C85.1752 78.1525 85.3699 77.9524 85.5699 77.7658C82.8845 86.1124 84.8672 95.6057 104.351 95.6057C121.193 95.6057 126.35 88.9124 125.085 81.8724C125.759 83.2457 126.163 84.7391 126.163 86.3258C126.163 87.1524 126.054 87.9924 125.818 88.8724H125.817C125.814 88.8857 125.811 88.8858 125.81 88.8991C125.808 88.8991 125.807 88.899 125.807 88.9124C125.803 88.9257 125.799 88.9391 125.795 88.9525C125.794 88.9525 125.792 88.9524 125.791 88.9658C125.788 88.9658 125.787 88.979 125.786 88.979C125.783 88.9924 125.782 88.9924 125.781 89.0057C125.778 89.0057 125.777 89.0191 125.775 89.0191C125.773 89.0325 125.77 89.0324 125.768 89.0457C125.767 89.0457 125.766 89.0591 125.765 89.0591C125.761 89.0724 125.758 89.0858 125.754 89.0858C125.753 89.0991 125.751 89.099 125.75 89.1124C125.747 89.1124 125.745 89.1258 125.742 89.1258C125.741 89.1391 125.739 89.1391 125.739 89.1391C125.735 89.1524 125.731 89.1657 125.727 89.179C125.439 90.1257 125.041 90.9791 124.545 91.7658C124.429 91.9391 124.305 92.1258 124.181 92.2991C121.209 96.4458 115.607 98.3124 111.343 99.3658C108.855 99.9924 106.338 100.406 103.801 100.539Z" fill="#686A6C"/>
<path d="M103.801 100.539C101.263 100.406 98.7458 99.9924 96.2578 99.3658C91.9938 98.3124 86.3925 96.4458 83.4205 92.2991C83.2965 92.1258 83.1725 91.9391 83.0565 91.7658C82.5605 90.9791 82.1618 90.1257 81.8738 89.179C81.5738 88.1924 81.4365 87.2457 81.4365 86.3124C81.4365 87.2457 81.5738 88.1924 81.8738 89.179C82.1618 90.1257 82.5605 90.9791 83.0565 91.7658C83.1725 91.9391 83.2965 92.1258 83.4205 92.2991C86.3925 96.4458 91.9938 98.3124 96.2578 99.3658C98.7458 99.9924 101.263 100.406 103.801 100.539C106.338 100.406 108.855 99.9924 111.343 99.3658C115.607 98.3124 121.209 96.4458 124.181 92.2991C124.305 92.1258 124.429 91.9391 124.545 91.7658C125.041 90.9791 125.439 90.1257 125.727 89.179C125.731 89.1657 125.735 89.1524 125.739 89.1391C125.735 89.1524 125.731 89.1657 125.727 89.179C125.439 90.1257 125.041 90.9791 124.545 91.7658C124.429 91.9391 124.305 92.1258 124.181 92.2991C121.209 96.4458 115.607 98.3124 111.343 99.3658C108.855 99.9924 106.338 100.406 103.801 100.539ZM125.742 89.1258C125.745 89.1258 125.747 89.1124 125.75 89.1124C125.747 89.1124 125.745 89.1258 125.742 89.1258ZM125.754 89.0858C125.758 89.0858 125.761 89.0724 125.765 89.0591C125.761 89.0724 125.758 89.0858 125.754 89.0858ZM125.768 89.0457C125.77 89.0324 125.773 89.0325 125.775 89.0191C125.773 89.0325 125.77 89.0324 125.768 89.0457ZM125.781 89.0057C125.782 88.9924 125.783 88.9924 125.786 88.979C125.783 88.9924 125.782 88.9924 125.781 89.0057ZM125.791 88.9658C125.792 88.9524 125.794 88.9525 125.795 88.9525C125.794 88.9525 125.792 88.9524 125.791 88.9658ZM125.807 88.9124C125.807 88.899 125.808 88.8991 125.81 88.8991C125.808 88.8991 125.807 88.899 125.807 88.9124ZM125.817 88.8724H125.818H125.817ZM84.2112 79.2457C84.4579 78.939 84.7165 78.6458 84.9845 78.3525C84.7165 78.6458 84.4579 78.939 84.2112 79.2457Z" fill="#373737"/>
<path d="M84.5664 77.1787C85.5811 72.8187 88.1384 69.0187 91.4344 66.4454C91.0464 67.4454 90.9624 68.5255 91.3544 69.5255C91.7264 70.4588 92.4451 71.1521 93.3077 71.6721C90.1717 72.8587 87.0357 74.6187 84.5664 77.1787Z" fill="#686A6C"/>
<path d="M123.033 77.1787C123.013 77.152 122.993 77.1387 122.973 77.112C122.969 77.112 122.965 77.1121 122.961 77.0988C122.945 77.0854 122.929 77.072 122.913 77.0454C122.909 77.0454 122.904 77.0454 122.899 77.0321C122.884 77.0188 122.868 77.0055 122.853 76.9921C122.848 76.9921 122.843 76.9787 122.839 76.9787C122.823 76.9654 122.807 76.9388 122.792 76.9255C122.787 76.9255 122.783 76.9254 122.779 76.912C122.761 76.8987 122.745 76.8854 122.729 76.8721C122.725 76.8587 122.721 76.8588 122.717 76.8588C122.7 76.8455 122.683 76.8187 122.664 76.8054C122.663 76.8054 122.66 76.8055 122.657 76.7921C122.553 76.6988 122.447 76.5921 122.341 76.4988C122.34 76.4988 122.34 76.4988 122.34 76.4988C122.32 76.4721 122.299 76.4588 122.279 76.4321C122.276 76.4321 122.275 76.4321 122.273 76.4321C122.253 76.4188 122.235 76.392 122.215 76.3787C122.212 76.3787 122.209 76.3787 122.208 76.3787C122.188 76.352 122.169 76.3388 122.149 76.3255C122.148 76.3121 122.145 76.312 122.144 76.312C122.124 76.2987 122.103 76.2721 122.083 76.2588C122.081 76.2588 122.081 76.2588 122.08 76.2588C121.993 76.1788 121.907 76.0988 121.82 76.0321C121.816 76.0188 121.813 76.0188 121.809 76.0188C121.792 76.0055 121.775 75.992 121.757 75.9787C121.751 75.9654 121.744 75.9655 121.737 75.9521C121.723 75.9388 121.709 75.9388 121.695 75.9255C121.687 75.9121 121.679 75.9121 121.669 75.8988C121.657 75.8854 121.644 75.8721 121.632 75.8721C121.623 75.8587 121.613 75.8454 121.604 75.8454C121.592 75.832 121.581 75.8188 121.571 75.8188C121.56 75.8055 121.548 75.7921 121.537 75.7921C121.528 75.7788 121.52 75.7788 121.511 75.7654C121.497 75.7521 121.485 75.7387 121.472 75.7387C121.467 75.7254 121.46 75.7254 121.455 75.712C119.42 74.0454 117.087 72.7787 114.733 71.8454L114.863 71.6988C116.069 70.2321 116.433 68.1788 116.013 66.3255C119.383 68.8988 122.003 72.752 123.033 77.1787Z" fill="#686A6C"/>
<path d="M122.974 77.1123C122.97 77.1123 122.966 77.1124 122.962 77.099C122.966 77.1124 122.97 77.1123 122.974 77.1123ZM122.914 77.0456C122.91 77.0456 122.904 77.0457 122.899 77.0324C122.904 77.0457 122.91 77.0456 122.914 77.0456ZM122.854 76.9924C122.848 76.9924 122.844 76.979 122.839 76.979C122.843 76.979 122.848 76.9924 122.854 76.9924ZM122.792 76.9257C122.787 76.9257 122.783 76.9256 122.779 76.9123C122.783 76.9256 122.787 76.9257 122.792 76.9257ZM122.73 76.8723C122.726 76.859 122.722 76.859 122.718 76.859C122.722 76.859 122.726 76.859 122.73 76.8723ZM122.664 76.8057C122.663 76.8057 122.66 76.8057 122.658 76.7924C122.66 76.8057 122.663 76.8057 122.664 76.8057ZM122.342 76.499C122.34 76.499 122.34 76.499 122.34 76.499C122.34 76.499 122.34 76.499 122.342 76.499ZM122.279 76.4324C122.276 76.4324 122.275 76.4324 122.274 76.4324C122.275 76.4324 122.276 76.4324 122.279 76.4324ZM122.215 76.379C122.212 76.379 122.211 76.379 122.208 76.379C122.21 76.379 122.212 76.379 122.215 76.379ZM122.15 76.3257C122.148 76.3124 122.146 76.3123 122.144 76.3123C122.146 76.3123 122.148 76.3124 122.15 76.3257ZM122.083 76.259C122.083 76.259 122.082 76.259 122.08 76.259C122.082 76.259 122.082 76.259 122.083 76.259ZM121.82 76.0324C121.816 76.019 121.814 76.0191 121.81 76.0191C121.814 76.0191 121.816 76.019 121.82 76.0324ZM121.758 75.979C121.751 75.9656 121.744 75.9657 121.738 75.9524C121.744 75.9657 121.751 75.9656 121.758 75.979ZM121.695 75.9257C121.687 75.9124 121.678 75.9124 121.67 75.899C121.679 75.9124 121.687 75.9124 121.695 75.9257ZM121.632 75.8723C121.623 75.859 121.614 75.8456 121.604 75.8456C121.614 75.8456 121.623 75.859 121.632 75.8723ZM121.571 75.8191C121.56 75.8057 121.548 75.7924 121.538 75.7924C121.548 75.7924 121.56 75.8057 121.571 75.8191ZM121.511 75.7657C121.498 75.7524 121.486 75.739 121.472 75.739C121.486 75.739 121.498 75.7524 121.511 75.7657ZM121.455 75.7123C119.419 74.0456 117.084 72.779 114.732 71.8456H114.734C117.087 72.779 119.42 74.0456 121.455 75.7123Z" fill="#373737"/>
<path d="M74.1199 99.6055L56.2732 73.4988L20.4492 74.8322L57.4719 71.0988L74.1199 99.6055Z" fill="#AFAFAD"/>
<path d="M24.1777 145.152L44.5537 120.246L71.9884 127.446L45.3537 122.646L24.1777 145.152Z" fill="#AFAFAD"/>
<path d="M36.8291 217.069L41.2238 178.847C41.2238 178.847 65.1958 168.992 66.9278 168.192L43.6211 181.244L36.8291 217.069Z" fill="#AFAFAD"/>
<path d="M132.052 99.6055L135.613 93.5121C136.405 92.3788 137.18 91.2321 137.936 90.0721C141.041 85.3388 143.829 80.3922 146.322 75.2322C146.385 75.1122 146.446 74.9789 146.508 74.8589L148.7 71.0988L185.724 74.8322L149.898 73.4988L132.052 99.6055Z" fill="#AFAFAD"/>
<path d="M135.613 93.5117L146.508 74.8585C146.447 74.9785 146.385 75.1118 146.323 75.2318C143.829 80.3918 141.041 85.3384 137.936 90.0717C137.18 91.2317 136.405 92.3784 135.613 93.5117Z" fill="#8B8C8B"/>
<path d="M181.995 145.152L160.82 122.646L134.293 127.419C134.292 127.419 134.292 127.419 134.292 127.406L145.396 124.499C146.1 124.326 146.803 124.139 147.501 123.952L161.619 120.246L181.995 145.152Z" fill="#AFAFAD"/>
<path d="M134.185 127.445L134.293 127.405C134.293 127.419 134.293 127.419 134.294 127.419L134.185 127.445ZM145.397 124.499L147.502 123.952C146.803 124.139 146.101 124.325 145.397 124.499Z" fill="#8B8C8B"/>
<path d="M169.343 217.069L162.551 181.244L139.244 168.192C140.976 168.992 164.948 178.847 164.948 178.847L169.343 217.069Z" fill="#AFAFAD"/>
<path d="M105.802 227.134C106.338 226.882 106.862 226.61 107.384 226.322C107.407 226.31 107.431 226.296 107.454 226.283C107.431 226.296 107.407 226.31 107.384 226.322C106.862 226.61 106.338 226.882 105.802 227.134ZM127.534 201.299C127.535 201.298 127.535 201.294 127.536 201.293C127.535 201.295 127.535 201.298 127.534 201.299ZM127.575 201.195C127.579 201.184 127.583 201.176 127.587 201.166C127.583 201.176 127.579 201.184 127.575 201.195ZM127.603 201.126C127.614 201.101 127.623 201.076 127.632 201.051C131.588 191.103 133.235 180.251 133.926 169.393C133.954 168.966 133.978 168.539 134.006 168.112C134.106 166.339 134.182 164.566 134.24 162.793C134.256 162.353 134.268 161.912 134.286 161.472C134.294 161.152 134.302 160.832 134.31 160.512C134.374 157.979 134.408 155.446 134.408 152.899C134.408 155.446 134.374 157.979 134.31 160.512C134.302 160.832 134.294 161.152 134.286 161.472C134.268 161.912 134.256 162.353 134.24 162.793C134.182 164.566 134.106 166.339 134.006 168.112C133.978 168.539 133.954 168.966 133.926 169.393C133.235 180.251 131.588 191.103 127.632 201.051C127.623 201.076 127.614 201.101 127.603 201.126Z" fill="#CDCCCA"/>
<path d="M105.802 227.134C106.586 224.68 107.316 222.211 108.015 219.734C109.087 215.928 110.043 212.077 110.878 208.191C110.879 208.187 110.879 208.183 110.88 208.179C110.886 208.154 110.891 208.128 110.896 208.102C111.172 206.819 111.435 205.533 111.684 204.242C112.382 211.595 113.683 214.749 116.104 214.749C116.467 214.749 116.854 214.678 117.268 214.54C120.466 213.474 135.915 180.979 131.92 145.019C127.924 109.059 127.394 100.006 120.732 99.4725C119.379 99.3658 118.032 99.3259 116.748 99.3259C116.436 99.3259 116.128 99.3259 115.826 99.3259C119.144 98.1259 122.362 96.3525 124.672 93.4725C125.811 96.1925 126.822 98.9791 127.728 101.806C127.856 102.219 127.984 102.632 128.112 103.046C128.64 104.752 129.123 106.499 129.57 108.246C129.642 108.512 129.714 108.779 129.782 109.046C130.892 113.486 131.76 118.006 132.411 122.579C132.551 123.566 132.687 124.566 132.811 125.553C132.867 125.979 132.915 126.392 132.963 126.806C133.15 128.339 133.31 129.886 133.454 131.419C133.494 131.846 133.534 132.259 133.57 132.672C134.162 139.392 134.408 146.139 134.408 152.899C134.408 155.446 134.374 157.979 134.31 160.512C134.302 160.832 134.294 161.152 134.286 161.472C134.268 161.912 134.256 162.353 134.24 162.793C134.182 164.566 134.106 166.339 134.006 168.112C133.978 168.539 133.954 168.966 133.926 169.393C133.235 180.251 131.588 191.103 127.632 201.051C127.623 201.076 127.614 201.101 127.603 201.126C127.598 201.139 127.592 201.152 127.587 201.166C127.583 201.176 127.579 201.184 127.575 201.195C127.563 201.227 127.55 201.261 127.536 201.293C127.535 201.294 127.535 201.298 127.534 201.299C123.354 211.688 116.646 221.196 107.454 226.283C107.431 226.296 107.407 226.31 107.384 226.322C106.862 226.61 106.338 226.882 105.802 227.134Z" fill="#5C5D5F"/>
<path d="M105.802 227.134C106.338 226.882 106.862 226.61 107.384 226.322C107.407 226.31 107.431 226.296 107.454 226.283C116.646 221.196 123.354 211.688 127.534 201.299C127.535 201.298 127.535 201.295 127.536 201.293C127.55 201.261 127.563 201.227 127.575 201.195C127.579 201.184 127.583 201.176 127.587 201.166C127.592 201.152 127.598 201.139 127.603 201.126C127.614 201.101 127.623 201.076 127.632 201.051C131.588 191.103 133.235 180.251 133.926 169.393C133.954 168.966 133.978 168.539 134.006 168.112C134.106 166.339 134.182 164.566 134.24 162.793C134.256 162.353 134.268 161.912 134.286 161.472C134.294 161.152 134.302 160.832 134.31 160.512C134.374 157.979 134.408 155.446 134.408 152.899C134.408 155.446 134.374 157.979 134.31 160.512C134.302 160.832 134.294 161.152 134.286 161.472C134.268 161.912 134.256 162.353 134.24 162.793C134.182 164.566 134.106 166.339 134.006 168.112C133.978 168.539 133.954 168.966 133.926 169.393C133.235 180.251 131.588 191.103 127.632 201.051C123.45 211.563 116.686 221.204 107.384 226.322C106.862 226.61 106.338 226.882 105.802 227.134ZM110.878 208.191C110.879 208.187 110.879 208.183 110.88 208.179C110.879 208.183 110.879 208.187 110.878 208.191ZM110.896 208.102C111.172 206.816 111.435 205.529 111.683 204.237C111.683 204.238 111.683 204.239 111.684 204.242C111.435 205.533 111.172 206.819 110.896 208.102ZM115.819 99.3259C119.139 98.1392 122.359 96.3525 124.672 93.4725C122.362 96.3525 119.144 98.1259 115.826 99.3259C115.823 99.3259 115.82 99.3259 115.819 99.3259Z" fill="#313030"/>
<path d="M103.8 227.996C103.179 227.756 102.562 227.492 101.952 227.207C101.555 227.019 101.159 226.823 100.767 226.617C100.584 226.521 100.4 226.421 100.216 226.321C90.9151 221.204 84.151 211.563 79.9684 201.051C76.0124 191.103 74.3657 180.251 73.6751 169.392C73.6471 168.965 73.6231 168.539 73.5951 168.112C73.4951 166.339 73.4204 164.565 73.359 162.792C73.343 162.352 73.331 161.912 73.315 161.472C73.307 161.152 73.299 160.832 73.291 160.512C73.227 157.979 73.1924 155.445 73.1924 152.899C73.1924 146.139 73.4391 139.392 74.0311 132.672C74.0671 132.259 74.1071 131.845 74.1471 131.419C74.2911 129.885 74.4497 128.339 74.6377 126.805C74.6857 126.392 74.7337 125.979 74.7897 125.552C74.9137 124.565 75.0497 123.565 75.1897 122.579C75.8404 118.005 76.7084 113.485 77.8191 109.045C77.8871 108.779 77.9577 108.512 78.0297 108.245C78.4777 106.499 78.9604 104.752 79.4884 103.045C79.6164 102.632 79.7444 102.219 79.8724 101.805C80.7791 98.9787 81.7897 96.192 82.9284 93.472C85.6097 96.8053 89.5084 98.6721 93.3724 99.8587C93.6404 99.9387 93.9084 100.019 94.1751 100.099C90.8911 99.8587 88.7724 99.4987 87.2697 99.4987C85.8777 99.4987 85.015 99.8053 84.243 100.805C82.3777 103.205 73.855 133.832 75.4537 163.925C77.051 194.027 94.095 222.793 101.823 224.392C102.052 224.44 102.276 224.463 102.498 224.463C103.783 224.463 104.919 223.68 105.918 222.395C105.535 223.676 105.136 224.955 104.718 226.221C104.536 226.767 104.352 227.311 104.164 227.852C104.044 227.9 103.924 227.948 103.8 227.996Z" fill="#5C5D5F"/>
<path d="M103.8 227.996C103.179 227.757 102.563 227.492 101.952 227.207C102.562 227.492 103.179 227.756 103.8 227.996C103.924 227.948 104.044 227.9 104.164 227.852C104.352 227.311 104.536 226.767 104.718 226.221C104.538 226.767 104.352 227.311 104.164 227.852C104.044 227.9 103.924 227.948 103.8 227.996ZM100.216 226.321C90.9151 221.204 84.151 211.563 79.9684 201.051C76.0124 191.103 74.3657 180.251 73.6751 169.392C73.6471 168.965 73.6231 168.539 73.5951 168.112C73.4951 166.339 73.4204 164.565 73.359 162.792C73.343 162.352 73.331 161.912 73.315 161.472C73.307 161.152 73.299 160.832 73.291 160.512C73.227 157.979 73.1924 155.445 73.1924 152.899C73.1924 155.445 73.227 157.979 73.291 160.512C73.299 160.832 73.307 161.152 73.315 161.472C73.331 161.912 73.343 162.352 73.359 162.792C73.4204 164.565 73.4951 166.339 73.5951 168.112C73.6231 168.539 73.6471 168.965 73.6751 169.392C74.3657 180.251 76.0124 191.103 79.9684 201.051C84.151 211.563 90.9151 221.204 100.216 226.321Z" fill="#313030"/>
<path d="M103.655 217.472C100.888 217.472 82.6998 110.112 98.3585 107.725C98.3852 107.725 98.4132 107.725 98.4412 107.725C103.211 107.725 108.225 130.538 110.344 159.405C111.887 180.414 106.349 216.669 103.685 217.468C103.676 217.47 103.665 217.472 103.655 217.472Z" fill="#858686"/>
</svg>
