<svg width="234" height="213" viewBox="0 0 234 213" fill="none" xmlns="http://www.w3.org/2000/svg">
<path d="M101.74 201.689C100.154 201.116 98.5997 200.436 97.093 199.662C96.5677 199.396 96.0517 199.116 95.5383 198.822C86.6023 184.956 78.825 170.476 74.1077 154.049C69.093 136.596 67.097 117.823 68.741 99.5425C69.6303 89.6492 71.8917 80.0358 76.437 71.5025C76.6797 71.1958 76.9344 70.8892 77.1917 70.5959C77.3611 70.3958 77.533 70.2092 77.705 70.0092C78.8677 68.7292 80.1117 67.5292 81.4397 66.4625C78.609 71.7558 76.589 77.4625 75.2317 83.4092C72.4864 95.3692 72.421 108.236 73.7597 120.383C75.905 139.836 81.0397 158.863 88.6184 176.489C90.7157 181.369 92.9717 186.302 95.469 191.062C96.881 193.756 98.373 196.383 99.9544 198.929C100.514 199.822 101.085 200.702 101.669 201.583L101.74 201.689Z" fill="#514E4F"/>
<path d="M109.99 203.648C109.614 203.608 109.238 203.555 108.864 203.488C108.793 203.355 108.722 203.222 108.652 203.075C108.55 202.889 108.444 202.689 108.338 202.488C106.496 198.968 104.514 195.555 102.866 191.901C100.874 187.475 99.0104 182.968 97.2651 178.421C93.7691 169.302 91.0411 159.835 89.0998 150.168C85.1104 130.315 84.5011 109.515 87.4317 89.435C88.5557 81.755 90.2078 74.275 92.2038 66.875C92.6851 65.075 93.1864 63.2883 93.7064 61.5016L93.7771 61.2616C93.9931 61.2483 94.2037 61.235 94.4157 61.2216C94.9677 61.2083 95.5157 61.2083 96.0597 61.2483C96.1891 61.2483 96.3184 61.2483 96.4437 61.2616H96.4464C97.5424 61.3416 98.6304 61.515 99.6998 61.7816C99.2691 63.1416 98.8544 64.5283 98.4597 65.915C88.3984 100.968 89.3157 139.915 99.2024 174.835C100.768 180.355 102.608 185.821 104.674 191.168C106.201 195.128 107.857 199.022 109.614 202.835C109.713 203.061 109.814 203.275 109.92 203.488L109.99 203.648Z" fill="#514E4F"/>
<path d="M116.027 203.675V203.916C115.283 203.942 114.539 203.942 113.795 203.929L113.718 203.689L113.698 203.622C112.086 198.489 110.535 193.356 109.15 188.169C108.28 184.942 107.474 181.675 106.762 178.395C104.703 168.969 103.223 159.435 102.044 149.862C99.7508 131.249 99.2349 112.342 100.44 93.6088C101.039 84.3821 102.218 75.2355 103.587 66.0888C103.724 65.1821 103.862 64.2888 103.999 63.3821C104.97 63.8755 105.904 64.4755 106.786 65.1421C107.079 65.3555 107.368 65.5955 107.65 65.8355L107.795 65.9688L107.983 66.1421L108.147 66.2888L108.206 66.3555L108.195 66.4088C108.171 66.5421 108.147 66.6755 108.124 66.8088C105.243 83.1155 104.002 99.9555 103.931 116.515C103.85 135.649 105.599 154.689 109.063 173.422C109.811 177.462 110.606 181.489 111.479 185.502C112.638 190.862 113.926 196.195 115.394 201.449C115.6 202.195 115.811 202.942 116.027 203.675Z" fill="#514E4F"/>
<path d="M131.045 149.863C129.868 159.436 128.388 168.97 126.329 178.396C125.789 180.876 125.197 183.343 124.568 185.796C123.029 191.783 121.252 197.703 119.393 203.623L119.373 203.69L119.295 203.929C118.544 203.943 117.792 203.943 117.044 203.903V203.756C117.264 203.01 117.475 202.263 117.683 201.503C119.448 195.196 120.951 188.783 122.285 182.329C122.9 179.369 123.48 176.396 124.028 173.423C127.492 154.69 129.241 135.65 129.16 116.516C129.089 99.8096 127.825 82.7963 124.885 66.3429L125.108 66.1429L125.175 66.0763L125.441 65.8363C126.111 65.2629 126.811 64.743 127.543 64.2763C128.048 63.9429 128.564 63.6496 129.092 63.3829C129.207 64.1296 129.324 64.8763 129.433 65.6363C130.835 74.9296 132.044 84.2229 132.651 93.6096C133.856 112.343 133.34 131.25 131.045 149.863Z" fill="#514E4F"/>
<path d="M163.531 132.436C162.532 139.783 161.003 147.023 158.983 154.049C157.076 160.689 154.673 167.009 151.889 173.102H151.887C147.788 182.076 142.875 190.556 137.552 198.822C137.039 199.116 136.519 199.396 135.997 199.662C134.491 200.436 132.936 201.116 131.351 201.689L131.421 201.583C132.005 200.702 132.576 199.822 133.136 198.929C135.469 195.196 137.595 191.249 139.568 187.223C141.309 183.676 142.935 180.076 144.472 176.489C152.051 158.863 157.185 139.836 159.331 120.383C160.588 108.996 160.607 96.9825 158.344 85.6758C156.997 78.9292 154.841 72.4225 151.651 66.4625C152.977 67.5292 154.223 68.7292 155.385 70.0092C155.557 70.2092 155.729 70.3958 155.899 70.5959C156.156 70.8892 156.411 71.1958 156.653 71.5025C161.199 80.0358 163.457 89.6492 164.349 99.5425C165.332 110.463 165.015 121.556 163.531 132.436Z" fill="#514E4F"/>
<path d="M143.99 150.168C142.049 159.835 139.321 169.302 135.825 178.421C134.329 182.315 132.745 186.195 131.065 189.995C130.788 190.635 130.509 191.261 130.224 191.901C128.576 195.555 126.596 198.968 124.752 202.488C124.646 202.689 124.54 202.889 124.438 203.075C124.368 203.222 124.297 203.355 124.226 203.488C123.852 203.555 123.476 203.608 123.1 203.648L123.17 203.488C123.276 203.275 123.377 203.061 123.476 202.835C125.492 198.475 127.362 194.008 129.069 189.448C130.873 184.648 132.49 179.755 133.888 174.835C143.798 139.835 144.694 100.795 134.565 65.675C134.189 64.3683 133.797 63.0616 133.39 61.7816C134.46 61.515 135.548 61.3416 136.644 61.2616H136.648C136.772 61.2483 136.901 61.2483 137.03 61.2483C137.574 61.2083 138.122 61.2083 138.674 61.2216C138.886 61.235 139.097 61.2483 139.313 61.2616L139.384 61.5016C139.908 63.2883 140.413 65.0883 140.894 66.8883C142.886 74.2883 144.538 81.7683 145.658 89.435C148.59 109.515 147.978 130.315 143.99 150.168Z" fill="#514E4F"/>
<path d="M132.036 37.9824L131.763 38.0357C130.501 38.2491 129.241 37.1931 129.351 35.6944C129.468 34.0304 131.148 33.0091 132.513 33.3144C133.825 33.6051 134.792 35.1744 134.272 36.6424C133.927 37.6224 132.905 38.1958 132.036 37.9824ZM101.324 38.0357L101.051 37.9824C100.185 38.1958 99.16 37.6224 98.816 36.6424C98.2986 35.1744 99.2613 33.6051 100.577 33.3144C101.939 33.0091 103.619 34.0304 103.74 35.6944C103.845 37.1931 102.589 38.2491 101.324 38.0357ZM138.675 36.6464L138.327 36.2931C137.9 35.8717 137.457 35.4718 137 35.0998C136.651 34.8104 136.291 34.5397 135.924 34.2851L135.595 34.0584C135.348 33.8944 135.105 33.7411 134.855 33.5931C129.16 30.1397 122.853 29.9797 116.547 29.8744C110.899 29.9677 105.247 30.1091 100.033 32.6184C99.176 33.0291 98.3293 33.5064 97.496 34.0584L97.168 34.2851C96.8 34.5397 96.44 34.8104 96.0906 35.0998C95.6333 35.4718 95.1907 35.8717 94.764 36.2931L94.416 36.6464C91.7613 39.4091 89.7853 43.0758 89.084 46.9824C89.468 46.6758 89.8586 46.3958 90.2626 46.1158C90.8293 45.7158 91.4133 45.3291 92.0079 44.9691C91.4919 43.7424 92.1693 42.1824 93.2533 41.6357C93.5507 41.4891 93.8679 41.4224 94.1773 41.4224C95.0146 41.4224 95.836 41.9157 96.3227 42.6891C96.56 42.5824 96.7999 42.4758 97.0386 42.3824C100.169 41.0624 103.508 40.1557 106.965 39.7024C110.045 39.3024 113.357 39.1558 116.547 39.5158C119.737 39.1558 123.049 39.3024 126.125 39.7024C128.744 40.0491 131.297 40.6491 133.739 41.4891C134.768 41.8491 135.779 42.2491 136.765 42.6891H136.769C137.439 41.6224 138.737 41.0891 139.837 41.6357C140.921 42.1824 141.599 43.7424 141.083 44.9691C141.677 45.3291 142.257 45.7158 142.828 46.1158C143.231 46.3958 143.623 46.6758 144.007 46.9824C143.305 43.0758 141.329 39.4091 138.675 36.6464Z" fill="#9A9899"/>
<path d="M144.828 55.8629C143.975 56.6763 142.589 56.5429 141.524 55.8496C139.916 54.8229 137.963 52.7029 138.061 50.4496C138.155 48.2096 140.359 47.3829 142.007 48.1563C143.717 48.9563 145.299 51.2763 145.697 53.2763C145.924 54.4363 145.513 55.3829 144.828 55.8629ZM132.893 58.2362C132.647 58.9029 132.149 59.3696 131.575 59.6229C131.285 59.9296 130.92 60.1696 130.513 60.2629C130.024 60.3829 129.543 60.3296 129.12 60.1296C128.357 59.7963 127.793 58.9962 127.761 57.9696C127.704 56.2096 129.073 54.9162 130.584 54.9696C131.923 55.0229 133.308 56.3029 133.007 57.8496C132.98 57.9696 132.944 58.1029 132.893 58.2362ZM102.577 60.2629C102.205 60.1696 101.876 59.9696 101.607 59.7163L101.516 59.6229C100.937 59.3696 100.444 58.9029 100.197 58.2362C99.5467 56.5296 101.051 55.0229 102.503 54.9696C104.013 54.9162 105.384 56.2096 105.329 57.9696C105.289 59.2496 104.42 60.1696 103.375 60.3029C103.117 60.3429 102.847 60.3296 102.577 60.2629ZM91.5654 55.8496C90.4974 56.5429 89.116 56.6763 88.2627 55.8629C87.5734 55.3829 87.1667 54.4363 87.3934 53.2763C87.792 51.2763 89.3747 48.9563 91.084 48.1563C92.228 47.6229 93.6441 47.8496 94.4307 48.8096C94.7801 49.2096 95.0027 49.7696 95.0307 50.4496C95.0774 51.5029 94.6734 52.5163 94.0707 53.4096C93.3787 54.4363 92.4227 55.3029 91.5654 55.8496ZM155.185 67.9429C154.223 60.8629 150.485 54.1429 144.676 49.1829C144.531 49.0496 144.383 48.9296 144.233 48.8096C143.713 48.3696 143.172 47.9563 142.624 47.5563C140.264 45.8496 137.611 44.4762 134.8 43.4362C132.295 42.5029 129.664 41.8229 127.003 41.3963C125.559 41.1696 124.129 41.0496 122.712 41.0229C120.641 40.9563 118.595 41.0763 116.547 41.2896C114.496 41.0763 112.449 40.9563 110.379 41.0229C108.961 41.0496 107.533 41.1696 106.088 41.3963C103.637 41.7963 101.211 42.3963 98.8854 43.2096C95.852 44.2896 92.9907 45.7296 90.4667 47.5563C89.9187 47.9563 89.3774 48.3696 88.8574 48.8096C88.708 48.9296 88.56 49.0496 88.4147 49.1829C82.6067 54.1429 78.868 60.8629 77.9053 67.9429L77.9014 67.9829C78.8134 67.0896 79.784 66.2496 80.8133 65.4629C81.1493 63.5296 81.7013 61.5163 83.436 60.6229C84.7507 59.9429 86.352 60.4629 87.0133 61.9296C88.9787 61.1563 91.0107 60.6763 93.088 60.5163L93.3867 60.4896H93.4014C93.6054 60.4763 93.808 60.4629 94.012 60.4629C94.8267 60.4363 95.6494 60.4629 96.4707 60.5296L96.8147 60.5696C97.316 60.6229 97.8174 60.6896 98.3214 60.7963C98.8507 60.8896 99.3747 61.0096 99.896 61.1563C100.021 61.1829 100.147 61.2229 100.276 61.2496C101.352 61.5696 102.409 61.9696 103.427 62.4629L103.685 62.5963L103.853 62.6896L104.084 62.8096C104.551 63.0496 105.004 63.3163 105.455 63.6096L105.517 63.6496C106.053 63.9963 106.577 64.3563 107.083 64.7563C107.348 64.9563 107.607 65.1696 107.857 65.3963L108.191 65.6896L108.355 65.8496C108.5 65.9696 108.64 66.1029 108.781 66.2362C109.083 66.5296 109.368 66.8363 109.643 67.1563L109.865 67.4229C110.015 67.5829 110.159 67.7563 110.3 67.9429L110.339 67.9829C113.107 71.3963 115.236 75.5029 116.265 79.7829C116.301 79.9163 116.328 80.0363 116.356 80.1562L116.431 79.8629L116.469 79.7163C116.532 79.4496 116.605 79.1829 116.68 78.9029C116.739 78.7162 116.791 78.5163 116.852 78.3296C118.015 74.5696 120.012 71.0096 122.528 67.9829L122.568 67.9429C122.712 67.7563 122.861 67.5829 123.009 67.4229L123.24 67.1563C123.523 66.8363 123.82 66.5296 124.129 66.2362C124.269 66.1029 124.415 65.9696 124.56 65.8496L124.732 65.6896L125.072 65.3963C125.852 64.7296 126.677 64.1429 127.539 63.6096L127.269 63.8496C127.828 63.4763 128.412 63.1296 129.007 62.8096L129.237 62.6896L129.405 62.5963L129.664 62.4629C130.681 61.9696 131.739 61.5696 132.815 61.2496C132.944 61.2229 133.069 61.1829 133.195 61.1563C133.716 61.0096 134.24 60.8896 134.768 60.7963C135.273 60.6896 135.775 60.6229 136.276 60.5696L136.62 60.5296C137.443 60.4629 138.264 60.4363 139.079 60.4629C139.281 60.4629 139.485 60.4763 139.689 60.4896H139.704L140.003 60.5163C142.08 60.6763 144.112 61.1563 146.077 61.9296C146.739 60.4629 148.34 59.9429 149.655 60.6229C151.389 61.5163 151.941 63.5296 152.277 65.4629C153.307 66.2496 154.277 67.0896 155.189 67.9829L155.185 67.9429Z" fill="#9A9899"/>
<path d="M138.905 35.5566C146.464 25.838 151.826 14.538 154.618 1.93664C148.758 5.61264 145.806 13.1993 143.525 19.966C142.342 23.47 141.168 26.9966 139.602 30.3126C139.024 31.5406 138.346 32.9113 137.556 34.2153C138.025 34.638 138.476 35.0833 138.905 35.5566Z" fill="#9A9899"/>
<path d="M95.5357 34.2153C94.745 32.9113 94.0677 31.5406 93.4877 30.3126C91.9224 26.9966 90.7477 23.47 89.565 19.966C87.2837 13.1993 84.3317 5.61264 78.4717 1.93664C81.2623 14.538 86.6264 25.838 94.185 35.5566C94.6144 35.0833 95.065 34.638 95.5357 34.2153Z" fill="#9A9899"/>
<path d="M28.0989 34.3913C32.9962 38.3419 38.2496 41.7419 43.7483 44.5153C44.6256 44.9686 45.5056 45.3953 46.3989 45.8086C46.4536 45.5686 46.5042 45.3419 46.5669 45.1019C46.9709 43.3953 47.4669 41.5686 48.4109 40.1019C43.0789 37.1659 37.9709 33.6553 32.9522 30.1433C31.6456 29.2313 30.3456 28.3126 29.0349 27.4033C27.5629 26.3819 25.6523 24.9259 23.8443 25.6966C19.0576 27.7486 26.6122 33.1886 28.0989 34.3913Z" fill="#9A9899"/>
<path d="M47.1975 46.1821C47.1308 46.4354 47.0642 46.6888 47.0015 46.9421C46.3988 49.3288 45.8708 51.7554 45.2908 54.1288C44.7042 56.5421 44.1162 58.9288 43.5215 61.3288C44.1055 61.6221 44.6615 62.0088 45.2015 62.3688C46.3082 63.1154 47.4042 63.8888 48.5002 64.6621C49.2882 62.3688 50.0855 60.1021 50.8722 57.8221C51.8322 55.0621 52.7948 52.3021 53.7495 49.5288C53.8202 49.3288 53.8908 49.1288 53.9615 48.9288C54.1055 48.5021 54.2508 48.0888 54.3962 47.6754C54.7988 46.5021 55.3308 45.0488 55.5508 43.5954C55.6055 43.2754 55.6361 42.9421 55.6521 42.6088C55.6908 41.6488 55.5468 40.7288 55.0802 39.9288C54.0748 38.2088 52.0548 38.3021 50.6188 39.2621C50.3601 39.4354 50.1255 39.6354 49.9055 39.8621C49.6868 40.0888 49.4828 40.3288 49.3028 40.5954C48.5948 41.5954 48.1322 42.8488 47.7842 44.0488C47.5762 44.7554 47.3855 45.4621 47.1975 46.1821Z" fill="#9A9899"/>
<path d="M49.1024 66.2224C48.7971 66.0091 48.4891 65.7957 48.1824 65.5824C47.2238 64.9024 46.2691 64.2357 45.3104 63.5691C44.6998 63.1424 44.0144 62.6491 43.2944 62.2624C43.1184 62.1691 42.9384 62.0757 42.7544 62.0091C41.8971 61.6357 40.9957 61.4891 40.1197 61.8624C36.9877 63.1957 39.1331 65.9957 41.4078 68.1024C41.5251 68.2091 41.6464 68.3157 41.7678 68.4224C42.8558 69.3957 43.9118 70.1824 44.3744 70.5557C44.9424 71.0091 45.5131 71.4624 46.0891 71.9024C46.3397 72.1024 46.5864 72.2891 46.8371 72.4757C51.0211 75.6224 55.4357 78.3691 60.0237 80.6891C62.6624 82.0224 65.3518 83.2224 68.0838 84.2891C68.7104 82.4891 69.4184 80.7424 70.2131 79.0624C62.8544 75.7291 55.9571 71.0091 49.2277 66.3024L49.1024 66.2224Z" fill="#9A9899"/>
<path d="M186.692 45.8086C187.584 45.3953 188.465 44.9686 189.342 44.5153C194.841 41.7419 200.094 38.3419 204.992 34.3913C206.478 33.1886 214.033 27.7486 209.246 25.6966C207.438 24.9259 205.528 26.3819 204.056 27.4033C202.745 28.3126 201.445 29.2313 200.137 30.1433C195.12 33.6553 190.012 37.1659 184.68 40.1019C185.624 41.5686 186.121 43.3953 186.524 45.1019C186.586 45.3419 186.637 45.5686 186.692 45.8086Z" fill="#9A9899"/>
<path d="M177.54 43.5954C177.76 45.0488 178.292 46.5021 178.695 47.6754C178.84 48.0888 178.985 48.5021 179.129 48.9288C179.2 49.1288 179.271 49.3288 179.341 49.5288C180.296 52.3021 181.259 55.0621 182.219 57.8221C183.005 60.1021 183.804 62.3688 184.591 64.6621C185.687 63.8888 186.783 63.1154 187.891 62.3688C188.431 62.0088 188.987 61.6221 189.569 61.3288C188.975 58.9288 188.387 56.5421 187.8 54.1288C187.221 51.7554 186.692 49.3288 186.089 46.9421C186.027 46.6888 185.96 46.4354 185.893 46.1821C185.705 45.4621 185.515 44.7554 185.307 44.0488C184.959 42.8488 184.496 41.5954 183.788 40.5954C183.608 40.3288 183.404 40.0888 183.185 39.8621C182.965 39.6354 182.731 39.4354 182.472 39.2621C181.036 38.3021 179.016 38.2088 178.011 39.9288C177.544 40.7288 177.4 41.6488 177.439 42.6088C177.455 42.9421 177.485 43.2754 177.54 43.5954Z" fill="#9A9899"/>
<path d="M186.253 72.4757C186.504 72.2891 186.75 72.1024 187.001 71.9024C187.577 71.4624 188.148 71.0091 188.716 70.5557C189.177 70.1824 190.234 69.3957 191.322 68.4224C191.444 68.3157 191.565 68.2091 191.682 68.1024C193.957 65.9957 196.102 63.1957 192.97 61.8624C192.093 61.4891 191.193 61.6357 190.336 62.0091C190.152 62.0757 189.972 62.1691 189.796 62.2624C189.076 62.6491 188.39 63.1424 187.78 63.5691C186.821 64.2357 185.866 64.9024 184.906 65.5824C184.602 65.7957 184.292 66.0091 183.988 66.2224L183.861 66.3024C177.133 71.0091 170.236 75.7291 162.877 79.0624C163.672 80.7424 164.38 82.4891 165.006 84.2891C167.738 83.2224 170.428 82.0224 173.066 80.6891C177.653 78.3691 182.069 75.6224 186.253 72.4757Z" fill="#9A9899"/>
<path d="M198.338 111.102C199.238 110.902 200.068 110.475 200.624 109.635C202.624 106.622 199.476 105.555 196.552 105.155C196.4 105.142 196.243 105.115 196.095 105.102C194.714 104.942 193.44 104.902 192.87 104.875C192.176 104.822 191.476 104.795 190.775 104.769C190.474 104.755 190.176 104.742 189.875 104.729C184.84 104.609 179.795 104.942 174.816 105.755C173.012 106.035 171.211 106.382 169.43 106.795C169.496 107.542 169.559 108.275 169.622 109.009C169.724 110.249 169.814 111.489 169.896 112.729C176.794 111.595 183.859 111.449 190.811 111.382L190.959 111.369C191.319 111.369 191.683 111.369 192.043 111.369C193.171 111.355 194.302 111.342 195.43 111.329C196.15 111.315 196.963 111.329 197.759 111.209C197.954 111.182 198.146 111.155 198.338 111.102Z" fill="#9A9899"/>
<path d="M195.041 128.249C195.076 128.462 195.116 128.675 195.155 128.889C195.233 129.329 195.308 129.769 195.389 130.195C195.609 131.435 195.86 132.982 196.368 134.342C196.479 134.649 196.611 134.942 196.756 135.222C197.179 136.062 197.747 136.755 198.521 137.142C200.2 137.995 201.852 136.702 202.604 135.022C202.741 134.715 202.843 134.409 202.917 134.089C203 133.769 203.051 133.449 203.077 133.115C203.195 131.835 202.98 130.502 202.701 129.275C202.537 128.555 202.361 127.849 202.173 127.129C202.111 126.875 202.044 126.622 201.969 126.369C201.34 123.995 200.624 121.635 199.969 119.275C199.312 116.889 198.659 114.515 198.008 112.129C197.375 112.235 196.725 112.262 196.107 112.275C194.807 112.315 193.511 112.315 192.219 112.329C192.649 114.729 193.065 117.129 193.496 119.529C194.012 122.435 194.521 125.342 195.041 128.249Z" fill="#9A9899"/>
<path d="M223.933 125.569C217.913 125.182 211.845 125.489 205.88 126.449C204.929 126.596 203.973 126.769 203.026 126.956C203.093 127.182 203.16 127.409 203.222 127.649C203.7 129.342 204.161 131.182 204.068 132.982C209.966 132.249 215.96 132.142 221.878 132.076C223.413 132.049 224.954 132.049 226.493 132.022C228.222 131.996 230.533 132.076 231.688 130.342C234.741 125.729 225.765 125.689 223.933 125.569Z" fill="#9A9899"/>
<path d="M183.726 166.742C183.999 166.995 184.278 167.262 184.551 167.528C185.408 168.355 186.266 169.182 187.127 169.995C187.675 170.515 188.282 171.128 188.947 171.621C189.111 171.742 189.276 171.861 189.444 171.968C190.247 172.475 191.119 172.768 192.031 172.542C195.304 171.742 193.555 168.622 191.586 166.168C191.48 166.035 191.378 165.902 191.272 165.782C190.324 164.648 189.386 163.688 188.979 163.248C188.478 162.688 187.972 162.155 187.46 161.622C187.236 161.382 187.018 161.155 186.794 160.928C183.076 157.128 179.071 153.675 174.844 150.608C173.004 149.275 171.126 148.022 169.211 146.835C168.93 148.942 168.588 151.022 168.186 153.088C173.611 157.142 178.668 161.902 183.612 166.635L183.726 166.742Z" fill="#9A9899"/>
<path d="M182.957 186.876C183.056 186.636 183.157 186.396 183.252 186.156C184.164 183.89 185.005 181.596 185.897 179.329C186.793 177.05 187.69 174.769 188.594 172.503C188.058 172.116 187.561 171.65 187.076 171.21C186.077 170.276 185.098 169.33 184.116 168.383C183.036 170.516 181.944 172.636 180.864 174.756C179.552 177.329 178.233 179.89 176.921 182.476C176.824 182.663 176.726 182.85 176.632 183.036C176.433 183.423 176.233 183.81 176.037 184.196C175.485 185.289 174.765 186.65 174.354 188.036C174.256 188.357 174.181 188.676 174.122 188.996C173.958 189.943 173.978 190.876 174.334 191.743C175.101 193.623 177.109 193.863 178.656 193.143C178.937 193.023 179.196 192.863 179.438 192.676C179.689 192.489 179.92 192.289 180.136 192.05C180.969 191.183 181.592 190.01 182.093 188.89C182.39 188.223 182.676 187.557 182.957 186.876Z" fill="#9A9899"/>
<path d="M186.148 189.089C185.341 188.503 184.524 187.929 183.701 187.369C183.612 187.596 183.529 187.822 183.442 188.036C182.813 189.662 182.081 191.396 180.957 192.69C185.834 196.476 190.422 200.796 194.92 205.102C196.09 206.223 197.257 207.356 198.434 208.462C199.754 209.716 201.449 211.476 203.336 211.023C208.346 209.783 201.594 203.156 200.282 201.716C195.965 196.996 191.217 192.756 186.148 189.089Z" fill="#9A9899"/>
<path d="M42.1323 111.369L42.2803 111.382C49.2323 111.449 56.2977 111.595 63.195 112.729C63.2777 111.489 63.3709 110.249 63.4696 109.009C63.5323 108.275 63.595 107.542 63.6617 106.795C61.8803 106.382 60.0789 106.035 58.2749 105.755C53.2963 104.942 48.251 104.609 43.2163 104.729C42.915 104.742 42.6177 104.755 42.3163 104.769C41.6163 104.795 40.915 104.822 40.2216 104.875C39.6496 104.902 38.3776 104.942 36.9963 105.102C36.8483 105.115 36.691 105.142 36.539 105.155C33.615 105.555 30.467 106.622 32.4683 109.635C33.0243 110.475 33.8536 110.902 34.7536 111.102C34.9456 111.155 35.1376 111.182 35.3323 111.209C36.127 111.329 36.9416 111.315 37.6616 111.329C38.7896 111.342 39.9203 111.355 41.0483 111.369C41.4083 111.369 41.7723 111.369 42.1323 111.369Z" fill="#9A9899"/>
<path d="M35.0826 112.129C34.4319 114.515 33.7785 116.889 33.1212 119.275C32.4679 121.635 31.7505 123.995 31.1212 126.369C31.0465 126.622 30.9799 126.875 30.9172 127.129C30.7292 127.849 30.5532 128.555 30.3892 129.275C30.1105 130.502 29.8959 131.835 30.0132 133.115C30.0399 133.449 30.0919 133.769 30.1732 134.089C30.2479 134.409 30.3492 134.715 30.4865 135.022C31.2385 136.702 32.8906 137.995 34.5692 137.142C35.3439 136.755 35.9119 136.062 36.3346 135.222C36.4799 134.942 36.6132 134.649 36.7225 134.342C37.2305 132.982 37.4812 131.435 37.7012 130.195C37.7826 129.769 37.8572 129.329 37.9359 128.889C37.9746 128.675 38.0132 128.462 38.0492 128.249C38.5692 125.342 39.0786 122.435 39.5946 119.529C40.0252 117.129 40.4412 114.729 40.8719 112.329C39.5799 112.315 38.2839 112.315 36.9839 112.275C36.3666 112.262 35.7159 112.235 35.0826 112.129Z" fill="#9A9899"/>
<path d="M29.8683 127.649C29.931 127.409 29.9976 127.182 30.0643 126.956C29.1163 126.769 28.1616 126.596 27.211 126.449C21.2456 125.489 15.1776 125.182 9.15761 125.569C7.32561 125.689 -1.64904 125.729 1.40296 130.342C2.55762 132.076 4.86695 131.996 6.59762 132.022C8.13628 132.049 9.67897 132.049 11.2123 132.076C17.131 132.142 23.1243 132.249 29.0229 132.982C28.9296 131.182 29.391 129.342 29.8683 127.649Z" fill="#9A9899"/>
<path d="M49.3889 187.369C48.5662 187.929 47.7489 188.503 46.9423 189.089C41.8729 192.756 37.1249 196.996 32.8076 201.716C31.4956 203.156 24.7436 209.783 29.7542 211.023C31.6409 211.476 33.3356 209.716 34.6556 208.462C35.8329 207.356 36.9996 206.223 38.1703 205.102C42.6676 200.796 47.2556 196.476 52.1329 192.69C51.0089 191.396 50.2769 189.662 49.6476 188.036C49.5609 187.822 49.4783 187.596 49.3889 187.369Z" fill="#9A9899"/>
<path d="M58.7361 188.036C58.3254 186.65 57.6055 185.289 57.0535 184.196C56.8575 183.81 56.6588 183.423 56.4588 183.036C56.3641 182.85 56.2667 182.663 56.1694 182.476C54.8574 179.89 53.5388 177.329 52.2268 174.756C51.1468 172.636 50.0548 170.516 48.9734 168.383C47.9921 169.33 47.0134 170.276 46.0148 171.21C45.5294 171.65 45.0321 172.116 44.4961 172.503C45.4001 174.769 46.2961 177.05 47.1934 179.329C48.0854 181.596 48.9268 183.89 49.8388 186.156C49.9334 186.396 50.0348 186.636 50.1334 186.876C50.4148 187.557 50.7001 188.223 50.9974 188.89C51.4988 190.01 52.1214 191.183 52.9548 192.05C53.1708 192.289 53.4014 192.489 53.6521 192.676C53.8948 192.863 54.1534 193.023 54.4348 193.143C55.9814 193.863 57.9895 193.623 58.7561 191.743C59.1121 190.876 59.1321 189.943 58.9681 188.996C58.9081 188.676 58.8347 188.357 58.7361 188.036Z" fill="#9A9899"/>
<path d="M58.2466 150.608C54.02 153.675 50.016 157.128 46.296 160.928C46.0733 161.155 45.8546 161.382 45.632 161.622C45.1186 162.155 44.6133 162.688 44.112 163.248C43.7053 163.688 42.7666 164.648 41.8186 165.782C41.7133 165.902 41.6107 166.035 41.5053 166.168C39.536 168.622 37.7866 171.742 41.06 172.542C41.9706 172.768 42.844 172.475 43.6467 171.968C43.8147 171.861 43.9787 171.742 44.144 171.621C44.8093 171.128 45.416 170.515 45.964 169.995C46.8253 169.182 47.6827 168.355 48.54 167.528C48.8133 167.262 49.092 166.995 49.3653 166.742L49.4787 166.635C54.4227 161.902 59.48 157.142 64.9053 153.088C64.5026 151.022 64.1613 148.942 63.88 146.835C61.9653 148.022 60.0866 149.275 58.2466 150.608Z" fill="#9A9899"/>
<path d="M167.926 145.263C167.892 145.503 167.861 145.756 167.825 145.996C167.54 148.036 167.198 150.063 166.802 152.09C166.741 152.41 166.674 152.743 166.604 153.076C165.48 158.49 163.934 163.77 161.86 168.836C157.092 180.463 149.573 191.103 139.621 197.557H139.618C144.554 191.023 148.625 183.636 152.062 176.023C155.053 169.383 157.589 162.463 159.632 155.343L159.66 155.25C160.38 152.73 161.041 150.183 161.635 147.623C163.558 139.396 164.822 130.996 165.378 122.556C165.993 113.25 165.833 103.743 164.501 94.503C163.461 87.2764 161.613 80.063 158.333 73.7297H158.34L158.348 73.743C159.452 75.3297 160.438 76.9831 161.324 78.7164C161.464 78.9964 161.605 79.2764 161.741 79.5564H161.746C162.551 81.223 163.269 82.943 163.898 84.703C163.973 84.9164 164.047 85.1297 164.121 85.343C166.403 91.9564 167.562 99.1564 168.207 106.316C168.231 106.57 168.259 106.823 168.274 107.063C168.447 109.036 168.58 110.996 168.69 112.943C168.709 113.263 168.725 113.57 168.741 113.89C168.834 115.69 168.913 117.463 168.976 119.21C169.304 127.81 169.077 136.636 167.926 145.263Z" fill="#BCBABB"/>
<path d="M151.867 152.876C149.228 162.049 145.96 171.009 142.072 179.596C140.727 182.583 139.274 185.476 137.767 188.329C135.696 192.236 133.512 196.049 131.32 199.89C130.898 200.636 130.471 201.383 130.048 202.129C128.392 202.662 126.706 203.076 125.003 203.369C125.254 202.983 125.499 202.583 125.743 202.183C128.008 198.489 129.939 194.462 131.915 190.636C132.014 190.449 132.111 190.262 132.206 190.062C134.538 185.476 136.487 180.662 138.252 175.769C144.998 157.089 148.723 136.916 148.731 116.783C148.735 100.223 146.672 83.1293 141.916 67.2359C141.322 65.2493 140.683 63.2759 140.003 61.3159L140.234 61.3559H140.238C140.359 61.3693 140.484 61.3826 140.606 61.3959C144.3 61.9159 147.76 63.5426 150.846 65.8493C153.416 70.8759 155.378 76.2626 156.763 81.8493C157.66 85.4626 158.314 89.1559 158.736 92.8893C160.991 112.863 157.331 133.889 151.867 152.876Z" fill="#BCBABB"/>
<path d="M128.153 188.996C126.396 193.783 124.455 198.502 122.329 203.102C122.227 203.329 122.125 203.556 122.023 203.769C121.545 203.809 121.064 203.849 120.587 203.876C120.411 203.889 120.235 203.889 120.059 203.902C120.101 203.769 120.148 203.636 120.188 203.502C122.089 197.942 123.753 192.289 125.245 186.596C126.301 182.556 127.276 178.502 128.185 174.449C132.357 155.902 134.569 137.022 134.691 118.022C134.804 100.582 133.407 82.7825 129.864 65.6092C129.707 64.8492 129.547 64.0758 129.379 63.3158L129.363 63.2492L129.555 63.1558L129.833 63.0225C130.851 62.5425 131.907 62.1692 132.984 61.8758C133.316 63.1292 133.641 64.3825 133.955 65.6358C136.056 73.9958 137.74 82.4892 138.836 91.1025C143.016 124.009 139.427 158.209 128.153 188.996Z" fill="#BCBABB"/>
<path d="M126.285 148.635C125.351 158.288 124.149 167.902 122.443 177.435C122.211 178.715 121.973 179.995 121.719 181.261C120.391 188.022 118.771 194.689 117.04 201.328C117.044 200.995 117.044 200.661 117.044 200.328C117.08 189.582 117.135 178.849 117.139 168.102V167.515C117.139 145.648 117.028 123.782 116.872 101.915C116.817 94.5417 116.884 87.1817 116.857 79.8084V79.7951C117.968 76.7817 119.264 73.8351 120.975 71.1551L121.163 71.1284C122.075 69.4617 123.185 68.0084 124.451 66.7551C125.593 75.1284 126.572 83.5017 127.132 91.9417C128.376 110.795 128.111 129.835 126.285 148.635Z" fill="#BCBABB"/>
<path d="M115.968 162.449V162.729C115.968 165.889 115.972 169.035 115.98 172.195C115.992 180.262 116.019 188.342 116.043 196.422C116.043 198.035 116.043 199.649 116.039 201.262C114.603 195.755 113.244 190.222 112.062 184.635C111.558 182.249 111.079 179.849 110.648 177.435C108.942 167.902 107.74 158.289 106.804 148.635C104.98 129.835 104.715 110.795 105.959 91.942C106.515 83.5553 107.49 75.222 108.626 66.9153V66.902L108.63 66.8353L108.691 66.902L108.719 66.9287C109.756 68.1287 110.723 69.3953 111.611 70.7686C113.487 73.6887 114.864 76.9553 116.031 80.2753C116.094 80.4487 116.156 80.622 116.215 80.7953L116.262 80.9287V80.942C116.262 86.622 116.302 92.3153 116.258 98.0087C116.176 108.942 116.106 119.875 116.039 130.809C115.976 141.355 115.96 151.902 115.968 162.449Z" fill="#BCBABB"/>
<path d="M113.032 203.902C112.856 203.889 112.676 203.889 112.504 203.876C112.027 203.849 111.545 203.809 111.067 203.769C110.965 203.556 110.864 203.329 110.761 203.102C108.891 199.049 107.165 194.916 105.584 190.716C93.8015 159.489 89.9961 124.622 94.2548 91.1025C95.3401 82.5825 96.9988 74.1825 99.0694 65.8891C99.4068 64.5425 99.7508 63.2092 100.107 61.8758C101.184 62.1692 102.24 62.5425 103.259 63.0225L103.536 63.1558L103.728 63.2492L103.712 63.3158C103.512 64.2225 103.321 65.1292 103.137 66.0492C99.6575 83.0758 98.2908 100.729 98.4002 118.022C98.5215 137.022 100.733 155.902 104.907 174.449C105.987 179.249 107.141 184.036 108.433 188.796C109.772 193.742 111.248 198.662 112.903 203.502C112.943 203.636 112.989 203.769 113.032 203.902Z" fill="#BCBABB"/>
<path d="M108.088 203.369C106.386 203.076 104.699 202.662 103.043 202.129C102.62 201.383 102.194 200.636 101.771 199.89C100.236 197.209 98.7058 194.529 97.2231 191.822C95.0271 187.849 92.9204 183.809 91.0191 179.596C87.1311 171.009 83.8631 162.049 81.2244 152.876C75.7604 133.889 72.1004 112.863 74.3551 92.8893C74.8444 88.5959 75.6351 84.3426 76.7511 80.2226C78.1017 75.2226 79.9244 70.3826 82.247 65.8493C85.331 63.5426 88.7911 61.9159 92.4871 61.3959C92.6071 61.3826 92.7324 61.3693 92.8538 61.3559H92.8577L93.0884 61.3159C92.4164 63.2493 91.7818 65.2093 91.1951 67.1826C86.4271 83.0893 84.3564 100.196 84.3604 116.783C84.3684 136.916 88.095 157.089 94.839 175.769C96.679 180.862 98.7137 185.876 101.176 190.636C101.435 191.143 101.692 191.636 101.951 192.156C103.666 195.516 105.38 198.983 107.348 202.183C107.591 202.583 107.839 202.983 108.088 203.369Z" fill="#BCBABB"/>
<path d="M93.4676 197.557C88.4929 194.329 84.1249 190.063 80.4062 185.129C76.6876 180.21 73.6143 174.65 71.2303 168.836C69.1556 163.77 67.6102 158.49 66.4862 153.076C66.4156 152.743 66.3489 152.41 66.2862 152.09C65.8916 150.063 65.5502 148.036 65.2649 145.996C65.2302 145.756 65.1983 145.503 65.1636 145.263C64.0129 136.636 63.7849 127.81 64.1142 119.21C64.1769 117.463 64.2555 115.69 64.3489 113.89C64.3649 113.57 64.3809 113.263 64.3996 112.943C64.5103 110.996 64.6436 109.036 64.8142 107.063C64.8302 106.823 64.8582 106.57 64.8809 106.316C65.5276 99.1564 66.6862 91.9564 68.9676 85.343C69.0422 85.1297 69.1169 84.9164 69.1916 84.703C69.8209 82.943 70.5369 81.223 71.3435 79.5564H71.3476C71.4849 79.2764 71.6262 78.9964 71.7676 78.7164C72.6516 76.9831 73.6382 75.3297 74.7409 73.743L74.7489 73.7297H74.7569C71.4769 80.063 69.6303 87.2764 68.5889 94.503C67.2569 103.743 67.0969 113.25 67.7116 122.556C68.9329 141.063 73.5676 159.463 81.0276 176.023C84.4609 183.636 88.5329 191.023 93.4676 197.557Z" fill="#BCBABB"/>
<path d="M89.084 46.9824C89.7853 43.0758 91.7613 39.4091 94.416 36.6464L94.764 36.2931C95.1907 35.8717 95.6333 35.4718 96.0906 35.0998C96.44 34.8104 96.8 34.5397 97.168 34.2851L97.496 34.0584C98.3293 33.5064 99.176 33.0291 100.033 32.6184C99.34 33.0677 98.6746 33.5611 98.04 34.1171C96.9946 35.0291 96.012 36.0704 95.488 37.3544C94.964 38.6357 94.9827 40.2224 95.828 41.3158C96.1533 41.7424 96.5759 42.1158 97.0386 42.3824C96.7999 42.4758 96.56 42.5824 96.3227 42.6891C95.836 41.9157 95.0146 41.4224 94.1773 41.4224C93.8679 41.4224 93.5507 41.4891 93.2533 41.6357C92.4227 42.0491 91.832 43.0624 91.832 44.0624C91.832 44.3691 91.8866 44.6757 92.0079 44.9691C91.4133 45.3291 90.8293 45.7158 90.2626 46.1158C89.8586 46.3958 89.468 46.6758 89.084 46.9824Z" fill="#66686A"/>
<path d="M136.769 42.6895H136.765C135.778 42.2495 134.768 41.8495 133.738 41.4895C134.768 41.8495 135.778 42.2495 136.765 42.6895H136.769C136.774 42.6895 136.781 42.6761 136.786 42.6628C136.781 42.6761 136.774 42.6895 136.769 42.6895ZM136.849 42.5694C136.85 42.5694 136.852 42.5694 136.853 42.5694C136.852 42.5694 136.85 42.5694 136.849 42.5694ZM139.81 41.6228C139.797 41.6228 139.782 41.6095 139.769 41.6095C139.782 41.6095 139.797 41.6228 139.81 41.6228ZM139.766 41.6095C139.492 41.4761 139.205 41.4228 138.921 41.4228C139.205 41.4228 139.492 41.4761 139.766 41.6095ZM138.904 41.4228C138.906 41.4228 138.91 41.4228 138.913 41.4228C138.91 41.4228 138.906 41.4228 138.904 41.4228Z" fill="#CDCCCA"/>
<path d="M144.006 46.9824C143.622 46.6758 143.23 46.3958 142.828 46.1158C142.257 45.7158 141.677 45.3291 141.082 44.9691C141.204 44.6757 141.258 44.3691 141.258 44.0624C141.258 43.0624 140.668 42.0491 139.837 41.6357C139.828 41.6357 139.82 41.6224 139.81 41.6224C139.797 41.6224 139.782 41.6091 139.769 41.6091C139.768 41.6091 139.766 41.6091 139.766 41.6091C139.492 41.4757 139.205 41.4224 138.921 41.4224C138.918 41.4224 138.916 41.4224 138.913 41.4224C138.91 41.4224 138.906 41.4224 138.904 41.4224C138.118 41.4224 137.345 41.8624 136.853 42.5691C136.852 42.5691 136.85 42.5691 136.849 42.5691C136.828 42.6091 136.806 42.6358 136.786 42.6624C136.781 42.6758 136.774 42.6891 136.769 42.6891H136.765C135.778 42.2491 134.768 41.8491 133.738 41.4891C135.069 40.4091 135.653 38.6491 135.7 36.8104C135.732 35.6864 135.418 34.5637 134.854 33.5931C135.105 33.7411 135.348 33.8944 135.594 34.0584L135.924 34.2851C136.29 34.5397 136.65 34.8104 137 35.0998C137.457 35.4718 137.9 35.8717 138.326 36.2931L138.674 36.6464C141.329 39.4091 143.305 43.0758 144.006 46.9824Z" fill="#66686A"/>
<path d="M155.189 67.9824C154.277 67.0891 153.306 66.2491 152.277 65.4624C151.941 63.5291 151.389 61.5157 149.654 60.6224C149.272 60.4224 148.864 60.3291 148.462 60.3291C148.864 60.3291 149.272 60.4224 149.654 60.6224C151.389 61.5157 151.941 63.5291 152.277 65.4624C153.306 66.2491 154.277 67.0891 155.189 67.9824ZM127.269 63.8491C127.828 63.4758 128.412 63.1291 129.006 62.8091L129.237 62.6891L129.405 62.5958L129.664 62.4624C130.681 61.9691 131.738 61.5691 132.814 61.2491C132.944 61.2224 133.069 61.1824 133.194 61.1557C133.716 61.0091 134.24 60.8891 134.768 60.7958C135.273 60.6891 135.774 60.6224 136.276 60.5691L136.62 60.5291C136.645 60.5291 136.67 60.5291 136.696 60.5291C136.67 60.5291 136.645 60.5291 136.62 60.5291L136.276 60.5691C135.774 60.6224 135.273 60.6891 134.768 60.7958C134.24 60.8891 133.716 61.0091 133.194 61.1557C133.069 61.1824 132.944 61.2224 132.814 61.2491C131.738 61.5691 130.681 61.9691 129.664 62.4624L129.405 62.5958L129.237 62.6891L129.006 62.8091C128.412 63.1291 127.828 63.4758 127.269 63.8491ZM87.0129 61.9291C87.0062 61.9158 86.9996 61.8891 86.9916 61.8757C86.9996 61.8891 87.0062 61.9158 87.0129 61.9291C88.9782 61.1558 91.0102 60.6758 93.0876 60.5158L93.3863 60.4891H93.4009C93.6049 60.4757 93.8076 60.4624 94.0116 60.4624C94.1169 60.4624 94.2223 60.4491 94.3276 60.4491C94.2223 60.4491 94.1169 60.4624 94.0116 60.4624C93.8076 60.4624 93.6049 60.4757 93.4009 60.4891H93.3863L93.0876 60.5158C91.0102 60.6758 88.9782 61.1558 87.0129 61.9291ZM146.097 61.8757C146.098 61.8757 146.098 61.8757 146.1 61.8757C146.098 61.8757 146.098 61.8757 146.097 61.8757ZM86.9902 61.8757C86.5169 60.8757 85.5996 60.3291 84.6449 60.3291C85.5996 60.3291 86.5169 60.8757 86.9902 61.8757ZM96.3916 60.5291C95.8063 60.4758 95.2196 60.4491 94.6369 60.4491C95.2209 60.4491 95.8063 60.4758 96.3916 60.5291ZM138.76 60.4491C138.668 60.4491 138.576 60.4491 138.482 60.4491C138.576 60.4491 138.668 60.4491 138.76 60.4491ZM138.453 60.4491C138.458 60.4491 138.465 60.4491 138.472 60.4491C138.465 60.4491 138.458 60.4491 138.453 60.4491ZM94.6089 60.4491C94.6116 60.4491 94.6156 60.4491 94.6182 60.4491C94.6156 60.4491 94.6116 60.4491 94.6089 60.4491ZM148.433 60.3291C148.441 60.3291 148.449 60.3291 148.456 60.3291C148.449 60.3291 148.441 60.3291 148.433 60.3291ZM84.6143 60.3291C84.6209 60.3291 84.6276 60.3291 84.6342 60.3291C84.6276 60.3291 84.6209 60.3291 84.6143 60.3291ZM129.992 60.3291C129.686 60.3291 129.392 60.2624 129.12 60.1291C130.509 59.5558 131.84 58.7824 133.006 57.8491C132.98 57.9691 132.944 58.1024 132.893 58.2357C132.646 58.9024 132.149 59.3691 131.574 59.6224C131.285 59.9291 130.92 60.1691 130.513 60.2624C130.338 60.3024 130.164 60.3291 129.992 60.3291ZM103.09 60.3291C102.921 60.3291 102.749 60.3024 102.577 60.2624C102.205 60.1691 101.876 59.9691 101.606 59.7158C102.189 59.9291 102.78 60.1291 103.374 60.3024C103.281 60.3157 103.186 60.3291 103.09 60.3291ZM143.338 56.4224C142.726 56.4224 142.081 56.2091 141.524 55.8491C139.916 54.8224 137.962 52.7024 138.061 50.4491C138.132 48.7558 139.402 47.8757 140.73 47.8757C141.162 47.8757 141.601 47.9691 142.006 48.1557C143.717 48.9557 145.298 51.2757 145.697 53.2757C145.924 54.4357 145.513 55.3824 144.828 55.8624C144.421 56.2491 143.894 56.4224 143.338 56.4224ZM89.7503 56.4224C89.1956 56.4224 88.6689 56.2491 88.2622 55.8624C87.5729 55.3824 87.1662 54.4357 87.3929 53.2757C87.7916 51.2757 89.3743 48.9557 91.0836 48.1557C91.4876 47.9691 91.9263 47.8757 92.3583 47.8757C93.1503 47.8757 93.9223 48.1824 94.4303 48.8091C93.8516 50.2358 93.6329 51.7957 94.0276 53.2757L94.0702 53.4091C93.3782 54.4357 92.4222 55.3024 91.5649 55.8491C91.0062 56.2091 90.3609 56.4224 89.7503 56.4224Z" fill="#CDCCCA"/>
<path d="M116.356 80.1562C116.328 80.0363 116.301 79.9163 116.265 79.7829C115.236 75.5029 113.107 71.3963 110.339 67.9829L110.3 67.9429C110.159 67.7563 110.015 67.5829 109.865 67.4229L109.643 67.1563C109.368 66.8363 109.083 66.5296 108.781 66.2362C108.64 66.1029 108.5 65.9696 108.355 65.8496L108.191 65.6896L107.857 65.3963C107.607 65.1696 107.348 64.9563 107.083 64.7563C106.577 64.3563 106.053 63.9963 105.517 63.6496L105.455 63.6096C105.004 63.3163 104.551 63.0496 104.084 62.8096L103.853 62.6896L103.685 62.5963L103.427 62.4629C102.409 61.9696 101.352 61.5696 100.276 61.2496C100.147 61.2229 100.021 61.1829 99.896 61.1563C99.3747 61.0096 98.8507 60.8896 98.3214 60.7963C97.8174 60.6896 97.316 60.6229 96.8147 60.5696L96.4707 60.5296C96.444 60.5296 96.4187 60.5296 96.3921 60.5296C95.8067 60.4763 95.2214 60.4496 94.6374 60.4496C94.632 60.4496 94.6254 60.4496 94.6187 60.4496C94.616 60.4496 94.612 60.4496 94.6094 60.4496C94.5147 60.4496 94.4214 60.4496 94.3281 60.4496C94.2227 60.4496 94.1174 60.4629 94.012 60.4629C93.808 60.4629 93.6054 60.4763 93.4014 60.4896H93.3867L93.088 60.5163C91.0107 60.6763 88.9787 61.1563 87.0133 61.9296C87.0067 61.9163 87.0001 61.8896 86.9921 61.8763H86.9907C86.5174 60.8763 85.6 60.3296 84.6454 60.3296C84.6414 60.3296 84.6374 60.3296 84.6347 60.3296C84.628 60.3296 84.6214 60.3296 84.6147 60.3296C84.2174 60.3296 83.8147 60.4229 83.436 60.6229C81.7013 61.5163 81.1493 63.5296 80.8133 65.4629C79.784 66.2496 78.8134 67.0896 77.9014 67.9829L77.9053 67.9429C78.868 60.8629 82.6067 54.1429 88.4147 49.1829C88.56 49.0496 88.708 48.9296 88.8574 48.8096C89.3774 48.3696 89.9187 47.9563 90.4667 47.5563C92.9907 45.7296 95.852 44.2896 98.8854 43.2096C97.5387 44.4229 96.2321 45.6896 95.2614 47.2096C94.9401 47.7029 94.6587 48.2496 94.4307 48.8096C93.9227 48.1829 93.1507 47.8763 92.3587 47.8763C91.9267 47.8763 91.488 47.9696 91.084 48.1563C89.3747 48.9563 87.792 51.2763 87.3934 53.2763C87.1667 54.4363 87.5734 55.3829 88.2627 55.8629C88.6694 56.2496 89.196 56.4229 89.7507 56.4229C90.3614 56.4229 91.0067 56.2096 91.5654 55.8496C92.4227 55.3029 93.3787 54.4363 94.0707 53.4096C94.764 55.7563 96.8547 57.4362 99.0267 58.5696C99.868 59.0096 100.729 59.3829 101.607 59.7163C101.876 59.9696 102.205 60.1696 102.577 60.2629C102.749 60.3029 102.921 60.3296 103.091 60.3296C103.187 60.3296 103.281 60.3162 103.375 60.3029C107.435 61.4896 111.796 61.7562 116.053 61.8362C116.7 61.8496 117.348 61.8629 117.996 61.8629C121.448 61.8629 124.916 61.6229 128.165 60.5029C128.487 60.3962 128.803 60.2629 129.12 60.1296C129.392 60.2629 129.687 60.3296 129.992 60.3296C130.164 60.3296 130.339 60.3029 130.513 60.2629C130.92 60.1696 131.285 59.9296 131.575 59.6229C132.149 59.3696 132.647 58.9029 132.893 58.2362C132.944 58.1029 132.98 57.9696 133.007 57.8496C134.761 56.4229 136.155 54.6229 136.859 52.4896C137.884 49.3963 137.075 45.6496 134.8 43.4362C137.611 44.4762 140.264 45.8496 142.624 47.5563C143.172 47.9563 143.713 48.3696 144.233 48.8096C144.383 48.9296 144.531 49.0496 144.676 49.1829C150.485 54.1429 154.223 60.8629 155.185 67.9429L155.189 67.9829C154.277 67.0896 153.307 66.2496 152.277 65.4629C151.941 63.5296 151.389 61.5163 149.655 60.6229C149.272 60.4229 148.864 60.3296 148.463 60.3296C148.461 60.3296 148.459 60.3296 148.456 60.3296C148.449 60.3296 148.441 60.3296 148.433 60.3296C147.484 60.3429 146.571 60.8763 146.1 61.8763C146.099 61.8763 146.099 61.8763 146.097 61.8763C146.091 61.8896 146.084 61.9163 146.077 61.9296C144.112 61.1563 142.08 60.6763 140.003 60.5163L139.704 60.4896H139.689C139.485 60.4763 139.281 60.4629 139.079 60.4629C138.972 60.4629 138.867 60.4496 138.76 60.4496C138.668 60.4496 138.576 60.4496 138.483 60.4496C138.48 60.4496 138.476 60.4496 138.472 60.4496C138.465 60.4496 138.459 60.4496 138.453 60.4496C137.869 60.4496 137.283 60.4763 136.696 60.5296C136.671 60.5296 136.645 60.5296 136.62 60.5296L136.276 60.5696C135.775 60.6229 135.273 60.6896 134.768 60.7963C134.24 60.8896 133.716 61.0096 133.195 61.1563C133.069 61.1829 132.944 61.2229 132.815 61.2496C131.739 61.5696 130.681 61.9696 129.664 62.4629L129.405 62.5963L129.237 62.6896L129.007 62.8096C128.412 63.1296 127.828 63.4763 127.269 63.8496L127.539 63.6096C126.677 64.1429 125.852 64.7296 125.072 65.3963L124.732 65.6896L124.56 65.8496C124.415 65.9696 124.269 66.1029 124.129 66.2362C123.82 66.5296 123.523 66.8363 123.24 67.1563L123.009 67.4229C122.861 67.5829 122.712 67.7563 122.568 67.9429L122.528 67.9829C120.012 71.0096 118.015 74.5696 116.852 78.3296C116.791 78.5163 116.739 78.7162 116.68 78.9029C116.605 79.1829 116.532 79.4496 116.469 79.7163L116.431 79.8629L116.356 80.1562ZM140.731 47.8763C139.403 47.8763 138.132 48.7563 138.061 50.4496C137.963 52.7029 139.916 54.8229 141.524 55.8496C142.081 56.2096 142.727 56.4229 143.339 56.4229C143.895 56.4229 144.421 56.2496 144.828 55.8629C145.513 55.3829 145.924 54.4363 145.697 53.2763C145.299 51.2763 143.717 48.9563 142.007 48.1563C141.601 47.9696 141.163 47.8763 140.731 47.8763Z" fill="#66686A"/>
<path d="M93.4683 197.557C88.4936 194.329 84.1256 190.063 80.4069 185.129C76.6883 180.21 73.615 174.65 71.231 168.836C69.1563 163.77 67.6109 158.49 66.4869 153.076C66.4163 152.743 66.3496 152.41 66.2869 152.09C65.8923 150.063 65.5509 148.036 65.2656 145.996C65.2309 145.756 65.199 145.503 65.1643 145.263C64.3283 138.996 63.9789 132.623 63.9776 126.303C63.9762 123.93 64.0256 121.556 64.1149 119.21C64.1776 117.463 64.2562 115.69 64.3496 113.89C64.3656 113.57 64.3816 113.263 64.4003 112.943C64.511 110.996 64.6443 109.036 64.8149 107.063C64.8309 106.823 64.8589 106.57 64.8816 106.316C65.5283 99.1564 66.6869 91.9564 68.9683 85.343C69.0429 85.1297 69.1176 84.9164 69.1923 84.703C69.8216 82.943 70.5376 81.223 71.3442 79.5564H71.3483C71.4856 79.2764 71.6269 78.9964 71.7683 78.7164C72.6523 76.9831 73.6389 75.3297 74.7416 73.743L74.7496 73.7297H74.7576C71.4776 80.063 69.6309 87.2764 68.5896 94.503C67.7416 100.396 67.3683 106.383 67.3683 112.356C67.3683 115.77 67.4896 119.183 67.7123 122.556C68.9336 141.063 73.5683 159.463 81.0283 176.023C84.4616 183.636 88.5336 191.023 93.4683 197.557Z" fill="#767779"/>
<path d="M76.751 80.2227C78.1016 75.2227 79.9243 70.3827 82.2469 65.8493C85.3309 63.5427 88.791 61.916 92.487 61.396C92.607 61.3827 92.7323 61.3693 92.8536 61.356H92.8576L93.0883 61.316C92.4163 63.2493 91.7817 65.2093 91.195 67.1827C85.5777 69.036 80.559 73.036 76.751 80.2227Z" fill="#767779"/>
<path d="M92.2041 66.875C92.6854 65.075 93.1868 63.2883 93.7068 61.5017L93.7774 61.2617C93.9934 61.2483 94.2041 61.235 94.4161 61.2217C94.6387 61.2217 94.8601 61.2217 95.0814 61.2217C95.4081 61.2217 95.7348 61.2217 96.0601 61.2483C96.1894 61.2483 96.3187 61.2483 96.4441 61.2617H96.4467C97.5427 61.3417 98.6308 61.515 99.7001 61.7817C99.2695 63.1417 98.8548 64.5283 98.4601 65.915C96.3188 65.995 94.2241 66.3017 92.2041 66.875Z" fill="#232221"/>
<path d="M101.739 201.689C100.154 201.116 98.5994 200.436 97.0928 199.662C96.5674 199.396 96.0514 199.116 95.5381 198.822C86.6021 184.956 78.8248 170.476 74.1074 154.049C70.2488 140.623 68.1768 126.409 68.1768 112.236C68.1768 107.996 68.3621 103.756 68.7408 99.5425C69.6301 89.6492 71.8915 80.0358 76.4368 71.5025C76.6795 71.1958 76.9341 70.8892 77.1915 70.5959C77.3608 70.3958 77.5328 70.2092 77.7048 70.0092C78.8674 68.7292 80.1115 67.5292 81.4395 66.4625C78.6088 71.7558 76.5888 77.4625 75.2314 83.4092C72.7528 89.2092 70.9408 96.7158 70.0168 106.303C66.6661 141.143 80.7621 183.249 95.4687 191.062C96.8807 193.756 98.3728 196.383 99.9541 198.929C100.514 199.822 101.085 200.702 101.669 201.583L101.739 201.689Z" fill="#232221"/>
<path d="M103.137 66.0488C101.999 65.9422 100.867 65.8888 99.744 65.8888C99.5187 65.8888 99.2947 65.8888 99.0693 65.8888C99.4067 64.5422 99.7507 63.2088 100.107 61.8755C101.184 62.1688 102.24 62.5422 103.259 63.0222L103.536 63.1555L103.728 63.2488L103.712 63.3155C103.512 64.2222 103.321 65.1288 103.137 66.0488Z" fill="#767779"/>
<path d="M108.088 203.369C106.385 203.076 104.699 202.662 103.043 202.129C102.62 201.383 102.193 200.636 101.771 199.89C100.236 197.209 98.7053 194.529 97.2227 191.822C98.212 192.169 99.2026 192.343 100.188 192.343C100.779 192.343 101.365 192.276 101.951 192.156C103.665 195.516 105.38 198.983 107.348 202.183C107.591 202.583 107.839 202.983 108.088 203.369Z" fill="#767779"/>
<path d="M108.124 66.8086C106.61 66.4886 105.09 66.2486 103.587 66.0886C103.724 65.1819 103.862 64.2886 103.999 63.3819C104.97 63.8753 105.904 64.4753 106.786 65.1419C107.079 65.3553 107.368 65.5953 107.65 65.8353L107.795 65.9686L107.983 66.1419L108.147 66.2886L108.206 66.3553L108.195 66.4086C108.171 66.5419 108.147 66.6753 108.124 66.8086Z" fill="#232221"/>
<path d="M108.718 66.9297L108.625 66.9164V66.903L108.629 66.8363L108.69 66.903L108.718 66.9297Z" fill="#767779"/>
<path d="M109.99 203.648C109.614 203.608 109.238 203.555 108.864 203.488C108.793 203.355 108.722 203.222 108.651 203.075C108.55 202.889 108.443 202.689 108.338 202.488C106.495 198.968 104.514 195.555 102.866 191.901C103.496 191.675 104.099 191.435 104.674 191.168C106.201 195.128 107.857 199.022 109.614 202.835C109.713 203.061 109.814 203.275 109.92 203.488L109.99 203.648Z" fill="#232221"/>
<path d="M113.032 203.902C112.856 203.889 112.676 203.889 112.504 203.876C112.027 203.849 111.545 203.809 111.067 203.769C110.965 203.556 110.864 203.329 110.761 203.102C108.891 199.049 107.165 194.916 105.584 190.716C106.632 190.156 107.58 189.516 108.433 188.796C109.772 193.742 111.248 198.662 112.903 203.502C112.943 203.636 112.989 203.769 113.032 203.902Z" fill="#767779"/>
<path d="M115.968 162.729C115.917 162.249 115.875 161.902 115.843 161.689C115.871 161.849 115.909 162.102 115.968 162.449V162.729Z" fill="#767779"/>
<path d="M114.612 203.941C114.34 203.941 114.068 203.941 113.795 203.928L113.717 203.688L113.697 203.621C112.085 198.488 110.535 193.355 109.149 188.168C110.025 187.355 110.797 186.448 111.479 185.501C112.637 190.861 113.925 196.194 115.393 201.448C115.6 202.194 115.811 202.941 116.027 203.675V203.915C115.555 203.928 115.083 203.941 114.612 203.941Z" fill="#232221"/>
<path d="M116.039 201.262C114.603 195.755 113.244 190.222 112.062 184.635C114.488 180.809 115.56 176.249 115.98 172.195C115.992 180.262 116.019 188.342 116.043 196.422C116.043 198.035 116.043 199.649 116.039 201.262Z" fill="#767779"/>
<path d="M117.04 201.328C117.044 200.995 117.044 200.661 117.044 200.328C117.08 189.582 117.135 178.849 117.139 168.102C118.081 172.022 119.565 177.022 121.719 181.261C120.391 188.022 118.771 194.689 117.04 201.328Z" fill="#767779"/>
<path d="M118.493 203.941C118.009 203.941 117.525 203.928 117.044 203.901V203.754C117.264 203.008 117.475 202.261 117.683 201.501C119.448 195.194 120.951 188.782 122.285 182.328C122.979 183.594 123.739 184.754 124.568 185.794C123.029 191.782 121.252 197.701 119.393 203.621L119.373 203.688L119.295 203.928C119.028 203.941 118.76 203.941 118.493 203.941Z" fill="#232221"/>
<path d="M120.059 203.902C120.101 203.769 120.148 203.636 120.188 203.502C122.089 197.942 123.753 192.289 125.245 186.596C126.141 187.583 127.108 188.396 128.153 188.996C126.396 193.783 124.455 198.502 122.329 203.102C122.227 203.329 122.125 203.556 122.023 203.769C121.545 203.809 121.064 203.849 120.587 203.876C120.411 203.889 120.235 203.889 120.059 203.902Z" fill="#767779"/>
<path d="M125.175 66.0762L125.441 65.8362C126.111 65.2628 126.811 64.7428 127.543 64.2762C128.048 63.9428 128.564 63.6495 129.092 63.3828C129.207 64.1295 129.324 64.8762 129.434 65.6362C128.071 65.7028 126.649 65.8495 125.175 66.0762Z" fill="#232221"/>
<path d="M123.1 203.648L123.17 203.488C123.276 203.275 123.377 203.061 123.476 202.835C125.492 198.475 127.362 194.008 129.069 189.448C129.706 189.715 130.372 189.915 131.065 189.995C130.788 190.635 130.509 191.261 130.224 191.901C128.576 195.555 126.596 198.968 124.752 202.488C124.646 202.689 124.54 202.889 124.438 203.075C124.368 203.222 124.297 203.355 124.226 203.488C123.852 203.555 123.476 203.608 123.1 203.648Z" fill="#232221"/>
<path d="M133.954 65.6348C133.234 65.5814 132.497 65.5681 131.741 65.5681C131.128 65.5681 130.502 65.5814 129.864 65.6081C129.706 64.8481 129.546 64.0748 129.378 63.3148L129.362 63.2481L129.554 63.1548L129.833 63.0214C130.85 62.5414 131.906 62.1681 132.984 61.8748C133.316 63.1281 133.641 64.3814 133.954 65.6348Z" fill="#767779"/>
<path d="M125.003 203.369C125.254 202.983 125.499 202.583 125.743 202.183C128.008 198.489 129.939 194.462 131.915 190.636C132.014 190.449 132.111 190.262 132.206 190.062C132.972 190.062 133.771 189.929 134.604 189.676C135.654 189.356 136.711 188.902 137.767 188.329C135.696 192.236 133.512 196.049 131.32 199.89C130.898 200.636 130.471 201.383 130.048 202.129C128.392 202.662 126.706 203.076 125.003 203.369Z" fill="#767779"/>
<path d="M140.895 66.8887C138.957 66.2753 136.851 65.862 134.565 65.6753C134.189 64.3687 133.797 63.062 133.391 61.782C134.46 61.5153 135.548 61.342 136.644 61.262H136.648C136.772 61.2487 136.901 61.2487 137.031 61.2487C137.356 61.222 137.683 61.222 138.009 61.222C138.231 61.222 138.453 61.222 138.675 61.222C138.887 61.2353 139.097 61.2487 139.313 61.262L139.384 61.502C139.908 63.2887 140.413 65.0887 140.895 66.8887Z" fill="#232221"/>
<path d="M131.351 201.689L131.421 201.583C132.005 200.702 132.576 199.822 133.136 198.929C135.469 195.196 137.595 191.249 139.568 187.223C143.912 184.289 148.183 179.356 151.887 173.102C147.788 182.076 142.875 190.556 137.552 198.822C137.039 199.116 136.519 199.396 135.997 199.662C134.491 200.436 132.936 201.116 131.351 201.689Z" fill="#232221"/>
<path d="M156.763 81.8496C153.586 75.0763 148.887 69.7963 141.916 67.2363C141.322 65.2496 140.683 63.2763 140.003 61.3163L140.234 61.3563H140.238C140.359 61.3696 140.484 61.3829 140.606 61.3963C144.3 61.9163 147.76 63.5429 150.846 65.8496C153.416 70.8763 155.378 76.2629 156.763 81.8496Z" fill="#767779"/>
<path d="M163.53 132.436C163.574 131.169 163.585 129.889 163.57 128.622C163.382 114.836 162.964 98.3422 158.344 85.6756C156.997 78.9289 154.841 72.4222 151.65 66.4622C152.977 67.5289 154.222 68.7289 155.385 70.0089C155.557 70.2089 155.729 70.3956 155.898 70.5956C156.156 70.8889 156.41 71.1955 156.653 71.5022C161.198 80.0355 163.457 89.6489 164.349 99.5422C164.729 103.769 164.914 108.022 164.913 112.262C164.912 119.009 164.441 125.769 163.53 132.436Z" fill="#232221"/>
<path d="M139.621 197.557H139.618C144.554 191.023 148.625 183.636 152.062 176.023C155.053 169.383 157.589 162.463 159.632 155.343L159.66 155.25C160.418 152.77 161.085 150.223 161.635 147.623C163.558 139.396 164.822 130.996 165.378 122.556C165.601 119.183 165.722 115.77 165.722 112.356C165.722 106.383 165.349 100.396 164.501 94.503C163.461 87.2764 161.613 80.063 158.333 73.7297H158.34L158.348 73.743C159.452 75.3297 160.438 76.9831 161.324 78.7164C161.464 78.9964 161.605 79.2764 161.741 79.5564H161.746C162.551 81.223 163.269 82.943 163.898 84.703C163.973 84.9164 164.047 85.1297 164.121 85.343C166.403 91.9564 167.562 99.1564 168.207 106.316C168.231 106.57 168.259 106.823 168.274 107.063C168.447 109.036 168.58 110.996 168.69 112.943C168.709 113.263 168.725 113.57 168.741 113.89C168.834 115.69 168.913 117.463 168.976 119.21C169.065 121.556 169.114 123.93 169.113 126.303C169.111 132.623 168.762 138.996 167.926 145.263C167.892 145.503 167.861 145.756 167.825 145.996C167.54 148.036 167.198 150.063 166.802 152.09C166.741 152.41 166.674 152.743 166.604 153.076C165.48 158.49 163.934 163.77 161.86 168.836C157.092 180.463 149.573 191.103 139.621 197.557Z" fill="#767779"/>
<path d="M133.905 174.77C133.567 174.623 133.24 174.41 132.927 174.143C140.368 147.423 142.355 118.81 138.836 91.103C138.415 87.7963 137.905 84.503 137.32 81.223C137.6 80.983 137.887 80.783 138.177 80.6363C144.263 111.623 142.413 144.69 133.905 174.77ZM137.367 174.25C140.132 166.423 142.344 158.356 143.991 150.17C147.979 130.316 148.591 109.516 145.659 89.4363C145.372 87.4763 145.051 85.5297 144.697 83.583C145.221 84.2097 145.719 84.9163 146.185 85.663C147.935 95.9697 148.733 106.476 148.731 116.783C148.724 135.81 145.397 154.863 139.343 172.663C138.7 173.316 138.04 173.85 137.367 174.25Z" fill="white"/>
<path d="M135.057 175.01C134.657 175.01 134.273 174.929 133.905 174.77C142.413 144.69 144.263 111.623 138.177 80.6364C138.668 80.3698 139.172 80.2364 139.691 80.2364C140.325 80.2364 140.977 80.4364 141.649 80.8631C142.76 81.5564 143.773 82.4764 144.697 83.5831C145.051 85.5298 145.372 87.4764 145.659 89.4364C148.591 109.516 147.979 130.316 143.991 150.17C142.344 158.356 140.132 166.423 137.367 174.25C136.973 174.476 136.573 174.663 136.169 174.81C135.787 174.943 135.415 175.01 135.057 175.01Z" fill="#565759"/>
<path d="M129.618 167.676C129.364 166.796 129.128 165.849 128.911 164.836C129.731 159.862 130.43 154.876 131.046 149.862C133.34 131.249 133.856 112.342 132.651 93.6091C132.587 92.6224 132.516 91.6358 132.44 90.6491C132.718 89.7424 133.006 88.8891 133.302 88.0891C134.331 98.0624 134.755 108.102 134.691 118.022C134.584 134.716 132.863 151.316 129.618 167.676ZM127.231 151.916C127.019 148.876 126.89 145.662 126.839 142.329C127.514 133.729 127.864 125.076 127.895 116.422C128.2 113.236 128.567 110.116 128.992 107.129C129.092 110.262 129.147 113.396 129.16 116.516C129.211 128.356 128.559 140.182 127.231 151.916Z" fill="white"/>
<path d="M128.91 164.836C128.126 161.209 127.572 156.796 127.23 151.916C128.558 140.183 129.21 128.356 129.16 116.516C129.146 113.396 129.092 110.263 128.992 107.129C129.888 100.849 131.046 95.156 132.44 90.6493C132.516 91.636 132.586 92.6226 132.65 93.6093C133.856 112.343 133.34 131.249 131.045 149.863C130.429 154.876 129.73 159.863 128.91 164.836Z" fill="#565759"/>
<path d="M139.343 172.662C145.397 154.862 148.724 135.809 148.731 116.782C148.733 106.476 147.935 95.969 146.185 85.6624C157.928 104.609 151.572 160.302 139.343 172.662Z" fill="#C1BFBD"/>
<path d="M132.926 174.143C131.597 172.996 130.499 170.743 129.617 167.676C132.863 151.316 134.584 134.716 134.69 118.023C134.754 108.103 134.331 98.0626 133.301 88.0892C134.497 84.8626 135.841 82.4626 137.32 81.2226C137.905 84.5026 138.414 87.7959 138.836 91.1026C142.354 118.809 140.368 147.423 132.926 174.143Z" fill="#C1BFBD"/>
<path d="M126.838 142.328C126.765 137.581 126.854 132.595 127.094 127.621C127.276 123.861 127.545 120.088 127.894 116.421C127.864 125.075 127.513 133.728 126.838 142.328Z" fill="#C1BFBD"/>
<path d="M99.9311 175.01C99.7031 175.01 99.4684 174.983 99.2297 174.93C99.2217 174.89 99.2123 174.863 99.203 174.836C90.6457 144.61 88.8084 111.383 94.9897 80.2631C95.0924 80.2498 95.1951 80.2364 95.2977 80.2364C95.5124 80.2364 95.7257 80.2631 95.935 80.3164C95.2804 83.8898 94.7164 87.4898 94.255 91.1031C90.7004 119.09 92.7644 148.01 100.398 174.97C100.244 174.996 100.09 175.01 99.9311 175.01ZM94.8951 171.836C93.9337 170.703 93.0111 169.303 92.1337 167.676C87.1044 151.33 84.367 134.036 84.3604 116.783C84.3577 108.556 84.8671 100.183 85.9644 91.9031C86.4817 90.3698 87.059 88.9431 87.7057 87.6498C87.611 88.2364 87.5204 88.8364 87.4324 89.4364C84.5017 109.516 85.1111 130.316 89.1004 150.17C90.5791 157.53 92.5137 164.77 94.8951 171.836Z" fill="white"/>
<path d="M99.2291 174.93C99.0944 174.89 98.9558 174.85 98.8171 174.81C97.4531 174.33 96.1411 173.317 94.8944 171.836C92.5131 164.77 90.5784 157.53 89.0998 150.17C85.1104 130.317 84.5011 109.517 87.4317 89.4366C87.5197 88.8366 87.6104 88.2366 87.7051 87.65C89.2104 84.61 91.0771 82.2766 93.3384 80.8633C93.9011 80.5166 94.4518 80.3166 94.9891 80.2633C88.8078 111.383 90.6451 144.61 99.2024 174.836C99.2117 174.863 99.2211 174.89 99.2291 174.93Z" fill="#565759"/>
<path d="M104.162 171.049C100.47 153.595 98.5142 135.862 98.3995 118.022C98.3302 106.942 98.8648 95.7287 100.171 84.622C100.461 85.1687 100.743 85.7687 101.018 86.4087C100.79 88.8087 100.595 91.2087 100.439 93.6087C99.2341 112.342 99.7501 131.249 102.043 149.862C102.837 156.315 103.767 162.729 104.918 169.115C104.679 169.822 104.427 170.462 104.162 171.049ZM106.903 160.155C104.877 145.729 103.869 131.142 103.93 116.515C103.957 110.502 104.137 104.449 104.494 98.3954C104.813 99.942 105.114 101.569 105.394 103.249C104.882 118.382 105.343 133.595 106.803 148.635C107.017 150.822 107.243 153.022 107.486 155.209C107.322 156.942 107.129 158.595 106.903 160.155Z" fill="white"/>
<path d="M104.919 169.115C103.768 162.729 102.838 156.315 102.044 149.862C99.7508 131.249 99.2349 112.342 100.44 93.6086C100.596 91.2086 100.791 88.8086 101.019 86.4086C102.348 89.5152 103.512 93.6352 104.495 98.3952C104.138 104.449 103.958 110.502 103.931 116.515C103.87 131.142 104.878 145.729 106.904 160.155C106.4 163.662 105.742 166.715 104.919 169.115Z" fill="#565759"/>
<path d="M107.487 155.209C107.244 153.022 107.018 150.822 106.804 148.636C105.344 133.596 104.883 118.382 105.395 103.249C106.634 110.649 107.483 119.129 107.892 127.622C108.363 137.369 108.254 147.116 107.487 155.209Z" fill="#C1BFBD"/>
<path d="M100.397 174.969C92.764 148.009 90.6999 119.089 94.2546 91.1022C94.7159 87.4889 95.28 83.8889 95.9346 80.3156C97.4746 80.6489 98.8919 82.1689 100.172 84.6222C98.8653 95.7289 98.3307 106.942 98.4 118.022C98.5147 135.862 100.471 153.596 104.163 171.049C103.124 173.329 101.873 174.729 100.397 174.969Z" fill="#C1BFBD"/>
<path d="M92.133 167.676C83.3423 151.329 79.1583 112.142 85.9637 91.9024C84.8663 100.182 84.357 108.556 84.3596 116.782C84.3663 134.036 87.1037 151.329 92.133 167.676Z" fill="#C1BFBD"/>
<path d="M231.688 130.342C230.533 132.075 228.222 131.995 226.493 132.022C224.954 132.049 223.413 132.049 221.878 132.075C215.96 132.142 209.966 132.249 204.068 132.982C204.161 131.182 203.7 129.342 203.223 127.649C203.16 127.409 203.093 127.182 203.026 126.955C203.973 126.769 204.929 126.595 205.88 126.449C211.845 125.489 217.913 125.182 223.933 125.569C225.765 125.689 234.741 125.729 231.688 130.342ZM203.077 133.115C203.05 133.449 203 133.769 202.917 134.089C202.842 134.409 202.741 134.715 202.604 135.022C201.852 136.702 200.2 137.995 198.521 137.142C197.746 136.755 197.178 136.062 196.756 135.222C196.611 134.942 196.478 134.649 196.368 134.342C195.86 132.982 195.609 131.435 195.389 130.195C195.308 129.769 195.233 129.329 195.154 128.889C195.116 128.675 195.076 128.462 195.041 128.249C194.521 125.342 194.012 122.435 193.496 119.529C193.065 117.129 192.649 114.729 192.218 112.329C193.51 112.315 194.806 112.315 196.106 112.275C196.725 112.262 197.374 112.235 198.008 112.129C198.658 114.515 199.312 116.889 199.969 119.275C200.624 121.635 201.34 123.995 201.969 126.369C202.044 126.622 202.11 126.875 202.173 127.129C202.361 127.849 202.537 128.555 202.701 129.275C202.98 130.502 203.194 131.835 203.077 133.115ZM190.959 111.369L190.81 111.382C183.858 111.449 176.793 111.595 169.896 112.729C169.813 111.489 169.724 110.249 169.621 109.009C169.558 108.275 169.496 107.542 169.429 106.795C171.21 106.382 173.012 106.035 174.816 105.755C179.794 104.942 184.84 104.609 189.874 104.729C190.176 104.742 190.473 104.755 190.774 104.769C191.476 104.795 192.176 104.822 192.869 104.875C193.44 104.902 194.713 104.942 196.095 105.102C196.243 105.115 196.4 105.142 196.552 105.155C199.476 105.555 202.624 106.622 200.624 109.635C200.068 110.475 199.237 110.902 198.337 111.102C198.145 111.155 197.953 111.182 197.758 111.209C196.963 111.329 196.149 111.315 195.429 111.329C194.301 111.342 193.17 111.355 192.042 111.369C191.682 111.369 191.319 111.369 190.959 111.369ZM174.844 150.609C179.07 153.675 183.076 157.129 186.793 160.929C187.017 161.155 187.236 161.382 187.46 161.622C187.972 162.155 188.477 162.689 188.979 163.249C189.385 163.689 190.324 164.649 191.272 165.782C191.377 165.902 191.48 166.035 191.585 166.169C193.554 168.622 195.304 171.742 192.031 172.542C191.119 172.769 190.246 172.475 189.444 171.969C189.276 171.862 189.11 171.742 188.946 171.622C188.281 171.128 187.674 170.515 187.126 169.995C186.265 169.182 185.408 168.355 184.55 167.529C184.277 167.262 183.999 166.995 183.725 166.742L183.612 166.635C178.668 161.902 173.61 157.142 168.185 153.089C168.588 151.022 168.929 148.942 169.21 146.835C171.125 148.022 173.004 149.275 174.844 150.609ZM185.897 179.328C185.005 181.595 184.164 183.889 183.252 186.155C183.157 186.395 183.056 186.635 182.957 186.875C182.676 187.556 182.39 188.222 182.093 188.889C181.592 190.009 180.969 191.182 180.136 192.049C179.92 192.288 179.689 192.488 179.438 192.675C179.196 192.862 178.937 193.022 178.656 193.142C177.109 193.862 175.101 193.622 174.334 191.742C173.978 190.875 173.958 189.942 174.122 188.995C174.181 188.675 174.256 188.356 174.354 188.035C174.765 186.649 175.485 185.288 176.037 184.195C176.233 183.809 176.433 183.422 176.632 183.035C176.726 182.849 176.824 182.662 176.921 182.475C178.233 179.889 179.552 177.328 180.864 174.755C181.944 172.635 183.036 170.515 184.116 168.382C185.098 169.329 186.077 170.275 187.076 171.209C187.561 171.649 188.059 172.115 188.595 172.502C187.691 174.769 186.793 177.049 185.897 179.328ZM186.148 189.088C191.217 192.755 195.965 196.995 200.282 201.716C201.594 203.155 208.346 209.782 203.336 211.022C201.449 211.475 199.754 209.715 198.434 208.462C197.257 207.356 196.09 206.222 194.92 205.102C190.423 200.795 185.834 196.475 180.957 192.689C182.081 191.395 182.813 189.662 183.442 188.035C183.529 187.822 183.612 187.595 183.701 187.369C184.524 187.928 185.341 188.502 186.148 189.088ZM167.926 145.262C167.892 145.502 167.86 145.755 167.825 145.995C167.54 148.035 167.198 150.062 166.804 152.089C166.741 152.409 166.674 152.742 166.604 153.075C165.48 158.489 163.934 163.782 161.86 168.835C157.092 180.462 149.572 191.102 139.622 197.556H139.618C144.554 191.022 148.625 183.635 152.061 176.022C159.523 159.462 164.157 141.062 165.378 122.555C165.993 113.249 165.832 103.742 164.501 94.502C163.461 87.2754 161.613 80.062 158.333 73.7287H158.34L158.348 73.742C159.452 75.3287 160.438 76.982 161.324 78.7154C161.464 78.9954 161.605 79.2754 161.742 79.5554H161.746C162.552 81.222 163.269 82.942 163.898 84.702C163.973 84.9154 164.048 85.1287 164.122 85.342C166.404 91.9554 167.562 99.1554 168.208 106.315C168.232 106.569 168.26 106.822 168.276 107.062C168.448 109.035 168.58 110.995 168.69 112.942C168.709 113.262 168.725 113.569 168.741 113.889C168.834 115.689 168.913 117.462 168.976 119.209C169.305 127.809 169.077 136.635 167.926 145.262ZM135.997 199.662C134.491 200.435 132.937 201.115 131.352 201.689L131.421 201.582C132.005 200.702 132.576 199.822 133.136 198.928C137.524 191.902 141.188 184.128 144.472 176.488C152.05 158.862 157.185 139.835 159.331 120.382C161.335 102.209 160.188 82.4087 151.65 66.4754C152.977 67.5287 154.222 68.7287 155.385 70.0087C155.557 70.2087 155.729 70.3954 155.898 70.5954C156.156 70.8887 156.41 71.1954 156.653 71.502C161.199 80.0354 163.456 89.6487 164.349 99.5554C165.993 117.822 163.997 136.595 158.982 154.049C154.265 170.475 146.488 184.955 137.552 198.822C137.038 199.116 136.519 199.395 135.997 199.662ZM130.048 202.128C128.392 202.662 126.705 203.075 125.002 203.369C125.253 202.982 125.5 202.582 125.742 202.182C128.008 198.488 129.938 194.462 131.914 190.635C134.377 185.875 136.412 180.862 138.252 175.769C144.997 157.089 148.723 136.915 148.731 116.782C148.735 98.142 146.12 78.8354 140.002 61.3154L140.233 61.3554H140.237C140.358 61.3687 140.484 61.382 140.605 61.3954C144.3 61.9154 147.76 63.542 150.845 65.8487C155.08 74.142 157.66 83.3687 158.736 92.8887C160.99 112.862 157.331 133.889 151.867 152.875C149.228 162.049 145.96 171.009 142.072 179.595C138.878 186.675 135.109 193.249 131.32 199.889C130.897 200.635 130.47 201.382 130.048 202.128ZM124.438 203.075C124.368 203.222 124.297 203.356 124.226 203.488C123.852 203.556 123.476 203.609 123.1 203.649L123.17 203.488C123.276 203.275 123.377 203.062 123.476 202.835C127.613 193.862 131.166 184.435 133.888 174.835C144.166 138.529 144.749 97.8887 133.39 61.782C134.46 61.5154 135.548 61.342 136.644 61.262H136.648C136.772 61.2487 136.901 61.2487 137.031 61.2487C137.575 61.2087 138.122 61.2087 138.674 61.222C138.886 61.2354 139.097 61.2487 139.313 61.262L139.384 61.502C142.049 70.6487 144.265 79.8887 145.659 89.4354C148.59 109.515 147.98 130.315 143.99 150.169C142.049 159.835 139.321 169.302 135.825 178.422C134.08 182.969 132.216 187.475 130.224 191.902C128.576 195.556 126.596 198.969 124.752 202.488C124.645 202.689 124.54 202.889 124.438 203.075ZM122.024 203.769C121.545 203.809 121.064 203.849 120.586 203.875C120.41 203.889 120.235 203.889 120.059 203.902C120.101 203.769 120.148 203.635 120.188 203.502C123.44 193.995 125.989 184.222 128.185 174.449C132.357 155.902 134.569 137.022 134.69 118.022C134.808 99.8087 133.281 81.1954 129.378 63.3154L129.362 63.2487L129.554 63.1554L129.832 63.022C130.85 62.542 131.906 62.1687 132.984 61.8754C135.54 71.462 137.574 81.1954 138.836 91.102C143.665 129.129 138.118 168.889 122.329 203.102C122.226 203.328 122.125 203.556 122.024 203.769ZM119.373 203.689L119.295 203.928C118.544 203.942 117.792 203.942 117.044 203.902V203.849V203.755C117.264 203.009 117.474 202.262 117.682 201.502C120.258 192.288 122.281 182.862 124.028 173.422C127.492 154.689 129.241 135.649 129.159 116.515C129.089 99.8087 127.824 82.7954 124.885 66.342L125.108 66.142L125.441 65.8354C126.11 65.262 126.81 64.742 127.542 64.2754C128.048 63.942 128.564 63.6487 129.093 63.382C130.634 73.422 131.993 83.462 132.65 93.6087C133.856 112.342 133.34 131.249 131.045 149.862C129.868 159.449 128.388 168.969 126.329 178.395C124.47 186.928 122.016 195.288 119.393 203.622L119.373 203.689ZM116.872 101.915C116.817 94.542 116.884 87.182 116.856 79.8087V79.7954C117.968 76.782 119.264 73.8354 120.974 71.1554L121.162 71.1287C122.074 69.462 123.185 68.0087 124.45 66.7554C125.593 75.1287 126.572 83.502 127.132 91.942C128.376 110.795 128.111 129.835 126.286 148.635C125.35 158.289 124.149 167.902 122.442 177.435C120.997 185.502 119.096 193.435 117.04 201.328C117.044 200.995 117.044 200.662 117.044 200.328C117.08 189.395 117.138 178.462 117.138 167.515C117.138 145.649 117.029 123.782 116.872 101.915ZM116.469 79.7154L116.431 79.862L116.356 80.1554C116.328 80.0354 116.301 79.9154 116.265 79.782C115.236 75.502 113.106 71.3954 110.338 67.982L110.3 67.942C110.159 67.7554 110.014 67.582 109.865 67.422L109.642 67.1554C109.368 66.8354 109.082 66.5287 108.781 66.2354C108.64 66.102 108.5 65.9687 108.354 65.8487L108.19 65.6887L107.857 65.3954C107.606 65.1687 107.348 64.9554 107.082 64.7554C106.577 64.3554 106.053 63.9954 105.517 63.6487L105.454 63.6087C105.004 63.3154 104.549 63.0487 104.084 62.8087L103.853 62.6887L103.685 62.5954L103.426 62.462C102.409 61.9687 101.352 61.5687 100.276 61.2487C100.146 61.222 100.021 61.182 99.8958 61.1554C99.3745 61.0087 98.8505 60.8887 98.3225 60.7954C97.8172 60.6887 97.3158 60.622 96.8145 60.5687L96.4705 60.5287C95.6491 60.462 94.8265 60.4354 94.0118 60.462C93.8092 60.462 93.6051 60.4754 93.4011 60.4887H93.3865L93.0878 60.5154C91.0105 60.6754 88.9785 61.1554 87.0131 61.9287C86.3518 60.462 84.7504 59.942 83.4358 60.622C81.7011 61.5154 81.1491 63.5287 80.8131 65.462C79.7838 66.2487 78.8131 67.0887 77.9011 67.982L77.9051 67.942C78.8678 60.862 82.6065 54.142 88.4145 49.182C88.5598 49.0487 88.7078 48.9287 88.8571 48.8087C89.3771 48.3687 89.9185 47.9554 90.4665 47.5554C94.9278 44.3154 100.44 42.302 106.088 41.3954C107.533 41.1687 108.961 41.0487 110.378 41.022C112.449 40.9554 114.496 41.0754 116.546 41.2887C118.594 41.0754 120.641 40.9554 122.712 41.022C124.129 41.0487 125.558 41.1687 127.002 41.3954C132.65 42.302 138.162 44.3154 142.624 47.5554C143.172 47.9554 143.712 48.3687 144.233 48.8087C144.381 48.9287 144.53 49.0487 144.676 49.182C150.484 54.142 154.222 60.862 155.185 67.942L155.189 67.982C154.277 67.0887 153.306 66.2487 152.277 65.462C151.94 63.5287 151.389 61.5154 149.654 60.622C148.34 59.942 146.738 60.462 146.077 61.9287C144.112 61.1554 142.08 60.6754 140.002 60.5154L139.704 60.4887H139.689C139.485 60.4754 139.281 60.462 139.078 60.462C138.264 60.4354 137.443 60.462 136.62 60.5287L136.276 60.5687C135.774 60.622 135.273 60.6887 134.768 60.7954C134.24 60.8887 133.716 61.0087 133.195 61.1554C133.069 61.182 132.944 61.222 132.814 61.2487C131.738 61.5687 130.683 61.9687 129.664 62.462L129.405 62.5954L129.237 62.6887L129.006 62.8087C128.412 63.1287 127.828 63.4754 127.269 63.8487L127.538 63.6087C126.677 64.142 125.852 64.7287 125.073 65.3954L124.732 65.6887L124.56 65.8487C124.414 65.9687 124.27 66.102 124.129 66.2354C123.82 66.5287 123.522 66.8354 123.241 67.1554L123.009 67.422C122.861 67.582 122.712 67.7554 122.568 67.942L122.528 67.982C120.012 71.0087 118.014 74.5687 116.852 78.3287C116.79 78.5154 116.738 78.7154 116.68 78.902C116.605 79.182 116.532 79.4487 116.469 79.7154ZM116.257 98.0087C116.176 108.942 116.105 119.875 116.038 130.809C115.909 152.689 115.976 174.556 116.042 196.422C116.042 198.035 116.042 199.649 116.038 201.262C113.986 193.395 112.092 185.475 110.648 177.435C108.941 167.902 107.74 158.289 106.804 148.635C104.98 129.835 104.715 110.795 105.959 91.942C106.515 83.542 107.489 75.222 108.624 66.902L108.628 66.8354L108.69 66.902C109.74 68.102 110.714 69.382 111.61 70.7687C113.486 73.6887 114.864 76.9554 116.031 80.2754C116.093 80.4487 116.156 80.622 116.214 80.7954L116.261 80.9287V80.942C116.261 86.622 116.301 92.3154 116.257 98.0087ZM116.026 203.849V203.916C115.282 203.942 114.538 203.942 113.796 203.928L113.717 203.689L113.697 203.622C111.075 195.288 108.621 186.928 106.761 178.395C104.703 168.969 103.222 159.449 102.044 149.862C99.7505 131.249 99.2345 112.342 100.44 93.6087C101.097 83.462 102.456 73.422 103.998 63.382C104.969 63.8754 105.904 64.462 106.785 65.142C107.078 65.3554 107.368 65.5954 107.649 65.8354L107.795 65.9687L107.982 66.142L108.146 66.2887L108.159 66.302L108.205 66.3554L108.195 66.4087C105.263 82.8354 104.001 99.822 103.931 116.515C103.849 135.649 105.598 154.689 109.062 173.422C110.805 182.849 112.828 192.262 115.393 201.449C115.6 202.195 115.812 202.942 116.026 203.689V203.849ZM112.504 203.875C112.026 203.849 111.545 203.809 111.068 203.769C110.965 203.556 110.864 203.328 110.761 203.102C94.9718 168.889 89.4251 129.129 94.2545 91.102C95.5158 81.1954 97.5505 71.462 100.106 61.8754C101.184 62.1687 102.24 62.542 103.258 63.022L103.536 63.1554L103.728 63.2487L103.712 63.3154C99.8092 81.1954 98.2825 99.8087 98.3998 118.022C98.5212 137.022 100.733 155.902 104.906 174.449C107.102 184.222 109.65 193.995 112.902 203.502C112.942 203.635 112.989 203.769 113.032 203.902C112.856 203.889 112.676 203.889 112.504 203.875ZM108.864 203.488C108.793 203.356 108.722 203.222 108.652 203.075C108.55 202.889 108.444 202.689 108.338 202.488C106.496 198.969 104.515 195.556 102.867 191.902C100.875 187.475 99.0105 182.969 97.2651 178.422C93.7691 169.302 91.0412 159.835 89.0998 150.169C85.1118 130.315 84.5011 109.515 87.4318 89.4354C88.8265 79.8887 91.0412 70.6487 93.7065 61.502L93.7771 61.262C93.9931 61.2487 94.2038 61.2354 94.4158 61.222C94.9678 61.2087 95.5158 61.2087 96.0598 61.2487C96.1891 61.2487 96.3185 61.2487 96.4425 61.262H96.4465C97.5425 61.342 98.6318 61.5154 99.6998 61.782C88.3398 97.8887 88.9238 138.529 99.2024 174.835C101.922 184.435 105.477 193.862 109.614 202.835C109.713 203.062 109.814 203.275 109.92 203.488L109.99 203.649C109.614 203.609 109.24 203.556 108.864 203.488ZM103.042 202.128C102.62 201.382 102.193 200.635 101.77 199.889C97.9811 193.249 94.2118 186.675 91.0172 179.595C87.1305 171.009 83.8625 162.049 81.2238 152.875C75.7598 133.889 72.0998 112.862 74.3545 92.8887C75.4305 83.3687 78.0105 74.142 82.2465 65.8487C85.3305 63.542 88.7905 61.9154 92.4851 61.3954C92.6065 61.382 92.7318 61.3687 92.8532 61.3554H92.8571L93.0878 61.3154C86.9705 78.8354 84.3558 98.142 84.3598 116.782C84.3678 136.915 88.0945 157.089 94.8384 175.769C96.6785 180.862 98.7132 185.875 101.176 190.635C103.152 194.462 105.082 198.488 107.348 202.182C107.592 202.582 107.837 202.982 108.088 203.369C106.385 203.075 104.698 202.662 103.042 202.128ZM97.0931 199.662C96.5678 199.395 96.0518 199.116 95.5385 198.822C86.6024 184.955 78.8251 170.475 74.1078 154.049C69.0931 136.595 67.0971 117.822 68.7411 99.5554C69.6304 89.6487 71.8918 80.0354 76.4371 71.502C76.6798 71.1954 76.9345 70.8887 77.1918 70.5954C77.3612 70.3954 77.5331 70.2087 77.7051 70.0087C78.8678 68.7287 80.1118 67.5287 81.4398 66.4754C72.9025 82.4087 71.7558 102.209 73.7598 120.382C75.9051 139.835 81.0398 158.862 88.6185 176.488C91.9025 184.128 95.5665 191.902 99.9545 198.928C100.514 199.822 101.085 200.702 101.669 201.582L101.74 201.689C100.154 201.115 98.5998 200.435 97.0931 199.662ZM80.4065 185.128C76.6878 180.209 73.6145 174.649 71.2305 168.835C69.1558 163.782 67.6105 158.489 66.4865 153.075C66.4158 152.742 66.3492 152.409 66.2865 152.089C65.8918 150.062 65.5505 148.035 65.2651 145.995C65.2305 145.755 65.1985 145.502 65.1638 145.262C64.0132 136.635 63.7852 127.809 64.1145 119.209C64.1772 117.462 64.2558 115.689 64.3491 113.889C64.3651 113.569 64.3812 113.262 64.3998 112.942C64.5105 110.995 64.6425 109.035 64.8158 107.062C64.8305 106.822 64.8585 106.569 64.8812 106.315C65.5278 99.1554 66.6865 91.9554 68.9678 85.342C69.0425 85.1287 69.1172 84.9154 69.1918 84.702C69.8212 82.942 70.5385 81.222 71.3438 79.5554H71.3478C71.4852 79.2754 71.6265 78.9954 71.7678 78.7154C72.6518 76.982 73.6385 75.3287 74.7425 73.742L74.7491 73.7287H74.7571C71.4771 80.062 69.6305 87.2754 68.5892 94.502C67.2572 103.742 67.0972 113.249 67.7118 122.555C68.9332 141.062 73.5678 159.462 81.0278 176.022C84.4612 183.635 88.5318 191.022 93.4678 197.556C88.4931 194.328 84.1252 190.062 80.4065 185.128ZM49.4785 166.635L49.3651 166.742C49.0918 166.995 48.8131 167.262 48.5398 167.529C47.6825 168.355 46.8251 169.182 45.9638 169.995C45.4158 170.515 44.8092 171.128 44.1438 171.622C43.9785 171.742 43.8145 171.862 43.6465 171.969C42.8438 172.475 41.9705 172.769 41.0598 172.542C37.7865 171.742 39.5358 168.622 41.5051 166.169C41.6105 166.035 41.7131 165.902 41.8185 165.782C42.7665 164.649 43.7052 163.689 44.1118 163.249C44.6132 162.689 45.1185 162.155 45.6318 161.622C45.8545 161.382 46.0731 161.155 46.2958 160.929C50.0158 157.129 54.0198 153.675 58.2465 150.609C60.0865 149.275 61.9651 148.022 63.8798 146.835C64.1611 148.942 64.5024 151.022 64.9051 153.089C59.4798 157.142 54.4225 161.902 49.4785 166.635ZM52.2265 174.755C53.5385 177.328 54.8571 179.889 56.1691 182.475C56.2664 182.662 56.3638 182.849 56.4585 183.035C56.6585 183.422 56.8572 183.809 57.0532 184.195C57.6052 185.288 58.3251 186.649 58.7358 188.035C58.8344 188.356 58.9078 188.675 58.9678 188.995C59.1318 189.942 59.1118 190.875 58.7558 191.742C57.9892 193.622 55.9811 193.862 54.4345 193.142C54.1531 193.022 53.8945 192.862 53.6518 192.675C53.4011 192.488 53.1705 192.288 52.9545 192.049C52.1211 191.182 51.4985 190.009 50.9971 188.889C50.6998 188.222 50.4145 187.556 50.1331 186.875C50.0345 186.635 49.9331 186.395 49.8385 186.155C48.9265 183.889 48.0851 181.595 47.1931 179.328C46.2958 177.049 45.3998 174.769 44.4958 172.502C45.0318 172.115 45.5292 171.649 46.0145 171.209C47.0132 170.275 47.9918 169.329 48.9731 168.382C50.0545 170.515 51.1465 172.635 52.2265 174.755ZM38.1705 205.102C36.9998 206.222 35.8331 207.356 34.6558 208.462C33.3358 209.715 31.6411 211.475 29.7545 211.022C24.7438 209.782 31.4958 203.155 32.8078 201.716C37.1251 196.995 41.8731 192.755 46.9425 189.088C47.7491 188.502 48.5665 187.928 49.3891 187.369C49.4785 187.595 49.5612 187.822 49.6478 188.035C50.2772 189.662 51.0091 191.395 52.1331 192.689C47.2558 196.475 42.6678 200.795 38.1705 205.102ZM60.0238 80.6887C55.4371 78.3687 51.0211 75.622 46.8371 72.4754C46.5865 72.2887 46.3398 72.102 46.0891 71.902C45.5131 71.462 44.9425 71.0087 44.3745 70.5554C43.9131 70.182 42.8558 69.3954 41.7678 68.422C41.6465 68.3154 41.5251 68.2087 41.4078 68.102C39.1331 65.9954 36.9878 63.1954 40.1198 61.862C40.9971 61.4887 41.8971 61.6354 42.7545 62.0087C42.9385 62.0754 43.1185 62.1687 43.2945 62.262C44.0145 62.6487 44.6998 63.142 45.3105 63.5687C46.2691 64.2354 47.2238 64.902 48.1825 65.582C48.4892 65.7954 48.7985 66.0087 49.1025 66.222L49.2278 66.302C55.9571 71.0087 62.8545 75.7287 70.2131 79.062C69.4185 80.7421 68.7105 82.4887 68.0838 84.2887C65.3518 83.222 62.6625 82.022 60.0238 80.6887ZM45.2905 54.1287C45.8705 51.7554 46.3985 49.3287 47.0011 46.942C47.0638 46.6887 47.1305 46.4354 47.1971 46.182C47.3851 45.462 47.5758 44.7554 47.7838 44.0487C48.1318 42.8487 48.5945 41.5954 49.3025 40.5954C49.4825 40.3287 49.6865 40.0887 49.9051 39.862C50.1251 39.6354 50.3598 39.4354 50.6185 39.262C52.0545 38.302 54.0745 38.2087 55.0798 39.9287C55.5465 40.7287 55.6905 41.6487 55.6518 42.6087C55.6358 42.942 55.6052 43.2754 55.5505 43.5954C55.3305 45.0487 54.7985 46.502 54.3958 47.6754C54.2505 48.0887 54.1051 48.502 53.9611 48.9287C53.8905 49.1287 53.8198 49.3287 53.7492 49.5287C52.7945 52.302 51.8318 55.062 50.8718 57.822C50.0851 60.102 49.2878 62.3687 48.4998 64.662C47.4038 63.8887 46.3078 63.1154 45.2011 62.3687C44.6611 62.0087 44.1051 61.622 43.5211 61.3287C44.1158 58.9287 44.7038 56.542 45.2905 54.1287ZM43.7478 44.5154C38.2492 41.742 32.9958 38.342 28.0985 34.3914C26.6118 33.1887 19.0571 27.7487 23.8438 25.6967C25.6518 24.926 27.5625 26.382 29.0345 27.4034C30.3451 28.3127 31.6451 29.2314 32.9518 30.1434C37.9705 33.6554 43.0785 37.166 48.4105 40.102C47.4665 41.5687 46.9705 43.3954 46.5665 45.102C46.5038 45.342 46.4531 45.5687 46.3985 45.8087C45.5051 45.3954 44.6252 44.9687 43.7478 44.5154ZM92.9398 42.8754C92.7865 43.1154 92.6691 43.382 92.6185 43.6754L92.5878 43.5954L92.6345 43.4354L92.7051 43.2487L92.7092 43.2354C92.7758 43.102 92.8531 42.982 92.9398 42.8754ZM140.498 43.5954L140.472 43.6754C140.421 43.382 140.304 43.1154 140.15 42.8754C140.237 42.982 140.314 43.102 140.381 43.2354L140.385 43.2487L140.452 43.4354L140.498 43.5954ZM94.4158 36.646L94.7638 36.2927C95.1905 35.87 95.6331 35.4714 96.0905 35.0994C96.4398 34.81 96.7998 34.5394 97.1678 34.2847L97.4958 34.058C103.382 30.1554 109.966 29.9834 116.546 29.874C123.126 29.9834 129.707 30.1554 135.595 34.058L135.923 34.2847C136.29 34.5394 136.651 34.81 137 35.0994C137.457 35.4714 137.9 35.87 138.326 36.2927L138.674 36.646C141.329 39.4087 143.305 43.0754 144.006 46.982C143.622 46.6754 143.23 46.3954 142.828 46.1154C142.257 45.7154 141.677 45.342 141.082 44.9687C141.598 43.742 140.921 42.182 139.837 41.6354C138.737 41.0887 137.438 41.622 136.769 42.6887H136.765C133.433 41.2087 129.848 40.182 126.125 39.702C123.049 39.302 119.737 39.1554 116.546 39.5154C113.357 39.1554 110.045 39.302 106.965 39.702C103.242 40.182 99.6571 41.2087 96.3211 42.6887C95.8371 41.9154 95.0145 41.422 94.1771 41.422C93.8678 41.422 93.5505 41.4887 93.2532 41.6354C92.1678 42.182 91.4918 43.742 92.0078 44.9687C91.4131 45.342 90.8291 45.7154 90.2625 46.1154C89.8585 46.3954 89.4678 46.6754 89.0838 46.982C89.7852 43.0754 91.7611 39.4087 94.4158 36.646ZM78.4718 1.93669C84.3318 5.6127 87.2838 13.198 89.5651 19.966C90.7478 23.47 91.9225 26.9967 93.4878 30.3127C94.0665 31.5407 94.7438 32.9114 95.5345 34.2154C95.0651 34.638 94.6145 35.0834 94.1838 35.5567C86.6265 25.838 81.2638 14.538 78.4718 1.93669ZM139.602 30.3127C141.168 26.9967 142.342 23.47 143.525 19.966C145.807 13.198 148.758 5.6127 154.618 1.93669C151.826 14.538 146.464 25.838 138.905 35.5567C138.476 35.0834 138.025 34.638 137.556 34.2154C138.346 32.9114 139.024 31.5407 139.602 30.3127ZM183.862 66.302L183.988 66.222C184.293 66.0087 184.602 65.7954 184.906 65.582C185.866 64.902 186.821 64.2354 187.78 63.5687C188.39 63.142 189.076 62.6487 189.796 62.262C189.972 62.1687 190.152 62.0754 190.336 62.0087C191.193 61.6354 192.094 61.4887 192.97 61.862C196.102 63.1954 193.957 65.9954 191.682 68.102C191.565 68.2087 191.444 68.3154 191.323 68.422C190.234 69.3954 189.177 70.182 188.716 70.5554C188.148 71.0087 187.577 71.462 187.001 71.902C186.75 72.102 186.504 72.2887 186.253 72.4754C182.069 75.622 177.655 78.3687 173.067 80.6887C170.428 82.022 167.738 83.222 165.006 84.2887C164.38 82.4887 163.672 80.7421 162.877 79.062C170.236 75.7287 177.133 71.0087 183.862 66.302ZM182.218 57.822C181.258 55.062 180.296 52.302 179.341 49.5287C179.27 49.3287 179.2 49.1287 179.129 48.9287C178.985 48.502 178.84 48.0887 178.695 47.6754C178.292 46.502 177.76 45.0487 177.54 43.5954C177.485 43.2754 177.454 42.942 177.438 42.6087C177.4 41.6487 177.544 40.7287 178.01 39.9287C179.016 38.2087 181.036 38.302 182.472 39.262C182.73 39.4354 182.965 39.6354 183.185 39.862C183.404 40.0887 183.608 40.3287 183.788 40.5954C184.496 41.5954 184.958 42.8487 185.306 44.0487C185.514 44.7554 185.705 45.462 185.893 46.182C185.96 46.4354 186.027 46.6887 186.089 46.942C186.692 49.3287 187.221 51.7554 187.8 54.1287C188.387 56.542 188.974 58.9287 189.569 61.3287C188.986 61.622 188.43 62.0087 187.89 62.3687C186.782 63.1154 185.686 63.8887 184.59 64.662C183.804 62.3687 183.005 60.102 182.218 57.822ZM200.137 30.1434C201.445 29.2314 202.745 28.3127 204.056 27.4034C205.528 26.382 207.438 24.926 209.246 25.6967C214.033 27.7487 206.479 33.1887 204.992 34.3914C200.095 38.342 194.841 41.742 189.342 44.5154C188.465 44.9687 187.584 45.3954 186.692 45.8087C186.637 45.5687 186.586 45.342 186.524 45.102C186.121 43.3954 185.624 41.5687 184.68 40.102C190.012 37.166 195.12 33.6554 200.137 30.1434ZM63.4691 109.009C63.3704 110.249 63.2772 111.489 63.1945 112.729C56.2972 111.595 49.2318 111.449 42.2798 111.382L42.1318 111.369C41.7718 111.369 41.4078 111.369 41.0478 111.369C39.9198 111.355 38.7891 111.342 37.6611 111.329C36.9411 111.315 36.1265 111.329 35.3331 111.209C35.1371 111.182 34.9451 111.155 34.7531 111.102C33.8531 110.902 33.0225 110.475 32.4678 109.635C30.4665 106.622 33.6145 105.555 36.5385 105.155C36.6905 105.142 36.8478 105.115 36.9958 105.102C38.3771 104.942 39.6505 104.902 40.2211 104.875C40.9145 104.822 41.6145 104.795 42.3158 104.769C42.6172 104.755 42.9145 104.742 43.2158 104.729C48.2505 104.609 53.2958 104.942 58.2744 105.755C60.0784 106.035 61.8798 106.382 63.6612 106.795C63.5945 107.542 63.5318 108.275 63.4691 109.009ZM39.5945 119.529C39.0785 122.435 38.5692 125.342 38.0492 128.249C38.0132 128.462 37.9745 128.675 37.9358 128.889C37.8571 129.329 37.7825 129.769 37.7011 130.195C37.4811 131.435 37.2305 132.982 36.7225 134.342C36.6131 134.649 36.4798 134.942 36.3345 135.222C35.9118 136.062 35.3438 136.755 34.5691 137.142C32.8905 137.995 31.2385 136.702 30.4865 135.022C30.3491 134.715 30.2478 134.409 30.1731 134.089C30.0918 133.769 30.0398 133.449 30.0132 133.115C29.8958 131.835 30.1105 130.502 30.3891 129.275C30.5531 128.555 30.7292 127.849 30.9172 127.129C30.9798 126.875 31.0465 126.622 31.1211 126.369C31.7505 123.995 32.4678 121.635 33.1211 119.275C33.7785 116.889 34.4318 114.515 35.0825 112.129C35.7158 112.235 36.3665 112.262 36.9838 112.275C38.2838 112.315 39.5798 112.315 40.8718 112.329C40.4411 114.729 40.0251 117.129 39.5945 119.529ZM29.0225 132.982C23.1238 132.249 17.1305 132.142 11.2118 132.075C9.67848 132.049 8.1358 132.049 6.59714 132.022C4.86647 131.995 2.55714 132.075 1.40247 130.342C-1.64953 125.729 7.32513 125.689 9.15713 125.569C15.1771 125.182 21.2451 125.489 27.2105 126.449C28.1611 126.595 29.1158 126.769 30.0638 126.955C29.9971 127.182 29.9305 127.409 29.8678 127.649C29.3905 129.342 28.9291 131.182 29.0225 132.982ZM232.67 127.062C231.405 124.835 228.121 124.969 226.113 124.795C218.293 124.089 210.456 124.555 202.808 126.182C202.005 123.422 201.164 120.675 200.353 117.929C199.775 115.955 199.19 113.982 198.604 112.022C199.116 111.889 199.601 111.702 200.06 111.409C201.59 110.449 202.658 108.195 201.609 106.355C200.576 104.542 198.192 104.302 196.258 104.182C196.113 104.169 195.977 104.155 195.836 104.155C195.558 104.129 195.296 104.115 195.049 104.089C193.557 103.955 192.066 103.862 190.578 103.822C190.293 103.809 190.016 103.795 189.733 103.795C182.872 103.649 176.033 104.395 169.356 106.035C168.667 98.982 167.488 91.662 165.229 84.942C172.773 82.1954 179.964 78.2887 186.59 73.3554C186.821 73.182 187.052 73.0087 187.286 72.822C188.52 71.8887 189.733 70.9154 190.928 69.902C191.123 69.7287 191.335 69.5554 191.561 69.382L191.906 69.102C193.476 67.822 195.37 66.182 195.374 64.0354C195.378 61.8487 193.401 60.5954 191.64 60.702C191.118 60.742 190.618 60.8754 190.125 61.0754C189.674 59.062 189.224 57.0487 188.77 55.0487C188.136 52.222 187.53 49.4087 186.88 46.5954C194.109 43.3554 200.944 39.0354 207.2 33.7327C208.808 32.3714 211.645 30.5034 211.645 27.87C211.65 25.6887 209.677 24.4367 207.916 24.542C206.549 24.6207 205.309 25.4234 204.169 26.198C202.58 27.278 201.011 28.406 199.433 29.51C196.243 31.7367 193.045 33.9487 189.777 36.0154C187.917 37.186 186.039 38.302 184.128 39.3554C183.913 39.0887 183.682 38.862 183.424 38.6354C180.821 36.446 177.038 37.3927 176.518 41.2887C176.44 41.862 176.433 42.4487 176.472 43.0087C176.496 43.342 176.53 43.662 176.585 43.9954C176.785 45.2354 177.168 46.4487 177.556 47.5954C177.752 48.1554 177.944 48.7154 178.138 49.2754C178.202 49.4754 178.268 49.662 178.334 49.862C179.157 52.2487 179.986 54.6354 180.813 57.022C181.764 59.782 182.704 62.5554 183.667 65.3154C183.499 65.4354 183.325 65.5554 183.157 65.6754C179.968 67.902 176.773 70.1154 173.501 72.182C169.926 74.4354 166.26 76.5154 162.47 78.2087C160.705 74.662 158.524 71.3954 155.816 68.6087C155.796 68.3554 155.776 68.102 155.749 67.862C154.962 60.1287 151.056 52.662 144.55 47.4087C144.531 47.2487 144.508 47.0754 144.484 46.9154C143.877 42.8354 141.92 38.9687 139.273 35.9647C147.626 26.3554 153.533 13.8794 156.101 0.852707C156.222 0.258041 155.69 -0.192627 155.209 0.0820465C149.294 3.45137 145.978 9.95804 143.529 16.6034C142.128 20.4047 140.921 24.3034 139.328 28.01C138.545 29.8314 137.673 31.6154 136.632 33.2634L136.565 33.366C131.006 28.922 123.48 27.6033 116.546 28.226C109.614 27.6033 102.084 28.922 96.5252 33.366L96.4585 33.2634C95.4172 31.6154 94.5452 29.8314 93.7612 28.01C92.1678 24.3034 90.9638 20.4047 89.5612 16.6034C87.1118 9.95804 83.7958 3.45137 77.8812 0.0820465C77.3998 -0.192627 76.8678 0.258041 76.9892 0.852707C79.5572 13.8794 85.4638 26.3554 93.8158 35.9647C91.1705 38.9687 89.2132 42.8354 88.6065 46.9154C88.5825 47.0754 88.5598 47.2487 88.5398 47.4087C82.0345 52.662 78.1278 60.1287 77.3411 67.862C77.3131 68.102 77.2944 68.3554 77.2745 68.6087C74.5665 71.3954 72.3852 74.662 70.6198 78.2087C66.8318 76.5154 63.1638 74.4354 59.5892 72.182C56.3172 70.1154 53.1238 67.902 49.9331 65.6754C49.7651 65.5554 49.5918 65.4354 49.4238 65.3154C50.3865 62.5554 51.3265 59.782 52.2772 57.022C53.1038 54.6354 53.9331 52.2487 54.7558 49.862C54.8225 49.662 54.8891 49.4754 54.9518 49.2754C55.1465 48.7154 55.3385 48.1554 55.5345 47.5954C55.9225 46.4487 56.3051 45.2354 56.5051 43.9954C56.5598 43.662 56.5958 43.342 56.6185 43.0087C56.6585 42.4487 56.6504 41.862 56.5718 41.2887C56.0504 37.3927 52.2691 36.446 49.6665 38.6354C49.4078 38.862 49.1771 39.0887 48.9625 39.3554C47.0518 38.302 45.1732 37.186 43.3145 36.0154C40.0452 33.9487 36.8478 31.7367 33.6571 29.51C32.0798 28.406 30.5105 27.278 28.9211 26.198C27.7811 25.4234 26.5411 24.6207 25.1745 24.542C23.4131 24.4367 21.4411 25.6887 21.4438 27.87C21.4438 30.5034 24.2825 32.3714 25.8905 33.7327C32.1465 39.0354 38.9812 43.3554 46.2105 46.5954C45.5611 49.4087 44.9545 52.222 44.3198 55.0487C43.8651 57.0487 43.4158 59.062 42.9651 61.0754C42.4718 60.8754 41.9705 60.742 41.4505 60.702C39.6892 60.5954 37.7118 61.8487 37.7158 64.0354C37.7198 66.182 39.6145 67.822 41.1838 69.102L41.5291 69.382C41.7558 69.5554 41.9678 69.7287 42.1625 69.902C43.3571 70.9154 44.5705 71.8887 45.8038 72.822C46.0385 73.0087 46.2691 73.182 46.4998 73.3554C53.1265 78.2887 60.3172 82.1954 67.8612 84.942C65.6025 91.662 64.4238 98.982 63.7345 106.035C57.0571 104.395 50.2185 103.649 43.3571 103.795C43.0745 103.795 42.7972 103.809 42.5118 103.822C41.0238 103.862 39.5331 103.955 38.0411 104.089C37.7945 104.115 37.5318 104.129 37.2545 104.155C37.1131 104.155 36.9758 104.169 36.8318 104.182C34.8985 104.302 32.5145 104.542 31.4812 106.355C30.4318 108.195 31.4998 110.449 33.0305 111.409C33.4891 111.702 33.9745 111.889 34.4865 112.022C33.8998 113.982 33.3171 115.955 32.7371 117.929C31.9265 120.675 31.0852 123.422 30.2825 126.182C22.6345 124.555 14.7985 124.089 6.97715 124.795C4.96915 124.969 1.68513 124.835 0.421126 127.062C-0.628208 128.889 0.431808 131.142 1.97047 132.115C3.15981 132.862 4.58913 132.942 5.9238 132.982C7.7838 133.022 9.64647 133.009 11.5025 133.035C15.2598 133.075 19.0171 133.142 22.7718 133.369C24.8971 133.489 27.0185 133.689 29.1278 133.942C29.1825 134.302 29.2692 134.635 29.3825 134.982C30.5292 138.395 34.1705 139.875 36.4798 136.902C36.8198 136.462 37.1025 135.982 37.3411 135.475C37.4811 135.182 37.6065 134.889 37.7158 134.569C38.1465 133.409 38.4091 132.155 38.6278 130.955C38.7305 130.369 38.8358 129.769 38.9411 129.182C38.9838 128.995 39.0198 128.782 39.0505 128.582C39.5092 126.062 39.9518 123.542 40.4011 121.035C40.9225 118.142 41.4585 115.235 41.9678 112.329C42.1625 112.329 42.3665 112.342 42.5705 112.342C46.3238 112.382 50.0771 112.435 53.8318 112.662C56.9438 112.849 60.0558 113.169 63.1318 113.675C62.4398 124.422 62.3918 135.382 63.7744 146.062C57.3118 149.875 51.2878 154.595 45.8505 160.115C45.6385 160.329 45.4318 160.542 45.2278 160.755C44.1318 161.889 43.0598 163.062 42.0145 164.262C41.8425 164.449 41.6545 164.662 41.4545 164.875L41.1531 165.209C39.7678 166.729 38.1118 168.662 38.3931 170.795C38.6798 172.955 40.8011 173.862 42.5225 173.462C43.0358 173.342 43.5172 173.128 43.9758 172.849C44.6878 174.769 45.3998 176.675 46.1132 178.595C47.1145 181.262 48.0891 183.955 49.1025 186.622C42.3825 191.035 36.1931 196.449 30.7091 202.728C29.3011 204.342 26.7451 206.662 27.0891 209.262C27.3745 211.422 29.4918 212.342 31.2185 211.942C32.5611 211.635 33.6811 210.635 34.7105 209.675C36.1385 208.342 37.5358 206.969 38.9531 205.622C41.8065 202.889 44.6798 200.169 47.6398 197.582C49.3185 196.102 51.0332 194.689 52.7825 193.342C53.0292 193.556 53.2918 193.755 53.5731 193.928C56.4425 195.662 60.0558 194.088 60.0518 190.155C60.0518 189.569 59.9851 188.995 59.8718 188.435C59.8051 188.115 59.7225 187.795 59.6252 187.488C59.2652 186.288 58.7251 185.155 58.1878 184.088C57.9265 183.569 57.6598 183.035 57.3931 182.528C57.3078 182.342 57.2132 182.155 57.1198 181.982C55.9892 179.755 54.8531 177.528 53.7225 175.302C52.4185 172.728 51.1225 170.155 49.8038 167.582C49.9518 167.435 50.1051 167.289 50.2585 167.142C53.1158 164.409 55.9838 161.689 58.9438 159.102C60.9478 157.355 62.9984 155.662 65.1051 154.089C65.7905 157.435 66.6398 160.729 67.6798 163.982C72.2638 178.275 80.3905 191.542 92.2465 199.356C99.1518 203.902 107.708 206.502 116.01 206.182C116.19 206.182 116.366 206.169 116.546 206.169C116.716 206.169 116.884 206.182 117.048 206.182C125.366 206.502 133.93 203.915 140.844 199.356C152.7 191.542 160.826 178.275 165.41 163.982C166.45 160.729 167.3 157.435 167.985 154.089C170.092 155.662 172.142 157.355 174.146 159.102C177.106 161.689 179.974 164.409 182.832 167.142C182.985 167.289 183.139 167.435 183.286 167.582C181.968 170.155 180.672 172.728 179.368 175.302C178.237 177.528 177.102 179.755 175.97 181.982C175.877 182.155 175.783 182.342 175.697 182.528C175.431 183.035 175.164 183.569 174.902 184.088C174.366 185.155 173.825 186.288 173.465 187.488C173.368 187.795 173.285 188.115 173.218 188.435C173.105 188.995 173.038 189.569 173.038 190.155C173.034 194.088 176.648 195.662 179.517 193.928C179.798 193.755 180.061 193.556 180.308 193.342C182.057 194.689 183.772 196.102 185.452 197.582C188.41 200.169 191.284 202.889 194.137 205.622C195.554 206.969 196.952 208.342 198.38 209.675C199.409 210.635 200.529 211.635 201.872 211.942C203.598 212.342 205.716 211.422 206.001 209.262C206.346 206.662 203.79 204.342 202.381 202.728C196.897 196.449 190.708 191.035 183.988 186.622C185.001 183.955 185.976 181.262 186.977 178.595C187.69 176.675 188.402 174.769 189.115 172.849C189.573 173.128 190.054 173.342 190.568 173.462C192.289 173.862 194.412 172.955 194.697 170.795C194.979 168.662 193.322 166.729 191.937 165.209L191.636 164.875C191.436 164.662 191.248 164.449 191.076 164.262C190.03 163.062 188.958 161.889 187.862 160.755C187.658 160.542 187.452 160.329 187.24 160.115C181.802 154.595 175.778 149.875 169.316 146.062C170.698 135.382 170.652 124.422 169.959 113.675C173.035 113.169 176.146 112.849 179.258 112.662C183.012 112.435 186.766 112.382 190.52 112.342C190.724 112.342 190.928 112.329 191.122 112.329C191.632 115.235 192.168 118.142 192.689 121.035C193.139 123.542 193.581 126.062 194.038 128.582C194.07 128.782 194.105 128.995 194.149 129.182L194.462 130.955C194.681 132.155 194.944 133.409 195.374 134.569C195.484 134.889 195.609 135.182 195.751 135.475C195.989 135.982 196.27 136.462 196.61 136.902C198.92 139.875 202.561 138.395 203.708 134.982C203.821 134.635 203.908 134.302 203.962 133.942C206.072 133.689 208.193 133.489 210.318 133.369C214.073 133.142 217.83 133.075 221.588 133.035C223.444 133.009 225.307 133.022 227.167 132.982C228.501 132.942 229.929 132.862 231.12 132.115C232.659 131.142 233.718 128.889 232.67 127.062Z" fill="#403C3D"/>
<path d="M141.524 55.8489C142.589 56.5422 143.975 56.6755 144.828 55.8622C145.514 55.3822 145.924 54.4355 145.698 53.2755C145.299 51.2755 143.717 48.9555 142.007 48.1555C140.359 47.3822 138.155 48.2089 138.06 50.4489C137.963 52.7022 139.916 54.8222 141.524 55.8489Z" fill="#403C3D"/>
<path d="M131.762 38.0351L132.036 37.9817C132.905 38.1951 133.926 37.6217 134.272 36.6417C134.792 35.1737 133.825 33.6031 132.513 33.3137C131.148 33.0084 129.468 34.0297 129.35 35.6937C129.241 37.1937 130.501 38.2484 131.762 38.0351Z" fill="#403C3D"/>
<path d="M130.514 60.2628C130.922 60.1695 131.286 59.9295 131.575 59.6228C132.15 59.3695 132.647 58.9028 132.894 58.2361C133.543 56.5295 132.036 55.0228 130.584 54.9695C129.074 54.9161 127.703 56.2095 127.762 57.9695C127.812 59.5828 129.144 60.5961 130.514 60.2628Z" fill="#403C3D"/>
<path d="M102.502 54.9695C101.05 55.0228 99.5464 56.5295 100.197 58.2361C100.444 58.9028 100.937 59.3695 101.516 59.6228C101.805 59.9295 102.165 60.1695 102.577 60.2628C103.942 60.5961 105.277 59.5828 105.329 57.9695C105.384 56.2095 104.013 54.9161 102.502 54.9695Z" fill="#403C3D"/>
<path d="M101.051 37.9817L101.324 38.0351C102.59 38.2484 103.846 37.1937 103.74 35.6937C103.619 34.0297 101.939 33.0084 100.577 33.3137C99.2615 33.6031 98.2988 35.1737 98.8162 36.6417C99.1602 37.6217 100.186 38.1951 101.051 37.9817Z" fill="#403C3D"/>
<path d="M91.0838 48.1555C89.3745 48.9555 87.7918 51.2755 87.3931 53.2755C87.1664 54.4355 87.5731 55.3822 88.2624 55.8622C89.1158 56.6755 90.4971 56.5422 91.5651 55.8489C93.1744 54.8222 95.1278 52.7022 95.0305 50.4489C94.9358 48.2089 92.7291 47.3822 91.0838 48.1555Z" fill="#403C3D"/>
</svg>
