<svg width="310" height="214" viewBox="0 0 310 214" fill="none" xmlns="http://www.w3.org/2000/svg">
<path d="M154.807 204.307C152.767 204.053 150.727 203.773 148.7 203.453C145.487 202.96 142.3 202.373 139.127 201.707C140.18 202.427 141.247 203.16 142.314 203.867C143.007 204.32 143.687 204.773 144.38 205.227C146.887 206.84 149.42 208.387 152.007 209.853C152.94 210.387 153.874 210.894 154.807 211.4C155.754 210.894 156.687 210.387 157.62 209.853C160.207 208.387 162.74 206.84 165.234 205.227C165.927 204.773 166.62 204.32 167.314 203.867C168.38 203.16 169.434 202.427 170.5 201.707C167.327 202.373 164.127 202.96 160.927 203.453C158.887 203.773 156.86 204.053 154.807 204.307Z" fill="#737071"/>
<path d="M203.446 162.242C202.406 165.428 201.073 168.535 199.486 171.508C199.193 172.069 198.886 172.615 198.58 173.162C197.593 174.882 196.526 176.562 195.393 178.188C194.446 179.535 193.473 180.828 192.446 182.095C192.246 182.162 192.046 182.228 191.846 182.282C191.606 182.362 191.366 182.441 191.126 182.508C190.286 182.775 189.46 183.028 188.62 183.282C177.593 186.602 166.26 188.935 154.82 190.215H154.806C143.366 188.935 132.02 186.602 121.006 183.282C120.513 183.135 120.033 182.988 119.553 182.841C119.193 182.735 118.846 182.628 118.5 182.508C118.06 182.375 117.606 182.228 117.166 182.095C116.153 180.828 115.166 179.535 114.233 178.188C113.1 176.562 112.033 174.882 111.046 173.162C110.726 172.615 110.433 172.069 110.14 171.508C108.553 168.535 107.22 165.428 106.18 162.242C107.726 162.842 109.286 163.415 110.846 163.975C111.94 164.375 113.033 164.762 114.126 165.135C121.153 167.535 128.3 169.522 135.566 171.028C138.38 171.615 141.206 172.148 144.06 172.602H144.073C147.62 173.188 151.22 173.668 154.806 174.041H154.82C158.42 173.668 162.006 173.188 165.566 172.602C168.42 172.135 171.246 171.615 174.06 171.028C181.86 169.415 189.513 167.255 197.02 164.602C197.606 164.402 198.193 164.202 198.78 163.975C200.34 163.415 201.886 162.842 203.446 162.242Z" fill="#737071"/>
<path d="M205.593 139.148C203.087 140.161 200.553 141.135 197.993 142.055C197.433 142.255 196.887 142.455 196.327 142.655C182.913 147.401 168.94 150.588 154.807 152.281C140.74 150.601 126.833 147.428 113.46 142.708L113.3 142.655C110.167 141.548 107.087 140.388 104.033 139.148C104.607 134.415 105.727 129.735 107.3 125.215C107.46 124.708 107.647 124.201 107.847 123.695C108.847 120.975 110.007 118.335 111.313 115.761L111.407 115.801C114.54 117.121 117.713 118.348 120.927 119.468C128.967 122.268 137.233 124.401 145.62 125.868C148.66 126.401 151.727 126.841 154.807 127.188C157.887 126.841 160.953 126.401 164.007 125.868C172.953 124.308 181.753 121.975 190.287 118.895C192.967 117.935 195.607 116.908 198.22 115.801L198.313 115.761C199.607 118.335 200.78 120.975 201.78 123.695C201.98 124.201 202.153 124.708 202.327 125.215C203.9 129.735 205.02 134.415 205.593 139.148Z" fill="#737071"/>
<path d="M188.66 100.774C187.753 101.107 186.834 101.414 185.914 101.721C182.154 102.961 178.34 104.041 174.487 104.974C168.02 106.534 161.434 107.654 154.82 108.334H154.807C148.474 107.694 142.167 106.627 135.954 105.161C131.82 104.187 127.727 103.041 123.7 101.721C122.78 101.414 121.873 101.107 120.967 100.774C123.847 97.0673 126.967 93.5473 130.22 90.1607L130.274 90.1207C131.394 90.9607 132.58 91.734 133.78 92.4407C137.114 94.3873 140.687 95.8273 144.114 96.6673C147.62 97.5073 151.22 97.9207 154.807 97.8407C158.394 97.9207 162.007 97.5073 165.5 96.6673C168.94 95.8273 172.5 94.3873 175.833 92.4407C177.047 91.734 178.22 90.9607 179.354 90.1207L179.407 90.1607C182.66 93.5473 185.78 97.0673 188.66 100.774Z" fill="#737071"/>
<path d="M161.153 190.801C171.433 189.228 181.54 186.747 191.393 183.374C189.086 186.121 186.606 188.694 183.966 191.107C183.406 191.628 182.846 192.147 182.273 192.641C179.366 195.201 176.313 197.587 173.153 199.841C167.086 201.147 160.966 202.161 154.806 202.867C148.646 202.161 142.526 201.147 136.473 199.841C133.313 197.587 130.26 195.201 127.353 192.641C126.78 192.147 126.22 191.628 125.646 191.107C124.433 189.987 123.233 188.828 122.086 187.641C120.753 186.268 119.46 184.841 118.22 183.374C118.846 183.587 119.486 183.801 120.113 184.001C129.366 187.054 138.846 189.334 148.473 190.801C150.58 191.121 152.686 191.414 154.806 191.654H154.82C156.926 191.414 159.046 191.121 161.153 190.801Z" fill="#BCBABB"/>
<path d="M206.007 147.788C205.967 149.161 205.874 150.535 205.714 151.881C205.647 152.481 205.58 153.068 205.487 153.655C205.127 156.108 204.58 158.535 203.874 160.895C203.607 161.001 203.34 161.095 203.074 161.188C201.154 161.868 199.234 162.521 197.274 163.148C196.62 163.348 195.967 163.548 195.314 163.748C182.114 167.695 168.527 170.441 154.807 171.814C141.1 170.441 127.5 167.695 114.314 163.748C114.167 163.708 114.02 163.655 113.887 163.615C111.407 162.868 108.967 162.055 106.554 161.188C106.287 161.095 106.02 161.001 105.754 160.895C105.047 158.535 104.5 156.108 104.127 153.655C104.047 153.068 103.967 152.481 103.9 151.881C103.754 150.535 103.66 149.161 103.62 147.788C103.554 145.415 103.634 143.028 103.874 140.655C106.967 141.988 110.114 143.228 113.287 144.361C120.42 146.935 127.727 149.055 135.06 150.828C138.74 151.708 142.447 152.481 146.18 153.121C149.047 153.615 151.927 154.041 154.807 154.401C157.7 154.041 160.58 153.615 163.447 153.121C167.18 152.481 170.887 151.708 174.554 150.828C182.527 148.908 190.447 146.575 198.154 143.695C200.714 142.748 203.247 141.735 205.754 140.655C205.98 143.028 206.074 145.415 206.007 147.788Z" fill="#BCBABB"/>
<path d="M197.78 114.734C196.647 115.161 195.527 115.587 194.38 115.987C192.753 116.574 191.113 117.134 189.473 117.667C178.233 121.321 166.553 123.827 154.807 125.107C143.62 123.881 132.487 121.547 121.74 118.174C119.553 117.494 117.393 116.761 115.233 115.987C114.1 115.587 112.967 115.161 111.847 114.734C112.033 114.374 112.233 114.014 112.433 113.654C113.407 111.854 114.447 110.107 115.553 108.401C115.82 107.987 116.087 107.574 116.353 107.161C117.567 105.334 118.847 103.534 120.18 101.787L120.327 101.587C124.86 103.347 129.5 104.854 134.22 106.107C138.54 107.254 142.927 108.187 147.34 108.907H147.353C149.82 109.321 152.313 109.654 154.807 109.921C157.313 109.654 159.793 109.321 162.273 108.907C166.993 108.147 171.673 107.134 176.287 105.867C180.7 104.667 185.033 103.241 189.287 101.587L189.433 101.787C190.767 103.534 192.047 105.334 193.26 107.161C193.54 107.574 193.807 107.987 194.073 108.401C195.167 110.107 196.207 111.854 197.193 113.654C197.393 114.014 197.58 114.374 197.78 114.734Z" fill="#BCBABB"/>
<path d="M187.3 79.1742C187.153 79.4675 187.006 79.7609 186.846 80.0542C186.14 81.3609 185.3 82.6142 184.38 83.7875C183.46 84.9609 182.46 86.0542 181.406 87.0542C180.646 87.7742 179.873 88.4409 179.073 89.0675C178.94 89.1875 178.793 89.2942 178.66 89.4009C177.593 90.2009 176.486 90.9342 175.353 91.6009C173.446 92.7075 171.46 93.6275 169.393 94.3609C164.753 96.0009 159.78 96.7075 154.806 96.6009C149.833 96.7075 144.86 96.0009 140.233 94.3609C138.166 93.6275 136.166 92.7075 134.273 91.6009C133.14 90.9342 132.033 90.2009 130.966 89.4009C130.82 89.2942 130.686 89.1875 130.553 89.0675C129.74 88.4409 128.966 87.7742 128.22 87.0542C126.1 85.0409 124.193 82.6675 122.766 80.0542C122.606 79.7609 122.46 79.4675 122.313 79.1742C120.86 76.2409 120.033 73.0275 120.166 69.7342C120.26 67.6942 120.726 65.7742 121.486 63.9875C121.54 63.8542 121.593 63.7342 121.646 63.6009C123.006 60.6009 125.193 57.9875 127.793 55.8675C128.886 54.9742 130.046 54.1742 131.26 53.4675C133.326 52.2542 135.46 51.3475 137.66 50.6675C137.98 50.5742 138.286 50.4809 138.606 50.3875C139.006 50.2809 139.393 50.1742 139.793 50.0809C144.66 48.8542 149.753 48.4942 154.806 47.8675C159.86 48.4942 164.953 48.8542 169.833 50.0809C170.22 50.1742 170.62 50.2809 171.006 50.3875H171.02C171.326 50.4809 171.646 50.5742 171.953 50.6675C174.153 51.3475 176.3 52.2542 178.366 53.4675C178.726 53.6809 179.086 53.8942 179.446 54.1342C183.073 56.4809 186.206 59.7209 187.966 63.6009C188.02 63.7342 188.086 63.8542 188.14 63.9875C188.513 64.8809 188.82 65.8142 189.046 66.7742C189.273 67.7342 189.406 68.7209 189.446 69.7342C189.593 73.0275 188.753 76.2409 187.3 79.1742Z" fill="#A19FA0"/>
<path d="M175.233 45.6006C174.033 47.334 172.46 48.6406 170.673 49.6406C165.806 48.334 160.7 47.7473 156.1 47.5873L156.02 47.534C155.62 47.534 155.22 47.5473 154.806 47.5473C154.406 47.5473 153.993 47.534 153.593 47.534L153.526 47.5873C148.926 47.7473 143.806 48.334 138.953 49.6406C137.166 48.6406 135.593 47.334 134.393 45.6006C130.126 39.5073 132.726 31.09 135.846 25.1166C138.273 20.4806 141.313 15.9099 144.606 11.6739C145.806 10.1273 147.046 8.62595 148.3 7.18329C150.153 5.06329 152.366 3.12864 154.806 1.76463C157.26 3.13397 159.473 5.06729 161.313 7.18329C163.713 9.94195 166.06 12.9139 168.206 16.0073C170.26 18.9633 172.153 22.0246 173.78 25.1166C176.9 31.09 179.486 39.5073 175.233 45.6006Z" fill="#A19FA0"/>
<path d="M304.367 57.9084C301.954 65.0418 298.967 72.3218 293.994 78.0951C288.314 84.7084 280.58 87.7218 271.94 87.9218C262.407 88.1351 252.727 86.3751 243.287 85.2818C225.087 83.2018 206.874 80.6951 188.607 79.2684C189.82 76.6684 190.514 73.8684 190.514 70.9084C190.514 69.6551 190.394 68.3618 190.127 67.0551C189.887 65.8551 189.554 64.7351 189.14 63.6817C208.487 57.7084 227.807 51.6818 247.18 45.7751C256.94 42.7884 266.727 39.8418 276.487 36.8284C281.367 35.3191 286.247 33.8004 291.114 32.2538C295.687 30.8004 301.234 28.9098 305.18 32.7951C311.82 39.3218 306.86 50.5484 304.367 57.9084ZM187.3 79.1751C187.154 79.4684 187.007 79.7617 186.847 80.0551C186.14 81.3618 185.3 82.6151 184.38 83.7884C183.46 84.9617 182.46 86.0551 181.407 87.0551C180.647 87.7751 179.874 88.4417 179.074 89.0684C178.94 89.1884 178.794 89.2951 178.66 89.4017C177.594 90.2018 176.487 90.9351 175.354 91.6017C173.447 92.7084 171.46 93.6284 169.394 94.3618C164.754 96.0018 159.78 96.7084 154.807 96.6017C149.834 96.7084 144.86 96.0018 140.234 94.3618C138.167 93.6284 136.167 92.7084 134.274 91.6017C133.14 90.9351 132.034 90.2018 130.967 89.4017C130.82 89.2951 130.687 89.1884 130.554 89.0684C129.74 88.4417 128.967 87.7751 128.22 87.0551C126.1 85.0417 124.194 82.6684 122.767 80.0551C122.607 79.7617 122.46 79.4684 122.314 79.1751C120.86 76.2418 120.034 73.0284 120.167 69.7351C120.26 67.6951 120.727 65.7751 121.487 63.9884C121.54 63.8551 121.594 63.7351 121.647 63.6017C123.58 59.3351 127.167 55.8551 131.26 53.4684C133.327 52.2551 135.46 51.3484 137.66 50.6684C137.98 50.5751 138.287 50.4818 138.607 50.3884C139.007 50.2818 139.394 50.1751 139.794 50.0817C144.66 48.8551 149.754 48.4951 154.807 47.8684C159.86 48.4951 164.954 48.8551 169.834 50.0817C170.22 50.1751 170.62 50.2818 171.007 50.3884H171.02C171.327 50.4818 171.647 50.5751 171.954 50.6684C174.154 51.3484 176.3 52.2551 178.367 53.4684C182.447 55.8551 186.034 59.3351 187.967 63.6017C188.02 63.7351 188.087 63.8551 188.14 63.9884C188.514 64.8818 188.82 65.8151 189.047 66.7751C189.274 67.7351 189.407 68.7218 189.447 69.7351C189.594 73.0284 188.754 76.2418 187.3 79.1751ZM188.66 100.775C187.754 101.108 186.834 101.415 185.914 101.722C175.847 105.028 165.38 107.255 154.82 108.335H154.807C144.247 107.255 133.78 105.028 123.7 101.722C122.78 101.415 121.874 101.108 120.967 100.775C123.847 97.0684 126.967 93.5484 130.22 90.1618L130.274 90.1217C131.394 90.9618 132.58 91.7351 133.78 92.4418C137.114 94.3884 140.687 95.8284 144.114 96.6684C147.62 97.5084 151.22 97.9218 154.807 97.8418C158.394 97.9218 162.007 97.5084 165.5 96.6684C168.94 95.8284 172.5 94.3884 175.834 92.4418C177.047 91.7351 178.22 90.9618 179.354 90.1217L179.407 90.1618C182.66 93.5484 185.78 97.0684 188.66 100.775ZM189.434 101.788C190.767 103.535 192.047 105.335 193.26 107.162C193.54 107.575 193.807 107.988 194.074 108.402C195.167 110.108 196.207 111.855 197.194 113.655C197.394 114.015 197.58 114.375 197.78 114.735C196.647 115.162 195.527 115.588 194.38 115.988C181.66 120.562 168.287 123.628 154.807 125.108C141.34 123.642 127.954 120.562 115.234 115.988C114.1 115.588 112.967 115.162 111.847 114.735C112.034 114.375 112.234 114.015 112.434 113.655C113.407 111.855 114.447 110.108 115.554 108.402C115.82 107.988 116.087 107.575 116.354 107.162C117.567 105.335 118.847 103.535 120.18 101.788L120.327 101.588C129.02 104.962 138.114 107.415 147.34 108.908H147.354C149.82 109.322 152.314 109.655 154.807 109.922C157.314 109.655 159.794 109.322 162.274 108.908C171.514 107.415 180.594 104.962 189.287 101.588L189.434 101.788ZM198.314 115.762C199.607 118.335 200.78 120.975 201.78 123.695C201.98 124.202 202.154 124.708 202.327 125.215C203.9 129.735 205.02 134.415 205.594 139.148C202.54 140.388 199.447 141.548 196.327 142.655C182.914 147.402 168.94 150.588 154.807 152.282C140.674 150.588 126.714 147.402 113.3 142.655C110.167 141.548 107.087 140.388 104.034 139.148C104.607 134.415 105.727 129.735 107.3 125.215C107.46 124.708 107.647 124.202 107.847 123.695C108.847 120.975 110.007 118.335 111.314 115.762L111.407 115.802C122.394 120.442 133.887 123.828 145.62 125.868C148.66 126.402 151.727 126.842 154.807 127.188C157.887 126.842 160.954 126.402 164.007 125.868C175.74 123.828 187.234 120.442 198.22 115.802L198.314 115.762ZM206.007 147.788C205.967 149.162 205.874 150.535 205.714 151.882C205.647 152.482 205.58 153.068 205.487 153.655C205.127 156.108 204.58 158.535 203.874 160.895C203.607 161.002 203.34 161.095 203.074 161.188C200.514 162.108 197.927 162.962 195.314 163.748C182.114 167.695 168.527 170.442 154.807 171.815C141.1 170.442 127.5 167.695 114.314 163.748C111.7 162.962 109.1 162.108 106.554 161.188C106.287 161.095 106.02 161.002 105.754 160.895C105.047 158.535 104.5 156.108 104.127 153.655C104.047 153.068 103.967 152.482 103.9 151.882C103.754 150.535 103.66 149.162 103.62 147.788C103.554 145.415 103.634 143.028 103.874 140.655C113.927 144.988 124.46 148.268 135.06 150.828C138.74 151.708 142.447 152.482 146.18 153.122C149.047 153.615 151.927 154.042 154.807 154.402C157.7 154.042 160.58 153.615 163.447 153.122C167.18 152.482 170.887 151.708 174.554 150.828C185.167 148.268 195.687 144.988 205.754 140.655C205.98 143.028 206.074 145.415 206.007 147.788ZM199.487 171.508C199.194 172.069 198.887 172.615 198.58 173.162C197.594 174.882 196.527 176.562 195.394 178.188C194.447 179.535 193.474 180.829 192.447 182.095C192.007 182.229 191.567 182.375 191.127 182.508C190.287 182.775 189.46 183.029 188.62 183.282C177.594 186.602 166.26 188.935 154.82 190.215H154.807C143.367 188.935 132.02 186.602 121.007 183.282C120.167 183.029 119.327 182.775 118.5 182.508C118.06 182.375 117.607 182.229 117.167 182.095C116.154 180.829 115.167 179.535 114.234 178.188C113.1 176.562 112.034 174.882 111.047 173.162C110.727 172.615 110.434 172.069 110.14 171.508C108.554 168.535 107.22 165.428 106.18 162.242C107.727 162.842 109.287 163.415 110.847 163.975C118.914 166.908 127.154 169.282 135.567 171.028C138.38 171.615 141.207 172.148 144.06 172.602H144.074C147.62 173.188 151.22 173.668 154.807 174.041H154.82C158.42 173.668 162.007 173.188 165.567 172.602C168.42 172.135 171.247 171.615 174.06 171.028C182.46 169.282 190.7 166.908 198.78 163.975C200.34 163.415 201.887 162.842 203.447 162.242C202.407 165.428 201.074 168.535 199.487 171.508ZM183.967 191.108C183.407 191.629 182.847 192.148 182.274 192.641C179.367 195.201 176.314 197.588 173.154 199.841C167.087 201.148 160.967 202.162 154.807 202.868C148.647 202.162 142.527 201.148 136.474 199.841C133.314 197.588 130.26 195.201 127.354 192.641C126.78 192.148 126.22 191.629 125.647 191.108C123.02 188.695 120.527 186.122 118.22 183.375C128.087 186.748 138.194 189.229 148.474 190.801C150.58 191.122 152.687 191.415 154.807 191.655H154.82C156.927 191.415 159.047 191.122 161.154 190.801C171.434 189.229 181.54 186.748 191.394 183.375C189.087 186.122 186.607 188.695 183.967 191.108ZM167.314 203.868C166.62 204.322 165.927 204.775 165.234 205.229C162.74 206.841 160.207 208.388 157.62 209.855C156.687 210.388 155.754 210.895 154.807 211.402C153.874 210.895 152.94 210.388 152.007 209.855C149.42 208.388 146.887 206.841 144.38 205.229C143.687 204.775 143.007 204.322 142.314 203.868C141.247 203.162 140.18 202.429 139.127 201.708C142.3 202.375 145.487 202.962 148.7 203.455C150.727 203.775 152.767 204.055 154.807 204.308C156.86 204.055 158.887 203.775 160.927 203.455C164.127 202.962 167.327 202.375 170.5 201.708C169.434 202.429 168.38 203.162 167.314 203.868ZM66.3417 85.2818C56.8924 86.3751 47.2163 88.1351 37.683 87.9218C29.0416 87.7218 21.3123 84.7084 15.6216 78.0951C10.659 72.3218 7.66304 65.0418 5.25238 57.9084C2.76571 50.5484 -2.19427 39.3218 4.4404 32.7951C8.38973 28.9098 13.935 30.8004 18.5137 32.2538C23.379 33.8004 28.2577 35.3191 33.1364 36.8284C42.8964 39.8418 52.6763 42.7884 62.4443 45.7751C81.811 51.6818 101.14 57.7084 120.487 63.6817C120.074 64.7351 119.74 65.8551 119.5 67.0551C118.607 71.4551 119.287 75.5751 121.007 79.2684C102.74 80.6951 84.527 83.2018 66.3417 85.2818ZM134.394 45.6017C130.127 39.5084 132.727 31.0911 135.847 25.1178C139.154 18.7911 143.62 12.5751 148.3 7.18442C150.154 5.06442 152.367 3.12976 154.807 1.76576C157.26 3.1351 159.474 5.06842 161.314 7.18442C166.007 12.5751 170.46 18.7911 173.78 25.1178C176.9 31.0911 179.487 39.5084 175.234 45.6017C174.034 47.3351 172.46 48.6418 170.674 49.6418C165.807 48.3351 160.7 47.7484 156.1 47.5884L156.02 47.5351C155.62 47.5351 155.22 47.5484 154.807 47.5484C154.407 47.5484 153.994 47.5351 153.594 47.5351L153.527 47.5884C148.927 47.7484 143.807 48.3351 138.954 49.6418C137.167 48.6418 135.594 47.3351 134.394 45.6017ZM303.207 29.8311C299.074 28.0418 294.354 29.5964 290.314 30.8604C285.047 32.5044 279.794 34.1631 274.54 35.8391C264.287 39.1084 254.074 42.4684 243.834 45.7751C225.567 51.6551 207.26 57.4417 188.98 63.2818C186.06 56.3351 179.514 52.3084 172.14 50.0551L171.807 49.9484C172.914 49.2951 173.954 48.5084 174.9 47.5751C184.354 38.1004 175.194 23.4871 169.127 14.9911C165.554 9.99509 161.967 4.41908 156.7 1.04709L156.5 0.929764C155.967 0.591095 155.394 0.279099 154.807 0.000442505C154.234 0.279099 153.66 0.591095 153.114 0.929764L152.927 1.04709C147.66 4.41908 144.074 9.99509 140.487 14.9911C134.42 23.4871 125.26 38.1004 134.727 47.5751C135.674 48.5084 136.7 49.2951 137.82 49.9484L137.474 50.0551C130.114 52.3084 123.567 56.3351 120.647 63.2818C102.367 57.4417 84.0603 51.6551 65.7923 45.7751C55.551 42.4684 45.331 39.1084 35.0817 35.8391C29.8323 34.1631 24.575 32.5044 19.3137 30.8604C15.267 29.5964 10.555 28.0418 6.41501 29.8311C-1.91566 33.4338 -0.437039 44.1351 1.53363 51.0951C3.66163 58.6151 6.16573 66.2551 10.1351 73.0418C13.9177 79.5084 19.3136 85.0684 26.4896 87.6284C35.535 90.8551 45.4764 89.2418 54.7644 88.1751C66.8737 86.7751 78.9843 85.4017 91.1003 84.0018C101.247 82.8418 111.394 81.7484 121.487 80.2418C123.42 83.9218 126.38 87.1484 129.834 89.7884C126.447 93.1884 123.18 96.7484 120.127 100.482C119.914 100.735 119.7 101.002 119.487 101.255C117.994 103.122 116.554 105.028 115.18 106.975C114.9 107.375 114.634 107.762 114.354 108.162C113.007 110.135 111.74 112.162 110.554 114.228C110.367 114.548 110.18 114.868 110.007 115.202C108.514 117.868 107.194 120.602 106.047 123.402C105.86 123.868 105.674 124.348 105.487 124.815C103.834 129.135 102.607 133.628 101.927 138.295C101.86 138.762 101.794 139.242 101.74 139.722C101.594 140.895 101.487 142.095 101.407 143.295C101.247 146.108 101.314 148.882 101.58 151.602C101.634 152.148 101.7 152.682 101.767 153.215C102.06 155.482 102.514 157.722 103.087 159.908C103.207 160.335 103.327 160.762 103.447 161.175C104.447 164.642 105.78 167.988 107.407 171.202C107.66 171.708 107.914 172.215 108.194 172.722C109.687 175.508 111.38 178.201 113.26 180.801C113.527 181.162 113.807 181.535 114.074 181.895C116.474 185.082 119.127 188.095 121.98 190.922C122.487 191.429 123.007 191.935 123.54 192.429C125.78 194.562 128.127 196.575 130.554 198.455C130.78 198.641 131.02 198.829 131.247 199.001C131.82 199.429 132.38 199.855 132.954 200.269C134.74 201.575 136.567 202.815 138.407 204.001C139.154 204.482 139.9 204.948 140.647 205.402C143.3 207.041 146.007 208.588 148.74 210.095C150.14 210.868 151.527 211.641 152.927 212.415C153.554 212.762 154.18 213.108 154.807 213.455C155.447 213.108 156.074 212.762 156.7 212.415C158.1 211.641 159.487 210.868 160.874 210.095C163.607 208.588 166.314 207.041 168.967 205.402C169.727 204.948 170.474 204.482 171.207 204.001C173.06 202.815 174.887 201.575 176.674 200.269C177.247 199.855 177.807 199.429 178.367 199.001C178.607 198.829 178.834 198.641 179.06 198.455C181.487 196.575 183.834 194.562 186.074 192.429C186.607 191.935 187.127 191.429 187.647 190.922C190.5 188.095 193.154 185.082 195.54 181.895C195.82 181.535 196.1 181.162 196.367 180.801C198.234 178.201 199.94 175.508 201.434 172.722C201.7 172.215 201.967 171.708 202.22 171.202C203.834 167.975 205.18 164.642 206.18 161.175C206.3 160.762 206.42 160.335 206.527 159.908C207.1 157.722 207.554 155.482 207.86 153.215C207.927 152.682 207.994 152.148 208.034 151.602C208.314 148.882 208.38 146.108 208.207 143.295C208.14 142.095 208.034 140.895 207.887 139.722C207.834 139.242 207.767 138.762 207.687 138.295C207.02 133.628 205.794 129.135 204.14 124.815C203.954 124.348 203.767 123.868 203.567 123.402C202.42 120.602 201.1 117.868 199.62 115.202C199.434 114.868 199.26 114.548 199.074 114.228C197.887 112.162 196.607 110.135 195.26 108.162C194.994 107.762 194.714 107.375 194.434 106.975C193.074 105.028 191.634 103.122 190.14 101.255C189.927 101.002 189.714 100.735 189.5 100.482C186.447 96.7484 183.167 93.1884 179.794 89.7884C183.247 87.1484 186.207 83.9218 188.14 80.2418C198.234 81.7484 208.38 82.8418 218.527 84.0018C230.634 85.4017 242.754 86.7751 254.86 88.1751C264.14 89.2418 274.087 90.8551 283.127 87.6284C290.314 85.0684 295.7 79.5084 299.487 73.0418C303.46 66.2551 305.967 58.6151 308.087 51.0951C310.06 44.1351 311.54 33.4338 303.207 29.8311Z" fill="#4C4949"/>
<path d="M304.366 57.9084C301.953 65.0417 298.966 72.3217 293.993 78.0951C288.313 84.7084 280.58 87.7217 271.94 87.9217C262.406 88.135 252.726 86.375 243.286 85.2817C227.873 83.5217 212.46 81.455 197.006 80.0017C194.206 79.735 191.406 79.495 188.606 79.2684C189.82 76.6684 190.513 73.8684 190.513 70.9084C190.513 69.6551 190.393 68.3617 190.126 67.055C189.886 65.855 189.553 64.735 189.14 63.6817C208.486 57.7084 227.806 51.6817 247.18 45.7751C251.833 44.3484 256.486 42.9351 261.14 41.5217C266.246 39.9617 271.366 38.4017 276.486 36.8284C281.366 35.3191 286.246 33.8004 291.113 32.2537C295.686 30.8004 301.233 28.9097 305.18 32.7951C311.82 39.3217 306.86 50.5484 304.366 57.9084Z" fill="#ADABAC"/>
<path d="M121.007 79.2684C118.74 79.455 116.46 79.6417 114.193 79.8417C98.2201 81.3084 82.2721 83.455 66.3415 85.2817C56.8922 86.375 47.2161 88.135 37.6828 87.9217C29.0414 87.7217 21.3121 84.7084 15.6214 78.0951C10.6588 72.3217 7.66283 65.0417 5.25217 57.9084C2.7655 50.5484 -2.19448 39.3217 4.44019 32.7951C8.38952 28.9097 13.9348 30.8004 18.5135 32.2537C23.3788 33.8004 28.2575 35.3191 33.1362 36.8284C41.2601 39.3351 49.3935 41.8017 57.5255 44.2684C59.1655 44.7617 60.8054 45.2684 62.4441 45.7751C81.8108 51.6817 101.14 57.7084 120.487 63.6817C120.073 64.735 119.74 65.855 119.5 67.055C118.607 71.455 119.287 75.575 121.007 79.2684Z" fill="#ADABAC"/>
<path d="M45.4093 80.7344C39.4253 80.7344 34.6574 80.5344 32.0734 80.041C19.1507 77.6277 5.80274 57.6144 10.2681 52.5877C10.5067 52.321 11.2907 52.1877 12.5401 52.1877C28.1681 52.1877 116.327 71.801 114.447 74.801C112.833 77.3744 69.3533 80.7344 45.4093 80.7344Z" fill="#BCBBB9"/>
<path d="M148.473 190.801C145.393 190.334 142.313 189.774 139.273 189.148C142.313 189.774 145.393 190.334 148.473 190.801ZM135.566 171.028C132.54 170.401 129.553 169.694 126.566 168.908C129.553 169.694 132.54 170.401 135.566 171.028ZM126.5 168.894C126.473 168.881 126.447 168.881 126.42 168.868C126.447 168.881 126.473 168.881 126.5 168.894ZM174.553 150.828C174.633 150.814 174.7 150.788 174.78 150.774C174.7 150.788 174.633 150.814 174.553 150.828ZM135.06 150.828C134.993 150.814 134.926 150.801 134.86 150.774C134.926 150.801 134.993 150.814 135.06 150.828ZM174.847 150.761C174.9 150.748 174.953 150.734 175.007 150.721C174.953 150.734 174.9 150.748 174.847 150.761ZM134.766 150.761C134.726 150.748 134.686 150.734 134.66 150.734C134.686 150.734 134.726 150.748 134.766 150.761ZM175.087 150.694C175.14 150.681 175.193 150.668 175.26 150.654C175.193 150.668 175.14 150.681 175.087 150.694ZM175.366 150.628C175.406 150.614 175.46 150.614 175.5 150.601C175.46 150.614 175.406 150.614 175.366 150.628ZM175.633 150.561C175.66 150.561 175.687 150.548 175.713 150.548C175.687 150.548 175.66 150.561 175.633 150.561ZM175.86 150.508C175.873 150.508 175.886 150.508 175.9 150.508C175.886 150.508 175.873 150.508 175.86 150.508ZM135.753 149.054C135.74 149.054 135.727 149.054 135.713 149.054C135.727 149.054 135.74 149.054 135.753 149.054ZM135.607 149.028C135.58 149.014 135.553 149.014 135.54 149.014C135.553 149.014 135.58 149.014 135.607 149.028ZM135.46 148.988C135.42 148.988 135.38 148.974 135.353 148.961C135.38 148.974 135.42 148.988 135.46 148.988ZM135.313 148.961C129.913 147.761 124.58 146.334 119.3 144.668C124.58 146.334 129.913 147.761 135.313 148.961ZM145.473 125.841C141.967 125.228 138.486 124.494 135.033 123.641C138.486 124.494 141.967 125.228 145.473 125.841ZM164.153 125.841C168.167 125.134 172.153 124.281 176.113 123.268C172.153 124.281 168.167 125.134 164.153 125.841ZM154.966 125.094H154.98H154.966ZM155.126 125.081C155.126 125.081 155.127 125.081 155.14 125.068C155.127 125.081 155.126 125.081 155.126 125.081ZM141.94 123.214C141.927 123.201 141.913 123.201 141.887 123.201C141.913 123.201 141.927 123.201 141.94 123.214ZM141.82 123.188C138.46 122.561 135.1 121.828 131.78 121.001C135.113 121.828 138.46 122.561 141.82 123.188Z" fill="white"/>
<path d="M154.82 190.215H154.807C149.114 189.575 143.447 188.682 137.82 187.522C133.354 182.295 129.434 175.548 126.354 168.855C126.38 168.855 126.394 168.868 126.42 168.868C126.447 168.882 126.473 168.882 126.5 168.895C126.527 168.895 126.553 168.908 126.567 168.908C129.553 169.695 132.54 170.402 135.567 171.028C138.38 171.615 141.207 172.148 144.06 172.602H144.074C147.62 173.188 151.22 173.668 154.807 174.041H154.82C158.42 173.668 162.007 173.188 165.567 172.602C168.42 172.135 171.247 171.615 174.06 171.028C176.62 170.495 179.167 169.908 181.7 169.255C178.407 176.028 174.313 182.775 169.767 187.935C164.82 188.895 159.834 189.655 154.82 190.215Z" fill="#66686A"/>
<path d="M154.807 152.281C148.42 151.521 142.047 150.441 135.753 149.055C135.74 149.055 135.727 149.055 135.713 149.055C135.687 149.041 135.647 149.028 135.607 149.028C135.58 149.015 135.553 149.015 135.54 149.015C135.513 149.001 135.486 149.001 135.46 148.988C135.42 148.988 135.38 148.975 135.353 148.961C135.34 148.961 135.327 148.961 135.313 148.961C129.913 147.761 124.58 146.335 119.3 144.668C119.46 138.441 123.447 129.455 130.34 122.415C131.9 122.855 133.46 123.255 135.033 123.641C138.486 124.495 141.967 125.228 145.473 125.841C145.527 125.855 145.567 125.855 145.62 125.868C148.66 126.401 151.727 126.841 154.807 127.188C157.887 126.841 160.953 126.401 164.007 125.868C164.047 125.855 164.1 125.855 164.153 125.841C168.167 125.135 172.153 124.281 176.113 123.268C177.113 123.001 178.1 122.735 179.1 122.468C185.86 129.148 189.966 137.521 189.966 143.441C189.966 143.855 189.94 144.308 189.9 144.801C178.473 148.375 166.7 150.855 154.807 152.281Z" fill="#66686A"/>
<path d="M154.02 197.146C148.82 197.146 143.793 193.973 139.273 189.146C142.313 189.773 145.393 190.333 148.473 190.8C150.58 191.12 152.687 191.413 154.807 191.653H154.82C156.927 191.413 159.047 191.12 161.153 190.8C163.527 190.44 165.9 190.027 168.26 189.56C163.793 194.16 158.953 197.146 154.02 197.146Z" fill="#B8B7B6"/>
<path d="M154.807 171.814C144.914 170.828 135.087 169.121 125.42 166.761C121.954 158.775 119.754 151.095 119.354 146.441C124.407 148.068 129.527 149.481 134.66 150.735C134.687 150.735 134.727 150.748 134.767 150.761C134.793 150.761 134.833 150.775 134.86 150.775C134.927 150.801 134.993 150.815 135.06 150.828C138.74 151.708 142.447 152.481 146.18 153.121C149.047 153.615 151.927 154.041 154.807 154.401C157.7 154.041 160.58 153.615 163.447 153.121C167.18 152.481 170.887 151.708 174.554 150.828C174.634 150.815 174.7 150.788 174.78 150.775C174.807 150.775 174.82 150.761 174.847 150.761C174.9 150.748 174.954 150.735 175.007 150.721C175.034 150.708 175.06 150.708 175.087 150.695C175.14 150.681 175.193 150.668 175.26 150.655C175.287 150.655 175.327 150.641 175.367 150.628C175.407 150.615 175.46 150.615 175.5 150.601C175.54 150.588 175.593 150.575 175.633 150.561C175.66 150.561 175.687 150.548 175.714 150.548C175.767 150.535 175.807 150.521 175.86 150.508C175.873 150.508 175.887 150.508 175.9 150.508C180.513 149.361 185.113 148.081 189.66 146.628C188.82 151.668 186.327 159.295 182.714 167.121C173.527 169.295 164.207 170.881 154.807 171.814Z" fill="#B8B7B6"/>
<path d="M154.807 125.107C150.554 124.641 146.3 124.014 142.074 123.227C142.02 123.227 141.98 123.214 141.94 123.214C141.927 123.201 141.914 123.201 141.887 123.201C141.874 123.201 141.847 123.187 141.82 123.187C138.46 122.561 135.114 121.827 131.78 121.001C137.687 115.521 145.447 111.534 154.594 111.534C154.807 111.534 155.02 111.534 155.234 111.547C163.914 111.721 171.647 115.694 177.607 121.054C170.22 122.881 162.687 124.227 155.14 125.067C155.127 125.081 155.127 125.081 155.127 125.081C155.074 125.081 155.034 125.081 154.98 125.094H154.967C154.914 125.094 154.86 125.107 154.807 125.107Z" fill="#B8B7B6"/>
<path d="M154.82 191.654H154.807C152.687 191.414 150.58 191.121 148.473 190.801C145.393 190.334 142.313 189.774 139.273 189.147C138.78 188.628 138.3 188.081 137.82 187.521C143.447 188.681 149.113 189.574 154.807 190.214H154.82C159.833 189.654 164.82 188.894 169.766 187.935C169.273 188.494 168.766 189.041 168.26 189.561C165.9 190.028 163.527 190.441 161.153 190.801C159.047 191.121 156.927 191.414 154.82 191.654ZM154.82 174.041H154.807C151.22 173.667 147.62 173.188 144.073 172.601H144.06C141.206 172.147 138.38 171.614 135.566 171.028C132.54 170.401 129.553 169.694 126.566 168.908C126.553 168.908 126.526 168.894 126.5 168.894C126.473 168.881 126.447 168.881 126.42 168.868C126.393 168.868 126.38 168.854 126.353 168.854C126.033 168.148 125.727 167.454 125.42 166.761C135.087 169.121 144.913 170.828 154.807 171.814C164.207 170.881 173.527 169.294 182.713 167.121C182.393 167.828 182.046 168.548 181.7 169.254C179.166 169.908 176.62 170.494 174.06 171.028C171.246 171.614 168.42 172.134 165.566 172.601C162.006 173.188 158.42 173.667 154.82 174.041ZM154.807 154.401C151.927 154.041 149.047 153.614 146.18 153.121C142.447 152.481 138.74 151.708 135.06 150.828C134.993 150.814 134.926 150.801 134.86 150.774C134.833 150.774 134.793 150.761 134.766 150.761C134.726 150.748 134.686 150.734 134.66 150.734C129.526 149.481 124.407 148.068 119.353 146.441C119.313 145.948 119.3 145.481 119.3 145.054C119.3 144.934 119.3 144.801 119.3 144.668C124.58 146.334 129.913 147.761 135.313 148.961C135.327 148.961 135.34 148.961 135.353 148.961C135.38 148.974 135.42 148.988 135.46 148.988C135.486 149.001 135.513 149.001 135.54 149.014C135.553 149.014 135.58 149.014 135.607 149.028C135.647 149.028 135.687 149.041 135.713 149.054C135.727 149.054 135.74 149.054 135.753 149.054C142.047 150.441 148.42 151.521 154.807 152.281C166.7 150.854 178.473 148.374 189.9 144.801C189.846 145.361 189.766 145.974 189.66 146.628C185.113 148.081 180.513 149.361 175.9 150.508C175.886 150.508 175.873 150.508 175.86 150.508C175.806 150.521 175.767 150.534 175.713 150.548C175.687 150.548 175.66 150.561 175.633 150.561C175.593 150.574 175.54 150.588 175.5 150.601C175.46 150.614 175.406 150.614 175.366 150.628C175.326 150.641 175.286 150.654 175.26 150.654C175.193 150.668 175.14 150.681 175.087 150.694C175.06 150.708 175.033 150.708 175.007 150.721C174.953 150.734 174.9 150.748 174.847 150.761C174.82 150.761 174.807 150.774 174.78 150.774C174.7 150.788 174.633 150.814 174.553 150.828C170.887 151.708 167.18 152.481 163.447 153.121C160.58 153.614 157.7 154.041 154.807 154.401ZM154.807 127.188C151.727 126.841 148.66 126.401 145.62 125.868C145.567 125.854 145.527 125.854 145.473 125.841C141.967 125.228 138.486 124.494 135.033 123.641C133.46 123.254 131.9 122.854 130.34 122.414C130.807 121.934 131.287 121.468 131.78 121.001C135.1 121.828 138.46 122.561 141.82 123.188C141.847 123.188 141.873 123.201 141.887 123.201C141.913 123.201 141.927 123.201 141.94 123.214C141.98 123.214 142.02 123.228 142.073 123.228C146.3 124.014 150.553 124.641 154.807 125.108C154.86 125.108 154.913 125.094 154.966 125.094H154.98C155.033 125.081 155.073 125.081 155.126 125.081C155.126 125.081 155.127 125.081 155.14 125.068C162.687 124.228 170.22 122.881 177.607 121.054C178.113 121.521 178.62 121.988 179.1 122.468C178.1 122.734 177.113 123.001 176.113 123.268C172.153 124.281 168.167 125.134 164.153 125.841C164.1 125.854 164.047 125.854 164.007 125.868C160.953 126.401 157.887 126.841 154.807 127.188Z" fill="#3E3D3F"/>
<path d="M155.647 73.9883C128.58 73.9883 139.487 51.775 155.647 51.775C176.634 51.775 182.7 73.9883 155.647 73.9883Z" fill="#A5A5A4"/>
<path d="M154.1 34.8223C140.5 34.8223 153.234 12.2009 155.647 11.7996C155.66 11.7956 155.687 11.7943 155.7 11.7943C158.274 11.7943 170.047 34.4169 154.434 34.8169C154.314 34.8196 154.207 34.8223 154.1 34.8223Z" fill="#989999"/>
<path d="M265.699 80.7344C241.753 80.7344 198.273 77.3744 196.66 74.801C194.78 71.801 282.939 52.1877 298.566 52.1877C299.819 52.1877 300.593 52.321 300.833 52.5877C305.299 57.6144 291.953 77.6277 279.033 80.041C276.446 80.5344 271.686 80.7344 265.699 80.7344Z" fill="#BCBBB9"/>
<path d="M113.887 163.613C111.407 162.867 108.967 162.053 106.554 161.187C106.287 161.093 106.02 161 105.754 160.893C105.047 158.533 104.5 156.107 104.127 153.653C104.047 153.067 103.967 152.48 103.9 151.88C103.754 150.533 103.66 149.16 103.62 147.787C103.607 147.267 103.594 146.747 103.594 146.227C103.594 144.373 103.687 142.507 103.874 140.653C106.554 141.813 109.274 142.893 112.02 143.907C112.434 144.053 112.86 144.213 113.287 144.36C112.687 150.747 112.914 157.307 113.887 163.613Z" fill="#767779"/>
<path d="M106.554 161.188C106.287 161.094 106.02 161.001 105.754 160.894C105.047 158.534 104.5 156.108 104.127 153.654C104.047 153.068 103.967 152.481 103.9 151.881C103.754 150.534 103.66 149.161 103.62 147.788C103.607 147.268 103.594 146.748 103.594 146.228C103.594 146.748 103.607 147.268 103.62 147.788C103.66 149.161 103.754 150.534 103.9 151.881C103.967 152.481 104.047 153.068 104.127 153.654C104.5 156.108 105.047 158.534 105.754 160.894C106.02 161.001 106.287 161.094 106.554 161.188ZM113.287 144.361C112.86 144.214 112.434 144.054 112.02 143.908C112.434 144.054 112.86 144.214 113.287 144.361Z" fill="#201E1D"/>
<path d="M113.46 142.707L113.3 142.654C110.167 141.547 107.087 140.387 104.033 139.147C104.607 134.414 105.727 129.734 107.3 125.214C107.46 124.707 107.647 124.2 107.847 123.694C108.847 120.974 110.007 118.334 111.313 115.76L111.407 115.8C114.54 117.134 117.713 118.347 120.927 119.467C116.847 126.227 114.433 134.294 113.46 142.707Z" fill="#3B3B3C"/>
<path d="M113.3 142.654C110.167 141.548 107.087 140.388 104.033 139.148C107.087 140.388 110.167 141.548 113.3 142.654ZM120.927 119.468C117.713 118.348 114.54 117.134 111.407 115.801C114.54 117.121 117.713 118.348 120.927 119.468Z" fill="#201E1D"/>
<path d="M119.553 182.84C119.326 182.773 119.1 182.694 118.873 182.627C118.74 182.587 118.62 182.547 118.5 182.507C118.06 182.373 117.606 182.227 117.166 182.094C116.153 180.827 115.166 179.533 114.233 178.187C113.1 176.56 112.033 174.88 111.046 173.16C110.726 172.613 110.433 172.067 110.14 171.507C108.553 168.533 107.22 165.427 106.18 162.24C107.726 162.84 109.286 163.413 110.846 163.973C111.94 164.373 113.033 164.76 114.126 165.133C115.22 171.467 117.06 177.507 119.553 182.84Z" fill="#3B3B3C"/>
<path d="M119.553 182.84C119.326 182.773 119.1 182.694 118.873 182.627C119.1 182.694 119.326 182.773 119.553 182.84ZM118.5 182.507C118.06 182.373 117.606 182.227 117.166 182.094C116.153 180.827 115.166 179.533 114.233 178.187C113.1 176.56 112.033 174.88 111.046 173.16C110.726 172.613 110.433 172.067 110.14 171.507C108.553 168.533 107.22 165.427 106.18 162.24C107.22 165.427 108.553 168.533 110.14 171.507C110.433 172.067 110.726 172.613 111.046 173.16C112.033 174.88 113.1 176.56 114.233 178.187C115.166 179.533 116.153 180.827 117.166 182.094C117.606 182.227 118.06 182.373 118.5 182.507ZM114.126 165.133C113.033 164.76 111.94 164.373 110.846 163.973C111.94 164.373 113.033 164.76 114.126 165.133Z" fill="#201E1D"/>
<path d="M122.086 187.641C120.753 186.268 119.46 184.841 118.22 183.374C118.62 183.507 119.006 183.641 119.393 183.774C119.54 183.814 119.686 183.867 119.833 183.907C119.926 183.947 120.02 183.974 120.113 184.001C120.74 185.268 121.393 186.467 122.086 187.641Z" fill="#767779"/>
<path d="M120.113 184C120.02 183.973 119.926 183.947 119.833 183.907C119.926 183.947 120.02 183.973 120.113 184ZM119.393 183.773C119.006 183.64 118.62 183.507 118.22 183.373C118.62 183.507 119.006 183.64 119.393 183.773Z" fill="#201E1D"/>
<path d="M121.74 118.174C119.553 117.494 117.393 116.76 115.233 115.987C114.1 115.587 112.967 115.16 111.847 114.734C112.033 114.374 112.233 114.014 112.433 113.654C113.407 111.854 114.447 110.107 115.553 108.4C115.82 107.987 116.087 107.574 116.353 107.16C117.567 105.334 118.847 103.534 120.18 101.787L120.327 101.587C123.247 102.72 126.193 103.747 129.193 104.667C130.86 105.174 132.527 105.667 134.22 106.107C129.073 109.107 124.94 113.254 121.74 118.174Z" fill="#767779"/>
<path d="M115.233 115.988C114.1 115.588 112.967 115.162 111.847 114.735C112.967 115.162 114.1 115.588 115.233 115.988ZM134.22 106.108C132.527 105.668 130.86 105.175 129.193 104.668C130.86 105.175 132.54 105.655 134.22 106.108Z" fill="#201E1D"/>
<path d="M135.954 105.16C134.047 104.707 132.14 104.227 130.247 103.707C128.047 103.093 125.86 102.427 123.7 101.72C122.78 101.413 121.873 101.107 120.967 100.773C123.847 97.0668 126.967 93.5468 130.22 90.1602L130.274 90.1202C131.394 90.9602 132.58 91.7335 133.78 92.4402C137.114 94.3868 140.687 95.8268 144.114 96.6668C147.34 97.4401 150.66 97.8535 153.967 97.8535C154.247 97.8535 154.527 97.8402 154.807 97.8402C155.1 97.8402 155.38 97.8535 155.66 97.8535C158.967 97.8535 162.273 97.4401 165.5 96.6668C168.94 95.8268 172.5 94.3868 175.833 92.4402C177.047 91.7335 178.22 90.9602 179.354 90.1202L179.407 90.1602C182.66 93.5468 185.78 97.0668 188.66 100.773C187.753 101.107 186.834 101.413 185.914 101.72C184.314 102.24 182.7 102.747 181.074 103.213C181.047 103.227 181.02 103.24 180.98 103.24C180.967 103.253 180.954 103.253 180.94 103.253C179.394 103.707 177.847 104.12 176.287 104.52C176.26 104.533 176.234 104.533 176.207 104.547C175.634 104.693 175.06 104.827 174.487 104.973C169.007 102.413 162.54 100.987 155.06 100.987C154.193 100.987 153.314 101 152.407 101.04C146.114 101.32 140.647 102.773 135.954 105.16Z" fill="#3B3B3C"/>
<path d="M174.487 104.975C175.06 104.828 175.634 104.695 176.207 104.548C175.634 104.695 175.06 104.828 174.487 104.975ZM130.247 103.708C128.047 103.095 125.86 102.428 123.7 101.721C122.78 101.415 121.873 101.108 120.967 100.775C121.873 101.108 122.78 101.415 123.7 101.721C125.86 102.428 128.047 103.095 130.247 103.708ZM180.94 103.255C180.954 103.255 180.967 103.255 180.98 103.241C180.967 103.255 180.954 103.255 180.94 103.255ZM181.074 103.215C182.7 102.748 184.314 102.241 185.914 101.721C186.834 101.415 187.753 101.108 188.66 100.775C187.753 101.108 186.834 101.415 185.914 101.721C184.314 102.241 182.7 102.748 181.074 103.215Z" fill="#201E1D"/>
<path d="M189.474 117.668C186.087 112.801 181.7 108.748 176.287 105.868C177.7 105.481 179.087 105.081 180.474 104.655C183.447 103.735 186.394 102.721 189.287 101.588L189.434 101.788C190.767 103.535 192.047 105.335 193.26 107.161C193.54 107.575 193.807 107.988 194.074 108.401C195.167 110.108 196.207 111.855 197.194 113.655C197.394 114.015 197.58 114.375 197.78 114.735C196.647 115.161 195.527 115.588 194.38 115.988C193.5 116.308 192.607 116.628 191.7 116.935C190.98 117.175 190.247 117.415 189.514 117.655C189.5 117.655 189.487 117.668 189.474 117.668Z" fill="#767779"/>
<path d="M189.474 117.668C189.487 117.668 189.5 117.655 189.514 117.655C189.5 117.655 189.487 117.668 189.474 117.668ZM191.7 116.935C192.607 116.628 193.5 116.308 194.38 115.988C195.527 115.588 196.647 115.161 197.78 114.735C196.647 115.161 195.527 115.588 194.38 115.988C193.5 116.308 192.607 116.628 191.7 116.935ZM176.287 105.868C177.687 105.481 179.087 105.081 180.474 104.655C179.087 105.081 177.7 105.481 176.287 105.868Z" fill="#201E1D"/>
<path d="M191.847 182.281C194.193 176.521 195.927 170.561 197.02 164.615C197.42 164.468 197.82 164.335 198.207 164.188C198.407 164.121 198.593 164.055 198.78 163.975C200.34 163.415 201.887 162.841 203.447 162.241C202.407 165.428 201.073 168.535 199.487 171.508C199.193 172.068 198.887 172.615 198.58 173.162C197.593 174.881 196.527 176.562 195.393 178.188C194.447 179.534 193.473 180.828 192.447 182.095C192.247 182.162 192.047 182.228 191.847 182.281Z" fill="#3B3B3C"/>
<path d="M191.847 182.281C192.047 182.228 192.247 182.162 192.447 182.095C193.473 180.828 194.447 179.534 195.393 178.188C196.527 176.562 197.593 174.881 198.58 173.162C198.887 172.615 199.193 172.068 199.487 171.508C201.073 168.535 202.407 165.428 203.447 162.241C202.407 165.428 201.073 168.535 199.487 171.508C199.193 172.068 198.887 172.615 198.58 173.162C197.593 174.881 196.527 176.562 195.393 178.188C194.447 179.534 193.473 180.828 192.447 182.095C192.247 182.162 192.047 182.228 191.847 182.281ZM197.02 164.615C197.02 164.615 197.02 164.615 197.02 164.601C197.42 164.468 197.82 164.321 198.207 164.188C197.82 164.335 197.42 164.468 197.02 164.615Z" fill="#201E1D"/>
<path d="M197.993 142.055C197.06 133.441 194.526 125.481 190.3 118.895C191.766 118.375 193.233 117.815 194.687 117.241C195.873 116.775 197.047 116.295 198.22 115.801L198.313 115.761C199.607 118.335 200.78 120.975 201.78 123.695C201.98 124.201 202.153 124.708 202.326 125.215C203.9 129.735 205.02 134.415 205.593 139.148C204.646 139.535 203.7 139.908 202.74 140.281C201.167 140.881 199.58 141.481 197.993 142.055Z" fill="#3B3B3C"/>
<path d="M202.74 140.281C203.7 139.908 204.647 139.535 205.594 139.148C204.647 139.535 203.7 139.908 202.74 140.281ZM190.3 118.895H190.287C191.767 118.361 193.234 117.815 194.687 117.241C193.234 117.815 191.767 118.375 190.3 118.895Z" fill="#201E1D"/>
<path d="M197.273 163.135C198.367 156.535 198.673 149.961 198.153 143.695C198.793 143.468 199.433 143.215 200.06 142.975C201.967 142.241 203.873 141.468 205.753 140.655C205.927 142.508 206.02 144.375 206.02 146.228C206.02 146.748 206.02 147.268 206.007 147.788C205.967 149.161 205.873 150.535 205.713 151.881C205.647 152.481 205.58 153.068 205.487 153.655C205.127 156.108 204.58 158.535 203.873 160.895C203.607 161.001 203.34 161.095 203.073 161.188C203.02 161.201 202.967 161.228 202.913 161.241C202.9 161.255 202.887 161.255 202.873 161.255C201.407 161.788 199.927 162.281 198.433 162.775C198.047 162.895 197.66 163.015 197.273 163.135Z" fill="#767779"/>
<path d="M197.273 163.148C197.273 163.135 197.273 163.135 197.273 163.135C197.66 163.015 198.047 162.895 198.433 162.775C198.047 162.895 197.66 163.015 197.273 163.148ZM202.873 161.255C202.887 161.255 202.9 161.255 202.913 161.242C202.9 161.255 202.887 161.255 202.873 161.255ZM203.073 161.188C203.34 161.095 203.607 161.002 203.873 160.895C204.58 158.535 205.127 156.108 205.487 153.655C205.58 153.068 205.647 152.482 205.713 151.882C205.873 150.535 205.967 149.162 206.007 147.788C206.02 147.268 206.02 146.748 206.02 146.228C206.02 146.748 206.02 147.268 206.007 147.788C205.967 149.162 205.873 150.535 205.713 151.882C205.647 152.482 205.58 153.068 205.487 153.655C205.127 156.108 204.58 158.535 203.873 160.895C203.607 161.002 203.34 161.095 203.073 161.188ZM198.153 143.695C198.793 143.455 199.433 143.215 200.06 142.975C199.433 143.215 198.793 143.468 198.153 143.695Z" fill="#201E1D"/>
<path d="M155.82 96.6133C155.487 96.6133 155.153 96.6133 154.807 96.6C154.473 96.6133 154.14 96.6133 153.793 96.6133C149.167 96.6133 144.553 95.88 140.233 94.36C138.167 93.6266 136.167 92.7066 134.273 91.6C133.14 90.9333 132.033 90.2 130.967 89.4C130.82 89.2933 130.687 89.1866 130.553 89.0666C129.74 88.44 128.967 87.7733 128.22 87.0533C126.1 85.04 124.193 82.6666 122.767 80.0533C122.607 79.76 122.46 79.4666 122.313 79.1733C120.967 76.44 120.153 73.48 120.153 70.4266C120.153 70.2 120.153 69.96 120.167 69.7333C120.26 67.6933 120.727 65.7733 121.487 63.9866C121.54 63.8533 121.593 63.7333 121.647 63.6C121.66 63.5866 121.673 63.56 121.687 63.5333C123.047 60.5466 125.22 57.96 127.793 55.8666C122.487 68.3066 127.007 89.3866 154.02 90.5466C154.647 90.5733 155.247 90.5866 155.847 90.5866C180.953 90.5866 191.073 67.7733 179.447 54.1333C181.087 55.2 182.633 56.44 183.993 57.84C183.993 57.8533 184.007 57.8533 184.007 57.8666H184.02C185.647 59.56 187.007 61.4933 187.967 63.6C188.02 63.7333 188.087 63.8533 188.14 63.9866C188.513 64.88 188.82 65.8133 189.047 66.7733C189.273 67.7333 189.407 68.72 189.447 69.7333C189.46 69.96 189.473 70.2 189.473 70.4266C189.473 73.48 188.66 76.44 187.3 79.1733C187.153 79.4666 187.007 79.76 186.847 80.0533C186.14 81.36 185.3 82.6133 184.38 83.7866C183.46 84.96 182.46 86.0533 181.407 87.0533C180.647 87.7733 179.873 88.44 179.073 89.0666C178.94 89.1866 178.793 89.2933 178.66 89.4C177.593 90.2 176.487 90.9333 175.353 91.6C173.447 92.7066 171.46 93.6266 169.393 94.36C165.073 95.88 160.46 96.6133 155.82 96.6133Z" fill="#5E6061"/>
<path d="M155.82 96.6133C155.487 96.6133 155.153 96.6133 154.807 96.6C154.473 96.6133 154.14 96.6133 153.793 96.6133C149.167 96.6133 144.553 95.88 140.233 94.36C138.167 93.6266 136.167 92.7066 134.273 91.6C133.14 90.9333 132.033 90.2 130.967 89.4C130.82 89.2933 130.687 89.1866 130.553 89.0666C129.74 88.44 128.967 87.7733 128.22 87.0533C126.1 85.04 124.193 82.6666 122.767 80.0533C122.607 79.76 122.46 79.4666 122.313 79.1733C120.967 76.44 120.153 73.48 120.153 70.4266C120.153 73.48 120.967 76.44 122.313 79.1733C122.46 79.4666 122.607 79.76 122.767 80.0533C124.193 82.6666 126.1 85.04 128.22 87.0533C128.967 87.7733 129.74 88.44 130.553 89.0666C130.687 89.1866 130.82 89.2933 130.967 89.4C132.033 90.2 133.14 90.9333 134.273 91.6C136.167 92.7066 138.167 93.6266 140.233 94.36C144.553 95.88 149.167 96.6133 153.793 96.6133C154.14 96.6133 154.473 96.6133 154.807 96.6C155.153 96.6133 155.487 96.6133 155.82 96.6133C160.46 96.6133 165.073 95.88 169.393 94.36C171.46 93.6266 173.447 92.7066 175.353 91.6C176.487 90.9333 177.593 90.2 178.66 89.4C178.793 89.2933 178.94 89.1866 179.073 89.0666C179.873 88.44 180.647 87.7733 181.407 87.0533C182.46 86.0533 183.46 84.96 184.38 83.7866C185.3 82.6133 186.14 81.36 186.847 80.0533C187.007 79.76 187.153 79.4666 187.3 79.1733C188.66 76.44 189.473 73.48 189.473 70.4266C189.473 73.48 188.66 76.44 187.3 79.1733C187.153 79.4666 187.007 79.76 186.847 80.0533C186.14 81.36 185.3 82.6133 184.38 83.7866C183.46 84.96 182.46 86.0533 181.407 87.0533C180.647 87.7733 179.873 88.44 179.073 89.0666C178.94 89.1866 178.793 89.2933 178.66 89.4C177.593 90.2 176.487 90.9333 175.353 91.6C173.447 92.7066 171.46 93.6266 169.393 94.36C165.073 95.88 160.46 96.6133 155.82 96.6133ZM187.967 63.6C187.007 61.4933 185.647 59.56 184.02 57.8666C185.647 59.56 187.02 61.4933 187.967 63.6ZM184.007 57.8666C184.007 57.8533 183.993 57.8533 183.993 57.84C183.993 57.8533 184.007 57.8533 184.007 57.8666Z" fill="#201E1D"/>
<path d="M170.673 49.6406C165.807 48.334 160.7 47.7473 156.1 47.5873L156.02 47.534C155.62 47.534 155.22 47.5473 154.807 47.5473C154.407 47.5473 153.993 47.534 153.593 47.534L153.527 47.5873C148.927 47.7473 143.807 48.334 138.953 49.6406C137.167 48.6406 135.593 47.334 134.393 45.6006C132.78 43.3073 132.153 40.6806 132.153 37.974C132.153 33.506 133.9 28.838 135.847 25.1166C138.273 20.4806 141.313 15.9099 144.607 11.6739C137.353 30.6659 139.527 40.6406 145.54 42.894C148.233 43.9073 152.513 44.694 156.833 44.694C162.873 44.694 169.007 43.134 170.98 38.454C174.22 30.7793 170.167 23.9659 168.207 16.0073C168.887 16.9873 169.553 17.9793 170.193 18.9793C171.487 20.9966 172.687 23.05 173.78 25.1166C175.727 28.838 177.46 33.506 177.46 37.974C177.473 40.6806 176.833 43.3073 175.233 45.6006C174.033 47.334 172.46 48.6406 170.673 49.6406Z" fill="#5E6061"/>
<path d="M170.673 49.6406C165.807 48.334 160.7 47.7473 156.1 47.5873L156.02 47.534C155.62 47.534 155.22 47.5473 154.807 47.5473C154.407 47.5473 153.993 47.534 153.593 47.534L153.527 47.5873C148.927 47.7473 143.807 48.334 138.953 49.6406C137.167 48.6406 135.593 47.334 134.393 45.6006C132.78 43.3073 132.153 40.6806 132.153 37.974C132.153 40.6806 132.78 43.3073 134.393 45.6006C135.593 47.334 137.167 48.6406 138.953 49.6406C143.807 48.334 148.927 47.7473 153.527 47.5873L153.593 47.534C153.993 47.534 154.407 47.5473 154.807 47.5473C155.22 47.5473 155.62 47.534 156.02 47.534L156.1 47.5873C160.7 47.7473 165.807 48.334 170.673 49.6406C172.46 48.6406 174.033 47.334 175.233 45.6006C176.833 43.3073 177.473 40.6806 177.46 37.974C177.473 40.6806 176.833 43.3073 175.233 45.6006C174.033 47.334 172.46 48.6406 170.673 49.6406ZM170.193 18.9793C169.553 17.9793 168.887 16.9873 168.207 16.0073C168.887 16.9873 169.553 17.9793 170.193 18.9793Z" fill="#201E1D"/>
<path d="M114.193 79.8418C115.753 77.2818 118.26 71.7351 114.047 67.5218C110.873 64.3485 82.4374 53.3885 57.5254 44.2685C59.1654 44.7618 60.8053 45.2685 62.444 45.7751C81.8107 51.6818 101.14 57.7085 120.487 63.6818C120.073 64.7351 119.74 65.8551 119.5 67.0551C119.233 68.3618 119.113 69.6418 119.1 70.8951C119.1 73.8551 119.793 76.6685 121.007 79.2685C120.167 79.3351 119.313 79.4018 118.473 79.4818C117.047 79.5885 115.62 79.7218 114.193 79.8418Z" fill="#686A6C"/>
<path d="M197.006 80C196.446 79.9467 195.886 79.8933 195.34 79.84C193.1 79.64 190.86 79.44 188.606 79.2667C189.82 76.6667 190.513 73.8667 190.513 70.9067C190.513 69.6533 190.393 68.36 190.126 67.0533C189.886 65.8533 189.553 64.7333 189.14 63.68C208.486 57.7067 227.806 51.68 247.18 45.7733C251.833 44.3467 256.486 42.9333 261.14 41.52C234.793 51.0533 200.566 64.0267 197.06 67.52C192.766 71.8133 195.446 77.5067 197.006 80Z" fill="#686A6C"/>
</svg>
