<svg width="201" height="200" viewBox="0 0 201 200" fill="none" xmlns="http://www.w3.org/2000/svg">
<path d="M158.514 11.4935C160.496 15.3602 162.483 19.2134 164.467 23.0801C165.02 22.0667 165.706 21.1602 166.66 20.4935C167.56 19.8535 168.678 19.4935 169.755 19.5602C169.482 16.5068 168.744 13.5068 167.578 10.6668C166.759 8.68013 165.736 6.78675 164.512 5.01341C163.268 3.22675 161.651 1.17347 159.395 0.666798C156.651 0.0667992 154.366 2.14675 155.258 4.94675C155.982 7.21341 157.427 9.38682 158.514 11.4935Z" fill="#979596"/>
<path d="M166.576 21.6665C165.898 22.3065 165.369 23.1065 164.92 23.9598C164.796 24.1998 164.677 24.4398 164.561 24.6798C164.002 25.9064 163.569 27.2132 163.09 28.3598C162.101 30.7465 161.114 33.1198 160.128 35.5064C159 38.2131 157.869 40.9332 156.741 43.6532C156.329 44.6532 155.934 45.6531 155.53 46.6665C157.534 46.2665 159.724 46.4531 161.064 48.1064C161.313 48.4131 161.514 48.7464 161.67 49.1064C166.012 42.6931 170.086 35.9065 171.992 28.3865C172.456 26.5465 172.904 24.4798 172.289 22.6131C171.9 21.4398 171.093 20.7732 170.156 20.5598L169.826 20.4932C168.729 20.3598 167.505 20.7865 166.576 21.6665Z" fill="#979596"/>
<path d="M132.765 69.3468C133.496 71.0668 133.733 72.8002 133.592 74.5068C141.892 69.5868 149.958 64.1601 157.369 58.0801C159.718 56.1601 162.181 53.4935 161.402 50.2002L161.374 50.0801C161.341 49.9468 161.302 49.8268 161.261 49.7068C160.36 47.0935 157.692 46.8136 155.241 47.3869C154.842 47.4802 154.45 47.5869 154.072 47.7202C153.554 47.9069 153.062 48.1069 152.62 48.3335C149.552 49.8535 146.904 52.2669 144.253 54.4002C141.466 56.6535 138.681 58.9068 135.892 61.1468C134.025 62.6401 132.154 64.1469 130.282 65.6269C131.309 66.7069 132.16 67.9335 132.765 69.3468Z" fill="#979596"/>
<path d="M130.769 103.546C134.808 103.68 138.849 103.813 142.885 103.96C146.465 104.093 150.041 104.24 153.619 104.373C157.024 104.52 160.584 104.866 163.959 104.266C164.445 104.173 164.965 104.04 165.484 103.88C165.867 103.76 166.251 103.613 166.624 103.453C168.929 102.44 170.903 100.626 170.071 97.9997C170.032 97.8797 169.989 97.7598 169.937 97.6264L169.891 97.5198C168.547 94.4131 164.981 93.7464 161.947 93.5997C150.335 93.0531 138.515 93.8397 126.941 95.3331C127.76 97.9864 128.379 100.746 128.907 103.48C129.532 103.506 130.151 103.533 130.769 103.546Z" fill="#979596"/>
<path d="M194.376 116.32L194.602 116.08C195.224 115.346 195.473 114.32 195.085 113.146C194.469 111.293 192.872 109.893 191.406 108.706C185.389 103.8 178.07 100.786 170.758 98.2397C170.844 98.6131 170.88 98.9998 170.864 99.3998C170.781 101.533 169.13 102.973 167.289 103.853C168.213 104.426 169.13 105 170.053 105.546C172.58 107.053 175.109 108.56 177.638 110.08C179.85 111.386 182.061 112.706 184.274 114.026C185.348 114.68 186.473 115.453 187.65 116.106C187.89 116.226 188.13 116.36 188.374 116.48C189.242 116.893 190.141 117.213 191.069 117.32C192.344 117.48 193.576 117.093 194.376 116.32Z" fill="#979596"/>
<path d="M199.348 131.919C199.276 129.773 198.966 127.639 198.436 125.546C197.678 122.586 196.478 119.733 194.876 117.119C194.054 117.813 192.937 118.186 191.837 118.213C190.677 118.253 189.577 117.933 188.534 117.453C189.245 121.733 189.953 126.013 190.669 130.293C191.058 132.639 191.197 135.253 191.97 137.493C192.921 140.279 195.994 140.573 197.836 138.453C199.35 136.706 199.422 134.093 199.348 131.919Z" fill="#979596"/>
<path d="M171.22 179.42C170.267 178.755 169.581 177.837 169.028 176.831C167.044 180.689 165.056 184.548 163.075 188.409C161.988 190.524 160.543 192.703 159.819 194.969C158.925 197.767 161.211 199.839 163.956 199.237C166.212 198.74 167.828 196.688 169.073 194.891C170.297 193.125 171.32 191.229 172.137 189.241C173.304 186.405 174.043 183.401 174.316 180.349C173.237 180.421 172.121 180.051 171.22 179.42Z" fill="#979596"/>
<path d="M166.23 150.813C166.076 151.16 165.874 151.493 165.625 151.8C164.285 153.453 162.096 153.64 160.092 153.24C160.496 154.253 160.89 155.26 161.302 156.252C162.43 158.972 163.561 161.689 164.689 164.409C165.674 166.789 166.662 169.165 167.652 171.545C168.129 172.701 168.564 174 169.122 175.221C169.238 175.468 169.357 175.71 169.481 175.952C169.929 176.806 170.46 177.598 171.137 178.242C172.065 179.128 173.29 179.55 174.388 179.412L174.717 179.349C175.654 179.13 176.461 178.464 176.85 177.289C177.464 175.432 177.016 173.358 176.552 171.526C174.648 164.005 170.573 157.22 166.23 150.813Z" fill="#979596"/>
<path d="M165.821 150.213C165.864 150.08 165.901 149.96 165.935 149.826L165.963 149.72C166.743 146.413 164.28 143.746 161.929 141.826C152.643 134.213 142.327 127.613 131.807 121.76C132.26 125.373 132.605 129 132.76 132.626C135.328 134.666 137.896 136.706 140.452 138.76C143.241 141.013 146.028 143.253 148.815 145.506C151.465 147.64 154.113 150.053 157.181 151.573C157.624 151.8 158.116 152.013 158.632 152.186C159.011 152.32 159.404 152.426 159.801 152.52C162.253 153.093 164.92 152.813 165.821 150.213Z" fill="#979596"/>
<path d="M36.9449 188.409C34.9626 184.548 32.975 180.689 30.9907 176.831C30.4381 177.837 29.7526 178.755 28.799 179.42C27.8974 180.051 26.7807 180.421 25.7031 180.349C25.9766 183.401 26.7146 186.405 27.8807 189.241C28.6995 191.229 29.7219 193.125 30.9463 194.891C32.1902 196.688 33.8074 198.74 36.0626 199.237C38.8074 199.839 41.0933 197.767 40.2011 194.969C39.4771 192.703 38.0307 190.524 36.9449 188.409Z" fill="#979596"/>
<path d="M28.8811 178.242C29.5582 177.598 30.0885 176.806 30.5369 175.952C30.6609 175.71 30.7801 175.468 30.8957 175.221C31.4541 174 31.8885 172.701 32.3666 171.545C33.3562 169.165 34.3431 166.789 35.3295 164.409C36.4571 161.689 37.5879 158.972 38.7161 156.252C39.1275 155.26 39.5229 154.253 39.9265 153.24C37.9223 153.64 35.7333 153.453 34.3926 151.8C34.1437 151.493 33.9421 151.16 33.7874 150.813C29.4453 157.22 25.3707 164.005 23.4661 171.526C23.0014 173.358 22.5535 175.432 23.1671 177.289C23.5571 178.464 24.3645 179.13 25.3014 179.349L25.6306 179.412C26.7275 179.55 27.9519 179.128 28.8811 178.242Z" fill="#979596"/>
<path d="M38.0883 141.826C35.7388 143.746 33.2763 146.413 34.0549 149.72L34.0831 149.826C34.1159 149.96 34.1549 150.08 34.196 150.213C35.0971 152.813 37.7648 153.093 40.2164 152.52C40.6148 152.426 41.0069 152.32 41.3861 152.186C41.9021 152.013 42.3941 151.8 42.8368 151.573C45.9048 150.053 48.5528 147.64 51.2035 145.506C53.9901 143.253 56.7768 141.013 59.5648 138.76C62.1221 136.706 64.6901 134.666 67.2581 132.626C67.4128 129 67.7581 125.373 68.2115 121.76C57.6915 127.613 47.3755 134.213 38.0883 141.826Z" fill="#979596"/>
<path d="M5.14358 117.119C3.53998 119.733 2.34052 122.586 1.58265 125.546C1.05185 127.639 0.743046 129.773 0.670646 131.919C0.596113 134.093 0.668117 136.706 2.18265 138.453C4.02332 140.573 7.09718 140.279 8.04771 137.493C8.82225 135.253 8.96025 132.639 9.34985 130.293C10.066 126.013 10.7738 121.733 11.4842 117.453C10.4414 117.933 9.34145 118.253 8.18105 118.213C7.08051 118.186 5.96385 117.813 5.14358 117.119Z" fill="#979596"/>
<path d="M32.7289 103.853C30.8882 102.973 29.2377 101.533 29.1549 99.3998C29.1382 98.9998 29.1741 98.6131 29.2601 98.2397C21.9486 100.786 14.6293 103.8 8.61169 108.706C7.14702 109.893 5.54915 111.293 4.93302 113.146C4.54595 114.32 4.79449 115.346 5.41689 116.08L5.64342 116.32C6.44182 117.093 7.67462 117.48 8.94916 117.32C9.87782 117.213 10.7757 116.893 11.644 116.48C11.8872 116.36 12.1278 116.226 12.368 116.106C13.546 115.453 14.671 114.68 15.7434 114.026C17.9574 112.706 20.1684 111.386 22.3798 110.08C24.909 108.56 27.4387 107.053 29.9647 105.546C30.8882 105 31.8059 104.426 32.7289 103.853Z" fill="#979596"/>
<path d="M38.072 93.5997C35.0371 93.7464 31.4709 94.4131 30.1277 97.5198L30.0808 97.6264C30.0283 97.7598 29.9865 97.8797 29.948 97.9997C29.1157 100.626 31.0898 102.44 33.395 103.453C33.7683 103.613 34.1521 103.76 34.534 103.88C35.0537 104.04 35.5731 104.173 36.0595 104.266C39.4345 104.866 42.9946 104.52 46.3999 104.373C49.9772 104.24 53.5546 104.093 57.1332 103.96C61.1692 103.813 65.2105 103.68 69.2492 103.546C69.8679 103.533 70.4865 103.506 71.1119 103.48C71.6399 100.746 72.2585 97.9864 73.0772 95.3331C61.5039 93.8397 49.6839 93.0531 38.072 93.5997Z" fill="#979596"/>
<path d="M33.359 20.4935C34.3131 21.1602 34.9986 22.0667 35.5513 23.0801C37.5355 19.2134 39.5231 15.3602 41.5053 11.4935C42.5906 9.38682 44.0373 7.21341 44.7613 4.94675C45.6546 2.14675 43.3679 0.0667992 40.6231 0.666798C38.3679 1.17347 36.7507 3.22675 35.5065 5.01341C34.2825 6.78675 33.2595 8.68013 32.4413 10.6668C31.2746 13.5068 30.5371 16.5068 30.2637 19.5602C31.3413 19.4935 32.4579 19.8535 33.359 20.4935Z" fill="#979596"/>
<path d="M38.349 49.1064C38.5036 48.7464 38.7052 48.4131 38.9542 48.1064C40.2948 46.4531 42.4843 46.2665 44.487 46.6665C44.0843 45.6531 43.6883 44.6532 43.2776 43.6532C42.1496 40.9332 41.0187 38.2131 39.8911 35.5064C38.9047 33.1198 37.9178 30.7465 36.9276 28.3598C36.45 27.2132 36.0156 25.9064 35.4574 24.6798C35.3411 24.4398 35.223 24.1998 35.0979 23.9598C34.6506 23.1065 34.1192 22.3065 33.4427 21.6665C32.5135 20.7865 31.2891 20.3598 30.1916 20.4932L29.8626 20.5598C28.9255 20.7732 28.1187 21.4398 27.7287 22.6131C27.1151 24.4798 27.563 26.5465 28.0271 28.3865C29.9323 35.9065 34.0063 42.6931 38.349 49.1064Z" fill="#979596"/>
<path d="M38.7577 49.7068C38.7166 49.8268 38.6776 49.9468 38.6442 50.0801L38.6166 50.2002C37.8374 53.4935 40.3005 56.1601 42.6496 58.0801C50.0602 64.1601 58.1255 69.5868 66.4269 74.5068C66.2855 72.8002 66.5229 71.0668 67.2536 69.3468C67.8589 67.9335 68.7096 66.7069 69.7349 65.6269C67.8642 64.1469 65.9922 62.6401 64.1269 61.1468C61.3375 58.9068 58.5522 56.6535 55.7656 54.4002C53.1149 52.2669 50.4669 49.8535 47.3989 48.3335C46.9562 48.1069 46.4642 47.9069 45.9469 47.7202C45.5682 47.5869 45.1762 47.4802 44.7775 47.3869C42.3255 46.8136 39.6587 47.0935 38.7577 49.7068Z" fill="#979596"/>
<path d="M86.2249 38.6928C85.5809 39.1194 84.9622 39.5861 84.3675 40.1061C83.8422 40.5594 83.3035 41.0394 82.8475 41.5727C82.6929 41.7461 82.5489 41.9328 82.4195 42.1195H82.4169C80.2662 42.6528 78.4862 44.0128 77.2009 45.7861C74.0769 43.0261 71.4769 39.6928 69.6049 35.9594C69.0129 34.7861 68.4969 33.5727 68.0569 32.3327C65.5142 25.1194 65.8782 17.1727 68.8555 10.146C70.0915 7.22603 71.7502 4.51939 73.7835 2.10606C73.8782 4.19939 74.5795 6.26603 75.9289 7.94603C77.2035 9.54603 79.1902 10.8127 81.3275 11.3994C79.5169 14.9594 78.0715 18.8794 79.2329 22.7727C79.9422 25.1461 82.1049 28.1727 84.7195 29.0127L84.7129 29.0528C84.2875 31.1328 84.3462 33.346 84.8822 35.4127C85.1835 36.5727 85.6315 37.6794 86.2249 38.6928Z" fill="#979596"/>
<path d="M131.961 32.3327C131.212 34.4661 130.231 36.4927 129.056 38.3994C127.356 41.1461 125.244 43.6395 122.817 45.7861C121.532 44.0128 119.752 42.6528 117.601 42.1195H117.599C117.073 41.3728 116.349 40.7061 115.651 40.1061C115.056 39.5861 114.436 39.1194 113.792 38.6928C114.412 37.6394 114.873 36.4794 115.169 35.2794C115.672 33.2527 115.719 31.0795 115.304 29.0528L115.299 29.0127C117.915 28.1727 120.076 25.1461 120.785 22.7727C121.947 18.8794 120.501 14.9594 118.691 11.3994C120.827 10.8127 122.815 9.54603 124.089 7.94603C125.437 6.26603 126.14 4.19939 126.233 2.10606C128.268 4.51939 129.927 7.22603 131.163 10.146C134.139 17.1727 134.504 25.1194 131.961 32.3327Z" fill="#979596"/>
<path d="M124.366 53.2529C124.283 55.9196 123.376 58.3462 122.039 60.5596C119.99 59.7596 117.9 59.1195 115.982 58.5462C114.21 58.0262 112.406 57.5329 110.575 57.1062C108.223 56.5462 105.832 56.0796 103.427 55.7196C102.291 55.5596 101.152 55.4129 100.011 55.3062C98.8697 55.4129 97.731 55.5596 96.595 55.7196C94.0603 56.0929 91.5417 56.5996 89.0683 57.1863C87.3657 57.5996 85.687 58.0528 84.0377 58.5462C82.119 59.1195 80.0297 59.7596 77.9803 60.5596C76.643 58.3462 75.7363 55.9196 75.6537 53.2529C75.5817 50.9863 76.2563 48.5728 77.5363 46.6128L77.7683 46.2795C78.8123 44.8128 80.211 43.6396 81.9003 43.0529H81.903C82.083 42.9996 82.2683 42.9329 82.4537 42.8929C82.6443 42.5596 82.8843 42.2529 83.1576 41.9729L83.3377 41.7863C83.7443 41.3863 84.211 41.0262 84.6897 40.6929C85.2923 40.2796 85.9163 39.9062 86.4723 39.5729L86.707 39.4395C86.9923 39.2662 87.283 39.0929 87.5723 38.9329C89.043 38.1062 90.563 37.4129 92.1657 36.8662C94.7017 35.9995 97.347 35.5595 100.011 35.4128C102.676 35.5595 105.32 35.9995 107.852 36.8662C109.456 37.4129 110.976 38.1062 112.447 38.9329C112.738 39.0929 113.027 39.2662 113.312 39.4395L113.547 39.5729C114.52 40.1595 115.7 40.8529 116.61 41.7196L116.862 41.9729L117.06 42.1863C117.251 42.4129 117.423 42.6396 117.566 42.8929C117.751 42.9329 117.936 42.9996 118.116 43.0529H118.119C119.808 43.6396 121.207 44.8128 122.251 46.2795L122.483 46.6128C123.763 48.5728 124.438 50.9863 124.366 53.2529Z" fill="#979596"/>
<path d="M132.255 75.2931C132.235 75.4398 132.211 75.5864 132.183 75.7331C131.315 80.4397 127.603 84.5598 123.677 87.4531C122.381 85.1331 120.797 82.9864 118.837 81.1064C117.941 80.2664 116.969 79.4664 115.907 78.7331C111.772 75.8931 106.777 74.8131 101.86 75.8931C101.235 76.0264 100.616 76.1997 100.011 76.413C99.4027 76.1997 98.784 76.0264 98.1587 75.8931C93.2414 74.8131 88.2467 75.8931 84.112 78.7331C82.7654 79.6531 81.56 80.693 80.4787 81.813C78.8374 83.5197 77.48 85.4131 76.3414 87.4531C72.416 84.5598 68.704 80.4397 67.836 75.7331C67.808 75.5864 67.784 75.4398 67.764 75.2931C67.6014 74.1598 67.6014 72.9998 67.8027 71.8264C68.176 69.6398 69.2014 67.8397 70.6147 66.3331C70.8214 66.1064 71.04 65.8931 71.264 65.6931C71.9774 65.0131 72.7707 64.4131 73.6134 63.8664C74.9654 62.9864 76.4467 62.2398 77.9387 61.5865C78.1214 61.5065 78.304 61.4264 78.4867 61.3598H78.4894C79.8654 60.7864 81.24 60.2931 82.524 59.8531C86.7654 58.4131 91.1214 57.3197 95.544 56.5997C97.0307 56.3464 98.5187 56.1597 100.008 56.013H100.011C101.5 56.1597 102.988 56.3464 104.475 56.5997C108.897 57.3197 113.253 58.4131 117.493 59.8531C118.779 60.2931 120.153 60.7864 121.529 61.3598H121.532C121.715 61.4264 121.897 61.5065 122.08 61.5865C124.092 62.4531 126.081 63.5065 127.768 64.8531C128.111 65.1065 128.44 65.3998 128.755 65.6931C128.979 65.8931 129.197 66.1064 129.404 66.3331C130.817 67.8397 131.843 69.6398 132.216 71.8264C132.417 72.9998 132.417 74.1598 132.255 75.2931Z" fill="#979596"/>
<path d="M129.322 154.739C126.356 164.85 120.375 174.594 110.876 179.717C107.512 181.529 103.806 182.739 100.008 183.231C96.2137 182.739 92.507 181.529 89.143 179.717C79.6443 174.594 73.663 164.85 70.6977 154.739C68.6137 147.639 68.0217 140.319 68.2457 132.999C68.2563 132.599 68.2737 132.199 68.2897 131.799C68.439 128.266 68.7684 124.719 69.2044 121.213L69.2497 120.853C69.3843 119.773 69.531 118.679 69.6857 117.599C70.3097 113.226 70.9243 108.799 71.7417 104.426C71.803 104.093 71.867 103.759 71.9337 103.439C72.2097 102.013 72.511 100.586 72.8457 99.1861C73.1443 97.9195 73.4777 96.6661 73.859 95.4261L73.951 95.1327C74.6083 93.0394 75.4044 90.9861 76.3884 89.0394C76.583 88.666 76.7817 88.2928 76.9857 87.9195C77.8723 86.3328 78.899 84.8127 80.0923 83.4127C80.4577 82.9727 80.839 82.5594 81.231 82.1594C84.8857 78.4261 89.7257 75.9461 95.0737 76.1727C96.403 76.2261 97.7137 76.4395 98.9803 76.7861C99.3283 76.8795 99.671 76.986 100.011 77.106C100.348 76.986 100.694 76.8795 101.039 76.7861C102.306 76.4395 103.615 76.2261 104.946 76.1727C110.871 75.9194 116.17 78.986 119.927 83.4127C121.12 84.8127 122.146 86.3328 123.034 87.9195C123.238 88.2928 123.438 88.666 123.631 89.0394C124.615 90.9861 125.411 93.0394 126.068 95.1327L126.159 95.4261C126.54 96.6661 126.875 97.9195 127.174 99.1861C127.508 100.586 127.81 102.013 128.086 103.439C128.152 103.759 128.216 104.093 128.276 104.426C129.095 108.799 129.708 113.226 130.334 117.599C130.488 118.679 130.635 119.773 130.77 120.853L130.814 121.213C131.168 124.066 131.454 126.919 131.624 129.786C131.666 130.466 131.702 131.133 131.73 131.799C131.746 132.199 131.763 132.599 131.774 132.999C131.998 140.319 131.406 147.639 129.322 154.739Z" fill="#979596"/>
<path d="M197.836 138.453C195.995 140.573 192.922 140.28 191.971 137.493C191.198 135.253 191.059 132.64 190.67 130.293C189.954 126.013 189.246 121.733 188.535 117.453C189.578 117.933 190.678 118.253 191.838 118.213C192.938 118.187 194.055 117.813 194.876 117.12C196.479 119.733 197.679 122.587 198.436 125.547C198.967 127.64 199.276 129.773 199.348 131.92C199.423 134.093 199.351 136.707 197.836 138.453ZM187.651 116.107C186.474 115.453 185.348 114.68 184.275 114.027C182.062 112.707 179.851 111.387 177.639 110.08C175.11 108.56 172.58 107.053 170.054 105.547C169.131 105 168.214 104.427 167.29 103.853C169.131 102.973 170.782 101.533 170.864 99.3999C170.88 98.9999 170.844 98.6132 170.759 98.2399C178.071 100.787 185.39 103.8 191.407 108.707C192.872 109.893 194.47 111.293 195.086 113.147C195.474 114.32 195.224 115.347 194.603 116.08L194.376 116.32C193.576 117.093 192.344 117.48 191.07 117.32C190.142 117.213 189.243 116.893 188.375 116.48C188.131 116.36 187.891 116.227 187.651 116.107ZM165.484 103.88C164.966 104.04 164.446 104.173 163.959 104.267C160.584 104.867 157.024 104.52 153.619 104.373C150.042 104.24 146.466 104.093 142.886 103.96C138.85 103.813 134.808 103.68 130.77 103.547C130.151 103.533 129.532 103.507 128.907 103.48C128.379 100.747 127.76 97.9866 126.942 95.3333C138.515 93.8399 150.335 93.0533 161.947 93.5999C164.982 93.7466 168.547 94.4133 169.891 97.52L169.938 97.6266C169.99 97.7599 170.032 97.8799 170.071 97.9999C170.903 100.627 168.93 102.44 166.624 103.453C166.251 103.613 165.867 103.76 165.484 103.88ZM130.334 117.6C130.488 118.68 130.635 119.773 130.77 120.853L130.814 121.213C131.251 124.72 131.58 128.267 131.73 131.8C131.746 132.2 131.763 132.6 131.774 133C131.998 140.32 131.406 147.64 129.322 154.74C126.356 164.851 120.375 174.595 110.876 179.717C107.512 181.529 103.806 182.74 100.008 183.232C96.2137 182.74 92.5071 181.529 89.1431 179.717C79.6444 174.595 73.6631 164.851 70.6977 154.74C68.6137 147.64 68.0217 140.32 68.2457 133C68.2564 132.6 68.2738 132.2 68.2897 131.8C68.4391 128.267 68.7684 124.72 69.2044 121.213L69.2497 120.853C69.3844 119.773 69.5311 118.68 69.6857 117.6C70.3097 113.227 70.9244 108.8 71.7417 104.427C71.8031 104.093 71.8671 103.76 71.9337 103.44C72.2097 102.013 72.5111 100.587 72.8457 99.1866C73.1444 97.92 73.4777 96.6666 73.8591 95.4266L73.9511 95.1332C74.6084 93.0399 75.4044 90.9866 76.3884 89.0399C76.5831 88.6666 76.7817 88.2933 76.9857 87.92C77.8724 86.3333 78.8991 84.8132 80.0924 83.4132C83.8497 78.9865 89.1484 75.9199 95.0737 76.1732C96.4031 76.2266 97.7137 76.44 98.9804 76.7866C99.3284 76.88 99.6711 76.9866 100.011 77.1066C100.348 76.9866 100.694 76.88 101.039 76.7866C102.306 76.44 103.615 76.2266 104.946 76.1732C110.871 75.9199 116.17 78.9865 119.927 83.4132C121.12 84.8132 122.146 86.3333 123.034 87.92C123.238 88.2933 123.438 88.6666 123.631 89.0399C124.615 90.9866 125.411 93.0399 126.068 95.1332L126.159 95.4266C126.54 96.6666 126.875 97.92 127.174 99.1866C127.508 100.587 127.81 102.013 128.086 103.44C128.152 103.76 128.216 104.093 128.276 104.427C129.095 108.8 129.708 113.227 130.334 117.6ZM161.93 141.827C164.28 143.747 166.743 146.413 165.963 149.72L165.935 149.827C165.902 149.96 165.864 150.08 165.822 150.213C164.92 152.813 162.254 153.093 159.802 152.52C159.404 152.427 159.011 152.32 158.632 152.187C158.116 152.013 157.624 151.8 157.182 151.573C154.114 150.053 151.466 147.64 148.815 145.507C146.028 143.253 143.242 141.013 140.452 138.76C137.896 136.707 135.328 134.667 132.76 132.627C132.606 129 132.26 125.373 131.807 121.76C142.327 127.613 152.643 134.213 161.93 141.827ZM176.552 171.527C177.016 173.359 177.464 175.432 176.851 177.289C176.462 178.464 175.655 179.131 174.718 179.349L174.388 179.412C173.291 179.551 172.066 179.128 171.138 178.243C170.46 177.599 169.93 176.807 169.482 175.952C169.358 175.711 169.239 175.468 169.123 175.221C168.564 174 168.13 172.701 167.652 171.545C166.663 169.165 165.675 166.789 164.69 164.409C163.562 161.689 162.431 158.972 161.303 156.252C160.891 155.26 160.496 154.253 160.092 153.24C162.096 153.64 164.286 153.453 165.626 151.8C165.875 151.493 166.076 151.16 166.231 150.813C170.574 157.22 174.648 164.005 176.552 171.527ZM172.138 189.241C171.32 191.229 170.298 193.125 169.074 194.891C167.828 196.688 166.212 198.74 163.956 199.237C161.211 199.839 158.926 197.767 159.819 194.969C160.543 192.703 161.988 190.524 163.075 188.409C165.056 184.548 167.044 180.689 169.028 176.831C169.582 177.837 170.267 178.755 171.22 179.42C172.122 180.051 173.238 180.421 174.316 180.349C174.043 183.401 173.304 186.405 172.138 189.241ZM59.5657 138.76C56.7777 141.013 53.9911 143.253 51.2044 145.507C48.5537 147.64 45.9057 150.053 42.8377 151.573C42.3951 151.8 41.9031 152.013 41.3871 152.187C41.0079 152.32 40.6157 152.427 40.2173 152.52C37.7657 153.093 35.098 152.813 34.1969 150.213C34.1559 150.08 34.1168 149.96 34.084 149.827L34.0559 149.72C33.2772 146.413 35.7397 143.747 38.0892 141.827C47.3764 134.213 57.6924 127.613 68.2124 121.76C67.7591 125.373 67.4137 129 67.2591 132.627C64.6911 134.667 62.1231 136.707 59.5657 138.76ZM38.7168 156.252C37.5887 158.972 36.4579 161.689 35.3303 164.409C34.3439 166.789 33.3569 169.165 32.3673 171.545C31.8892 172.701 31.4548 174 30.8964 175.221C30.7808 175.468 30.6616 175.711 30.5376 175.952C30.0892 176.807 29.5589 177.599 28.8819 178.243C27.9527 179.128 26.7283 179.551 25.6313 179.412L25.3021 179.349C24.3652 179.131 23.5579 178.464 23.1679 177.289C22.5543 175.432 23.0021 173.359 23.4668 171.527C25.3715 164.005 29.446 157.22 33.7881 150.813C33.9428 151.16 34.1444 151.493 34.3933 151.8C35.734 153.453 37.9231 153.64 39.9272 153.24C39.5236 154.253 39.1283 155.26 38.7168 156.252ZM36.9449 188.409C38.0308 190.524 39.4772 192.703 40.2012 194.969C41.0933 197.767 38.8075 199.839 36.0627 199.237C33.8075 198.74 32.1903 196.688 30.9464 194.891C29.722 193.125 28.6996 191.229 27.8808 189.241C26.7147 186.405 25.9767 183.401 25.7032 180.349C26.7808 180.421 27.8975 180.051 28.7991 179.42C29.7527 178.755 30.4381 177.837 30.9908 176.831C32.9751 180.689 34.9627 184.548 36.9449 188.409ZM69.2497 103.547C65.2111 103.68 61.1697 103.813 57.1337 103.96C53.5551 104.093 49.9777 104.24 46.4004 104.373C42.9951 104.52 39.4351 104.867 36.06 104.267C35.5736 104.173 35.0543 104.04 34.5345 103.88C34.1527 103.76 33.7688 103.613 33.3955 103.453C31.0903 102.44 29.1163 100.627 29.9485 97.9999C29.9871 97.8799 30.0288 97.7599 30.0813 97.6266L30.1283 97.52C31.4715 94.4133 35.0376 93.7466 38.0725 93.5999C49.6844 93.0533 61.5044 93.8399 73.0777 95.3333C72.2591 97.9866 71.6404 100.747 71.1124 103.48C70.4871 103.507 69.8684 103.533 69.2497 103.547ZM29.9652 105.547C27.4392 107.053 24.9095 108.56 22.3803 110.08C20.1688 111.387 17.9579 112.707 15.7439 114.027C14.6715 114.68 13.5464 115.453 12.3684 116.107C12.1283 116.227 11.8876 116.36 11.6444 116.48C10.7761 116.893 9.87828 117.213 8.94961 117.32C7.67508 117.48 6.44228 117.093 5.64388 116.32L5.41735 116.08C4.79495 115.347 4.54641 114.32 4.93348 113.147C5.54961 111.293 7.14748 109.893 8.61215 108.707C14.6297 103.8 21.9491 100.787 29.2605 98.2399C29.1745 98.6132 29.1387 98.9999 29.1553 99.3999C29.2381 101.533 30.8887 102.973 32.7293 103.853C31.8064 104.427 30.8887 105 29.9652 105.547ZM9.35014 130.293C8.96054 132.64 8.82254 135.253 8.04801 137.493C7.09748 140.28 4.02361 140.573 2.18295 138.453C0.668414 136.707 0.596411 134.093 0.670944 131.92C0.743344 129.773 1.05215 127.64 1.58295 125.547C2.34081 122.587 3.54028 119.733 5.14388 117.12C5.96414 117.813 7.08081 118.187 8.18134 118.213C9.34174 118.253 10.4417 117.933 11.4845 117.453C10.7741 121.733 10.0663 126.013 9.35014 130.293ZM67.8364 75.7333C67.8084 75.5866 67.7844 75.4399 67.7644 75.2933C67.6017 74.1599 67.6017 72.9999 67.8031 71.8266C68.1764 69.6399 69.2017 67.8399 70.6151 66.3333C70.8217 66.1066 71.0404 65.8933 71.2644 65.6933C73.1297 63.9466 75.5177 62.64 77.9391 61.5866C78.1217 61.5066 78.3044 61.4266 78.4871 61.3599H78.4897C79.8658 60.7866 81.2404 60.2933 82.5244 59.8533C86.7657 58.4133 91.1217 57.3199 95.5444 56.5999C97.0311 56.3466 98.5191 56.1599 100.008 56.0132H100.011C101.5 56.1599 102.988 56.3466 104.475 56.5999C108.898 57.3199 113.254 58.4133 117.494 59.8533C118.779 60.2933 120.154 60.7866 121.53 61.3599H121.532C121.715 61.4266 121.898 61.5066 122.08 61.5866C124.5 62.64 126.89 63.9466 128.755 65.6933C128.979 65.8933 129.198 66.1066 129.404 66.3333C130.818 67.8399 131.843 69.6399 132.216 71.8266C132.418 72.9999 132.418 74.1599 132.255 75.2933C132.235 75.4399 132.211 75.5866 132.183 75.7333C131.315 80.4399 127.603 84.56 123.678 87.4533C121.79 84.0666 119.296 81.0666 115.907 78.7333C111.772 75.8932 106.778 74.8133 101.86 75.8933C101.235 76.0266 100.616 76.1999 100.011 76.4132C99.4031 76.1999 98.7844 76.0266 98.1591 75.8933C93.2417 74.8133 88.2471 75.8932 84.1124 78.7333C80.7231 81.0666 78.2297 84.0666 76.3417 87.4533C72.4164 84.56 68.7044 80.4399 67.8364 75.7333ZM66.4271 74.5066C58.1257 69.5866 50.0604 64.1599 42.6497 58.0799C40.3007 56.1599 37.8376 53.4932 38.6168 50.1999L38.6444 50.0799C38.6777 49.9465 38.7168 49.8266 38.7579 49.7066C39.6589 47.0932 42.3257 46.8133 44.7777 47.3866C45.1764 47.48 45.5684 47.5866 45.9471 47.72C46.4644 47.9066 46.9564 48.1066 47.3991 48.3333C50.4671 49.8532 53.1151 52.2666 55.7657 54.3999C58.5524 56.6532 61.3377 58.9065 64.1271 61.1465C65.9924 62.6399 67.8644 64.1466 69.7351 65.6266C68.7097 66.7066 67.8591 67.9332 67.2537 69.3465C66.5231 71.0665 66.2857 72.7999 66.4271 74.5066ZM28.0272 28.3866C27.5631 26.5466 27.1152 24.4799 27.7288 22.6132C28.1188 21.4399 28.9256 20.7733 29.8627 20.5599L30.1917 20.4933C31.2892 20.3599 32.5136 20.7866 33.4428 21.6666C34.1193 22.3066 34.6507 23.1066 35.098 23.9599C35.2231 24.1999 35.3412 24.4399 35.4575 24.6799C36.0157 25.9065 36.4501 27.2133 36.9277 28.3599C37.9179 30.7466 38.9048 33.1199 39.8912 35.5065C41.0188 38.2132 42.1497 40.9333 43.2777 43.6533C43.6884 44.6533 44.0844 45.6532 44.4871 46.6666C42.4844 46.2666 40.2949 46.4532 38.9543 48.1066C38.7053 48.4132 38.5037 48.7466 38.3491 49.1066C34.0064 42.6932 29.9324 35.9066 28.0272 28.3866ZM32.4417 10.6666C33.26 8.67992 34.2829 6.78653 35.5069 5.0132C36.7512 3.22653 38.3684 1.17325 40.6236 0.66658C43.3684 0.0665741 45.6551 2.14653 44.7617 4.94653C44.0377 7.2132 42.5911 9.38661 41.5057 11.4933C39.5236 15.3599 37.536 19.2132 35.5517 23.0799C34.9991 22.0665 34.3136 21.1599 33.3595 20.4933C32.4584 19.8533 31.3417 19.4933 30.2641 19.5599C30.5376 16.5066 31.2751 13.5066 32.4417 10.6666ZM75.6537 53.2533C75.5817 50.9866 76.2564 48.5732 77.5364 46.6132L77.7684 46.2799C78.8124 44.8132 80.2111 43.64 81.9004 43.0533H81.9031C82.0831 43 82.2684 42.9333 82.4537 42.8933C82.6444 42.5599 82.8844 42.2532 83.1577 41.9732L83.3377 41.7866C84.2551 40.8933 85.4751 40.1732 86.4724 39.5732L86.7071 39.4399C86.9924 39.2666 87.2831 39.0932 87.5724 38.9332C89.0431 38.1066 90.5631 37.4132 92.1657 36.8666C94.7017 35.9999 97.3471 35.5599 100.011 35.4132C102.676 35.5599 105.32 35.9999 107.852 36.8666C109.456 37.4132 110.976 38.1066 112.447 38.9332C112.738 39.0932 113.027 39.2666 113.312 39.4399L113.547 39.5732C114.611 40.2265 115.927 40.9866 116.862 41.9732L117.06 42.1866C117.251 42.4133 117.423 42.6399 117.566 42.8933C117.751 42.9333 117.936 43 118.116 43.0533H118.119C119.808 43.64 121.207 44.8132 122.251 46.2799L122.483 46.6132C123.763 48.5732 124.438 50.9866 124.366 53.2533C124.283 55.92 123.376 58.3466 122.039 60.5599C119.99 59.7599 117.9 59.1199 115.982 58.5465C111.932 57.3465 107.703 56.3466 103.427 55.72C102.291 55.56 101.152 55.4132 100.011 55.3065C98.8697 55.4132 97.7311 55.56 96.5951 55.72C92.3151 56.3466 88.0871 57.3465 84.0378 58.5465C82.1191 59.1199 80.0297 59.7599 77.9804 60.5599C76.6431 58.3466 75.7364 55.92 75.6537 53.2533ZM68.0577 32.3333C65.5151 25.1199 65.8791 17.1732 68.8564 10.1465C70.0924 7.22653 71.7511 4.51988 73.7844 2.10655C73.8791 4.19989 74.5804 6.26653 75.9297 7.94653C77.2044 9.54652 79.1911 10.8132 81.3284 11.3999C79.5177 14.9599 78.0724 18.8799 79.2337 22.7732C79.9431 25.1466 82.1057 28.1732 84.7204 29.0132L84.7137 29.0533C84.0511 32.2933 84.5644 35.8666 86.2257 38.6933C85.5817 39.1199 84.9631 39.5865 84.3684 40.1066C83.8431 40.5599 83.3044 41.0399 82.8484 41.5732C82.6937 41.7466 82.5497 41.9333 82.4204 42.12H82.4177C80.2671 42.6533 78.4871 44.0133 77.2017 45.7866C73.0937 42.16 69.8924 37.5332 68.0577 32.3333ZM115.304 29.0533L115.299 29.0132C117.915 28.1732 120.076 25.1466 120.786 22.7732C121.947 18.8799 120.502 14.9599 118.691 11.3999C120.827 10.8132 122.815 9.54652 124.09 7.94653C125.438 6.26653 126.14 4.19989 126.234 2.10655C128.268 4.51988 129.927 7.22653 131.163 10.1465C134.139 17.1732 134.504 25.1199 131.962 32.3333C130.126 37.5332 126.926 42.16 122.818 45.7866C121.532 44.0133 119.752 42.6533 117.602 42.12H117.599C117.074 41.3733 116.35 40.7066 115.651 40.1066C115.056 39.5865 114.436 39.1199 113.792 38.6933C115.454 35.8666 115.968 32.2933 115.304 29.0533ZM135.892 61.1465C138.682 58.9065 141.467 56.6532 144.254 54.3999C146.904 52.2666 149.552 49.8532 152.62 48.3333C153.063 48.1066 153.555 47.9066 154.072 47.72C154.451 47.5866 154.843 47.48 155.242 47.3866C157.692 46.8133 160.36 47.0932 161.262 49.7066C161.303 49.8266 161.342 49.9465 161.375 50.0799L161.403 50.1999C162.182 53.4932 159.719 56.1599 157.37 58.0799C149.959 64.1599 141.892 69.5866 133.592 74.5066C133.734 72.7999 133.496 71.0665 132.766 69.3465C132.16 67.9332 131.31 66.7066 130.283 65.6266C132.155 64.1466 134.026 62.6399 135.892 61.1465ZM156.742 43.6533C157.87 40.9333 159 38.2132 160.128 35.5065C161.115 33.1199 162.102 30.7466 163.091 28.3599C163.57 27.2133 164.003 25.9065 164.562 24.6799C164.678 24.4399 164.796 24.1999 164.92 23.9599C165.37 23.1066 165.899 22.3066 166.576 21.6666C167.506 20.7866 168.73 20.3599 169.827 20.4933L170.156 20.5599C171.094 20.7733 171.9 21.4399 172.29 22.6132C172.904 24.4799 172.456 26.5466 171.992 28.3866C170.087 35.9066 166.012 42.6932 161.671 49.1066C161.515 48.7466 161.314 48.4132 161.064 48.1066C159.724 46.4532 157.535 46.2666 155.531 46.6666C155.935 45.6532 156.33 44.6533 156.742 43.6533ZM158.514 11.4933C157.427 9.38661 155.982 7.2132 155.258 4.94653C154.366 2.14653 156.651 0.0665741 159.395 0.66658C161.651 1.17325 163.268 3.22653 164.512 5.0132C165.736 6.78653 166.759 8.67992 167.578 10.6666C168.744 13.5066 169.482 16.5066 169.755 19.5599C168.678 19.4933 167.56 19.8533 166.66 20.4933C165.706 21.1599 165.02 22.0665 164.467 23.0799C162.483 19.2132 160.496 15.3599 158.514 11.4933ZM199.07 125.8C198.274 122.6 196.93 119.6 195.136 116.867C195.492 116.507 195.775 116.067 195.954 115.547C196.474 114.04 195.871 112.467 195.018 111.2C193.836 109.453 192.059 108.12 190.376 106.893C188.28 105.373 186.039 104.04 183.72 102.893C179.53 100.827 175.107 99.3066 170.664 97.8666C170.164 96.2132 168.802 94.8266 167.259 94.0933C164.852 92.9333 162.01 92.9599 159.338 92.9732C158.908 92.9866 158.484 92.9866 158.066 92.9866C154.312 92.9733 150.559 93.0399 146.811 93.2132C140.127 93.5065 133.474 94.1199 126.851 95.0266C126.151 92.7999 125.314 90.6266 124.278 88.5866C124.667 88.3066 125.054 88.0132 125.432 87.7066C129.236 84.6532 132.967 79.9466 133.551 74.9333C137.598 72.5599 141.567 70.0666 145.456 67.4266C148.566 65.3333 151.62 63.1466 154.622 60.8933C157.038 59.0799 159.896 57.2666 161.339 54.52C162.135 53.0133 162.403 51.08 161.818 49.4533C164.523 45.6533 167.166 41.7999 169.291 37.6266C170.468 35.3199 171.47 32.9199 172.243 30.4399C172.866 28.4532 173.492 26.3333 173.399 24.2266C173.332 22.7066 172.874 21.0799 171.552 20.1732C171.104 19.8665 170.615 19.6799 170.112 19.5999C169.919 16.3466 169.208 13.1333 167.936 10.0933C166.635 6.97327 164.75 3.45325 162.032 1.33325C159.984 -0.266754 156.455 -0.773361 154.868 1.78664C154.08 3.06664 154.406 4.55997 154.962 5.8533C155.871 7.9733 157.054 9.99997 158.104 12.0533C160.108 15.96 162.107 19.88 164.103 23.7866C163.776 24.4666 163.495 25.1599 163.212 25.8399C162.05 28.6399 160.886 31.4533 159.724 34.2533C158.56 37.0533 157.398 39.8532 156.234 42.6666C155.642 44.0932 155.006 45.5199 154.398 46.9465C154.14 47.0265 153.892 47.1066 153.652 47.1999C150.59 48.3466 148.046 50.5599 145.514 52.5599C142.266 55.1333 138.988 57.6532 135.727 60.1999C133.692 61.7866 131.66 63.3866 129.634 64.9866C127.668 63.1733 125.187 61.84 122.608 60.7866C124.25 58.1733 125.283 55.2666 125.092 52.1732C124.966 50.0532 124.25 47.9199 123.064 46.1465L123.098 46.12C124.791 44.7066 126.331 43.0933 127.699 41.32C132.47 35.1466 134.903 27.3333 134.208 19.5332C133.6 12.6666 130.776 6.11992 126.226 0.999908C126.074 0.826584 125.927 0.66655 125.775 0.506561C125.798 0.866562 125.8 1.22664 125.787 1.58664C125.69 3.75996 124.916 5.89322 123.44 7.57323C121.972 9.25322 120.192 10.1733 118.263 10.5866L117.934 10.6533C118.066 10.9333 118.199 11.2133 118.328 11.4933C119.772 14.6799 120.831 18.1333 120.1 21.5599C119.708 23.3866 118.716 25.1199 117.339 26.3999C116.607 27.0799 115.822 27.5066 114.984 27.7999L114.644 27.9066C114.752 28.3199 114.835 28.72 114.895 29.12C115.374 32.24 114.598 35.4266 112.952 38.1599C112.004 37.5733 111.01 37.0799 109.982 36.6399C106.827 35.2932 103.422 34.56 100.019 34.6533H100.011H100C96.5977 34.56 93.1924 35.2932 90.0378 36.6399C89.0098 37.0799 88.0151 37.5733 87.0671 38.1599C85.4217 35.4266 84.6458 32.24 85.1231 29.12C85.1844 28.72 85.2671 28.3199 85.3751 27.9066L85.0351 27.7999C84.1977 27.5066 83.4124 27.0799 82.6804 26.3999C81.3031 25.1199 80.3111 23.3866 79.9191 21.5599C79.1884 18.1333 80.2471 14.6799 81.6911 11.4933C81.8204 11.2133 81.9524 10.9333 82.0857 10.6533L81.7564 10.5866C79.8271 10.1733 78.0471 9.25322 76.5791 7.57323C75.1031 5.89322 74.3297 3.75996 74.2324 1.58664C74.2191 1.22664 74.2217 0.866562 74.2444 0.506561C74.0924 0.66655 73.9457 0.826584 73.7937 0.999908C69.2431 6.11992 66.4191 12.6666 65.8097 19.5332C65.1164 27.3333 67.5484 35.1466 72.3204 41.32C73.6884 43.0933 75.2284 44.7066 76.9217 46.12L76.9551 46.1465C75.7697 47.9199 75.0537 50.0532 74.9271 52.1732C74.7351 55.2666 75.7697 58.1733 77.4111 60.7866C74.8324 61.84 72.3497 63.1733 70.3857 64.9866C68.3591 63.3866 66.3271 61.7866 64.2924 60.1999C61.0311 57.6532 57.7524 55.1333 54.5057 52.5599C51.9737 50.5599 49.4297 48.3466 46.3671 47.1999C46.1271 47.1066 45.8777 47.0265 45.6217 46.9465C45.0137 45.5199 44.3777 44.0932 43.7857 42.6666C42.6217 39.8532 41.4577 37.0533 40.2949 34.2533C39.134 31.4533 37.9704 28.6399 36.8064 25.8399C36.5245 25.1599 36.2423 24.4666 35.9168 23.7866C37.9121 19.88 39.9105 15.96 41.9151 12.0533C42.9644 9.99997 44.1484 7.9733 45.0577 5.8533C45.6137 4.55997 45.9391 3.06664 45.1511 1.78664C43.5644 -0.773361 40.0351 -0.266754 37.9871 1.33325C35.2693 3.45325 33.3845 6.97327 32.0829 10.0933C30.8111 13.1333 30.1007 16.3466 29.9069 19.5999C29.4037 19.6799 28.9147 19.8665 28.4673 20.1732C27.146 21.0799 26.6865 22.7066 26.6204 24.2266C26.5272 26.3333 27.1543 28.4532 27.7756 30.4399C28.5501 32.9199 29.5507 35.3199 30.7283 37.6266C32.8537 41.7999 35.4964 45.6533 38.2021 49.4533C37.6163 51.08 37.8845 53.0133 38.6808 54.52C40.1236 57.2666 42.9817 59.0799 45.3977 60.8933C48.3991 63.1466 51.4537 65.3333 54.5631 67.4266C58.4524 70.0666 62.4217 72.5599 66.4684 74.9333C67.0511 79.9466 70.7831 84.6532 74.5871 87.7066C74.9657 88.0132 75.3524 88.3066 75.7417 88.5866C74.7057 90.6266 73.8684 92.7999 73.1684 95.0266C66.5457 94.1199 59.8924 93.5065 53.2084 93.2132C49.4604 93.0399 45.7071 92.9733 41.9537 92.9866C41.5351 92.9866 41.11 92.9866 40.6803 92.9732C38.0095 92.9599 35.1673 92.9333 32.76 94.0933C31.2173 94.8266 29.8548 96.2132 29.3543 97.8666C24.9127 99.3066 20.4903 100.827 16.2996 102.893C13.9797 104.04 11.7387 105.373 9.64334 106.893C7.96001 108.12 6.18241 109.453 5.00267 111.2C4.14801 112.467 3.54601 114.04 4.06521 115.547C4.24494 116.067 4.52721 116.507 4.88348 116.867C3.08974 119.6 1.74601 122.6 0.950143 125.8C0.135076 129.08 -0.450922 133.027 0.463612 136.347C1.15174 138.853 3.68401 141.36 6.48401 140.253C7.87721 139.707 8.50175 138.32 8.82775 136.947C9.36415 134.707 9.62975 132.36 10.0111 130.093C10.7381 125.76 11.4679 121.427 12.2027 117.093C12.8663 116.747 13.5105 116.36 14.1408 115.987C16.7469 114.427 19.3537 112.867 21.9605 111.32C24.5673 109.76 27.1736 108.2 29.7824 106.653C31.1069 105.853 32.4668 105.093 33.81 104.307C34.0621 104.4 34.3136 104.48 34.5595 104.547C37.7048 105.453 41.0657 105.2 44.2924 105.107C48.4271 104.987 52.5671 104.907 56.7031 104.813C60.7471 104.72 64.7911 104.6 68.8324 104.48C69.5284 104.453 70.2271 104.44 70.9324 104.44C70.5591 106.44 70.2324 108.44 69.9124 110.373C69.3097 114.013 68.7297 117.693 68.2591 121.387C62.0017 124.787 55.9071 128.48 50.0017 132.48C46.8924 134.587 43.8391 136.76 40.8365 139.013C38.4204 140.827 35.5627 142.64 34.1193 145.387C33.3236 146.907 33.0559 148.827 33.6412 150.453C30.9355 154.253 28.2928 158.115 26.1673 162.277C24.9897 164.583 23.9892 166.993 23.2152 169.464C22.5933 171.449 21.9663 173.58 22.0595 175.683C22.1261 177.207 22.5851 178.835 23.9064 179.736C24.3543 180.04 24.8428 180.225 25.3464 180.305C25.5403 183.567 26.2501 186.776 27.522 189.819C28.8236 192.937 30.7084 196.453 33.4256 198.573C35.4741 200.173 39.0037 200.677 40.5903 198.117C41.3777 196.843 41.0521 195.356 40.4964 194.063C39.5871 191.939 38.4043 189.908 37.3537 187.855C35.3496 183.943 33.3517 180.035 31.3553 176.12C31.6813 175.444 31.9636 174.744 32.246 174.067C33.4095 171.264 34.5731 168.461 35.734 165.655C36.898 162.852 38.0616 160.049 39.2251 157.244C39.8168 155.817 40.4521 154.4 41.0605 152.96C41.3177 152.88 41.5671 152.8 41.8071 152.707C44.8697 151.56 47.4124 149.347 49.9444 147.347C53.1924 144.773 56.4697 142.253 59.7324 139.707C62.2337 137.747 64.7271 135.787 67.2151 133.813C67.0351 139.52 67.3471 145.213 68.4644 150.813C70.6444 161.744 76.0924 172.64 85.4244 179.139C88.0844 180.991 91.0311 182.428 94.1257 183.409C96.0444 184.02 98.0151 184.452 100.011 184.697C102.003 184.452 103.978 184.017 105.894 183.409C108.988 182.428 111.935 180.991 114.595 179.139C123.926 172.64 129.375 161.744 131.555 150.813C132.672 145.213 132.984 139.52 132.804 133.813C135.292 135.787 137.786 137.747 140.287 139.707C143.548 142.253 146.827 144.773 150.075 147.347C152.607 149.347 155.15 151.56 158.212 152.707C158.454 152.8 158.702 152.88 158.959 152.96C159.567 154.4 160.203 155.817 160.794 157.244C161.958 160.049 163.122 162.852 164.286 165.655C165.447 168.461 166.61 171.264 167.774 174.067C168.055 174.744 168.338 175.444 168.663 176.12C166.668 180.035 164.67 183.943 162.666 187.855C161.615 189.908 160.432 191.939 159.523 194.063C158.967 195.356 158.64 196.843 159.428 198.117C161.015 200.677 164.546 200.173 166.594 198.573C169.311 196.453 171.196 192.937 172.498 189.819C173.768 186.776 174.479 183.567 174.674 180.305C175.176 180.225 175.666 180.04 176.112 179.736C177.435 178.835 177.894 177.207 177.959 175.683C178.054 173.58 177.426 171.449 176.804 169.464C176.03 166.993 175.03 164.583 173.852 162.277C171.726 158.115 169.084 154.253 166.378 150.453C166.964 148.827 166.696 146.907 165.899 145.387C164.456 142.64 161.599 140.827 159.183 139.013C156.182 136.76 153.127 134.587 150.016 132.48C144.112 128.48 138.018 124.787 131.76 121.387C131.29 117.693 130.71 114.013 130.107 110.373C129.786 108.44 129.46 106.44 129.087 104.44C129.792 104.44 130.491 104.453 131.187 104.48C135.23 104.6 139.272 104.72 143.316 104.813C147.452 104.907 151.592 104.987 155.728 105.107C158.954 105.2 162.315 105.453 165.46 104.547C165.706 104.48 165.958 104.4 166.21 104.307C167.552 105.093 168.912 105.853 170.236 106.653C172.846 108.2 175.452 109.76 178.059 111.32C180.666 112.867 183.272 114.427 185.879 115.987C186.51 116.36 187.152 116.747 187.816 117.093C188.552 121.427 189.282 125.76 190.008 130.093C190.39 132.36 190.655 134.707 191.191 136.947C191.518 138.32 192.142 139.707 193.535 140.253C196.335 141.36 198.867 138.853 199.555 136.347C200.471 133.027 199.884 129.08 199.07 125.8Z" fill="#646262"/>
<path d="M100.008 183.231C96.2135 182.739 92.5069 181.529 89.1429 179.717C79.6442 174.594 73.6629 164.85 70.6975 154.739C68.8815 148.546 68.1989 142.213 68.2002 135.826C68.2015 134.893 68.2162 133.946 68.2455 132.999C68.2562 132.599 68.2735 132.199 68.2895 131.799C68.4389 128.266 68.7682 124.719 69.2042 121.213L69.2495 120.853C69.3842 119.773 69.5309 118.679 69.6855 117.599C70.3095 113.226 70.9242 108.799 71.7415 104.426C71.8029 104.093 71.8669 103.759 71.9335 103.439C72.2095 102.013 72.5109 100.586 72.8455 99.1861C73.1442 97.9195 73.4775 96.6661 73.8589 95.4261L73.9509 95.1328C74.6082 93.0394 75.4042 90.9861 76.3882 89.0394C76.5829 88.6661 76.7815 88.2928 76.9855 87.9195C77.8722 86.3328 78.8989 84.8127 80.0922 83.4127C80.4575 82.986 80.8375 82.5594 81.2309 82.1594C70.8242 104.066 68.6575 129.799 75.3909 153.106C77.5575 160.605 80.7469 168.062 86.3615 173.485C90.6002 177.582 96.4615 180.299 102.26 180.299C104.138 180.299 106.008 180.015 107.815 179.401C115.36 176.835 120.084 169.406 123.327 162.125C127.874 151.906 130.646 140.933 131.624 129.786C131.644 130.119 131.663 130.439 131.68 130.759C131.698 131.106 131.715 131.453 131.73 131.799C131.746 132.199 131.763 132.599 131.774 132.999C131.803 133.946 131.818 134.893 131.818 135.826C131.82 142.213 131.138 148.546 129.322 154.739C126.356 164.85 120.375 174.594 110.876 179.717C107.512 181.529 103.806 182.739 100.008 183.231Z" fill="#636566"/>
<path d="M100.008 183.231C96.2135 182.739 92.5069 181.529 89.1429 179.717C79.6442 174.594 73.6629 164.85 70.6975 154.739C68.8815 148.546 68.1989 142.213 68.2002 135.826C68.1989 142.213 68.8815 148.546 70.6975 154.739C73.6629 164.85 79.6442 174.594 89.1429 179.717C92.5069 181.529 96.2135 182.739 100.008 183.231C103.806 182.739 107.512 181.529 110.876 179.717C120.375 174.594 126.356 164.85 129.322 154.739C131.138 148.546 131.82 142.213 131.818 135.826C131.82 142.213 131.138 148.546 129.322 154.739C126.356 164.85 120.375 174.594 110.876 179.717C107.512 181.529 103.806 182.739 100.008 183.231ZM131.73 131.799C131.715 131.453 131.698 131.106 131.68 130.759C131.699 131.106 131.715 131.453 131.73 131.799ZM80.0922 83.4127C80.4575 82.9727 80.8389 82.5594 81.2309 82.1594C80.8375 82.5594 80.4575 82.986 80.0922 83.4127Z" fill="#373737"/>
<path d="M76.3412 87.4531C72.4158 84.5598 68.7038 80.4397 67.8358 75.7331C67.8078 75.5864 67.7838 75.4398 67.7638 75.2931C67.6878 74.7598 67.6465 74.2264 67.6465 73.6797C67.6452 73.0664 67.6958 72.4531 67.8025 71.8264C68.1758 69.6398 69.2012 67.8397 70.6145 66.3331C70.8212 66.1064 71.0398 65.8931 71.2638 65.6931C71.8292 65.1598 72.4425 64.6664 73.0905 64.213C73.2625 64.093 73.4358 63.9864 73.6132 63.8664C72.6812 64.8664 71.8545 65.9464 71.1865 67.1464C68.9585 71.1464 69.1052 76.8797 72.7559 79.6397C74.7905 81.173 77.4585 81.5197 79.9958 81.773C80.1545 81.7864 80.3172 81.7997 80.4772 81.813C78.8505 83.5064 77.5025 85.3864 76.3705 87.3997C76.3612 87.4264 76.3505 87.4398 76.3412 87.4531Z" fill="#636566"/>
<path d="M76.3411 87.4531C72.4158 84.5598 68.7038 80.4397 67.8358 75.7331C67.8078 75.5864 67.7838 75.4398 67.7638 75.2931C67.6878 74.7598 67.6465 74.2264 67.6465 73.6797C67.6465 74.2264 67.6878 74.7598 67.7638 75.2931C67.7838 75.4398 67.8078 75.5864 67.8358 75.7331C68.7038 80.4397 72.4158 84.5598 76.3411 87.4531ZM76.3705 87.3997C77.5025 85.3864 78.8505 83.5064 80.4771 81.813H80.4785C78.8518 83.5064 77.5038 85.3864 76.3705 87.3997ZM71.2638 65.6931C71.8278 65.1598 72.4411 64.6664 73.0905 64.213C72.4425 64.6664 71.8292 65.1598 71.2638 65.6931Z" fill="#373737"/>
<path d="M123.677 87.4531C123.665 87.4398 123.652 87.4131 123.638 87.3865C123.634 87.3865 123.63 87.3731 123.625 87.3598C123.617 87.3464 123.608 87.3331 123.598 87.3198C123.593 87.3065 123.588 87.2931 123.582 87.2931C123.572 87.2664 123.561 87.2531 123.55 87.2264C123.545 87.2264 123.538 87.2131 123.532 87.1997C123.526 87.1864 123.52 87.1731 123.513 87.1598C123.488 87.1198 123.461 87.0798 123.436 87.0264C123.432 87.0264 123.429 87.0264 123.426 87.013C122.906 86.1197 122.344 85.253 121.729 84.413C121.722 84.3997 121.714 84.3998 121.706 84.3865C121.696 84.3731 121.686 84.3597 121.676 84.3464C121.672 84.333 121.668 84.3331 121.662 84.3198C120.818 83.1865 119.881 82.1064 118.837 81.1064C122.492 80.1597 125.774 78.4265 127.505 75.1865C129.2 71.9998 128.86 68.3865 127.768 64.8531C128.11 65.1065 128.44 65.3998 128.754 65.6931C128.978 65.8931 129.197 66.1064 129.404 66.3331C130.817 67.8397 131.842 69.6398 132.216 71.8264C132.322 72.4531 132.373 73.0664 132.372 73.6797C132.372 74.2264 132.33 74.7598 132.254 75.2931C132.234 75.4398 132.21 75.5864 132.182 75.7331C131.314 80.4397 127.602 84.5598 123.677 87.4531Z" fill="#636566"/>
<path d="M123.677 87.4531C127.602 84.5598 131.314 80.4397 132.182 75.7331C132.21 75.5864 132.234 75.4398 132.254 75.2931C132.33 74.7598 132.371 74.2264 132.371 73.6797C132.371 74.2264 132.33 74.7598 132.254 75.2931C132.234 75.4398 132.21 75.5864 132.182 75.7331C131.314 80.4397 127.602 84.5598 123.677 87.4531ZM123.638 87.3865C123.634 87.3865 123.63 87.3731 123.625 87.3598C123.63 87.3731 123.634 87.3865 123.638 87.3865ZM123.598 87.3198C123.593 87.3065 123.587 87.2931 123.582 87.2931C123.587 87.2931 123.593 87.3065 123.598 87.3198ZM123.55 87.2264C123.545 87.2264 123.538 87.2131 123.531 87.1997C123.538 87.2131 123.545 87.2264 123.55 87.2264ZM123.513 87.1598C123.487 87.1198 123.461 87.0798 123.435 87.0264C123.461 87.0798 123.487 87.1198 123.513 87.1598ZM123.426 87.013C122.906 86.1197 122.343 85.253 121.729 84.413C122.343 85.253 122.906 86.1197 123.426 87.013ZM121.729 84.413C121.722 84.3997 121.714 84.3998 121.706 84.3865C121.714 84.3998 121.722 84.3997 121.729 84.413ZM121.675 84.3464C121.671 84.333 121.667 84.3331 121.662 84.3198C121.667 84.3331 121.671 84.333 121.675 84.3464Z" fill="#373737"/>
<path d="M77.9795 60.5596C76.6421 58.3462 75.7355 55.9196 75.6528 53.2529C75.6488 53.1463 75.6475 53.0395 75.6475 52.9329C75.6448 50.7595 76.3155 48.4795 77.5355 46.6128L77.7675 46.2795C78.8115 44.8128 80.2101 43.6396 81.8995 43.0529H81.9021C82.0821 42.9996 82.2675 42.9329 82.4528 42.8929C82.6435 42.5596 82.8835 42.2529 83.1568 41.9729L83.3368 41.7863C83.7408 41.3996 84.2035 41.0395 84.6808 40.7062C83.8768 41.5995 83.1381 42.5329 82.5275 43.5729C81.1835 45.8529 80.5168 48.6662 81.3661 51.1729C82.4688 54.4129 85.6528 56.2263 89.0661 57.1863C88.6981 57.2796 88.3315 57.3729 87.9648 57.4662C87.9515 57.4662 87.9381 57.4795 87.9235 57.4795C87.8955 57.4795 87.8661 57.4929 87.8368 57.4929C87.8035 57.5062 87.7688 57.5196 87.7355 57.5196C87.7168 57.5329 87.6981 57.5329 87.6781 57.5329C87.6501 57.5462 87.6221 57.5462 87.5941 57.5596C87.5861 57.5596 87.5768 57.5596 87.5688 57.5596C87.5181 57.5729 87.4688 57.5862 87.4181 57.5995C87.4035 57.6129 87.3875 57.6128 87.3728 57.6128C87.3448 57.6262 87.3168 57.6262 87.2875 57.6395C87.2528 57.6529 87.2168 57.6529 87.1821 57.6662C87.1675 57.6662 87.1541 57.6795 87.1408 57.6795C86.0955 57.9462 85.0608 58.2395 84.0368 58.5462C82.1181 59.1195 80.0288 59.7596 77.9795 60.5596Z" fill="#636566"/>
<path d="M77.9795 60.5596C76.6421 58.3462 75.7355 55.9196 75.6528 53.2529C75.6488 53.1463 75.6475 53.0395 75.6475 52.9329C75.6475 53.0395 75.6488 53.1463 75.6528 53.2529C75.7355 55.9196 76.6421 58.3462 77.9795 60.5596C80.0288 59.7596 82.1181 59.1195 84.0368 58.5462C85.0608 58.2395 86.0955 57.9462 87.1408 57.6795C86.0955 57.9462 85.0608 58.2395 84.0368 58.5462C82.1181 59.1195 80.0288 59.7596 77.9795 60.5596ZM87.1821 57.6662C87.2168 57.6529 87.2528 57.6529 87.2875 57.6395C87.2528 57.6529 87.2168 57.6529 87.1821 57.6662ZM87.3728 57.6128C87.3875 57.6128 87.4035 57.6129 87.4181 57.5995C87.4035 57.6129 87.3875 57.6128 87.3728 57.6128ZM87.5688 57.5596C87.5768 57.5596 87.5861 57.5596 87.5941 57.5596C87.5861 57.5596 87.5768 57.5596 87.5688 57.5596ZM87.6781 57.5329C87.6981 57.5329 87.7168 57.5329 87.7355 57.5196C87.7168 57.5329 87.6968 57.5329 87.6781 57.5329ZM87.8368 57.4929C87.8661 57.4929 87.8955 57.4795 87.9235 57.4795C87.8955 57.4795 87.8661 57.4929 87.8368 57.4929ZM87.9648 57.4662C88.3315 57.3729 88.6981 57.2796 89.0661 57.1863C89.0661 57.1863 89.0661 57.1863 89.0675 57.1863C88.6981 57.2796 88.3301 57.3729 87.9648 57.4662ZM83.3368 41.7863C83.7435 41.3863 84.2101 41.0262 84.6888 40.6929C84.6861 40.6929 84.6835 40.7062 84.6808 40.7062C84.2035 41.0395 83.7408 41.3996 83.3368 41.7863Z" fill="#373737"/>
<path d="M122.038 60.5596C119.989 59.7596 117.9 59.1195 115.981 58.5462C114.952 58.2395 113.91 57.9462 112.858 57.6795C112.102 57.4795 111.341 57.2795 110.574 57.1062C111.26 56.8795 111.929 56.5995 112.578 56.2795C115.056 55.0528 117.212 52.9728 118.054 50.3462C118.969 47.4662 118.204 44.3196 116.609 41.7196L116.861 41.9729L117.06 42.1863C117.25 42.4129 117.422 42.6396 117.565 42.8929C117.75 42.9329 117.936 42.9996 118.116 43.0529H118.118C119.808 43.6396 121.206 44.8128 122.25 46.2795L122.482 46.6128C123.702 48.4795 124.373 50.7595 124.37 52.9329C124.37 53.0395 124.369 53.1463 124.365 53.2529C124.282 55.9196 123.376 58.3462 122.038 60.5596Z" fill="#636566"/>
<path d="M122.038 60.5596C119.989 59.7596 117.9 59.1195 115.981 58.5462C114.952 58.2395 113.91 57.9462 112.858 57.6795C113.91 57.9462 114.952 58.2395 115.981 58.5462C117.9 59.1195 119.989 59.7596 122.038 60.5596C123.376 58.3462 124.282 55.9196 124.365 53.2529C124.369 53.1463 124.37 53.0395 124.37 52.9329C124.37 53.0395 124.369 53.1463 124.365 53.2529C124.282 55.9196 123.376 58.3462 122.038 60.5596Z" fill="#373737"/>
<path d="M77.2015 45.7861C74.0775 43.0261 71.4775 39.6928 69.6055 35.9594C71.7428 37.9728 74.5681 39.3594 77.4188 39.3594C78.0841 39.3594 78.7521 39.2928 79.4121 39.1195C81.5935 38.5861 83.4601 37.186 84.8828 35.4127C84.9175 35.546 84.9535 35.6794 84.9921 35.8127C85.2868 36.826 85.6988 37.7994 86.2255 38.6928C85.5815 39.1194 84.9628 39.5861 84.3681 40.1061C83.8428 40.5594 83.3041 41.0394 82.8481 41.5727C82.6935 41.7461 82.5495 41.9328 82.4201 42.1195H82.4175C80.2668 42.6528 78.4868 44.0128 77.2015 45.7861Z" fill="#636566"/>
<path d="M77.2012 45.7861C78.4865 44.0128 80.2665 42.6528 82.4172 42.1195H82.4198C82.5492 41.9328 82.6932 41.7461 82.8478 41.5727C83.3038 41.0394 83.8425 40.5594 84.3678 40.1061C84.9625 39.5861 85.5812 39.1194 86.2252 38.6928C85.5812 39.1194 84.9625 39.5861 84.3678 40.1061C83.8425 40.5594 83.3038 41.0394 82.8478 41.5727C82.6932 41.7461 82.5492 41.9328 82.4198 42.1195H82.4172C80.2665 42.6528 78.4865 44.0128 77.2012 45.7861ZM86.2252 38.6928C85.6985 37.7994 85.2865 36.826 84.9918 35.8127C85.2878 36.826 85.6998 37.7994 86.2252 38.6928Z" fill="#373737"/>
<path d="M122.817 45.7861C121.532 44.0128 119.752 42.6528 117.601 42.1195H117.599C117.073 41.3728 116.349 40.7061 115.651 40.1061C115.056 39.5861 114.436 39.1194 113.792 38.6928C114.412 37.6394 114.872 36.4794 115.172 35.2794C116.525 36.2127 117.896 37.1061 119.391 37.7594C121.179 38.5461 123.115 38.9195 125.057 38.9195C126.401 38.9195 127.749 38.7461 129.056 38.3994C127.356 41.1461 125.244 43.6395 122.817 45.7861Z" fill="#636566"/>
<path d="M122.817 45.7861C121.532 44.0128 119.752 42.6528 117.601 42.1195H117.599C117.073 41.3728 116.349 40.7061 115.651 40.1061C115.056 39.5861 114.436 39.1194 113.792 38.6928C114.436 39.1194 115.056 39.5861 115.651 40.1061C116.349 40.7061 117.073 41.3728 117.599 42.1195H117.601C119.752 42.6528 121.532 44.0128 122.817 45.7861ZM113.792 38.6928C114.412 37.6394 114.873 36.4794 115.169 35.2794C115.169 35.2794 115.171 35.2794 115.172 35.2794C114.872 36.4794 114.412 37.6394 113.792 38.6928Z" fill="#373737"/>
<path d="M102.261 166.956C92.3103 166.956 86.921 132.133 83.6037 107.667C81.5157 92.2801 87.8037 86.08 93.2677 86.08C96.4863 86.08 99.4197 88.2267 100.188 91.9067C100.633 88.1334 104.749 85.6667 108.741 85.6667C112.186 85.6667 115.54 87.5067 116.357 91.9067C118.43 103.107 112.212 166.956 102.261 166.956Z" fill="#999A99"/>
<path d="M100.188 69.5195C79.8724 69.5195 80.7017 58.7461 100.188 58.7461C116.358 58.7461 120.503 69.5195 100.188 69.5195Z" fill="#999A99"/>
<path d="M99.7729 47.1328C90.2369 47.1328 85.7542 38.0128 99.7729 38.0128C110.553 38.0128 109.309 47.1328 99.7729 47.1328Z" fill="#999A99"/>
<path d="M63.6836 64.7734C57.6022 64.7734 41.5929 51.8268 42.9449 49.7335C43.0556 49.5601 43.2942 49.4801 43.6369 49.4801C46.2796 49.4801 55.1703 54.2268 60.7689 58.4401C61.4503 58.9868 62.1316 59.5468 62.8129 60.0935C65.1449 62.1335 66.2756 63.8402 64.9196 64.5202C64.5769 64.6935 64.1609 64.7734 63.6836 64.7734Z" fill="#999A99"/>
<path d="M62.8135 60.0928C62.1322 59.5461 61.4509 58.9861 60.7695 58.4394C61.5175 58.9994 62.2055 59.5594 62.8135 60.0928Z" fill="#686A6C"/>
<path d="M40.6175 44.0664C40.6101 44.0664 40.6022 44.0664 40.595 44.0664C38.1074 43.9331 29.2054 23.9197 31.6117 22.6397C31.6741 22.613 31.7413 22.5997 31.8126 22.5997C33.121 22.5997 35.9085 27.9597 38.0762 33.3331C40.2434 38.6931 41.7901 44.0664 40.6175 44.0664Z" fill="#999A99"/>
<path d="M35.1298 18.4395C35.0074 18.4395 34.894 18.4128 34.7908 18.3595C32.3262 17.0662 40.3356 3.94609 42.6973 3.94609C42.852 3.94609 42.9813 3.99953 43.084 4.11953C44.6693 5.97286 37.7992 18.4395 35.1298 18.4395Z" fill="#999A99"/>
<path d="M58.8838 100.6C47.8571 100.6 33.0402 98.8129 33.5468 96.4396C33.8375 95.0929 38.6635 94.5329 44.7411 94.5329C56.0251 94.5329 71.6158 96.4663 70.4478 98.7996C69.8131 100.066 64.9171 100.6 58.8838 100.6Z" fill="#999A99"/>
<path d="M6.78965 113.68C6.58751 113.68 6.42871 113.653 6.32085 113.586C3.62605 111.92 23.914 101.08 27.5036 101.08C27.7812 101.08 27.9594 101.146 28.0187 101.28C28.8047 103.12 10.4714 113.68 6.78965 113.68Z" fill="#999A99"/>
<path d="M3.65532 136.667C2.59025 136.667 2.35785 132.454 2.79691 128.227C3.23598 124.014 4.34639 119.8 5.96572 119.8C5.99119 119.8 6.01785 119.8 6.04385 119.8C9.36105 120.08 6.59639 136.387 3.69492 136.667C3.68132 136.667 3.66825 136.667 3.65532 136.667Z" fill="#999A99"/>
<path d="M37.9868 147.439C37.6524 147.439 37.4108 147.359 37.2791 147.173C35.4753 144.586 59.5201 128.52 63.4348 128.52C63.7201 128.52 63.8988 128.6 63.9521 128.786C64.5975 130.973 42.5601 147.439 37.9868 147.439Z" fill="#999A99"/>
<path d="M25.2772 175.269C25.2188 175.269 25.1652 175.254 25.1173 175.223C23.3408 174.131 31.2928 156.006 34.1428 156.006C34.175 156.006 34.2074 156.009 34.2386 156.013C35.987 156.282 27.3949 175.27 25.2772 175.269Z" fill="#999A99"/>
<path d="M33.9623 196.38C31.0795 196.379 27.4233 183.776 28.7097 182.964C28.8499 182.876 28.9993 182.833 29.1556 182.833C31.9176 182.833 36.8467 195.979 34.0999 196.371C34.054 196.377 34.0087 196.38 33.9623 196.38Z" fill="#999A99"/>
<path d="M137.109 64.7734C136.632 64.7734 136.216 64.6935 135.874 64.5202C131.518 62.3468 152.806 49.4801 157.157 49.4801C157.5 49.4801 157.737 49.5601 157.849 49.7335C159.2 51.8268 143.192 64.7734 137.109 64.7734Z" fill="#999A99"/>
<path d="M160.176 44.0664C159.003 44.0664 160.55 38.6931 162.718 33.3331C164.884 27.9597 167.672 22.5997 168.98 22.5997C169.052 22.5997 169.119 22.613 169.182 22.6397C171.588 23.9197 162.687 43.9331 160.199 44.0664C160.191 44.0664 160.184 44.0664 160.176 44.0664Z" fill="#999A99"/>
<path d="M165.664 18.4395C162.994 18.4395 156.125 5.97286 157.71 4.11953C157.812 3.99953 157.942 3.94609 158.096 3.94609C160.458 3.94609 168.468 17.0662 166.002 18.3595C165.9 18.4128 165.786 18.4395 165.664 18.4395Z" fill="#999A99"/>
<path d="M141.909 100.6C135.877 100.6 130.981 100.066 130.345 98.7996C129.177 96.4663 144.769 94.5329 156.053 94.5329C162.131 94.5329 166.956 95.0929 167.247 96.4396C167.753 98.8129 152.936 100.6 141.909 100.6Z" fill="#999A99"/>
<path d="M194.004 113.68C190.323 113.68 171.989 103.12 172.774 101.28C172.834 101.146 173.012 101.08 173.289 101.08C176.88 101.08 197.168 111.92 194.473 113.586C194.365 113.653 194.207 113.68 194.004 113.68Z" fill="#999A99"/>
<path d="M197.139 136.667C197.126 136.667 197.114 136.667 197.1 136.667C194.198 136.387 191.434 120.08 194.75 119.8C194.776 119.8 194.803 119.8 194.828 119.8C196.447 119.8 197.558 124.014 197.996 128.227C198.435 132.454 198.204 136.667 197.139 136.667Z" fill="#999A99"/>
<path d="M162.806 147.439C158.233 147.439 136.197 130.973 136.841 128.786C136.894 128.6 137.074 128.52 137.36 128.52C141.274 128.52 165.318 144.586 163.514 147.173C163.382 147.359 163.141 147.439 162.806 147.439Z" fill="#999A99"/>
<path d="M175.517 175.269C173.4 175.269 164.806 156.282 166.556 156.013C166.586 156.009 166.618 156.006 166.652 156.006C169.501 156.006 177.453 174.131 175.677 175.223C175.629 175.254 175.576 175.269 175.517 175.269Z" fill="#999A99"/>
<path d="M160.959 196.49C160.959 196.49 161.378 196.43 161.796 196.37C161.183 196.458 160.959 196.49 160.959 196.49ZM161.672 196.38C160.518 196.38 163.396 193.27 166.428 190.041C164.751 193.176 163.09 196.185 161.796 196.37C161.751 196.377 161.71 196.38 161.672 196.38ZM161.796 196.37C161.81 196.369 161.822 196.366 161.834 196.365C161.822 196.366 161.81 196.369 161.796 196.37ZM161.834 196.365C161.835 196.365 161.836 196.365 161.838 196.365C161.836 196.365 161.835 196.365 161.834 196.365ZM161.838 196.365C162.032 196.337 162.224 196.309 162.371 196.288C162.246 196.306 162.071 196.33 161.838 196.365ZM162.371 196.288C162.371 196.288 162.372 196.288 162.374 196.288C162.372 196.288 162.371 196.288 162.371 196.288ZM162.374 196.288C162.442 196.278 162.499 196.27 162.543 196.264C162.502 196.269 162.446 196.277 162.374 196.288ZM162.543 196.264C162.544 196.264 162.546 196.264 162.546 196.264C162.546 196.264 162.544 196.264 162.543 196.264ZM162.546 196.264C162.55 196.262 162.555 196.262 162.559 196.261C162.555 196.262 162.551 196.262 162.546 196.264ZM162.559 196.261C162.56 196.261 162.562 196.261 162.563 196.261C162.562 196.261 162.56 196.261 162.559 196.261ZM162.563 196.261C162.564 196.261 162.566 196.26 162.567 196.26C162.566 196.26 162.564 196.261 162.563 196.261ZM162.567 196.26C162.568 196.26 162.568 196.26 162.57 196.26C162.568 196.26 162.568 196.26 162.567 196.26ZM162.57 196.26C162.572 196.26 162.575 196.258 162.578 196.258C162.575 196.258 162.572 196.26 162.57 196.26ZM162.578 196.258C162.579 196.258 162.58 196.258 162.582 196.258C162.58 196.258 162.579 196.258 162.578 196.258ZM162.582 196.258C162.586 196.257 162.59 196.257 162.592 196.257C162.59 196.257 162.586 196.257 162.582 196.258ZM162.592 196.257C162.595 196.256 162.598 196.256 162.599 196.256C162.598 196.256 162.595 196.256 162.592 196.257ZM162.599 196.256C162.6 196.256 162.602 196.256 162.602 196.256C162.602 196.256 162.6 196.256 162.599 196.256ZM162.602 196.256C162.604 196.254 162.607 196.254 162.61 196.254C162.607 196.254 162.604 196.254 162.602 196.256ZM162.61 196.254C162.615 196.253 162.62 196.253 162.623 196.252C162.62 196.253 162.615 196.253 162.61 196.254ZM162.623 196.252H162.624C162.623 196.252 162.623 196.252 162.623 196.252ZM162.624 196.252C162.626 196.252 162.627 196.252 162.628 196.252C162.627 196.252 162.626 196.252 162.624 196.252ZM162.628 196.252C162.63 196.252 162.63 196.252 162.631 196.25C162.63 196.252 162.63 196.252 162.628 196.252ZM162.631 196.25H162.632H162.631ZM162.632 196.25C162.634 196.25 162.635 196.25 162.635 196.25C162.635 196.25 162.634 196.25 162.632 196.25ZM166.428 190.041C168.315 186.516 170.22 182.833 171.644 182.833C171.798 182.833 171.944 182.876 172.084 182.964C172.731 183.373 169.502 186.768 166.428 190.041Z" fill="#999A99"/>
</svg>
