<svg width="217" height="254" viewBox="0 0 217 254" fill="none" xmlns="http://www.w3.org/2000/svg">
<path d="M95.8314 42.7351C97.2341 45.4898 98.8794 48.1431 100.749 50.6631C101.234 49.9444 101.723 49.2351 102.225 48.5258C100.991 46.6378 99.9114 44.6604 98.9888 42.6164C98.8701 42.3617 98.7554 42.1018 98.6501 41.8431C97.4634 39.0964 96.5581 36.2444 95.9207 33.3538C94.3047 26.0551 94.3941 18.1911 96.3327 10.5857C96.8594 8.53241 97.778 6.42443 97.9607 4.40176C98.0674 3.25776 97.9008 2.1311 97.0808 1.3791C96.1541 0.520439 94.4447 0.129818 93.0514 1.26049C91.2567 2.71782 91.1048 5.64306 90.7728 7.4364C90.4408 9.23906 90.1981 11.0417 90.0421 12.8471C89.1488 22.9817 91.0314 32.9284 95.3847 41.8471C95.5287 42.1444 95.6781 42.4418 95.8314 42.7351Z" fill="#6A6868"/>
<path d="M121.173 42.7351C121.327 42.4418 121.476 42.1444 121.62 41.8471C125.973 32.9284 127.856 22.9817 126.964 12.8471C126.807 11.0417 126.56 9.23906 126.228 7.4364C125.9 5.64306 125.748 2.71782 123.953 1.26049C122.56 0.129818 120.851 0.520439 119.924 1.3791C119.104 2.1311 118.937 3.25776 119.04 4.40176C119.227 6.42443 120.145 8.53241 120.668 10.5857C122.611 18.1911 122.7 26.0551 121.084 33.3538C120.443 36.2444 119.537 39.0964 118.356 41.8431H118.351C118.245 42.1018 118.131 42.3617 118.011 42.6164C117.093 44.6604 116.013 46.6378 114.781 48.5258C115.277 49.2351 115.771 49.9444 116.256 50.6631C118.127 48.1431 119.771 45.4898 121.173 42.7351Z" fill="#6A6868"/>
<path d="M86.1777 136.038L86.5684 135.863C85.1697 133.746 84.0644 131.421 83.227 128.959C82.007 129.53 80.7911 130.107 79.5924 130.711C73.4457 133.785 67.3537 137.011 61.327 140.39C56.1404 143.298 51.0017 146.337 45.9004 149.479L45.611 149.652L45.3817 149.793H45.3777C44.599 150.274 43.8297 150.75 43.0564 151.234C40.791 152.646 38.5457 154.15 36.3017 155.659H36.2977C32.7951 165.161 29.0711 174.771 25.2284 184.539C22.6271 191.133 19.859 197.765 17.0204 204.446C16.1057 206.589 15.1924 208.731 14.2617 210.882C15.2551 209.275 16.2377 207.668 17.1777 206.058C21.275 199.043 25.2497 192.021 28.9004 184.957C32.6671 177.662 36.2297 170.355 39.5577 163.065C39.6177 162.937 39.6724 162.809 39.7324 162.682C39.7924 162.55 39.855 162.418 39.915 162.282L40.2377 162.057C40.4417 161.913 40.6417 161.772 40.8457 161.627C49.671 155.468 58.7924 149.895 68.0551 144.904C74.0071 141.708 80.0604 138.758 86.1777 136.038Z" fill="#6A6868"/>
<path d="M18.7845 137.52C27.0778 129.372 35.7112 121.763 44.6712 114.8L44.7232 114.758C44.8978 114.622 45.0712 114.486 45.2458 114.354H45.2498C45.3858 114.34 45.5218 114.328 45.6538 114.315C53.5565 113.6 61.4712 113.427 69.3272 113.868C73.2805 114.09 77.2632 114.439 81.2245 114.966C81.2591 113.656 81.3485 112.347 81.4925 111.042C81.5219 110.74 81.5565 110.447 81.5952 110.15C76.9152 109.61 72.2592 109.079 67.6432 108.526C59.0565 107.498 50.5939 106.439 42.2365 105.384C34.5805 113.002 27.3205 121.172 20.5605 129.895C16.3312 135.348 12.2672 140.994 8.42051 146.847C7.53651 148.19 6.66052 149.542 5.79785 150.911C10.0405 146.282 14.4098 141.827 18.7845 137.52Z" fill="#6A6868"/>
<path d="M54.3728 59.0669C56.7448 59.8403 59.1794 60.5256 61.6714 61.1122C61.8367 61.1536 62.0034 61.1923 62.1728 61.2309L62.3221 61.2643C62.3688 61.5203 62.4194 61.7709 62.4701 62.0216C63.2021 65.7442 63.9367 69.4736 65.1647 73.1202C66.7127 77.7109 68.7314 82.1282 71.1554 86.3656C73.6834 90.7789 76.6847 94.9563 80.1154 98.8416C81.1354 99.9936 82.19 101.126 83.2914 102.226C83.6474 101.044 84.0474 99.8789 84.494 98.7402C84.9367 97.6176 85.4287 96.5003 85.9728 95.4029C85.7741 95.1909 85.5821 94.9736 85.3861 94.7576C81.9434 90.9269 78.9514 86.7909 76.4047 82.4296C73.8247 78.0136 71.75 73.3283 70.1607 68.5083C69.5954 66.7909 69.0461 65.0216 68.5741 63.2283L68.5407 63.1003C68.4847 62.8843 68.4301 62.6709 68.3794 62.4549C67.9327 60.6869 67.5754 58.8922 67.3501 57.0855C61.5314 55.8535 55.8861 54.3656 50.4368 52.7122C42.2021 50.2122 34.1901 47.2629 26.8447 43.7296C28.2981 44.9922 29.8074 46.2083 31.3754 47.3723C38.0274 52.3083 45.7941 56.2749 54.3728 59.0669Z" fill="#6A6868"/>
<path d="M124.583 75.4967C122.662 77.8687 119.644 79.3527 116.336 80.2154C116.035 80.3007 115.728 80.3727 115.419 80.4447C113.23 80.9341 110.951 81.1714 108.816 81.2314L108.503 81.2354H108.498H108.494L108.188 81.2314C106.054 81.1714 103.771 80.9341 101.586 80.4447C101.276 80.3727 100.97 80.3007 100.668 80.2154C97.3564 79.3527 94.3431 77.8687 92.4218 75.4967C90.2924 72.874 90.739 69.7501 92.3657 66.4341C93.879 63.3527 95.6217 60.334 97.3564 57.3714C98.5004 55.4114 99.6737 53.4821 100.894 51.5727L100.898 51.5647C100.974 51.438 101.055 51.31 101.14 51.182C101.603 50.4554 102.067 49.7287 102.543 49.01C102.662 48.8234 102.78 48.6447 102.904 48.462C103.686 47.2754 104.478 46.094 105.284 44.9207V44.9167L105.315 44.874C106.368 44.5087 107.431 44.1807 108.503 43.9007C109.574 44.1807 110.636 44.5087 111.691 44.874L111.72 44.9167V44.9207C112.523 46.094 113.319 47.2754 114.1 48.462C114.224 48.6447 114.343 48.8234 114.458 49.01C114.934 49.7287 115.402 50.4554 115.864 51.182C115.946 51.31 116.031 51.438 116.107 51.5647C117.323 53.478 118.504 55.4074 119.648 57.3714C120.064 58.086 120.486 58.8033 120.902 59.522C122.207 61.7913 123.491 64.0967 124.639 66.4341C126.267 69.7501 126.712 72.874 124.583 75.4967Z" fill="#6A6868"/>
<path d="M133.714 102.226C134.811 101.126 135.87 99.9936 136.89 98.8416C140.32 94.9563 143.32 90.7789 145.851 86.3656C148.274 82.1282 150.288 77.7109 151.835 73.1202C152.452 71.2962 152.946 69.4522 153.375 67.5989C153.803 65.7442 154.17 63.8829 154.535 62.0216C154.586 61.7709 154.638 61.5203 154.683 61.2643L154.867 61.2216C155.023 61.1882 155.176 61.1496 155.334 61.1122C157.82 60.5256 160.256 59.8403 162.628 59.0669C171.211 56.2749 178.978 52.3083 185.63 47.3723C187.199 46.2083 188.708 44.9922 190.162 43.7296C182.816 47.2629 174.803 50.2122 166.57 52.7122C161.119 54.3656 155.474 55.8535 149.655 57.0855C149.43 58.8922 149.072 60.6869 148.626 62.4549C148.596 62.5776 148.563 62.7056 148.532 62.8283C148.499 62.9603 148.464 63.0963 148.431 63.2283C147.955 65.0216 147.406 66.7909 146.84 68.5083C145.255 73.3283 143.18 78.0136 140.6 82.4296C138.054 86.7909 135.058 90.9269 131.618 94.7576C131.423 94.9736 131.232 95.1909 131.032 95.4029C131.576 96.5003 132.068 97.6176 132.507 98.7402C132.954 99.8789 133.358 101.044 133.714 102.226Z" fill="#6A6868"/>
<path d="M174.768 105.384C166.412 106.439 157.944 107.498 149.361 108.526C144.745 109.079 140.091 109.61 135.409 110.15C135.448 110.447 135.483 110.74 135.512 111.042C135.656 112.347 135.745 113.656 135.78 114.966C139.741 114.439 143.725 114.09 147.679 113.868C155.533 113.427 163.444 113.6 171.347 114.315L171.679 114.346L171.751 114.354H171.755C171.895 114.46 172.036 114.57 172.175 114.68L172.333 114.8C181.293 121.763 189.927 129.372 198.216 137.52C202.595 141.827 206.964 146.282 211.207 150.911C210.344 149.542 209.468 148.19 208.584 146.847C204.732 140.994 200.673 135.348 196.444 129.895C193.064 125.534 189.557 121.312 185.944 117.223C182.327 113.142 178.599 109.192 174.768 105.384Z" fill="#6A6868"/>
<path d="M191.777 184.539C187.93 174.771 184.21 165.161 180.703 155.659C178.459 154.15 176.214 152.646 173.949 151.234C173.175 150.75 172.402 150.274 171.623 149.793L171.602 149.78C171.44 149.678 171.271 149.577 171.104 149.479C166.003 146.337 160.861 143.298 155.678 140.39C149.651 137.011 143.559 133.785 137.413 130.711C136.214 130.107 134.998 129.53 133.778 128.959C132.941 131.421 131.835 133.746 130.437 135.863L130.829 136.038C136.945 138.758 142.998 141.708 148.95 144.904C158.213 149.895 167.334 155.468 176.159 161.627C176.465 161.848 176.779 162.066 177.09 162.282C177.205 162.546 177.325 162.805 177.447 163.065C180.775 170.355 184.338 177.662 188.103 184.957C191.755 192.021 195.73 199.043 199.827 206.058C200.767 207.668 201.744 209.275 202.743 210.882C201.812 208.731 200.895 206.589 199.985 204.446C197.146 197.765 194.378 191.133 191.777 184.539Z" fill="#6A6868"/>
<path d="M126.321 140.714C126.257 142.915 125.684 145.015 124.699 146.898C124.617 147.055 124.532 147.212 124.443 147.37C123.205 149.534 121.416 151.37 119.244 152.675C119.087 152.768 118.929 152.858 118.772 152.947C117.021 153.912 115.197 154.536 113.319 154.898L113.301 154.903C111.691 155.14 110.084 155.286 108.503 155.302C106.921 155.286 105.315 155.14 103.703 154.903L103.695 154.898C102.453 154.66 101.241 154.307 100.056 153.819C99.4399 153.567 98.8319 153.279 98.2319 152.947C95.8479 151.634 93.8839 149.687 92.5572 147.37C92.4719 147.212 92.3866 147.055 92.3066 146.898C91.3199 145.015 90.7426 142.915 90.6826 140.714C91.8733 141.806 93.1732 142.792 94.6066 143.655C94.9719 143.875 95.3413 144.084 95.7199 144.284C96.0173 144.442 96.3146 144.59 96.6173 144.735H96.6213C96.7693 144.815 96.9226 144.892 97.0839 144.96C100.439 146.515 104.205 147.395 108.047 147.395C108.2 147.395 108.349 147.395 108.503 147.391H108.613C112.575 147.447 116.468 146.558 119.92 144.96C120.077 144.892 120.231 144.815 120.384 144.735H120.388C121.076 144.407 121.748 144.046 122.393 143.655L122.725 143.451C124.031 142.639 125.225 141.72 126.321 140.714Z" fill="#6A6868"/>
<path d="M135.012 115.069C135.012 115.442 135.015 115.817 135.007 116.19C134.961 119.817 134.485 123.324 133.613 126.49C133.477 126.992 133.327 127.494 133.166 127.986C133.102 128.192 133.034 128.386 132.962 128.582C132.117 131.038 130.981 133.364 129.562 135.473C129.4 135.71 129.238 135.945 129.069 136.178C128.35 137.181 127.564 138.125 126.709 139.014C126.577 139.158 126.437 139.294 126.302 139.43C124.651 141.066 122.769 142.473 120.652 143.588L120.643 143.592L120.609 143.604C116.741 145.517 112.673 146.461 108.69 146.512H108.504C104.461 146.49 100.319 145.546 96.3968 143.604L96.3715 143.596L96.3622 143.592L96.3542 143.588C94.2368 142.473 92.3542 141.066 90.7048 139.43C90.5688 139.294 90.4275 139.158 90.2968 139.014C89.4421 138.125 88.6515 137.181 87.9369 136.178C87.7675 135.945 87.6062 135.71 87.4435 135.473C86.0195 133.364 84.8888 131.038 84.0435 128.582C83.9715 128.386 83.9035 128.192 83.8395 127.986C83.6782 127.494 83.5288 126.992 83.3928 126.49C82.5168 123.324 82.0462 119.817 81.9982 116.19C81.9902 115.817 81.9941 115.442 81.9941 115.069C82.0075 113.772 82.0755 112.462 82.1982 111.149C82.2235 110.844 82.2541 110.537 82.2915 110.23L82.3128 110.026C82.3395 109.806 82.3648 109.589 82.3941 109.368C82.5728 107.986 82.8155 106.605 83.1208 105.228C83.1808 104.948 83.2449 104.67 83.3169 104.39C83.3715 104.148 83.4315 103.906 83.4955 103.668C83.5755 103.34 83.6648 103.013 83.7635 102.69C84.4221 100.322 85.2848 98.0144 86.3515 95.8077C86.4875 95.5277 86.6275 95.2463 86.7729 94.9663C88.4942 91.621 90.7009 88.5383 93.4342 85.933C94.5849 84.8277 95.8315 83.8117 97.1742 82.893C97.9688 82.349 98.7902 81.8477 99.6395 81.397L99.9581 81.2237C102.623 81.989 105.489 82.3703 108.384 82.417H108.622C111.513 82.3703 114.382 81.989 117.048 81.2237L117.366 81.397C118.215 81.8477 119.037 82.349 119.832 82.893C122.709 84.8624 125.141 87.281 127.156 90.001C128.317 91.565 129.341 93.2277 130.233 94.9663C130.373 95.2463 130.518 95.5277 130.654 95.8077C131.721 98.0144 132.579 100.322 133.243 102.69C133.341 103.013 133.43 103.34 133.51 103.668C133.574 103.906 133.634 104.148 133.689 104.39C133.757 104.67 133.825 104.948 133.885 105.228C134.19 106.605 134.433 107.986 134.607 109.368C134.642 109.589 134.668 109.806 134.688 110.026L134.714 110.23C134.748 110.537 134.781 110.844 134.807 111.149C134.93 112.462 134.998 113.772 135.012 115.069Z" fill="#6A6868"/>
<path d="M143.504 217.518C138.471 226.044 131.483 233.267 124.124 239.882C120.21 243.4 116.082 246.738 111.755 249.832C110.696 250.59 109.603 251.312 108.503 252.018C107.402 251.312 106.31 250.59 105.251 249.832C100.923 246.738 96.795 243.4 92.8803 239.882C85.5216 233.267 78.5336 226.044 73.4963 217.518C65.0763 203.272 64.6763 184.57 72.4043 169.058C73.7096 166.431 75.2482 163.894 77.0242 161.487C81.1269 155.923 86.2749 151.243 91.9576 147.731C93.1016 149.823 94.7509 151.63 96.7576 152.96C97.2162 153.262 97.6843 153.542 98.1643 153.802H98.1683C101.259 155.459 104.787 156.187 108.443 156.203H108.562C109.022 156.203 109.472 156.187 109.927 156.166C113.094 155.991 116.132 155.251 118.836 153.802H118.84C119.32 153.542 119.788 153.262 120.247 152.96C122.254 151.63 123.903 149.823 125.043 147.731C130.73 151.243 135.878 155.923 139.98 161.487C143.538 166.312 146.156 171.651 147.84 177.211C151.959 190.8 150.492 205.696 143.504 217.518Z" fill="#6A6868"/>
<path d="M135.512 111.042C135.483 110.741 135.448 110.447 135.409 110.15C140.091 109.61 144.745 109.079 149.361 108.526C157.944 107.498 166.412 106.439 174.768 105.385C178.599 109.193 182.327 113.142 185.944 117.223C189.557 121.313 193.064 125.534 196.444 129.895C200.673 135.349 204.732 140.994 208.584 146.847C209.468 148.19 210.344 149.542 211.207 150.911C206.964 146.282 202.595 141.827 198.216 137.521C189.927 129.373 181.293 121.763 172.333 114.801L172.175 114.681C172.036 114.57 171.895 114.461 171.755 114.354H171.751L171.679 114.346L171.347 114.315C163.444 113.601 155.533 113.427 147.679 113.869C143.725 114.09 139.741 114.439 135.78 114.966C135.745 113.657 135.656 112.347 135.512 111.042ZM135.007 116.19C134.96 119.817 134.484 123.323 133.612 126.49C133.476 126.991 133.327 127.494 133.165 127.986C133.101 128.191 133.033 128.386 132.961 128.582C132.116 131.038 130.98 133.363 129.561 135.473C129.399 135.71 129.237 135.945 129.068 136.178C128.349 137.181 127.563 138.125 126.708 139.014C126.576 139.158 126.436 139.294 126.301 139.43C124.651 141.066 122.768 142.473 120.651 143.587L120.643 143.591L120.608 143.603C116.74 145.517 112.672 146.461 108.689 146.511H108.503C104.46 146.49 100.319 145.546 96.396 143.603L96.3706 143.595L96.3613 143.591L96.3533 143.587C94.236 142.473 92.3533 141.066 90.704 139.43C90.568 139.294 90.4266 139.158 90.296 139.014C89.4413 138.125 88.6507 137.181 87.936 136.178C87.7667 135.945 87.6053 135.71 87.4426 135.473C86.0186 133.363 84.888 131.038 84.0426 128.582C83.9706 128.386 83.9027 128.191 83.8387 127.986C83.6773 127.494 83.528 126.991 83.392 126.49C82.516 123.323 82.0453 119.817 81.9973 116.19C81.9893 115.817 81.9933 115.442 81.9933 115.069C82.0066 113.771 82.0747 112.462 82.1973 111.149C82.2227 110.843 82.2533 110.537 82.2906 110.23L82.312 110.026C82.3387 109.806 82.364 109.589 82.3933 109.367C82.572 107.986 82.8147 106.605 83.12 105.227C83.18 104.947 83.244 104.67 83.316 104.39C83.3707 104.147 83.4307 103.906 83.4947 103.667C83.5747 103.339 83.664 103.013 83.7626 102.69C84.4213 100.322 85.284 98.0141 86.3507 95.8074C86.4867 95.5274 86.6267 95.2461 86.772 94.9661C89.216 90.2088 92.6426 85.9928 97.1733 82.8928C97.968 82.3488 98.7893 81.8474 99.6387 81.3968L99.9573 81.2234C102.623 81.9888 105.488 82.3701 108.383 82.4167H108.621C111.512 82.3701 114.381 81.9888 117.047 81.2234L117.365 81.3968C118.215 81.8474 119.036 82.3488 119.831 82.8928C124.361 85.9928 127.788 90.2088 130.232 94.9661C130.372 95.2461 130.517 95.5274 130.653 95.8074C131.72 98.0141 132.579 100.322 133.243 102.69C133.34 103.013 133.429 103.339 133.509 103.667C133.573 103.906 133.633 104.147 133.688 104.39C133.756 104.67 133.824 104.947 133.884 105.227C134.189 106.605 134.432 107.986 134.607 109.367C134.641 109.589 134.667 109.806 134.687 110.026L134.713 110.23C134.747 110.537 134.78 110.843 134.807 111.149C134.929 112.462 134.997 113.771 135.011 115.069C135.011 115.442 135.015 115.817 135.007 116.19ZM137.412 130.711C143.559 133.785 149.651 137.011 155.677 140.39C160.86 143.298 166.003 146.337 171.104 149.479C171.271 149.577 171.44 149.678 171.601 149.781L171.623 149.793C172.401 150.274 173.175 150.75 173.948 151.234C176.213 152.646 178.459 154.15 180.703 155.659C184.209 165.161 187.929 174.771 191.776 184.539C194.377 191.133 197.145 197.765 199.984 204.446C200.895 206.589 201.812 208.731 202.743 210.882C201.744 209.275 200.767 207.669 199.827 206.058C195.729 199.043 191.755 192.021 188.103 184.957C184.337 177.662 180.775 170.355 177.447 163.065C177.324 162.805 177.204 162.546 177.089 162.282C176.779 162.066 176.464 161.849 176.159 161.627C167.333 155.469 158.212 149.895 148.949 144.905C142.997 141.709 136.944 138.758 130.828 136.038L130.436 135.863C131.835 133.746 132.94 131.421 133.777 128.959C134.997 129.53 136.213 130.107 137.412 130.711ZM124.699 146.898C124.617 147.055 124.532 147.213 124.443 147.37C123.116 149.687 121.157 151.634 118.772 152.947C117.021 153.913 115.197 154.537 113.319 154.898L113.301 154.903C111.691 155.141 110.084 155.286 108.503 155.302C106.921 155.286 105.315 155.141 103.703 154.903L103.695 154.898C101.811 154.537 99.984 153.913 98.232 152.947C95.848 151.634 93.884 149.687 92.5573 147.37C92.472 147.213 92.3866 147.055 92.3066 146.898C91.32 145.015 90.7427 142.915 90.6827 140.714C91.8734 141.806 93.1733 142.793 94.6066 143.655C95.256 144.046 95.928 144.407 96.6173 144.735H96.6214C96.7694 144.815 96.9227 144.893 97.084 144.961C100.439 146.515 104.205 147.395 108.047 147.395C108.2 147.395 108.349 147.395 108.503 147.391H108.613C112.575 147.447 116.468 146.558 119.92 144.961C120.077 144.893 120.231 144.815 120.384 144.735H120.388C121.076 144.407 121.748 144.046 122.393 143.655C123.831 142.793 125.132 141.806 126.321 140.714C126.257 142.915 125.684 145.015 124.699 146.898ZM139.98 161.487C152.235 178.109 153.352 200.859 143.504 217.518C138.471 226.045 131.483 233.267 124.124 239.882C120.209 243.401 116.081 246.738 111.755 249.833C110.696 250.59 109.603 251.313 108.503 252.018C107.401 251.313 106.309 250.59 105.251 249.833C100.923 246.738 96.7947 243.401 92.88 239.882C85.5214 233.267 78.5333 226.045 73.496 217.518C63.6506 200.859 64.7693 178.109 77.024 161.487C81.1266 155.923 86.2746 151.243 91.9573 147.731C93.1013 149.823 94.7506 151.63 96.7573 152.961C97.216 153.262 97.684 153.542 98.164 153.802H98.168C101.259 155.459 104.787 156.187 108.443 156.203H108.561C109.021 156.203 109.472 156.187 109.927 156.166C113.093 155.991 116.132 155.251 118.836 153.802H118.84C119.32 153.542 119.788 153.262 120.247 152.961C122.253 151.63 123.903 149.823 125.043 147.731C130.729 151.243 135.877 155.923 139.98 161.487ZM86.1773 136.038C80.06 138.758 74.0067 141.709 68.0547 144.905C58.792 149.895 49.6707 155.469 40.8453 161.627C40.6413 161.773 40.4413 161.913 40.2373 162.057L39.9146 162.282C39.8547 162.418 39.792 162.55 39.732 162.682C39.672 162.809 39.6173 162.937 39.5573 163.065C36.2293 170.355 32.6667 177.662 28.9 184.957C25.2493 192.021 21.2746 199.043 17.1773 206.058C16.2373 207.669 15.2547 209.275 14.2613 210.882C15.192 208.731 16.1053 206.589 17.02 204.446C19.8587 197.765 22.6267 191.133 25.228 184.539C29.0707 174.771 32.7947 165.161 36.2973 155.659H36.3013C38.5453 154.15 40.7907 152.646 43.056 151.234C43.8293 150.75 44.5986 150.274 45.3773 149.793H45.3813L45.6106 149.653L45.9 149.479C51.0013 146.337 56.14 143.298 61.3266 140.39C67.3533 137.011 73.4453 133.785 79.592 130.711C80.7907 130.107 82.0066 129.53 83.2266 128.959C84.064 131.421 85.1693 133.746 86.568 135.863L86.1773 136.038ZM80.1147 98.8421C76.684 94.9568 73.6827 90.7794 71.1547 86.3661C68.7307 82.1288 66.712 77.7114 65.164 73.1208C63.936 69.4741 63.2013 65.7448 62.4693 62.0221C62.4187 61.7714 62.368 61.5208 62.3214 61.2648L62.172 61.2315C62.0027 61.1928 61.836 61.1541 61.6706 61.1128C59.1786 60.5261 56.744 59.8408 54.372 59.0675C45.7933 56.2755 38.0266 52.3088 31.3746 47.3728C29.8066 46.2088 28.2973 44.9928 26.844 43.7301C34.1893 47.2634 42.2013 50.2128 50.436 52.7128C55.8853 54.3661 61.5307 55.8541 67.3493 57.0861C67.5747 58.8927 67.932 60.6874 68.3786 62.4554C68.4293 62.6714 68.484 62.8848 68.54 63.1008L68.5733 63.2288C69.0453 65.0221 69.5946 66.7915 70.16 68.5088C71.7493 73.3288 73.824 78.0141 76.404 82.4301C78.9506 86.7914 81.9427 90.9274 85.3854 94.7581C85.5814 94.9741 85.7733 95.1915 85.972 95.4035C85.428 96.5008 84.936 97.6181 84.4933 98.7408C84.0466 99.8794 83.6466 101.045 83.2906 102.226C82.1893 101.126 81.1347 99.9941 80.1147 98.8421ZM92.4214 75.4967C90.292 72.8741 90.7386 69.7501 92.3653 66.4341C93.8786 63.3528 95.6213 60.3341 97.356 57.3714C98.5 55.4074 99.6773 53.4781 100.897 51.5648C100.973 51.4381 101.055 51.3101 101.14 51.1821C101.603 50.4554 102.067 49.7288 102.543 49.0101C102.661 48.8234 102.78 48.6448 102.904 48.4621C103.685 47.2755 104.477 46.0941 105.284 44.9208V44.9167L105.315 44.8741C106.368 44.5088 107.431 44.1808 108.503 43.9008C109.573 44.1808 110.636 44.5088 111.691 44.8741L111.72 44.9167V44.9208C112.523 46.0941 113.319 47.2755 114.1 48.4621C114.224 48.6448 114.343 48.8234 114.457 49.0101C114.933 49.7288 115.401 50.4554 115.864 51.1821C115.945 51.3101 116.031 51.4381 116.107 51.5648C117.323 53.4781 118.504 55.4074 119.648 57.3714C121.381 60.3341 123.125 63.3528 124.639 66.4341C126.267 69.7501 126.712 72.8741 124.583 75.4967C122.661 77.8688 119.644 79.3528 116.336 80.2154C116.035 80.3008 115.728 80.3728 115.419 80.4448C113.229 80.9341 110.951 81.1715 108.816 81.2315L108.503 81.2354H108.497H108.493L108.188 81.2315C106.053 81.1715 103.771 80.9341 101.585 80.4448C101.276 80.3728 100.969 80.3008 100.668 80.2154C97.356 79.3528 94.3427 77.8688 92.4214 75.4967ZM95.8307 42.7354C95.6773 42.4421 95.528 42.1447 95.384 41.8474C91.0307 32.9287 89.148 22.9821 90.0413 12.8474C90.1973 11.0421 90.44 9.2394 90.772 7.43674C91.104 5.6434 91.256 2.71815 93.0507 1.26082C94.444 0.130157 96.1534 0.520782 97.08 1.37944C97.9 2.13144 98.0666 3.2581 97.96 4.4021C97.7773 6.42476 96.8586 8.53275 96.332 10.5861C94.3933 18.1914 94.304 26.0555 95.92 33.3541C96.5573 36.2448 97.4627 39.0968 98.6494 41.8434C98.7547 42.1021 98.8694 42.3621 98.988 42.6167C99.9107 44.6608 100.991 46.6381 102.224 48.5261C101.723 49.2355 101.233 49.9448 100.748 50.6634C98.8787 48.1434 97.2333 45.4901 95.8307 42.7354ZM118.011 42.6167C118.131 42.3621 118.245 42.1021 118.351 41.8434H118.356C119.537 39.0968 120.443 36.2448 121.084 33.3541C122.7 26.0555 122.611 18.1914 120.668 10.5861C120.145 8.53275 119.227 6.42476 119.04 4.4021C118.937 3.2581 119.104 2.13144 119.924 1.37944C120.851 0.520782 122.56 0.130157 123.953 1.26082C125.748 2.71815 125.9 5.6434 126.228 7.43674C126.56 9.2394 126.807 11.0421 126.964 12.8474C127.856 22.9821 125.973 32.9287 121.62 41.8474C121.476 42.1447 121.327 42.4421 121.173 42.7354C119.771 45.4901 118.127 48.1434 116.256 50.6634C115.771 49.9448 115.277 49.2355 114.781 48.5261C116.013 46.6381 117.093 44.6608 118.011 42.6167ZM131.617 94.7581C135.057 90.9274 138.053 86.7914 140.6 82.4301C143.18 78.0141 145.255 73.3288 146.84 68.5088C147.405 66.7915 147.955 65.0221 148.431 63.2288C148.464 63.0968 148.499 62.9608 148.532 62.8288C148.563 62.7061 148.596 62.5781 148.625 62.4554C149.072 60.6874 149.429 58.8927 149.655 57.0861C155.473 55.8541 161.119 54.3661 166.569 52.7128C174.803 50.2128 182.816 47.2634 190.161 43.7301C188.708 44.9928 187.199 46.2088 185.629 47.3728C178.977 52.3088 171.211 56.2755 162.628 59.0675C160.256 59.8408 157.82 60.5261 155.333 61.1128C155.176 61.1501 155.023 61.1888 154.867 61.2221L154.683 61.2648C154.637 61.5208 154.585 61.7714 154.535 62.0221C154.169 63.8834 153.803 65.7448 153.375 67.5994C152.945 69.4528 152.452 71.2968 151.835 73.1208C150.288 77.7114 148.273 82.1288 145.851 86.3661C143.32 90.7794 140.32 94.9568 136.889 98.8421C135.869 99.9941 134.811 101.126 133.713 102.226C133.357 101.045 132.953 99.8794 132.507 98.7408C132.068 97.6181 131.576 96.5008 131.032 95.4035C131.232 95.1915 131.423 94.9741 131.617 94.7581ZM81.492 111.042C81.348 112.347 81.2586 113.657 81.224 114.966C77.2626 114.439 73.28 114.09 69.3266 113.869C61.4706 113.427 53.556 113.601 45.6533 114.315C45.5213 114.329 45.3853 114.341 45.2493 114.354H45.2453C45.0706 114.486 44.8973 114.622 44.7227 114.758L44.6707 114.801C35.7107 121.763 27.0773 129.373 18.784 137.521C14.4093 141.827 10.04 146.282 5.79733 150.911C6.66 149.542 7.53599 148.19 8.41999 146.847C12.2667 140.994 16.3307 135.349 20.56 129.895C27.32 121.173 34.58 113.002 42.236 105.385C50.5933 106.439 59.056 107.498 67.6426 108.526C72.2586 109.079 76.9147 109.61 81.5947 110.15C81.556 110.447 81.5213 110.741 81.492 111.042ZM148.52 114.673C156.281 114.154 164.091 114.183 171.904 114.77C176.26 118.329 180.563 122.001 184.8 125.789C189.039 129.577 193.209 133.487 197.303 137.526C203.007 143.154 208.448 149.083 213.839 155.166C214.892 156.357 215.951 157.555 217 158.762C216.205 157.351 215.364 155.953 214.497 154.575C212.741 151.778 210.892 149.046 209.159 146.422C205.231 140.489 201.095 134.741 196.749 129.237C190.033 120.726 182.849 112.734 175.244 105.325C175.121 105.198 174.993 105.074 174.867 104.951H174.863L174.636 104.977L174.381 105.002C166.059 105.869 157.637 106.762 149.123 107.706C144.541 108.215 139.929 108.755 135.287 109.286C135.092 107.901 134.824 106.519 134.504 105.159C134.436 104.878 134.369 104.602 134.3 104.322C134.199 103.943 134.101 103.565 133.999 103.195C135.227 101.975 136.413 100.722 137.552 99.4328C140.957 95.5648 143.92 91.3914 146.428 86.9914C148.975 82.5367 151.015 77.8087 152.567 72.9501C153.701 69.4061 154.76 65.6608 155.244 61.8554C169.672 58.4727 182.237 52.0115 191.593 43.0288C192.061 42.5821 192.516 42.1275 192.967 41.6648C192.627 41.8168 192.291 41.9741 191.947 42.1315C183.657 45.8821 175.036 49.3501 165.676 52.1514C160.516 53.6981 155.197 55.0167 149.756 56.1861L149.505 56.2368L149.165 56.3088C149.123 56.5168 149.081 56.7207 149.037 56.9248L148.975 57.2315C148.609 59.0128 148.243 60.8021 147.831 62.5781C147.772 62.8381 147.712 63.1008 147.648 63.3648C147.215 65.1461 146.721 66.9195 146.109 68.6701C144.528 73.2275 142.475 77.6048 140.023 81.8061C137.459 86.1835 134.424 90.3234 130.964 94.1661C130.844 94.2981 130.721 94.4301 130.603 94.5621C127.759 89.1501 123.601 84.2115 118.215 81.1755L117.859 80.9768C118.364 80.8141 118.861 80.6407 119.347 80.4527L119.639 80.3381H119.644C120.209 80.1088 120.757 79.8581 121.297 79.5901C121.697 79.3914 122.092 79.1741 122.475 78.9354H122.479C125.455 77.1128 127.813 74.2394 127.168 70.3914C126.729 67.7767 125.136 65.2355 123.792 62.8421C122.397 60.3635 120.932 57.9195 119.415 55.5088C118.471 54.0088 117.501 52.5247 116.515 51.0501C118.552 48.4367 120.307 45.6554 121.787 42.7488C121.935 42.4728 122.075 42.1914 122.207 41.9074C123.661 38.9394 124.825 35.8448 125.709 32.6648C127.899 24.7675 128.32 16.3301 126.875 7.96877C126.479 5.7021 126.177 0.788757 122.572 0.0914154C118.657 -0.656586 118.135 3.35138 118.793 5.94872C119.885 10.2167 121.229 14.3874 121.603 18.7314C121.981 23.1434 121.765 27.5261 120.961 31.7728C120.295 35.3048 119.215 38.6715 117.756 41.8728C117.645 42.1275 117.527 42.3835 117.404 42.6341C116.528 44.4781 115.528 46.2634 114.407 47.9941C113.723 47.0208 113.029 46.0555 112.319 45.0955V45.0901L112.089 44.7807L111.852 44.4488C111.665 44.3808 111.477 44.3168 111.287 44.2568C110.661 44.0501 110.036 43.8541 109.408 43.6755C109.105 43.5861 108.804 43.5047 108.503 43.4248C108.2 43.5047 107.899 43.5861 107.596 43.6755C106.967 43.8541 106.343 44.0501 105.717 44.2568C105.527 44.3168 105.339 44.3808 105.152 44.4488C104.991 44.6608 104.837 44.8781 104.685 45.0901L104.68 45.0955C103.975 46.0555 103.281 47.0208 102.597 47.9941C101.476 46.2634 100.476 44.4781 99.6013 42.6341C99.4773 42.3835 99.3587 42.1275 99.248 41.8728C97.7893 38.6715 96.7106 35.3048 96.0426 31.7728C95.24 27.5261 95.0186 23.1434 95.4013 18.7314C95.7746 14.3874 97.1186 10.2167 98.2066 5.94872C98.8693 3.35138 98.3466 -0.656586 94.432 0.0914154C90.8226 0.788757 90.5253 5.7021 90.1307 7.96877C88.684 16.3301 89.1053 24.7675 91.2906 32.6648C92.1706 35.8448 93.3386 38.9394 94.7933 41.9074C94.9293 42.1914 95.0693 42.4727 95.2147 42.7527C96.6973 45.6608 98.4573 48.4367 100.489 51.0501C99.4987 52.5247 98.5334 54.0088 97.5854 55.5088C96.072 57.9195 94.6067 60.3635 93.212 62.8421C91.868 65.2355 90.2746 67.7767 89.832 70.3914C89.1906 74.2341 91.5413 77.1035 94.512 78.9315L94.5253 78.9354C94.912 79.1701 95.308 79.3914 95.7066 79.5901C96.2426 79.8581 96.7906 80.1088 97.36 80.3381H97.364L97.6573 80.4527C98.1466 80.6447 98.64 80.8194 99.1453 80.9768L98.7893 81.1755C93.4027 84.2115 89.2453 89.1501 86.4013 94.5621C86.2786 94.4301 86.16 94.2981 86.04 94.1661C82.58 90.3234 79.5454 86.1835 76.9827 81.8061C74.5294 77.6048 72.476 73.2275 70.8947 68.6701C70.2827 66.9195 69.7894 65.1461 69.352 63.3648C69.3267 63.2421 69.296 63.1234 69.2667 62.9994C69.2373 62.8594 69.2026 62.7195 69.1733 62.5781C68.756 60.8021 68.396 59.0128 68.0293 57.2315C67.9653 56.9248 67.9027 56.6195 67.8387 56.3088C67.7147 56.2835 67.592 56.2581 67.4733 56.2315L67.248 56.1861C61.8067 55.0167 56.4893 53.6981 51.324 52.1514C41.968 49.3501 33.3467 45.8821 25.0533 42.1315C24.7133 41.9741 24.3773 41.8168 24.0373 41.6648C24.488 42.1275 24.9426 42.5821 25.4106 43.0288C34.7666 52.0115 47.332 58.4727 61.76 61.8554C62.244 65.6608 63.3026 69.4061 64.4373 72.9501C65.9893 77.8087 68.0293 82.5367 70.572 86.9914C73.084 91.3914 76.0467 95.5648 79.452 99.4328C80.5907 100.722 81.7773 101.975 83.0053 103.195C82.9 103.565 82.8013 103.943 82.704 104.322C82.636 104.602 82.564 104.878 82.5 105.159C82.1813 106.519 81.9134 107.901 81.7133 109.286C77.076 108.755 72.464 108.215 67.88 107.706C59.3627 106.762 50.9453 105.869 42.6227 105.002L42.3507 104.973L42.1426 104.951H42.1373L42.0053 105.078L41.7547 105.325C37.9547 109.027 34.256 112.879 30.6733 116.866C27.0893 120.854 23.612 124.981 20.2547 129.237C15.9107 134.741 11.7746 140.489 7.84665 146.422C6.11198 149.046 4.26264 151.778 2.50664 154.575C1.63997 155.953 0.798667 157.351 0 158.762C1.05333 157.555 2.108 156.357 3.16667 155.166C8.556 149.083 13.9973 143.154 19.7013 137.526C27.8893 129.449 36.3907 121.89 45.1 114.77C49.232 114.461 53.364 114.307 57.484 114.307C61.156 114.307 64.824 114.43 68.484 114.673C72.7693 114.962 76.9986 115.45 81.212 116.071C81.2027 120.318 81.7853 124.513 83.0387 128.39C81.9253 128.947 80.816 129.499 79.72 130.039C73.4453 133.122 67.2347 136.374 61.084 139.791C56.128 142.546 51.2133 145.39 46.3373 148.357C46.2187 148.429 46.096 148.505 45.972 148.582L45.8573 148.65C44.8373 149.27 43.8213 149.895 42.8 150.533C40.8333 151.762 38.8307 152.977 36.828 154.227C36.6627 154.329 36.5013 154.431 36.336 154.533C36.208 154.865 36.08 155.193 35.948 155.523C35.8853 155.694 35.8173 155.863 35.748 156.033C32.1053 165.305 28.3266 174.715 24.3093 184.213C21.6106 190.61 18.9107 197.083 16.1227 203.609C14.716 206.899 13.292 210.202 11.8466 213.518C11.1613 215.099 10.3666 216.727 9.64798 218.377C8.94265 220.009 8.31333 221.667 7.93066 223.333L7.95199 223.523C8.76399 222.402 9.54664 221.246 10.308 220.077C13.2866 215.503 15.944 210.645 18.5587 206.066C22.444 199.278 26.036 192.442 29.5253 185.629C33.4867 177.883 37.1347 170.155 40.5013 162.431C49.5933 156.327 58.848 150.715 68.3613 145.67C74.1133 142.618 79.932 139.745 85.828 137.105C86.232 136.922 86.64 136.743 87.044 136.569C87.9747 137.89 89.024 139.123 90.1933 140.254C90.088 142.729 90.64 145.122 91.7066 147.251C79.248 154.571 69.692 167.877 66.7293 182.917C64.7266 193.079 65.7 203.609 69.6667 212.646C73.7987 222.058 80.5613 229.773 87.7786 236.851C92.196 241.178 96.9106 245.238 101.896 249.009C103.584 250.279 105.315 251.614 107.099 252.906C107.563 253.251 108.031 253.582 108.503 253.914C108.973 253.582 109.441 253.251 109.905 252.906C111.691 251.614 113.42 250.279 115.108 249.009C120.095 245.238 124.808 241.178 129.225 236.851C136.443 229.773 143.207 222.058 147.337 212.646C151.304 203.609 152.277 193.079 150.271 182.917C147.308 167.877 137.756 154.571 125.297 147.251C126.364 145.122 126.917 142.729 126.811 140.254C127.98 139.123 129.029 137.89 129.96 136.569C130.364 136.743 130.772 136.922 131.176 137.105C137.072 139.745 142.891 142.618 148.639 145.67C158.156 150.715 167.411 156.327 176.503 162.431C179.869 170.155 183.517 177.883 187.479 185.629C190.968 192.442 194.56 199.278 198.445 206.066C201.06 210.645 203.717 215.503 206.696 220.077C207.457 221.246 208.24 222.402 209.052 223.523L209.069 223.333C208.691 221.667 208.057 220.009 207.356 218.377C206.637 216.727 205.843 215.099 205.153 213.518C203.712 210.202 202.288 206.899 200.881 203.609C198.093 197.083 195.393 190.61 192.695 184.213C188.677 174.715 184.899 165.305 181.255 156.033C181.056 155.531 180.86 155.035 180.669 154.533C180.503 154.431 180.337 154.329 180.176 154.227C178.173 152.977 176.167 151.762 174.203 150.533C173.183 149.895 172.163 149.27 171.147 148.65H171.143C170.985 148.547 170.824 148.45 170.663 148.357C165.787 145.39 160.877 142.546 155.916 139.791C149.765 136.374 143.559 133.122 137.285 130.039C136.188 129.499 135.079 128.947 133.965 128.39C135.215 124.513 135.801 120.318 135.792 116.071C140.005 115.45 144.235 114.962 148.52 114.673Z" fill="#464344"/>
<path d="M92.8791 12.6514C91.0897 12.6514 91.9498 3.15406 95.0444 2.87272C95.0858 2.86872 95.1257 2.86738 95.1644 2.86738C97.9724 2.86738 94.7364 12.5101 92.9191 12.6501C92.9058 12.6501 92.8924 12.6514 92.8791 12.6514Z" fill="#5D5E60"/>
<path d="M124.303 10.5049C122.653 10.5049 119.188 4.34745 121.683 3.29811C121.833 3.23411 121.984 3.20488 122.132 3.20488C124.253 3.20488 125.983 9.32343 124.659 10.3821C124.553 10.4661 124.435 10.5049 124.303 10.5049Z" fill="#5D5E60"/>
<path d="M82.5754 93.5566C71.1554 86.366 64.7221 59.4087 64.7221 59.4087C64.7221 59.4087 48.2847 54.5913 40.0674 49.9153C49.1354 53.4566 60.6127 56.7166 66.138 57.4246C66.9887 67.9099 77.0487 88.598 82.5754 93.5566Z" fill="#5D5E60"/>
<path d="M19.2373 132.949C25.472 124.589 42.7586 106.736 42.7586 106.736C42.7586 106.736 72.3733 109.569 79.4573 110.844L43.7506 108.861C43.7506 108.861 33.1226 120.055 19.2373 132.949Z" fill="#5D5E60"/>
<path d="M23.3467 190.761C23.488 190.051 37.3747 156.754 37.3747 156.754L78.7494 132.665L39.924 157.887L23.3467 190.761Z" fill="#5D5E60"/>
<path d="M134.223 93.5566C139.748 88.598 149.809 67.9099 150.66 57.4246C156.185 56.7166 167.663 53.4566 176.731 49.9153C168.513 54.5913 152.076 59.4087 152.076 59.4087C152.076 59.4087 145.643 86.366 134.223 93.5566Z" fill="#5D5E60"/>
<path d="M197.561 132.949C183.675 120.055 173.048 108.861 173.048 108.861L137.341 110.844C144.425 109.569 174.04 106.736 174.04 106.736C174.04 106.736 191.326 124.589 197.561 132.949Z" fill="#5D5E60"/>
<path d="M193.451 190.761L176.873 157.887L138.048 132.665L179.423 156.754C179.423 156.754 193.309 190.051 193.451 190.761Z" fill="#5D5E60"/>
<path d="M112.601 63.9717C107.132 63.9717 100.225 63.0904 100.357 60.9677C100.571 57.5677 104.396 47.7904 108.221 47.365C108.301 47.3557 108.383 47.3517 108.464 47.3517C113.116 47.3517 120.105 61.6317 119.061 63.093C118.661 63.6517 115.892 63.9717 112.601 63.9717Z" fill="#5D5E60"/>
<path d="M109.734 105.815C109.585 105.815 109.437 105.815 109.285 105.814C80.5139 105.602 94.5219 86.2581 109.285 86.0474C109.362 86.0461 109.441 86.0461 109.519 86.0461C116.875 86.0461 123.969 90.9874 125.703 95.9301C127.438 100.873 123.813 105.815 109.734 105.815Z" fill="#5D5E60"/>
<path d="M112.869 188.301C112.319 188.301 111.763 188.294 111.198 188.281C74.8527 187.43 75.2781 163.201 108.222 162.775C108.673 162.77 109.121 162.767 109.561 162.767C130.313 162.767 139.745 169.15 139.689 175.533C139.631 181.917 130.082 188.301 112.869 188.301Z" fill="#5D5E60"/>
<path d="M108.503 252.018C107.402 251.312 106.31 250.59 105.251 249.832C100.923 246.738 96.7952 243.4 92.8805 239.882C85.5219 233.267 78.5338 226.044 73.4965 217.518C73.4778 217.484 73.4592 217.452 73.4392 217.42C73.4392 217.419 73.4392 217.42 73.4392 217.419C69.2659 210.316 67.0792 202.115 66.8952 193.755C66.8938 193.751 66.8938 193.748 66.8938 193.744C66.8938 193.712 66.8925 193.68 66.8925 193.65C66.8925 193.635 66.8911 193.62 66.8911 193.606C66.8911 193.587 66.8912 193.568 66.8898 193.55C66.8898 193.527 66.8898 193.507 66.8898 193.486C66.8885 193.474 66.8885 193.463 66.8885 193.451C66.8885 193.424 66.8885 193.398 66.8872 193.37V193.368C66.8832 193.106 66.8818 192.844 66.8818 192.582C66.8845 184.567 68.7218 176.45 72.4045 169.058C68.1925 193.432 78.9245 233.127 108.222 233.127C136.239 233.127 148.724 199.167 147.84 177.211C149.36 182.227 150.121 187.422 150.122 192.574C150.123 201.215 147.995 209.735 143.75 217.098C143.749 217.099 143.747 217.1 143.747 217.102C143.735 217.122 143.724 217.14 143.712 217.16C143.708 217.168 143.703 217.178 143.699 217.186C143.688 217.203 143.678 217.222 143.667 217.239C143.654 217.262 143.639 217.287 143.626 217.31C143.618 217.323 143.611 217.335 143.603 217.348C143.594 217.366 143.583 217.383 143.573 217.4C143.566 217.412 143.561 217.423 143.554 217.434C143.538 217.462 143.52 217.49 143.504 217.518C138.471 226.044 131.483 233.267 124.124 239.882C120.21 243.4 116.082 246.738 111.755 249.832C110.697 250.59 109.603 251.312 108.503 252.018Z" fill="#3C3B3D"/>
<path d="M108.503 252.018C107.401 251.312 106.309 250.59 105.251 249.832C100.923 246.738 96.7947 243.4 92.8801 239.882C85.5214 233.267 78.5334 226.044 73.496 217.518C73.4774 217.486 73.4574 217.452 73.4387 217.42C73.4587 217.452 73.4774 217.484 73.496 217.518C78.5334 226.044 85.5214 233.267 92.8801 239.882C96.7947 243.4 100.923 246.738 105.251 249.832C106.309 250.59 107.401 251.312 108.503 252.018C109.603 251.312 110.696 250.59 111.755 249.832C116.081 246.738 120.209 243.4 124.124 239.882C131.483 233.267 138.471 226.044 143.504 217.518C143.52 217.49 143.537 217.462 143.553 217.434C143.536 217.462 143.52 217.49 143.504 217.518C138.471 226.044 131.483 233.267 124.124 239.882C120.209 243.4 116.081 246.738 111.755 249.832C110.696 250.59 109.603 251.312 108.503 252.018ZM73.4387 217.419C69.2654 210.318 67.0787 202.114 66.8947 193.755C67.0787 202.115 69.2654 210.316 73.4387 217.419ZM143.572 217.4C143.583 217.383 143.593 217.366 143.603 217.348C143.593 217.366 143.583 217.383 143.572 217.4ZM143.625 217.31C143.639 217.287 143.653 217.262 143.667 217.239C143.653 217.263 143.64 217.286 143.625 217.31ZM143.699 217.186C143.703 217.178 143.708 217.168 143.712 217.16C143.708 217.168 143.703 217.178 143.699 217.186ZM143.747 217.102C143.747 217.1 143.748 217.099 143.749 217.098C143.748 217.099 143.747 217.1 143.747 217.102ZM66.8934 193.744C66.8934 193.712 66.8921 193.682 66.8921 193.65C66.8921 193.68 66.8934 193.712 66.8934 193.744ZM66.8907 193.606C66.8907 193.587 66.8907 193.567 66.8894 193.55C66.8907 193.568 66.8907 193.587 66.8907 193.606ZM66.8894 193.486C66.8881 193.475 66.8881 193.463 66.8881 193.451C66.8881 193.463 66.8881 193.474 66.8894 193.486ZM66.8867 193.37V193.368V193.37Z" fill="#201E1D"/>
<path d="M100.056 153.819C99.7479 153.694 99.4426 153.559 99.1386 153.414C98.8346 153.269 98.5319 153.113 98.2319 152.947C95.8479 151.634 93.8839 149.687 92.5572 147.37C92.4719 147.213 92.3866 147.055 92.3066 146.898C91.3199 145.015 90.7426 142.915 90.6826 140.714C91.8733 141.806 93.1732 142.793 94.6066 143.655C94.9292 143.851 95.2572 144.037 95.5906 144.215C95.6332 144.238 95.6759 144.262 95.7199 144.285C95.5159 145.635 95.6133 147.038 96.0173 148.343C96.7013 150.554 98.1813 152.45 100.056 153.819Z" fill="#3C3B3D"/>
<path d="M99.1386 153.414C98.8346 153.269 98.5319 153.113 98.2319 152.947C95.8479 151.634 93.8839 149.687 92.5572 147.37C92.4719 147.213 92.3866 147.055 92.3066 146.898C91.3199 145.015 90.7426 142.915 90.6826 140.714C90.7426 142.915 91.3199 145.015 92.3066 146.898C92.3866 147.055 92.4719 147.213 92.5572 147.37C93.8839 149.687 95.8479 151.634 98.2319 152.947C98.5319 153.113 98.8346 153.269 99.1386 153.414ZM95.7199 144.285C95.6759 144.262 95.6332 144.238 95.5906 144.215C95.6332 144.238 95.6759 144.261 95.7199 144.285Z" fill="#201E1D"/>
<path d="M119.244 152.676C121.519 150.432 122.56 147.162 122.708 143.969C122.717 143.8 122.721 143.626 122.725 143.453C123.439 143.009 124.117 142.533 124.765 142.029C124.775 142.022 124.784 142.016 124.793 142.008C124.801 142.002 124.809 141.996 124.817 141.989C125.339 141.582 125.84 141.157 126.321 140.714C126.257 142.916 125.684 145.016 124.699 146.898C124.617 147.056 124.532 147.213 124.443 147.37C123.751 148.581 122.884 149.69 121.876 150.661C121.873 150.664 121.869 150.666 121.867 150.669C121.86 150.676 121.852 150.684 121.845 150.69C121.06 151.441 120.188 152.109 119.244 152.676Z" fill="#3C3B3D"/>
<path d="M121.846 150.689C121.852 150.683 121.86 150.675 121.867 150.668C121.86 150.675 121.852 150.683 121.846 150.689ZM121.876 150.66C122.884 149.689 123.751 148.58 124.443 147.369C124.532 147.212 124.618 147.055 124.699 146.897C125.684 145.015 126.258 142.915 126.322 140.713C126.258 142.915 125.684 145.015 124.699 146.897C124.618 147.055 124.532 147.212 124.443 147.369C123.751 148.581 122.884 149.689 121.876 150.66ZM122.726 143.452C122.726 143.451 122.726 143.451 122.726 143.451C123.438 143.007 124.118 142.532 124.766 142.028C124.118 142.532 123.439 143.008 122.726 143.452ZM124.794 142.007C124.802 142.001 124.81 141.995 124.818 141.988C124.81 141.995 124.802 142.001 124.794 142.007Z" fill="#201E1D"/>
<path d="M108.69 146.512H108.503C104.46 146.49 100.319 145.546 96.3962 143.604L96.3708 143.596L96.3615 143.592L96.3535 143.588C94.2362 142.473 92.3535 141.066 90.7042 139.43C90.5682 139.294 90.4268 139.158 90.2962 139.014C89.4415 138.125 88.6509 137.181 87.9362 136.178C87.7669 135.945 87.6055 135.71 87.4428 135.473C86.0188 133.364 84.8882 131.038 84.0428 128.582C83.9708 128.386 83.9029 128.192 83.8389 127.986C83.6775 127.494 83.5282 126.992 83.3922 126.49C82.5162 123.324 82.0455 119.817 81.9975 116.19C81.9935 116.004 81.9922 115.817 81.9922 115.629C81.9935 115.442 81.9935 115.256 81.9935 115.069C82.0068 113.772 82.0749 112.462 82.1975 111.149C82.2229 110.844 82.2535 110.537 82.2908 110.23L82.3122 110.026C82.3388 109.806 82.3642 109.589 82.3935 109.368C82.5722 107.986 82.8148 106.605 83.1202 105.228C83.1802 104.948 83.2442 104.67 83.3162 104.39C83.3709 104.148 83.4309 103.906 83.4949 103.668C83.5749 103.34 83.6642 103.013 83.7628 102.69C84.4215 100.322 85.2842 98.0144 86.3508 95.8077C86.4868 95.5277 86.6269 95.2463 86.7722 94.9663C88.4935 91.621 90.7002 88.5383 93.4335 85.933C81.4202 104.709 86.0455 124.246 92.9189 131.744C96.3015 135.434 103.346 138.878 110.492 138.878C118.164 138.878 125.955 134.914 129.476 123.03C133.426 109.704 130.815 97.8317 127.155 90.001C127.935 91.0517 128.652 92.1464 129.311 93.2784C129.312 93.2811 129.314 93.2824 129.314 93.285C129.324 93.301 129.334 93.3183 129.343 93.3357C129.654 93.8703 129.949 94.4143 130.232 94.9663C130.372 95.2463 130.518 95.5277 130.654 95.8077C131.72 98.0144 132.579 100.322 133.243 102.69C133.34 103.013 133.43 103.34 133.51 103.668C133.574 103.906 133.634 104.148 133.688 104.39C133.756 104.67 133.824 104.948 133.884 105.228C134.19 106.605 134.432 107.986 134.607 109.368C134.642 109.589 134.667 109.806 134.687 110.026L134.714 110.23C134.747 110.537 134.78 110.844 134.807 111.149C134.93 112.462 134.998 113.772 135.011 115.069C135.011 115.256 135.012 115.442 135.012 115.629C135.012 115.817 135.011 116.004 135.007 116.19C134.96 119.817 134.484 123.324 133.612 126.49C133.476 126.992 133.327 127.494 133.165 127.986C133.101 128.192 133.034 128.386 132.962 128.582C132.116 131.038 130.98 133.364 129.562 135.473C129.399 135.71 129.237 135.945 129.068 136.178C128.349 137.181 127.563 138.125 126.708 139.014C126.576 139.158 126.436 139.294 126.301 139.43C124.651 141.066 122.768 142.473 120.651 143.588L120.643 143.592L120.608 143.604C116.74 145.517 112.672 146.461 108.69 146.512Z" fill="#3C3B3D"/>
<path d="M108.69 146.512H108.503C104.46 146.49 100.319 145.546 96.3962 143.604L96.3708 143.596L96.3615 143.592L96.3535 143.588C94.2362 142.473 92.3535 141.066 90.7042 139.43C90.5682 139.294 90.4268 139.158 90.2962 139.014C89.4415 138.125 88.6509 137.181 87.9362 136.178C87.7669 135.945 87.6055 135.71 87.4428 135.473C86.0188 133.364 84.8882 131.038 84.0428 128.582C83.9708 128.386 83.9029 128.192 83.8389 127.986C83.6775 127.494 83.5282 126.992 83.3922 126.49C82.5162 123.324 82.0455 119.817 81.9975 116.19C81.9935 116.004 81.9922 115.817 81.9922 115.629C81.9922 115.817 81.9935 116.004 81.9975 116.19C82.0455 119.817 82.5162 123.324 83.3922 126.49C83.5282 126.992 83.6775 127.494 83.8389 127.986C83.9029 128.192 83.9708 128.386 84.0428 128.582C84.8882 131.038 86.0188 133.364 87.4428 135.473C87.6055 135.71 87.7669 135.945 87.9362 136.178C88.6509 137.181 89.4415 138.125 90.2962 139.014C90.4268 139.158 90.5682 139.294 90.7042 139.43C92.3535 141.066 94.2362 142.473 96.3535 143.588L96.3615 143.592L96.3708 143.596L96.3962 143.604C100.319 145.546 104.46 146.49 108.503 146.512H108.69C112.672 146.461 116.74 145.517 120.608 143.604L120.643 143.592L120.651 143.588C122.768 142.473 124.651 141.066 126.301 139.43C126.436 139.294 126.576 139.158 126.708 139.014C127.563 138.125 128.349 137.181 129.068 136.178C129.237 135.945 129.399 135.71 129.562 135.473C130.98 133.364 132.116 131.038 132.962 128.582C133.034 128.386 133.101 128.192 133.165 127.986C133.327 127.494 133.476 126.992 133.612 126.49C134.484 123.324 134.96 119.817 135.007 116.19C135.011 116.004 135.012 115.817 135.012 115.629C135.012 115.817 135.011 116.004 135.007 116.19C134.96 119.817 134.484 123.324 133.612 126.49C133.476 126.992 133.327 127.494 133.165 127.986C133.101 128.192 133.034 128.386 132.962 128.582C132.116 131.038 130.98 133.364 129.562 135.473C129.399 135.71 129.237 135.945 129.068 136.178C128.349 137.181 127.563 138.125 126.708 139.014C126.576 139.158 126.436 139.294 126.301 139.43C124.651 141.066 122.768 142.473 120.651 143.588L120.643 143.592L120.608 143.604C116.74 145.517 112.672 146.461 108.69 146.512ZM130.232 94.9663C129.949 94.4143 129.654 93.8703 129.343 93.3357C129.654 93.8703 129.949 94.4143 130.232 94.9663ZM129.314 93.285C129.314 93.2824 129.312 93.2811 129.311 93.2784C129.312 93.2811 129.312 93.2824 129.314 93.285Z" fill="#201E1D"/>
<path d="M108.503 81.2354H108.494L108.188 81.2314C106.054 81.1714 103.771 80.9341 101.586 80.4447C101.276 80.3727 100.97 80.3007 100.668 80.2154C97.3564 79.3527 94.3432 77.8687 92.4218 75.4967C91.4152 74.258 90.9845 72.906 90.9805 71.474C90.9778 69.878 91.5084 68.182 92.3658 66.4341C93.8791 63.3527 95.6218 60.334 97.3565 57.3714C98.5005 55.4114 99.6738 53.4821 100.894 51.5727C100.668 51.9901 92.0738 67.9047 95.4698 73.2954C97.3165 76.2247 103.91 78.2127 110.215 78.2127C115.666 78.2127 120.902 76.7287 122.675 73.082C124.098 70.1554 122.931 64.9367 120.907 59.534C121.402 60.3927 121.892 61.2553 122.374 62.122C122.386 62.1447 122.398 62.1673 122.41 62.1887C122.412 62.194 122.415 62.1981 122.418 62.2034C122.89 63.0567 123.354 63.9154 123.802 64.7794C123.807 64.7887 123.812 64.798 123.816 64.8074C123.831 64.834 123.843 64.8594 123.856 64.8847C123.87 64.9087 123.882 64.9327 123.894 64.9567C123.902 64.9727 123.91 64.9887 123.919 65.0047C123.966 65.0967 124.014 65.1887 124.06 65.2807C124.06 65.2807 124.06 65.282 124.062 65.282C124.231 65.6154 124.399 65.9487 124.564 66.2847C124.567 66.2874 124.568 66.29 124.57 66.294C124.592 66.3407 124.616 66.3874 124.639 66.4341C125.498 68.182 126.027 69.878 126.024 71.474C126.022 72.906 125.59 74.258 124.583 75.4967C122.662 77.8687 119.644 79.3527 116.336 80.2154C116.035 80.3007 115.728 80.3727 115.419 80.4447C113.23 80.9341 110.951 81.1714 108.816 81.2314L108.503 81.2354Z" fill="#3C3B3D"/>
<path d="M108.503 81.2354H108.494L108.188 81.2314C106.054 81.1714 103.771 80.9341 101.586 80.4447C101.276 80.3727 100.97 80.3007 100.668 80.2154C97.3564 79.3527 94.3431 77.8687 92.4218 75.4967C91.4151 74.258 90.9845 72.906 90.9805 71.474C90.9845 72.906 91.4151 74.258 92.4218 75.4967C94.3431 77.8687 97.3564 79.3527 100.668 80.2154C100.97 80.3007 101.276 80.3727 101.586 80.4447C103.771 80.9341 106.054 81.1714 108.188 81.2314L108.494 81.2354H108.498H108.503L108.816 81.2314C110.951 81.1714 113.23 80.9341 115.419 80.4447C115.728 80.3727 116.035 80.3007 116.336 80.2154C119.644 79.3527 122.662 77.8687 124.583 75.4967C125.59 74.258 126.022 72.906 126.024 71.474C126.022 72.906 125.59 74.258 124.583 75.4967C122.662 77.8687 119.644 79.3527 116.336 80.2154C116.035 80.3007 115.728 80.3727 115.419 80.4447C113.23 80.9341 110.951 81.1714 108.816 81.2314L108.503 81.2354ZM124.639 66.4341C124.616 66.3874 124.592 66.3407 124.57 66.294C124.592 66.3407 124.616 66.3874 124.639 66.4341ZM124.564 66.2847C124.399 65.9487 124.231 65.6154 124.062 65.282C124.231 65.6154 124.399 65.95 124.564 66.2847ZM124.06 65.2807C124.014 65.1887 123.966 65.0967 123.919 65.0047C123.966 65.0967 124.014 65.1887 124.06 65.2807ZM123.894 64.9567C123.882 64.9327 123.87 64.9087 123.856 64.8847C123.87 64.9087 123.882 64.9327 123.894 64.9567ZM123.816 64.8074C123.812 64.798 123.807 64.7887 123.802 64.7794C123.807 64.7887 123.812 64.798 123.816 64.8074ZM122.418 62.2034C122.415 62.1981 122.412 62.194 122.41 62.1887C122.412 62.194 122.415 62.1981 122.418 62.2034ZM122.374 62.122C121.892 61.2553 121.402 60.3927 120.907 59.534C120.906 59.5314 120.903 59.526 120.902 59.522C121.398 60.3847 121.89 61.25 122.374 62.122Z" fill="#201E1D"/>
</svg>
