<svg width="254" height="226" viewBox="0 0 254 226" fill="none" xmlns="http://www.w3.org/2000/svg">
<path d="M30.6117 47.0019C22.3797 47.0019 15.6811 40.2952 15.6811 32.0686C15.6811 23.8419 22.3797 17.1352 30.6117 17.1352C38.8437 17.1352 45.5424 23.8419 45.5424 32.0686C45.5424 40.2952 38.8437 47.0019 30.6117 47.0019ZM62.6157 19.4286C53.4264 13.6819 43.3037 9.42863 32.7717 6.88197C30.761 6.38863 28.7357 5.96188 26.6984 5.60188C20.8491 4.56188 14.1343 3.94858 8.6583 6.76191C2.73964 9.81525 0.955752 16.2553 0.975752 22.482C0.994419 28.5753 2.1237 34.6952 3.32237 40.6952H3.3264C3.64774 41.1619 3.97705 41.6153 4.31039 42.082C6.64905 45.2686 9.26776 48.2552 12.1198 51.0286C33.0771 71.4152 61.3357 78.0287 89.589 82.9753C95.469 84.002 101.349 84.9619 107.162 85.9619C108.176 83.2952 109.669 80.9219 111.482 78.9219C112.122 78.2153 112.802 77.562 113.509 76.9486C98.2824 56.1353 85.0291 33.4552 62.6157 19.4286Z" fill="#989696"/>
<path d="M223.349 47.0019C215.122 47.0019 208.416 40.2952 208.416 32.0686C208.416 23.8419 215.122 17.1352 223.349 17.1352C231.589 17.1352 238.282 23.8419 238.282 32.0686C238.282 40.2952 231.589 47.0019 223.349 47.0019ZM245.296 6.76191C239.829 3.94858 233.109 4.56188 227.256 5.60188C214.562 7.85522 202.282 12.5752 191.349 19.4286C168.936 33.4552 155.669 56.1353 140.442 76.9486C141.162 77.562 141.842 78.2153 142.469 78.9219C143.069 79.5753 143.616 80.2686 144.136 80.9886C145.216 82.4953 146.109 84.1619 146.802 85.9619C180.536 80.1752 216.522 75.6686 241.842 51.0286C243.469 49.4419 245.016 47.7886 246.496 46.0686C246.856 45.6286 247.216 45.202 249.656 42.082C249.989 41.6153 250.309 41.1619 250.629 40.6952H250.642C251.829 34.6952 252.962 28.5753 252.989 22.482C253.002 16.2553 251.216 9.81525 245.296 6.76191Z" fill="#989696"/>
<path d="M119.616 42.6154C115.402 31.1221 110.176 19.8688 102.402 10.3088C99.8956 7.18879 93.4956 -1.35791 88.6289 1.14876C88.4556 1.22876 88.2823 1.33535 88.109 1.46868C87.8957 1.61535 87.6956 1.77545 87.4823 1.97545C84.9356 4.41545 85.9489 8.34871 88.6556 10.162C90.9356 11.6954 93.7356 11.5754 96.2556 10.7488C96.5489 10.6421 96.8556 10.5354 97.1356 10.4287L97.3623 10.7088C102.016 16.5355 106.082 22.8821 109.562 29.1088C112.709 34.7355 115.402 40.602 117.642 46.602C118.589 49.1354 119.589 51.8021 120.456 54.5088C120.562 54.8155 120.656 55.122 120.749 55.4287C121.602 54.9354 122.509 54.5221 123.456 54.1887C123.389 53.9887 123.322 53.7888 123.256 53.5755C122.082 49.9088 120.936 46.2288 119.616 42.6154Z" fill="#ADABAC"/>
<path d="M156.815 10.4287C157.109 10.5354 157.402 10.6421 157.709 10.7488C160.215 11.5754 163.029 11.6954 165.309 10.162C168.015 8.34871 169.029 4.41545 166.469 1.97545C166.269 1.77545 166.069 1.61535 165.855 1.46868C165.682 1.33535 165.509 1.22876 165.335 1.14876C160.469 -1.35791 154.069 7.18879 151.549 10.3088C143.789 19.8688 138.562 31.1221 134.335 42.6154C133.015 46.2288 131.882 49.9088 130.709 53.5755C130.642 53.7888 130.575 53.9887 130.509 54.1887C131.442 54.5221 132.349 54.9354 133.202 55.4287C133.309 55.122 133.402 54.8155 133.495 54.5088C134.362 51.8021 135.375 49.1354 136.322 46.602C138.562 40.602 141.242 34.7355 144.402 29.1088C147.882 22.8821 151.935 16.5355 156.589 10.7088L156.815 10.4287Z" fill="#ADABAC"/>
<path d="M108.429 104.909L108.296 105.069C94.3759 122.402 74.1092 133.456 52.2359 138.242C47.3465 139.309 42.3919 140.082 37.4119 140.562C35.4279 140.762 33.4413 140.909 31.4546 141.016C25.8106 141.309 19.9227 141.122 14.5867 139.069L14.5012 139.042L14.2412 138.936C8.05455 136.429 4.42795 130.896 3.77729 124.296C3.61729 122.642 3.62126 120.989 3.75059 119.362L3.96531 119.242C29.9573 105.762 58.5226 97.3356 87.7226 94.7223C88.2293 94.6823 88.7493 94.6422 89.2559 94.6022C93.4426 94.2556 97.6292 94.029 101.829 93.9223C103.109 93.8956 104.389 93.8957 105.669 93.909C105.656 97.7757 106.643 101.562 108.429 104.909Z" fill="#ADABAC"/>
<path d="M250.202 119.362L249.989 119.242C224.002 105.762 195.443 97.3356 166.243 94.7223C161.549 94.309 156.842 94.0423 152.136 93.9223C151.336 93.909 150.549 93.8956 149.749 93.8956C149.269 93.8956 148.776 93.8957 148.296 93.909C148.309 97.7757 147.322 101.562 145.522 104.909L145.669 105.069C159.589 122.402 179.856 133.456 201.722 138.242C208.562 139.736 215.523 140.656 222.509 141.016C228.149 141.309 234.043 141.122 239.376 139.069L239.456 139.042L239.722 138.936C245.909 136.429 249.536 130.896 250.176 124.296C250.269 123.429 250.309 122.576 250.309 121.722C250.309 120.936 250.269 120.149 250.202 119.362Z" fill="#ADABAC"/>
<path d="M48.222 205.774C42.3727 205.774 37.6141 201.014 37.6141 195.165C37.6141 189.314 42.3727 184.555 48.222 184.555C54.0727 184.555 58.8286 189.314 58.8286 195.165C58.8286 201.014 54.0727 205.774 48.222 205.774ZM112.495 110.376C112.322 110.629 112.135 110.882 111.962 111.135C111.815 111.335 111.655 111.549 111.509 111.762C108.122 116.375 104.175 120.629 100.095 124.562C97.0553 127.495 93.882 130.255 90.602 132.895C78.8286 142.349 65.7753 150.162 53.0273 158.229C44.842 163.402 36.2433 168.537 29.1793 175.229C25.6686 178.557 22.5447 182.557 20.5154 186.979C20.4394 187.129 20.374 187.281 20.3047 187.434C20.3594 187.575 20.4167 187.718 20.4701 187.859C20.8327 188.79 21.2087 189.721 21.5874 190.65C24.4167 197.55 27.6873 204.334 31.09 210.946C34.2833 217.145 38.8846 224.035 46.6299 224.215C55.3433 224.418 61.642 217.351 66.282 210.858C71.1887 203.989 75.402 196.658 79.4154 189.242C87.1487 174.965 94.9221 160.682 101.642 145.895C101.895 145.349 102.149 144.802 102.389 144.255C105.882 136.455 109.082 128.522 111.775 120.402C112.535 118.109 113.215 115.802 113.842 113.482C113.935 113.149 114.029 112.815 114.109 112.482C114.162 112.309 114.202 112.135 114.255 111.962C113.629 111.469 113.042 110.936 112.495 110.376Z" fill="#B8B6B7"/>
<path d="M205.736 205.774C199.882 205.774 195.122 201.014 195.122 195.165C195.122 189.314 199.882 184.555 205.736 184.555C211.589 184.555 216.349 189.314 216.349 195.165C216.349 201.014 211.589 205.774 205.736 205.774ZM224.776 175.229C217.722 168.537 209.122 163.402 200.936 158.229C184.629 147.909 167.829 138.029 153.856 124.562C149.776 120.629 145.842 116.375 142.456 111.762C142.296 111.549 142.149 111.335 142.002 111.135C141.816 110.882 141.642 110.629 141.469 110.376C140.909 110.936 140.322 111.469 139.709 111.962C139.749 112.135 139.802 112.309 139.856 112.482C139.936 112.815 140.029 113.149 140.109 113.482C140.749 115.802 141.429 118.109 142.189 120.402C144.882 128.522 148.069 136.455 151.576 144.255C158.456 159.629 166.522 174.437 174.536 189.242C178.549 196.658 182.762 203.989 187.669 210.858C192.309 217.351 198.616 224.418 207.322 224.215C215.069 224.035 219.682 217.145 222.869 210.946C226.736 203.442 230.416 195.719 233.496 187.859C233.549 187.718 233.602 187.575 233.656 187.434C231.629 182.833 228.402 178.671 224.776 175.229Z" fill="#B8B6B7"/>
<path d="M205.736 185.099C200.189 185.099 195.669 189.612 195.669 195.164C195.669 200.715 200.189 205.229 205.736 205.229C211.282 205.229 215.802 200.715 215.802 195.164C215.802 189.612 211.282 185.099 205.736 185.099Z" fill="#767374"/>
<path d="M48.2226 185.099C42.6719 185.099 38.1572 189.612 38.1572 195.164C38.1572 200.715 42.6719 205.229 48.2226 205.229C53.7746 205.229 58.2826 200.715 58.2826 195.164C58.2826 189.612 53.7746 185.099 48.2226 185.099Z" fill="#767374"/>
<path d="M44.777 32.0685C44.777 24.2552 38.4223 17.9086 30.6117 17.9086C22.801 17.9086 16.4463 24.2552 16.4463 32.0685C16.4463 39.8818 22.801 46.2285 30.6117 46.2285C38.4223 46.2285 44.777 39.8818 44.777 32.0685Z" fill="#767374"/>
<path d="M223.349 17.9086C215.536 17.9086 209.176 24.2552 209.176 32.0685C209.176 39.8818 215.536 46.2285 223.349 46.2285C231.162 46.2285 237.509 39.8818 237.509 32.0685C237.509 24.2552 231.162 17.9086 223.349 17.9086Z" fill="#767374"/>
<path d="M106.815 86.9482C106.669 87.3748 106.535 87.8148 106.415 88.2548C106.015 89.7748 105.775 91.2948 105.695 92.8148C104.855 92.8282 104.015 92.8548 103.175 92.8681C98.9088 92.9481 94.6554 93.1615 90.402 93.4815L89.4154 93.5615C81.6421 94.2015 73.9087 95.2681 66.2554 96.7348C49.8274 99.8814 33.6861 104.868 18.4061 111.695C13.4447 113.921 8.57007 116.322 3.78874 118.908C3.96074 117.055 4.29002 115.215 4.70736 113.388C5.40069 110.348 6.33412 107.348 7.20345 104.361C9.13678 97.7348 10.2327 91.0548 10.2061 84.1348C10.1781 77.4148 9.28602 70.7348 8.10736 64.1348C6.85136 57.0948 5.22069 50.1215 3.80736 43.1082C3.75802 42.8549 3.7047 42.6014 3.65137 42.3348C10.0447 51.5348 18.7821 59.1082 28.3834 64.8415C46.0101 75.3349 66.4554 79.8415 86.4287 83.4148C87.522 83.6015 88.6021 83.8014 89.6954 84.0014C95.3887 85.0148 101.095 86.0148 106.815 86.9482Z" fill="#817F7F"/>
<path d="M246.749 104.361C244.816 97.7348 243.723 91.0548 243.749 84.1348C243.776 77.4148 244.669 70.7348 245.856 64.1348C247.109 57.0948 248.736 50.1215 250.149 43.1082C250.203 42.8549 250.256 42.6014 250.309 42.3348C243.909 51.5348 235.176 59.1082 225.576 64.8415C207.949 75.3349 187.509 79.8415 167.523 83.4148C160.749 84.6282 153.949 85.8282 147.149 86.9482C147.296 87.3748 147.416 87.8148 147.536 88.2548C147.949 89.7748 148.176 91.2948 148.256 92.8148C149.109 92.8282 149.949 92.8548 150.789 92.8681C155.043 92.9481 159.309 93.1615 163.563 93.4815C171.656 94.1215 179.723 95.2014 187.696 96.7348C204.136 99.8814 220.269 104.868 235.549 111.695C240.509 113.921 245.389 116.322 250.176 118.908C250.003 117.055 249.669 115.215 249.256 113.388C248.563 110.348 247.629 107.348 246.749 104.361Z" fill="#817F7F"/>
<path d="M111.709 109.561C111.483 109.855 111.269 110.161 111.043 110.468C110.909 110.641 110.789 110.802 110.656 110.975C107.483 115.188 104.056 119.188 100.269 122.921C96.6693 126.481 92.8427 129.801 88.8827 132.935C85.2827 135.788 81.5626 138.495 77.7893 141.095C69.136 147.028 60.1493 152.481 51.2933 158.121C43.116 163.348 34.4787 168.548 27.588 175.459C24.5907 178.46 21.9947 181.963 20.1987 185.788C20.1027 185.995 20.0067 186.202 19.9147 186.408C14.376 171.603 12.292 155.775 14.4213 140.201C22.6373 143.628 33.2266 142.348 41.4626 141.282C45.0759 140.815 48.6746 140.188 52.24 139.388C53.912 139.015 55.5827 138.601 57.2427 138.161C77.296 132.761 95.856 122.015 108.709 105.401C109.549 106.895 110.563 108.295 111.709 109.561Z" fill="#BCBABB"/>
<path d="M239.536 140.201C231.322 143.628 220.736 142.348 212.496 141.282C186.643 137.922 161.429 126.308 145.256 105.401C144.403 106.895 143.403 108.295 142.256 109.561C142.469 109.855 142.696 110.161 142.923 110.468C143.043 110.641 143.176 110.802 143.309 110.975C146.469 115.188 149.896 119.188 153.696 122.921C160.563 129.708 168.229 135.628 176.176 141.095C184.829 147.028 193.816 152.481 202.669 158.121C210.842 163.348 219.483 168.548 226.376 175.459C229.536 178.62 232.243 182.343 234.043 186.408C239.589 171.603 241.669 155.775 239.536 140.201Z" fill="#BCBABB"/>
<path d="M139.642 68.3881C139.642 68.5481 139.642 68.6948 139.629 68.8415C139.509 71.0815 138.869 73.1481 138.095 75.1748C136.935 74.4281 135.722 73.7881 134.455 73.2548C133.255 72.7481 132.002 72.3614 130.735 72.068C129.669 71.8147 128.562 71.6547 127.455 71.5614C127.295 71.5481 127.135 71.5347 126.989 71.5347H126.975C125.709 71.6014 124.455 71.7747 123.229 72.068C122.215 72.2947 121.229 72.5881 120.269 72.9614C118.722 73.5347 117.255 74.2815 115.869 75.1748C115.082 73.1481 114.442 71.0815 114.322 68.8415C114.322 68.6948 114.309 68.5481 114.309 68.3881C114.242 65.2948 115.255 62.3214 117.109 59.868C117.295 59.6147 117.495 59.3748 117.709 59.1214C118.402 58.3214 119.175 57.6147 120.029 57.0014C120.349 56.7747 120.682 56.5614 121.029 56.3614C121.882 55.8414 122.789 55.4281 123.749 55.1214C124.109 55.0148 124.469 54.9081 124.829 54.8281C125.322 54.7081 125.815 54.6281 126.322 54.5614C126.535 54.5347 126.762 54.5215 126.975 54.5081C127.202 54.5215 127.415 54.5347 127.642 54.5614C128.149 54.6281 128.642 54.7081 129.122 54.8281C129.495 54.9081 129.855 55.0148 130.215 55.1214C131.162 55.4281 132.082 55.8414 132.935 56.3614C133.269 56.5614 133.602 56.7747 133.922 57.0014C134.775 57.6147 135.562 58.3214 136.255 59.1214L136.522 59.4415C138.575 61.9748 139.722 65.1214 139.642 68.3881Z" fill="#959394"/>
<path d="M147.335 93.4417C147.335 93.6017 147.335 93.7617 147.335 93.9083C147.322 97.3883 146.495 100.868 144.842 104.028C144.749 104.202 144.669 104.362 144.575 104.522C143.922 105.708 143.135 106.842 142.229 107.908C142.015 108.162 141.802 108.402 141.589 108.642C141.335 108.908 141.082 109.175 140.815 109.442C140.362 109.895 139.882 110.322 139.389 110.735C138.989 111.068 138.589 111.375 138.162 111.668C137.455 112.188 136.709 112.655 135.935 113.082C135.775 113.175 135.629 113.255 135.469 113.335C132.855 114.695 129.975 115.508 126.975 115.682C123.989 115.508 121.109 114.695 118.495 113.335C118.335 113.255 118.175 113.175 118.029 113.082C117.255 112.655 116.509 112.188 115.789 111.668C115.375 111.375 114.962 111.068 114.575 110.735C114.082 110.322 113.602 109.895 113.135 109.442C112.869 109.175 112.615 108.908 112.375 108.642C112.149 108.402 111.935 108.162 111.735 107.908C110.829 106.842 110.042 105.708 109.389 104.522C109.295 104.362 109.202 104.202 109.122 104.028C108.415 102.695 107.869 101.282 107.455 99.8549C106.909 97.9083 106.629 95.9083 106.629 93.9083C106.615 93.5483 106.629 93.1749 106.642 92.8016C106.722 90.8682 107.055 88.935 107.642 87.0816C107.749 86.7483 107.855 86.4283 107.975 86.0949C108.869 83.6549 110.202 81.3483 111.975 79.3483C112.562 78.6816 113.189 78.055 113.882 77.4549C114.189 77.1883 114.495 76.9216 114.829 76.6682C115.069 76.4816 115.322 76.295 115.575 76.1083C115.749 75.9883 115.922 75.8683 116.095 75.7616C116.269 75.6416 116.455 75.5216 116.642 75.4016C119.735 73.4816 123.322 72.3482 126.975 72.0682C127.122 72.0816 127.269 72.0817 127.402 72.1083C130.909 72.4417 134.335 73.5616 137.322 75.4016C137.509 75.5216 137.682 75.6416 137.869 75.7616C138.042 75.8683 138.215 75.9883 138.375 76.1083C138.629 76.295 138.882 76.4816 139.135 76.6682C139.455 76.9216 139.775 77.1883 140.082 77.4549C140.762 78.055 141.402 78.6816 141.989 79.3483C143.749 81.3483 145.082 83.6549 145.975 86.0949C146.109 86.4283 146.215 86.7483 146.322 87.0816C146.895 88.935 147.229 90.8682 147.322 92.8016C147.322 93.0149 147.335 93.2283 147.335 93.4417Z" fill="#959394"/>
<path d="M141.762 194.835C141.709 195.291 141.642 195.746 141.562 196.202C140.909 200.222 139.349 204.099 136.909 207.378C134.523 210.592 131.162 213.802 126.922 213.802L126.682 213.798C126.416 213.79 126.149 213.767 125.882 213.737C121.749 213.235 118.456 209.578 116.269 206.278C114.016 202.859 112.669 198.892 112.202 194.835C111.202 186.194 112.496 177.178 113.149 168.544C113.456 164.482 113.789 160.415 114.149 156.349C114.589 151.295 115.069 146.242 115.562 141.188C116.376 132.642 117.389 124.109 118.269 115.575C118.296 115.255 118.336 114.935 118.362 114.602C120.389 115.602 122.589 116.295 124.936 116.628C125.616 116.735 126.296 116.789 126.976 116.815C127.669 116.789 128.349 116.735 129.016 116.628C131.376 116.295 133.576 115.602 135.589 114.602C135.629 114.935 135.656 115.255 135.696 115.575C136.576 124.109 137.576 132.642 138.402 141.188C139.282 150.295 140.122 159.415 140.816 168.544C141.202 173.69 141.816 178.978 142.043 184.234C142.069 185.087 142.096 185.942 142.109 186.795C142.163 189.498 142.069 192.186 141.762 194.835Z" fill="#959394"/>
<path d="M99.1621 111.815H155.749V93.3144H99.1621V111.815Z" fill="#8D8D8D"/>
<path d="M107.455 99.8555C106.909 97.9088 106.629 95.9089 106.629 93.9089C106.615 93.8155 106.615 93.7355 106.615 93.6422C106.615 93.3622 106.629 93.0821 106.642 92.8021C106.722 90.8688 107.055 88.9355 107.642 87.0822C107.749 86.7488 107.855 86.4288 107.975 86.0954C108.869 83.6554 110.202 81.3488 111.975 79.3488C112.562 78.6822 113.189 78.0555 113.882 77.4555C114.189 77.1888 114.495 76.9221 114.829 76.6688C115.069 76.4821 115.322 76.2955 115.575 76.1089C115.749 75.9889 115.922 75.8688 116.095 75.7621C116.269 75.6421 116.455 75.5221 116.642 75.4021C119.735 73.4821 123.322 72.3488 126.975 72.0688C127.122 72.0821 127.268 72.0822 127.402 72.1089C130.908 72.4422 134.335 73.5621 137.322 75.4021C137.509 75.5221 137.682 75.6421 137.868 75.7621C138.042 75.8688 138.215 75.9889 138.375 76.1089C138.629 76.2955 138.882 76.4821 139.135 76.6688C139.455 76.9221 139.775 77.1888 140.082 77.4555C140.762 78.0555 141.402 78.6822 141.989 79.3488C143.749 81.3488 145.082 83.6554 145.975 86.0954C146.109 86.4288 146.215 86.7488 146.322 87.0822C146.895 88.9355 147.229 90.8688 147.322 92.8021C147.322 93.0154 147.335 93.2289 147.335 93.4422C144.855 87.0422 137.002 78.3888 126.709 78.3888C115.135 78.3888 107.322 87.1888 107.455 99.8555Z" fill="#707273"/>
<path d="M115.868 75.1748C115.082 73.1481 114.442 71.0815 114.322 68.8415C114.322 68.6948 114.309 68.5481 114.309 68.3881C114.309 68.2948 114.309 68.2015 114.309 68.1081C114.309 65.1081 115.309 62.2547 117.109 59.868C116.535 62.0014 116.628 64.3481 117.202 66.4814C117.828 68.8014 118.962 70.9347 120.268 72.9614C118.722 73.5347 117.255 74.2815 115.868 75.1748Z" fill="#707273"/>
<path d="M138.096 75.1748C136.936 74.4281 135.723 73.7881 134.456 73.2548C136.416 68.9748 137.176 64.1215 136.523 59.4415C138.509 61.8948 139.656 64.9214 139.656 68.0814C139.656 68.1881 139.656 68.2948 139.643 68.3881C139.643 68.5481 139.643 68.6948 139.629 68.8415C139.509 71.0815 138.869 73.1481 138.096 75.1748Z" fill="#707273"/>
<path d="M128.109 200.912C124.683 200.911 120.922 197.688 119.429 193.632C116.749 186.359 122.549 128.468 127.096 127.775C127.176 127.775 127.242 127.761 127.322 127.761C134.789 127.761 136.642 181.887 134.362 193.632C133.349 198.884 130.829 200.912 128.109 200.912Z" fill="#8D8D8D"/>
<path d="M142.109 186.795C140.656 175.6 134.109 126.202 132.069 122.802C130.563 120.295 127.749 118.775 125.229 118.775C123.896 118.775 122.656 119.202 121.736 120.122C120.349 121.508 116.816 138.428 114.149 156.348C114.589 151.295 115.069 146.242 115.563 141.188C116.376 132.642 117.389 124.108 118.269 115.575C118.296 115.255 118.336 114.935 118.363 114.602C120.389 115.602 122.589 116.295 124.936 116.628C125.616 116.735 126.296 116.788 126.976 116.815C127.669 116.788 128.349 116.735 129.016 116.628C131.376 116.295 133.576 115.602 135.589 114.602C135.629 114.935 135.656 115.255 135.696 115.575C136.576 124.108 137.576 132.642 138.403 141.188C139.283 150.295 140.123 159.415 140.816 168.544C141.203 173.69 141.816 178.978 142.043 184.234C142.069 185.087 142.096 185.942 142.109 186.795Z" fill="#707273"/>
<path d="M20.5154 186.979C20.8447 188.207 21.2047 189.436 21.5874 190.649C21.2087 189.72 20.8327 188.789 20.4701 187.859C20.4167 187.717 20.3594 187.576 20.3047 187.433C20.374 187.281 20.4394 187.128 20.5154 186.979Z" fill="white"/>
<path d="M12.1348 115.215C12.2121 114.988 12.2895 114.748 12.3668 114.521C14.3655 113.548 16.3788 112.615 18.4068 111.695C33.6868 104.868 49.8281 99.8814 66.2561 96.7348C66.4961 96.6814 66.7495 96.6415 66.9894 96.5882C67.0428 96.9081 67.0827 97.2282 67.1361 97.5482C48.1387 101.055 29.6214 107.015 12.1348 115.215ZM62.6561 78.4148C50.6921 75.3348 39.0241 71.1749 28.3841 64.8415C25.0881 62.8682 21.8921 60.6815 18.8587 58.2948C18.7534 57.7615 18.6428 57.2148 18.5294 56.6681C31.3988 66.9348 46.4521 73.0015 62.2961 77.2148C62.4161 77.6148 62.5361 78.0148 62.6561 78.4148ZM30.6121 47.0014C22.3801 47.0014 15.6815 40.2948 15.6815 32.0681C15.6815 23.8414 22.3801 17.1348 30.6121 17.1348C31.0121 17.1348 31.4081 17.1481 31.8014 17.1881C32.0401 17.4548 32.2841 17.7481 32.5254 18.0281C31.8987 17.9481 31.2614 17.9082 30.6121 17.9082C22.8014 17.9082 16.4467 24.2548 16.4467 32.0681C16.4467 39.8814 22.8014 46.2281 30.6121 46.2281C37.2174 46.2281 42.7828 41.6815 44.3428 35.5615C44.5188 35.8681 44.6948 36.1881 44.8708 36.4948C42.9775 42.5748 37.3001 47.0014 30.6121 47.0014Z" fill="white"/>
<path d="M62.2955 77.2148C46.4515 73.0015 31.3982 66.9348 18.5288 56.6681C14.9182 39.3214 7.49953 14.4415 13.7662 9.48151C15.0462 8.46818 16.4515 7.98815 17.9609 7.98815C22.0262 7.98815 26.8168 11.4548 31.8008 17.1882C31.4075 17.1482 31.0115 17.1348 30.6115 17.1348C22.3795 17.1348 15.6809 23.8414 15.6809 32.0681C15.6809 40.2948 22.3795 47.0014 30.6115 47.0014C37.2995 47.0014 42.9769 42.5748 44.8702 36.4948C51.7102 48.7481 58.0022 63.4015 62.2955 77.2148Z" fill="#9B9B9A"/>
<path d="M35.6033 129.481C20.334 129.481 8.95258 123.601 11.4686 117.068C11.6886 116.495 11.9099 115.868 12.1339 115.215C29.6206 107.015 48.1379 101.055 67.1352 97.5481C69.1219 110.761 67.7887 120.975 61.242 123.948C52.5793 127.895 43.5647 129.481 35.6033 129.481Z" fill="#B1B1B0"/>
<path d="M30.6117 46.2285C22.801 46.2285 16.4463 39.8818 16.4463 32.0685C16.4463 24.2552 22.801 17.9086 30.6117 17.9086C31.261 17.9086 31.8983 17.9485 32.5249 18.0285C36.4503 22.7085 40.4757 28.7352 44.3424 35.5618C42.7824 41.6818 37.217 46.2285 30.6117 46.2285Z" fill="#797A7C"/>
<path d="M12.3662 114.521C15.9809 103.455 19.9208 81.9482 20.2742 69.5882C20.3542 66.8015 19.7661 62.8548 18.8581 58.2948C21.8915 60.6815 25.0875 62.8682 28.3835 64.8415C39.0235 71.1749 50.6915 75.3348 62.6555 78.4148C64.5889 84.7748 66.0822 90.9482 66.9889 96.5882C66.7489 96.6415 66.4955 96.6814 66.2555 96.7348C49.8275 99.8814 33.6862 104.868 18.4062 111.695C16.3782 112.615 14.3649 113.548 12.3662 114.521Z" fill="#858686"/>
<path d="M48.2222 205.773C42.3729 205.773 37.6143 201.014 37.6143 195.164C37.6143 189.314 42.3729 184.555 48.2222 184.555C54.0729 184.555 58.8288 189.314 58.8288 195.164C58.8288 201.014 54.0729 205.773 48.2222 205.773ZM48.2222 185.099C42.6715 185.099 38.1568 189.612 38.1568 195.164C38.1568 200.715 42.6715 205.229 48.2222 205.229C53.7742 205.229 58.2822 200.715 58.2822 195.164C58.2822 189.612 53.7742 185.099 48.2222 185.099ZM27.1115 177.319C27.0449 176.926 26.9822 176.532 26.9209 176.14C27.1409 175.911 27.3636 175.683 27.5876 175.459C34.4782 168.548 43.1156 163.348 51.2929 158.121C57.4422 154.201 63.6556 150.375 69.7756 146.415C70.1623 146.575 70.5222 146.748 70.8822 146.935C64.9622 150.775 58.9622 154.468 53.0275 158.228C44.8422 163.401 36.2435 168.536 29.1795 175.228C28.4728 175.899 27.7809 176.596 27.1115 177.319Z" fill="white"/>
<path d="M45.894 213.685C45.514 213.685 45.1407 213.638 44.7767 213.541C36.986 211.478 29.8433 193.613 27.1113 177.319C27.7807 176.597 28.4726 175.899 29.1793 175.229C36.2433 168.537 44.842 163.402 53.0273 158.229C58.962 154.469 64.962 150.775 70.882 146.935C71.9087 147.469 72.7886 148.109 73.4953 148.842C81.3086 157.029 59.0953 213.689 45.894 213.685ZM48.222 184.555C42.3727 184.555 37.6141 189.314 37.6141 195.165C37.6141 201.014 42.3727 205.774 48.222 205.774C54.0727 205.774 58.8286 201.014 58.8286 195.165C58.8286 189.314 54.0727 184.555 48.222 184.555Z" fill="#BCBBB9"/>
<path d="M48.2226 205.229C42.6719 205.229 38.1572 200.715 38.1572 195.164C38.1572 189.612 42.6719 185.099 48.2226 185.099C53.7746 185.099 58.2826 189.612 58.2826 195.164C58.2826 200.715 53.7746 205.229 48.2226 205.229Z" fill="#797A7C"/>
<path d="M26.9207 176.141C25.294 165.669 25.5473 156.015 28.6966 151.895C31.7966 147.842 45.2846 144.389 56.962 144.389C61.8553 144.389 66.4154 145.002 69.7754 146.415C63.6554 150.375 57.442 154.202 51.2927 158.122C43.1153 163.349 34.478 168.549 27.5873 175.459C27.3633 175.683 27.1407 175.911 26.9207 176.141Z" fill="#C1BFBD"/>
<path d="M19.914 186.408C15.8033 175.42 13.5953 163.868 13.6006 152.282C13.6033 148.255 13.8713 144.215 14.4206 140.201C18.4393 141.881 23.0286 142.428 27.6299 142.428C32.4352 142.428 37.2553 141.828 41.4619 141.282C45.0753 140.815 48.6739 140.188 52.2393 139.388C39.8193 142.548 28.762 146.081 24.486 148.068C16.2233 151.935 15.8873 169.064 20.198 185.788C20.102 185.995 20.006 186.202 19.914 186.408Z" fill="#9B9B9A"/>
<path d="M57.2422 138.162C77.2955 132.762 95.8555 122.015 108.709 105.402C109.549 106.895 110.562 108.295 111.709 109.562C111.482 109.855 111.269 110.162 111.042 110.469C110.909 110.642 110.789 110.802 110.655 110.976C107.482 115.189 104.055 119.189 100.269 122.922C96.6687 126.482 92.8422 129.802 88.8822 132.935C80.3888 133.269 68.5622 135.469 57.2422 138.162Z" fill="#9B9B9A"/>
<path d="M101.643 145.895C102.056 142.241 101.923 138.641 100.669 135.815C99.7625 133.735 96.1893 132.895 91.0426 132.895C90.896 132.895 90.7492 132.895 90.6025 132.895C93.8825 130.255 97.0559 127.495 100.096 124.561C104.176 120.628 108.123 116.375 111.509 111.761C111.656 111.548 111.816 111.335 111.963 111.135C112.136 110.881 112.323 110.628 112.496 110.375C113.043 110.935 113.629 111.468 114.256 111.961C114.203 112.135 114.163 112.308 114.109 112.481C114.029 112.815 113.936 113.148 113.843 113.481C113.216 115.801 112.536 118.108 111.776 120.401C109.083 128.521 105.883 136.455 102.389 144.255C102.149 144.801 101.896 145.348 101.643 145.895Z" fill="#969696"/>
<path d="M89.416 93.5615C89.896 90.1349 89.976 86.8815 89.696 84.0015C95.3893 85.0148 101.096 86.0149 106.816 86.9482C106.669 87.3749 106.536 87.8149 106.416 88.2549C106.016 89.7749 105.776 91.2949 105.696 92.8149C104.856 92.8282 104.016 92.8548 103.176 92.8682C98.9094 92.9482 94.6559 93.1616 90.4026 93.4816L89.416 93.5615Z" fill="#5A5B5D"/>
<path d="M37.4121 140.562C38.5828 140.375 39.8895 140.202 41.3322 140.028C72.0962 136.455 86.3095 113.068 89.2561 94.6015C93.4428 94.2548 97.6294 94.0282 101.829 93.9216C102.629 93.9082 103.416 93.8949 104.216 93.8949C104.696 93.8949 105.189 93.8949 105.669 93.9083C105.669 93.9349 105.669 93.9616 105.669 93.9882C105.669 97.8416 106.656 101.588 108.429 104.908L108.296 105.068C94.3761 122.401 74.1094 133.455 52.2361 138.242C47.3467 139.308 42.3921 140.082 37.4121 140.562Z" fill="#8C8C8C"/>
<path d="M107.162 85.9619C101.349 84.9619 95.4688 84.002 89.5888 82.9753C89.4821 82.1887 89.3488 81.4286 89.1888 80.6952C85.6688 64.5086 63.4021 20.1886 32.7715 6.88197C43.3035 9.42863 53.4262 13.6819 62.6155 19.4286C85.0288 33.4552 98.2822 56.1353 113.509 76.9486C112.802 77.562 112.122 78.2153 111.482 78.9219C109.669 80.9219 108.175 83.2952 107.162 85.9619Z" fill="#727475"/>
<path d="M241.802 115.201C224.322 107.001 205.802 101.041 186.815 97.5345C186.855 97.2278 186.909 96.9079 186.962 96.5879C187.202 96.6412 187.455 96.6812 187.695 96.7345C204.135 99.8812 220.269 104.868 235.549 111.695C237.575 112.601 239.575 113.535 241.575 114.508C241.655 114.748 241.735 114.975 241.802 115.201ZM191.282 78.4146C191.402 78.0146 191.522 77.6146 191.642 77.2146C207.482 73.0013 222.549 66.9346 235.415 56.6813C235.295 57.2279 235.189 57.7746 235.082 58.3079C232.055 60.6946 228.869 62.8813 225.575 64.8413C214.935 71.1746 203.255 75.3346 191.282 78.4146ZM223.349 47.0012C216.655 47.0012 210.975 42.5613 209.082 36.4813C209.255 36.1613 209.442 35.8545 209.615 35.5345C211.162 41.6812 216.735 46.2279 223.349 46.2279C231.162 46.2279 237.509 39.8812 237.509 32.0678C237.509 24.2545 231.162 17.908 223.349 17.908C222.695 17.908 222.042 17.9479 221.415 18.0279C221.655 17.7479 221.895 17.4679 222.135 17.1879C222.535 17.1479 222.935 17.1345 223.349 17.1345C231.589 17.1345 238.282 23.8412 238.282 32.0678C238.282 40.2945 231.589 47.0012 223.349 47.0012Z" fill="white"/>
<path d="M191.643 77.2148C195.936 63.3882 202.243 48.7348 209.083 36.4815C210.976 42.5615 216.656 47.0014 223.349 47.0014C231.589 47.0014 238.283 40.2948 238.283 32.0681C238.283 23.8414 231.589 17.1348 223.349 17.1348C222.936 17.1348 222.536 17.1482 222.136 17.1882C227.122 11.4548 231.923 7.98815 235.989 7.98815C237.496 7.98815 238.896 8.46818 240.176 9.48151C246.443 14.4548 239.016 39.3348 235.416 56.6815C222.549 66.9348 207.483 73.0015 191.643 77.2148Z" fill="#9B9B9A"/>
<path d="M218.335 129.481C210.375 129.481 201.362 127.895 192.709 123.948C186.149 120.975 184.829 110.761 186.815 97.5347C205.802 101.041 224.322 107.001 241.802 115.201C242.029 115.868 242.255 116.481 242.469 117.068C244.989 123.601 233.615 129.481 218.335 129.481Z" fill="#B1B1B0"/>
<path d="M223.349 46.2285C216.735 46.2285 211.162 41.6818 209.615 35.5352C213.469 28.7352 217.495 22.6952 221.415 18.0285C222.042 17.9485 222.695 17.9086 223.349 17.9086C231.162 17.9086 237.509 24.2552 237.509 32.0685C237.509 39.8818 231.162 46.2285 223.349 46.2285Z" fill="#797A7C"/>
<path d="M241.575 114.509C239.575 113.535 237.575 112.602 235.549 111.695C220.269 104.869 204.135 99.882 187.695 96.7354C187.455 96.682 187.202 96.6421 186.962 96.5887C187.869 90.9487 189.349 84.7754 191.282 78.4154C203.255 75.3354 214.935 71.1755 225.575 64.8421C228.869 62.8821 232.055 60.6955 235.082 58.3088C234.175 62.8688 233.589 66.8021 233.669 69.5887C234.029 81.9487 237.962 103.442 241.575 114.509Z" fill="#858686"/>
<path d="M205.736 205.773C199.883 205.773 195.123 201.014 195.123 195.164C195.123 189.314 199.883 184.555 205.736 184.555C211.589 184.555 216.349 189.314 216.349 195.164C216.349 201.014 211.589 205.773 205.736 205.773ZM205.736 185.099C200.189 185.099 195.669 189.612 195.669 195.164C195.669 200.715 200.189 205.229 205.736 205.229C211.283 205.229 215.803 200.715 215.803 195.164C215.803 189.612 211.283 185.099 205.736 185.099ZM226.829 177.305C226.163 176.588 225.483 175.895 224.776 175.228C217.723 168.536 209.123 163.401 200.936 158.228C194.989 154.468 188.989 150.761 183.069 146.935C183.429 146.748 183.789 146.575 184.176 146.415C190.296 150.375 196.509 154.201 202.669 158.121C210.843 163.348 219.483 168.548 226.376 175.459C226.589 175.679 226.816 175.901 227.029 176.127C226.963 176.517 226.896 176.912 226.829 177.305Z" fill="white"/>
<path d="M208.056 213.685C194.842 213.685 172.642 157.029 180.456 148.842C181.162 148.095 182.042 147.469 183.069 146.935C188.989 150.762 194.989 154.469 200.936 158.229C209.122 163.402 217.723 168.537 224.776 175.229C225.483 175.895 226.162 176.589 226.829 177.306C224.109 193.603 216.962 211.478 209.162 213.541C208.802 213.638 208.429 213.685 208.056 213.685ZM205.736 184.555C199.882 184.555 195.122 189.314 195.122 195.165C195.122 201.014 199.882 205.774 205.736 205.774C211.589 205.774 216.349 201.014 216.349 195.165C216.349 189.314 211.589 184.555 205.736 184.555Z" fill="#BCBBB9"/>
<path d="M205.736 205.229C200.189 205.229 195.669 200.715 195.669 195.164C195.669 189.612 200.189 185.099 205.736 185.099C211.282 185.099 215.802 189.612 215.802 195.164C215.802 200.715 211.282 205.229 205.736 205.229Z" fill="#797A7C"/>
<path d="M227.029 176.127C226.816 175.902 226.589 175.679 226.376 175.459C219.482 168.548 210.842 163.348 202.669 158.122C196.509 154.202 190.296 150.375 184.176 146.415C187.536 144.988 192.096 144.388 196.976 144.388C208.656 144.388 222.149 147.842 225.242 151.895C228.389 156.015 228.656 165.655 227.029 176.127Z" fill="#C1BFBD"/>
<path d="M234.029 186.408C233.936 186.202 233.842 185.995 233.749 185.788C233.749 185.78 233.749 185.773 233.749 185.765C233.842 185.973 233.949 186.18 234.042 186.389C234.029 186.396 234.029 186.402 234.029 186.408ZM226.322 142.428C230.922 142.428 235.509 141.881 239.522 140.201C235.509 141.881 230.922 142.428 226.322 142.428Z" fill="#E8E7E6"/>
<path d="M234.042 186.39C233.949 186.18 233.842 185.974 233.749 185.766C238.056 169.05 237.722 151.922 229.456 148.068C225.176 146.082 214.122 142.548 201.709 139.388C205.269 140.188 208.869 140.815 212.482 141.282C216.682 141.828 221.509 142.428 226.309 142.428C226.322 142.428 226.322 142.428 226.322 142.428C230.922 142.428 235.509 141.882 239.522 140.202C241.656 155.775 239.576 171.592 234.042 186.39Z" fill="#9B9B9A"/>
<path d="M165.082 132.936C165.069 132.936 165.069 132.936 165.069 132.936C161.095 129.802 157.282 126.482 153.682 122.922C149.882 119.189 146.455 115.189 143.295 110.976C143.162 110.802 143.029 110.642 142.909 110.469C142.682 110.162 142.456 109.856 142.242 109.562C143.389 108.296 144.389 106.896 145.242 105.402C145.242 105.416 145.242 105.416 145.242 105.416C144.402 106.909 143.402 108.296 142.255 109.562C142.469 109.856 142.695 110.162 142.922 110.469C143.042 110.642 143.176 110.802 143.309 110.976C146.469 115.189 149.895 119.189 153.695 122.922C157.295 126.482 161.109 129.802 165.082 132.936Z" fill="#E8E7E6"/>
<path d="M196.709 138.162C185.389 135.469 173.563 133.269 165.083 132.935C161.109 129.802 157.296 126.482 153.696 122.922C149.896 119.189 146.469 115.189 143.309 110.976C143.176 110.802 143.043 110.642 142.923 110.469C142.696 110.162 142.469 109.855 142.256 109.562C143.403 108.295 144.403 106.909 145.243 105.415C158.109 122.029 176.656 132.762 196.709 138.162Z" fill="#9B9B9A"/>
<path d="M152.295 145.895C152.042 145.348 151.802 144.801 151.549 144.255C148.055 136.455 144.869 128.521 142.175 120.401C141.415 118.108 140.722 115.801 140.095 113.481C140.002 113.148 139.922 112.815 139.829 112.481C139.789 112.308 139.735 112.135 139.695 111.961C140.309 111.468 140.895 110.935 141.455 110.375C141.455 110.388 141.455 110.388 141.455 110.388C140.909 110.935 140.322 111.468 139.709 111.961C139.749 112.135 139.802 112.308 139.855 112.481C139.935 112.815 140.029 113.148 140.109 113.481C140.749 115.801 141.429 118.108 142.189 120.401C144.882 128.521 148.069 136.455 151.575 144.255C151.815 144.788 152.055 145.335 152.295 145.868C152.295 145.881 152.295 145.881 152.295 145.895Z" fill="#E8E7E6"/>
<path d="M152.296 145.868C152.056 145.335 151.816 144.788 151.576 144.255C148.069 136.455 144.882 128.521 142.189 120.401C141.429 118.108 140.749 115.802 140.109 113.482C140.029 113.148 139.936 112.815 139.856 112.482C139.802 112.308 139.749 112.135 139.709 111.962C140.322 111.468 140.909 110.935 141.456 110.388C141.629 110.642 141.802 110.882 141.989 111.135C142.136 111.335 142.282 111.548 142.442 111.762C145.829 116.375 149.762 120.628 153.842 124.562C156.882 127.495 160.069 130.255 163.349 132.895C163.202 132.895 163.056 132.895 162.909 132.895C157.762 132.895 154.189 133.735 153.269 135.815C152.029 138.642 151.882 142.215 152.296 145.868Z" fill="#969696"/>
<path d="M164.536 93.5615L163.536 93.4816C159.296 93.1616 155.029 92.9482 150.776 92.8682C149.936 92.8548 149.096 92.8282 148.243 92.8149C148.163 91.2949 147.936 89.7749 147.522 88.2549C147.402 87.8149 147.282 87.3749 147.136 86.9482C152.856 86.0149 158.549 85.0148 164.256 84.0015C158.562 85.0148 152.856 86.0149 147.149 86.9482C147.296 87.3749 147.416 87.8149 147.536 88.2549C147.949 89.7749 148.176 91.2949 148.256 92.8149C149.109 92.8282 149.949 92.8548 150.789 92.8682C155.042 92.9482 159.309 93.1616 163.562 93.4816C163.882 93.5082 164.202 93.5349 164.536 93.5615Z" fill="#E8E7E6"/>
<path d="M164.536 93.5615C164.203 93.5349 163.883 93.5082 163.563 93.4816C159.309 93.1616 155.043 92.9482 150.789 92.8682C149.949 92.8548 149.109 92.8282 148.256 92.8149C148.176 91.2949 147.949 89.7749 147.536 88.2549C147.416 87.8149 147.296 87.3749 147.149 86.9482C152.856 86.0149 158.563 85.0148 164.256 84.0015C163.976 86.8815 164.056 90.1349 164.536 93.5615Z" fill="#5A5B5D"/>
<path d="M213.509 140.242C209.549 139.762 205.602 139.096 201.709 138.242C179.842 133.456 159.575 122.402 145.655 105.069L145.509 104.909C147.309 101.562 148.295 97.7755 148.282 93.9089C148.522 93.8955 148.762 93.8954 149.002 93.8954C148.762 93.8954 148.522 93.8955 148.295 93.9089C148.309 97.7755 147.322 101.562 145.522 104.909L145.669 105.069C159.589 122.402 179.855 133.456 201.722 138.242C205.615 139.096 209.549 139.762 213.509 140.242Z" fill="#E8E7E6"/>
<path d="M216.536 140.562C215.522 140.468 214.523 140.362 213.509 140.242C209.549 139.762 205.616 139.095 201.722 138.242C179.856 133.455 159.589 122.401 145.669 105.068L145.522 104.908C147.322 101.562 148.309 97.7749 148.296 93.9083C148.522 93.8949 148.762 93.8949 149.002 93.8949C149.242 93.8949 149.482 93.8949 149.722 93.8949C150.522 93.8949 151.323 93.9082 152.109 93.9216C156.309 94.0282 160.509 94.2548 164.682 94.6015C167.629 113.068 181.856 136.455 212.616 140.028C214.056 140.202 215.362 140.375 216.536 140.562Z" fill="#8C8C8C"/>
<path d="M146.775 85.9619C145.762 83.2952 144.282 80.9219 142.455 78.9219C141.829 78.2153 141.149 77.562 140.429 76.9486C155.655 56.1353 168.922 33.4552 191.335 19.4286C200.522 13.6819 210.642 9.42863 221.175 6.88197C221.175 6.88197 221.175 6.88197 221.162 6.88197C210.642 9.42863 200.522 13.6819 191.349 19.4286C168.935 33.4552 155.669 56.1353 140.442 76.9486C141.162 77.562 141.842 78.2153 142.469 78.9219C143.069 79.5753 143.615 80.2686 144.135 80.9886C145.215 82.4953 146.109 84.1619 146.789 85.9619C146.789 85.9619 146.789 85.9619 146.775 85.9619Z" fill="#E8E7E6"/>
<path d="M146.789 85.9619C146.109 84.1619 145.216 82.4953 144.136 80.9886C143.616 80.2686 143.069 79.5753 142.469 78.9219C141.842 78.2153 141.162 77.562 140.442 76.9486C155.669 56.1353 168.936 33.4552 191.349 19.4286C200.522 13.6819 210.642 9.42863 221.162 6.88197C190.549 20.1886 168.269 64.5086 164.762 80.6952C164.589 81.4286 164.469 82.1887 164.362 82.9753C158.482 84.002 152.602 84.9619 146.789 85.9619Z" fill="#727475"/>
<path d="M223.349 46.2286C215.536 46.2286 209.176 39.882 209.176 32.0686C209.176 24.2553 215.536 17.9087 223.349 17.9087C231.163 17.9087 237.509 24.2553 237.509 32.0686C237.509 39.882 231.163 46.2286 223.349 46.2286ZM223.349 17.1353C215.123 17.1353 208.416 23.842 208.416 32.0686C208.416 40.2953 215.123 47.002 223.349 47.002C231.589 47.002 238.283 40.2953 238.283 32.0686C238.283 23.842 231.589 17.1353 223.349 17.1353Z" fill="#5A5758"/>
<path d="M205.735 205.23C200.189 205.23 195.669 200.715 195.669 195.165C195.669 189.613 200.189 185.099 205.735 185.099C211.282 185.099 215.802 189.613 215.802 195.165C215.802 200.715 211.282 205.23 205.735 205.23ZM205.735 184.555C199.882 184.555 195.122 189.314 195.122 195.165C195.122 201.014 199.882 205.772 205.735 205.772C211.589 205.772 216.349 201.014 216.349 195.165C216.349 189.314 211.589 184.555 205.735 184.555Z" fill="#5A5758"/>
<path d="M250.643 40.6952H250.629C250.309 41.1619 249.989 41.6152 249.656 42.0819C247.216 45.2019 246.856 45.6285 246.496 46.0685C245.016 47.7885 243.469 49.4419 241.843 51.0285C216.523 75.6685 180.536 80.1752 146.802 85.9619C146.109 84.1618 145.216 82.4952 144.136 80.9886C143.629 80.2686 143.069 79.5752 142.469 78.9219C141.842 78.2152 141.163 77.5619 140.443 76.9486C155.669 56.1352 168.936 33.4552 191.349 19.4285C202.283 12.5752 214.563 7.85516 227.256 5.60184C233.109 4.57516 239.829 3.94853 245.296 6.76186C251.216 9.8152 253.003 16.2552 252.989 22.4819C252.963 28.5752 251.829 34.6952 250.643 40.6952ZM250.149 43.1086C248.736 50.1219 247.109 57.0952 245.856 64.1352C244.669 70.7352 243.776 77.4152 243.749 84.1352C243.723 91.0552 244.816 97.7352 246.749 104.362C247.629 107.349 248.563 110.349 249.256 113.389C249.669 115.215 250.003 117.055 250.176 118.909C245.389 116.322 240.509 113.922 235.549 111.695C220.269 104.869 204.136 99.8818 187.696 96.7352C179.723 95.2018 171.656 94.1219 163.562 93.4819C159.309 93.1619 155.043 92.9485 150.789 92.8685C149.949 92.8552 149.109 92.8286 148.256 92.8152C148.176 91.2952 147.949 89.7752 147.536 88.2552C147.416 87.8152 147.296 87.3752 147.149 86.9486C153.949 85.8286 160.749 84.6286 167.523 83.4152C187.509 79.8419 207.949 75.3353 225.576 64.8419C235.176 59.1086 243.909 51.5352 250.309 42.3352C250.256 42.6018 250.203 42.8553 250.149 43.1086ZM250.309 121.722C250.309 122.575 250.269 123.429 250.176 124.295C249.536 130.895 245.909 136.428 239.723 138.935L239.456 139.042L239.376 139.068C234.043 141.122 228.149 141.309 222.509 141.015C215.523 140.655 208.563 139.735 201.723 138.242C179.856 133.455 159.589 122.402 145.669 105.068L145.523 104.909C147.323 101.562 148.309 97.7753 148.296 93.9086C148.776 93.8953 149.269 93.8952 149.749 93.8952C150.549 93.8952 151.336 93.9086 152.136 93.9219C156.842 94.0419 161.549 94.3085 166.243 94.7219C195.443 97.3352 224.003 105.762 249.989 119.242L250.202 119.362C250.269 120.149 250.309 120.935 250.309 121.722ZM234.043 186.409C232.243 182.343 229.536 178.621 226.376 175.459C219.483 168.549 210.842 163.349 202.669 158.122C193.816 152.482 184.829 147.029 176.176 141.095C168.229 135.629 160.562 129.709 153.696 122.922C149.896 119.189 146.469 115.189 143.309 110.975C143.176 110.802 143.043 110.642 142.923 110.468C142.696 110.162 142.469 109.855 142.256 109.562C143.403 108.295 144.403 106.895 145.256 105.402C161.429 126.308 186.643 137.922 212.496 141.282C220.736 142.349 231.322 143.628 239.536 140.202C241.669 155.775 239.589 171.603 234.043 186.409ZM233.496 187.859C230.416 195.719 226.736 203.442 222.869 210.946C219.682 217.143 215.069 224.035 207.323 224.215C198.616 224.418 192.309 217.351 187.669 210.858C182.762 203.988 178.549 196.658 174.536 189.242C166.522 174.437 158.456 159.629 151.576 144.255C148.069 136.455 144.883 128.522 142.189 120.402C141.429 118.108 140.749 115.802 140.109 113.482C140.029 113.149 139.936 112.815 139.856 112.482C139.803 112.309 139.749 112.135 139.709 111.962C140.323 111.469 140.909 110.935 141.469 110.375C141.642 110.629 141.816 110.882 142.002 111.135C142.149 111.348 142.296 111.549 142.456 111.762C145.843 116.375 149.789 120.629 153.856 124.562C167.829 138.029 184.629 147.909 200.936 158.229C209.122 163.402 217.723 168.536 224.776 175.23C228.403 178.671 231.629 182.833 233.656 187.434C233.603 187.577 233.549 187.718 233.496 187.859ZM138.163 111.668C137.456 112.188 136.709 112.655 135.936 113.082C135.776 113.175 135.629 113.255 135.469 113.335C132.856 114.695 129.976 115.509 126.976 115.682C123.989 115.509 121.109 114.695 118.496 113.335C118.336 113.255 118.176 113.175 118.029 113.082C117.256 112.655 116.509 112.188 115.789 111.668C115.376 111.375 114.963 111.068 114.576 110.735C114.083 110.322 113.602 109.895 113.136 109.442C112.869 109.175 112.616 108.909 112.376 108.642C112.149 108.402 111.936 108.162 111.736 107.909C110.829 106.842 110.043 105.709 109.389 104.522C109.296 104.362 109.203 104.202 109.123 104.029C107.469 100.869 106.643 97.3886 106.629 93.9086C106.616 93.5486 106.629 93.1752 106.643 92.8018C106.723 90.8685 107.056 88.9352 107.643 87.0819C107.749 86.7486 107.856 86.4285 107.976 86.0952C108.869 83.6552 110.203 81.3486 111.976 79.3486C112.563 78.6819 113.189 78.0552 113.883 77.4552C114.189 77.1886 114.496 76.9218 114.829 76.6685C115.069 76.4818 115.323 76.2953 115.576 76.1086C115.749 75.9886 115.923 75.8685 116.096 75.7619C116.269 75.6419 116.456 75.5218 116.643 75.4018C119.736 73.4818 123.323 72.3485 126.976 72.0685C127.123 72.0818 127.269 72.0819 127.402 72.1086C130.909 72.4419 134.336 73.5618 137.323 75.4018C137.509 75.5218 137.682 75.6419 137.869 75.7619C138.042 75.8685 138.216 75.9886 138.376 76.1086C138.629 76.2953 138.882 76.4818 139.136 76.6685C139.456 76.9218 139.776 77.1886 140.083 77.4552C140.763 78.0552 141.403 78.6819 141.989 79.3486C143.749 81.3486 145.083 83.6552 145.976 86.0952C146.109 86.4285 146.216 86.7486 146.323 87.0819C146.896 88.9352 147.229 90.8685 147.323 92.8018C147.336 93.1752 147.349 93.5486 147.336 93.9086C147.322 97.3886 146.496 100.869 144.843 104.029C144.749 104.202 144.669 104.362 144.576 104.522C143.923 105.709 143.136 106.842 142.229 107.909C142.016 108.162 141.803 108.402 141.589 108.642C141.336 108.909 141.083 109.175 140.816 109.442C140.363 109.895 139.883 110.322 139.389 110.735C138.989 111.068 138.589 111.375 138.163 111.668ZM135.696 115.575C136.576 124.109 137.576 132.642 138.402 141.189C139.282 150.295 140.123 159.415 140.816 168.545C141.203 173.69 141.816 178.978 142.043 184.234C142.189 187.794 142.163 191.347 141.763 194.835C141.709 195.291 141.643 195.746 141.563 196.202C140.909 200.222 139.349 204.101 136.909 207.378C134.523 210.594 131.163 213.802 126.923 213.802L126.683 213.798C126.416 213.79 126.149 213.767 125.883 213.737C121.749 213.235 118.456 209.579 116.269 206.279C114.016 202.859 112.669 198.892 112.202 194.835C111.202 186.194 112.496 177.178 113.149 168.545C113.843 159.415 114.683 150.295 115.563 141.189C116.376 132.642 117.389 124.109 118.269 115.575C118.296 115.255 118.336 114.935 118.363 114.602C120.389 115.602 122.589 116.295 124.936 116.629C125.616 116.735 126.296 116.789 126.976 116.815C127.669 116.789 128.349 116.735 129.016 116.629C131.376 116.295 133.576 115.602 135.589 114.602C135.629 114.935 135.656 115.255 135.696 115.575ZM114.109 112.482C114.029 112.815 113.936 113.149 113.843 113.482C113.216 115.802 112.536 118.108 111.776 120.402C109.083 128.522 105.883 136.455 102.389 144.255C95.4959 159.629 87.4426 174.437 79.4159 189.242C75.4026 196.658 71.1892 203.988 66.2826 210.858C61.6426 217.351 55.3438 224.418 46.6305 224.215C38.8852 224.035 34.2838 217.143 31.0905 210.946C27.2278 203.442 23.5413 195.719 20.4706 187.859C20.4173 187.718 20.3599 187.577 20.3052 187.434C22.3306 182.833 25.5505 178.671 29.1798 175.23C36.2438 168.536 44.8425 163.402 53.0279 158.229C69.3225 147.909 86.1359 138.029 100.096 124.562C104.176 120.629 108.123 116.375 111.509 111.762C111.656 111.549 111.816 111.348 111.963 111.135C112.136 110.882 112.323 110.629 112.496 110.375C113.043 110.935 113.629 111.469 114.256 111.962C114.203 112.135 114.163 112.309 114.109 112.482ZM14.4212 140.202C22.6372 143.628 33.2265 142.349 41.4625 141.282C67.3225 137.922 92.5226 126.308 108.709 105.402C109.549 106.895 110.563 108.295 111.709 109.562C111.483 109.855 111.269 110.162 111.043 110.468C110.909 110.642 110.789 110.802 110.656 110.975C107.483 115.189 104.056 119.189 100.269 122.922C93.3892 129.709 85.7359 135.629 77.7892 141.095C69.1359 147.029 60.1492 152.482 51.2932 158.122C43.1159 163.349 34.4786 168.549 27.5879 175.459C24.4292 178.621 21.7146 182.343 19.9146 186.409C14.3759 171.603 12.2919 155.775 14.4212 140.202ZM3.77723 124.295C3.61723 122.642 3.62121 120.989 3.75054 119.362L3.96526 119.242C29.9573 105.762 58.5225 97.3352 87.7225 94.7219C92.4159 94.3085 97.1225 94.0419 101.829 93.9219C103.109 93.8952 104.389 93.8953 105.669 93.9086C105.656 97.7753 106.643 101.562 108.429 104.909L108.296 105.068C94.3759 122.402 74.1092 133.455 52.2358 138.242C45.4012 139.735 38.4372 140.655 31.4546 141.015C25.8106 141.309 19.9225 141.122 14.5852 139.068L14.5012 139.042L14.2412 138.935C8.0545 136.428 4.42923 130.895 3.77723 124.295ZM4.70783 113.389C5.40117 110.349 6.33593 107.349 7.20393 104.362C9.13726 97.7352 10.2332 91.0552 10.2065 84.1352C10.1785 77.4152 9.2865 70.7352 8.10783 64.1352C6.85183 57.0952 5.22127 50.1219 3.80927 43.1086C3.7586 42.8553 3.70518 42.6018 3.65184 42.3352C10.0452 51.5352 18.7825 59.1086 28.3839 64.8419C46.0105 75.3353 66.4559 79.8419 86.4292 83.4152C93.2159 84.6286 100.003 85.8286 106.816 86.9486C106.669 87.3752 106.536 87.8152 106.416 88.2552C106.016 89.7752 105.776 91.2952 105.696 92.8152C104.856 92.8286 104.016 92.8552 103.176 92.8685C98.9093 92.9485 94.6558 93.1619 90.4025 93.4819C82.2958 94.1219 74.2425 95.2018 66.2559 96.7352C49.8265 99.8818 33.6865 104.869 18.4065 111.695C13.4452 113.922 8.57055 116.322 3.78921 118.909C3.96121 117.055 4.2905 115.215 4.70783 113.389ZM3.32255 40.6952C2.12388 34.6952 0.994599 28.5752 0.975932 22.4819C0.955932 16.2552 2.73992 9.8152 8.65992 6.76186C14.1346 3.94853 20.8492 4.57516 26.6999 5.60184C39.4026 7.85516 51.6732 12.5752 62.6159 19.4285C85.0292 33.4552 98.2826 56.1352 113.509 76.9486C112.803 77.5619 112.123 78.2152 111.483 78.9219C109.669 80.9219 108.176 83.2952 107.163 85.9619C73.4159 80.1752 37.4426 75.6685 12.1199 51.0285C9.26794 48.2552 6.64927 45.2686 4.30927 42.0819C3.97727 41.6152 3.64792 41.1619 3.32658 40.6952H3.32255ZM114.323 68.8419C114.323 68.6953 114.309 68.5486 114.309 68.3885C114.229 64.9752 115.483 61.7086 117.709 59.1219C118.403 58.3219 119.176 57.6152 120.029 57.0018C120.349 56.7752 120.683 56.5619 121.029 56.3619C121.883 55.8419 122.789 55.4286 123.749 55.1219C124.109 55.0152 124.469 54.9085 124.829 54.8285C125.323 54.7085 125.816 54.6285 126.323 54.5619C126.536 54.5352 126.763 54.5219 126.976 54.5086C127.203 54.5219 127.416 54.5352 127.643 54.5619C128.149 54.6285 128.643 54.7085 129.123 54.8285C129.496 54.9085 129.856 55.0152 130.216 55.1219C131.163 55.4286 132.082 55.8419 132.936 56.3619C133.269 56.5619 133.603 56.7752 133.923 57.0018C134.776 57.6152 135.563 58.3219 136.256 59.1219C138.483 61.7086 139.723 64.9752 139.643 68.3885C139.643 68.5486 139.643 68.6953 139.629 68.8419C139.509 71.0819 138.869 73.1486 138.096 75.1753C135.843 73.7219 133.349 72.6685 130.736 72.0685C129.669 71.8152 128.563 71.6552 127.456 71.5619C127.296 71.5485 127.136 71.5352 126.989 71.5352H126.976C125.709 71.6018 124.456 71.7752 123.229 72.0685C120.603 72.6685 118.109 73.7219 115.869 75.1753C115.082 73.1486 114.443 71.0819 114.323 68.8419ZM117.643 46.6018C115.403 40.6018 112.709 34.7353 109.563 29.1086C106.083 22.8819 102.016 16.5353 97.3625 10.7086L97.1358 10.4285C96.8558 10.5352 96.5492 10.6419 96.2559 10.7486C93.7359 11.5752 90.9359 11.6952 88.6559 10.1619C85.9492 8.34853 84.9359 4.41527 87.4826 1.97528C87.6959 1.77527 87.8959 1.61517 88.1093 1.46851C88.2826 1.33517 88.4558 1.22858 88.6292 1.14857C93.4958 -1.35808 99.8958 7.18861 102.402 10.3086C110.176 19.8686 115.403 31.1219 119.616 42.6152C120.936 46.2286 122.083 49.9086 123.256 53.5753C123.323 53.7886 123.389 53.9886 123.456 54.1886C122.509 54.5219 121.603 54.9352 120.749 55.4285C120.656 55.1219 120.563 54.8153 120.456 54.5086C119.589 51.8019 118.589 49.1352 117.643 46.6018ZM130.709 53.5753C131.883 49.9086 133.016 46.2286 134.336 42.6152C138.562 31.1219 143.789 19.8686 151.549 10.3086C154.069 7.18861 160.469 -1.35808 165.336 1.14857C165.509 1.22858 165.683 1.33517 165.856 1.46851C166.069 1.61517 166.269 1.77527 166.469 1.97528C169.029 4.41527 168.016 8.34853 165.309 10.1619C163.029 11.6952 160.216 11.5752 157.709 10.7486C157.403 10.6419 157.109 10.5352 156.816 10.4285L156.589 10.7086C151.936 16.5353 147.882 22.8819 144.402 29.1086C141.242 34.7353 138.563 40.6018 136.323 46.6018C135.376 49.1352 134.363 51.8019 133.496 54.5086C133.403 54.8153 133.309 55.1219 133.202 55.4285C132.349 54.9352 131.443 54.5219 130.509 54.1886C130.576 53.9886 130.643 53.7886 130.709 53.5753ZM252.363 13.1486C247.363 1.17525 232.109 3.40195 221.963 5.64194C208.856 8.5486 196.336 14.1885 185.429 22.0018C174.536 29.7885 165.589 39.6953 157.562 50.3486C151.243 58.7352 145.336 67.4419 139.483 76.1619C139.189 75.9485 138.909 75.7352 138.616 75.5352C139.483 73.3885 140.029 71.1218 140.163 68.8685C140.363 65.1085 139.376 61.3752 136.696 58.2819C135.976 57.4419 135.123 56.6952 134.189 56.0552L134.243 55.8419L134.283 55.7352C134.336 55.5085 134.403 55.2819 134.483 55.0552C135.296 52.2819 136.216 49.5486 137.216 46.8419C139.483 40.7886 142.216 34.9085 145.349 29.2285C148.376 23.7219 151.803 18.4153 155.629 13.3753C156.202 12.6286 156.776 11.8819 157.376 11.1619C159.776 12.4285 162.589 12.7219 165.123 11.4153C167.523 10.1752 169.216 7.60194 168.843 4.84193C168.616 3.21527 167.736 1.73528 166.416 0.841934C166.269 0.748611 166.109 0.655273 165.949 0.575272C165.549 0.361938 165.109 0.201935 164.643 0.108612C162.016 -0.424728 159.496 1.09521 157.576 2.72189C152.203 7.24188 147.896 13.5085 144.283 19.4685C140.403 25.8818 137.282 32.7219 134.536 39.6952C132.762 44.1752 131.069 48.7619 129.576 53.4152C129.523 53.5619 129.483 53.7085 129.429 53.8685C128.629 53.6552 127.803 53.4952 126.976 53.4152C126.163 53.4952 125.336 53.6552 124.536 53.8685C124.482 53.7085 124.429 53.5619 124.389 53.4152C122.896 48.7619 121.189 44.1752 119.429 39.6952C116.683 32.7219 113.562 25.8818 109.669 19.4685C106.069 13.5085 101.763 7.24188 96.3892 2.72189C94.4559 1.09521 91.9492 -0.424728 89.3225 0.108612C88.8559 0.201935 88.4159 0.361938 88.0159 0.575272C87.8559 0.655273 87.6959 0.748611 87.5492 0.841934C86.2292 1.73528 85.3492 3.21527 85.1225 4.84193C84.7359 7.60194 86.4293 10.1752 88.8426 11.4153C91.3759 12.7219 94.1892 12.4285 96.5892 11.1619C97.1759 11.8819 97.7625 12.6286 98.3358 13.3753C102.149 18.4153 105.576 23.7219 108.616 29.2285C111.736 34.9085 114.482 40.7886 116.736 46.8419C117.749 49.5486 118.669 52.2819 119.483 55.0552C119.549 55.2819 119.616 55.5085 119.683 55.7352L119.709 55.8419L119.776 56.0552C118.829 56.6952 117.989 57.4419 117.269 58.2819C114.576 61.3752 113.589 65.1085 113.802 68.8685C113.922 71.1218 114.483 73.3885 115.349 75.5352C115.056 75.7352 114.763 75.9485 114.483 76.1619C108.629 67.4419 102.709 58.7352 96.4025 50.3486C88.3758 39.6953 79.4158 29.7885 68.5358 22.0018C57.6158 14.1885 45.1065 8.5486 32.0012 5.64194C21.8452 3.40195 6.59989 1.17525 1.59989 13.1486C-0.693443 18.6419 -0.0654792 24.9086 0.695854 30.6419C1.05585 33.3353 1.49191 36.0152 1.98257 38.6819C2.07857 39.2152 2.17323 39.7352 2.27723 40.2685C3.05057 44.3485 3.92648 48.4152 4.79182 52.4819C7.95848 67.3353 11.2199 82.7485 8.02788 97.8952C7.02788 102.615 5.18249 107.909 3.96916 113.229C3.49449 115.282 3.11985 117.349 2.92385 119.389C2.90918 119.535 2.89718 119.669 2.88518 119.815C2.41451 125.415 3.35327 130.815 7.47593 135.375C9.35993 137.455 11.5959 138.962 14.0533 140.042L14.0386 140.135C11.6986 154.402 12.9585 168.915 17.6518 182.775C18.2038 184.406 18.7932 186.026 19.4065 187.634C19.5359 187.974 19.6706 188.315 19.8039 188.655C22.2466 194.911 25.0986 201.006 28.0159 207.047C30.9492 213.109 34.0879 220.206 40.3093 223.568C46.8293 227.087 54.4105 224.549 59.6959 220.001C66.0158 214.579 70.5359 206.791 74.7225 199.712C79.3359 191.883 83.6026 183.816 87.7093 175.707C91.7759 167.695 96.0159 159.775 99.9225 151.682C104.123 142.949 108.003 134.055 111.309 124.949C112.576 121.429 113.869 117.829 115.029 114.162C115.136 113.829 115.243 113.495 115.349 113.149L115.443 112.855C116.029 113.282 116.656 113.669 117.296 114.029C117.456 114.135 117.629 114.229 117.802 114.322L117.776 114.509C117.723 114.789 117.683 115.069 117.629 115.349C116.283 123.295 115.269 131.335 114.349 139.322C113.203 149.282 112.349 159.282 111.709 169.299C111.389 174.257 111.163 179.222 110.923 184.189C110.709 188.571 110.629 193.013 111.443 197.342C112.203 201.37 113.923 205.214 116.456 208.438C117.749 210.087 119.256 211.421 120.843 212.775C122.483 214.177 124.776 214.659 126.909 214.633H126.936C127.496 214.629 128.043 214.579 128.589 214.491C136.269 213.262 141.203 204.314 142.509 197.342C143.336 193.013 143.243 188.571 143.043 184.189C142.803 179.222 142.576 174.257 142.256 169.299C141.603 159.282 140.749 149.282 139.616 139.322C138.696 131.335 137.683 123.295 136.323 115.349C136.283 115.069 136.229 114.789 136.189 114.509L136.149 114.322C136.323 114.229 136.496 114.135 136.669 114.029C137.309 113.669 137.923 113.282 138.523 112.855L138.616 113.149C138.709 113.495 138.816 113.829 138.923 114.162C140.083 117.829 141.376 121.429 142.656 124.949C145.963 134.055 149.843 142.949 154.043 151.682C157.936 159.775 162.189 167.695 166.243 175.707C170.349 183.816 174.616 191.883 179.243 199.712C183.429 206.791 187.949 214.579 194.256 220.001C199.549 224.549 207.136 227.087 213.656 223.568C219.869 220.206 223.016 213.109 225.949 207.047C228.856 201.006 231.709 194.911 234.149 188.655C234.296 188.315 234.429 187.974 234.549 187.634C235.163 186.026 235.763 184.406 236.309 182.775C241.003 168.915 242.256 154.402 239.923 140.135L239.909 140.042C242.363 138.962 244.603 137.455 246.483 135.375C250.603 130.815 251.549 125.415 251.069 119.815C251.056 119.669 251.056 119.535 251.029 119.389C250.842 117.349 250.469 115.282 249.989 113.229C248.776 107.909 246.936 102.615 245.936 97.8952C242.736 82.7485 246.003 67.3353 249.163 52.4819C250.029 48.4152 250.909 44.3485 251.683 40.2685C251.789 39.7352 251.883 39.2152 251.976 38.6819C252.469 36.0152 252.909 33.3353 253.269 30.6419C254.029 24.9086 254.656 18.6419 252.363 13.1486Z" fill="#5A5758"/>
<path d="M48.2222 205.23C42.6715 205.23 38.1581 200.715 38.1581 195.165C38.1581 189.613 42.6715 185.099 48.2222 185.099C53.7742 185.099 58.2822 189.613 58.2822 195.165C58.2822 200.715 53.7742 205.23 48.2222 205.23ZM48.2222 184.555C42.3729 184.555 37.6143 189.314 37.6143 195.165C37.6143 201.014 42.3729 205.772 48.2222 205.772C54.0729 205.772 58.8288 201.014 58.8288 195.165C58.8288 189.314 54.0729 184.555 48.2222 184.555Z" fill="#5A5758"/>
<path d="M30.6113 17.9087C38.4219 17.9087 44.7766 24.2553 44.7766 32.0686C44.7766 39.882 38.4219 46.2286 30.6113 46.2286C22.8006 46.2286 16.4459 39.882 16.4459 32.0686C16.4459 24.2553 22.8006 17.9087 30.6113 17.9087ZM30.6113 47.002C38.8433 47.002 45.542 40.2953 45.542 32.0686C45.542 23.842 38.8433 17.1353 30.6113 17.1353C22.3806 17.1353 15.6807 23.842 15.6807 32.0686C15.6807 40.2953 22.3806 47.002 30.6113 47.002Z" fill="#5A5758"/>
</svg>
