<svg width="287" height="256" viewBox="0 0 287 256" fill="none" xmlns="http://www.w3.org/2000/svg">
<path d="M156.594 81.2966C155.728 91.634 154.901 102.174 154.314 112.951C154.221 114.525 154.141 116.101 154.061 117.687C152.608 145.902 151.794 175.67 151.954 206.986C151.994 214.731 152.261 222.659 151.928 230.597C151.634 237.457 150.608 245.049 146.461 250.215C145.554 251.358 144.528 252.313 143.408 253.086C142.301 252.313 141.274 251.358 140.354 250.215C136.221 245.049 135.181 237.457 134.901 230.597C134.554 222.659 134.821 214.731 134.861 206.986C134.981 184.687 134.608 163.174 133.848 142.455C133.488 132.441 133.034 122.607 132.514 112.951C131.928 102.174 131.101 91.634 130.234 81.2966C131.234 81.866 132.314 82.3246 133.474 82.666C136.754 83.6273 140.101 83.6766 143.408 83.2246C146.728 83.6766 150.061 83.6273 153.341 82.666C154.514 82.3246 155.594 81.866 156.594 81.2966Z" fill="#8E8C8D"/>
<path d="M167.754 41.7882C167.741 41.9642 167.741 42.1429 167.727 42.3176C167.554 46.8416 167.101 51.4056 166.354 55.9149C166.327 56.0976 166.301 56.2816 166.261 56.4656C166.234 56.6136 166.207 56.7629 166.194 56.9109C166.061 57.6829 165.914 58.4563 165.754 59.2256C165.167 62.1709 164.461 65.0843 163.621 67.9336C163.287 69.0976 162.887 70.2243 162.421 71.2976C162.101 72.0296 161.754 72.7389 161.367 73.4163C160.354 75.2363 159.101 76.8389 157.541 78.1109C157.301 78.3109 157.061 78.4989 156.808 78.6776C155.501 79.6163 153.994 80.3349 152.274 80.7776C151.981 80.8509 151.701 80.9122 151.421 80.9736C151.407 80.7776 151.287 80.5936 151.061 80.6176C148.581 80.8709 145.994 81.2149 143.408 81.3789C140.821 81.2149 138.234 80.8709 135.754 80.6176C135.541 80.5936 135.421 80.7776 135.408 80.9736C135.128 80.9122 134.834 80.8509 134.554 80.7776C132.834 80.3349 131.328 79.6163 130.008 78.6776C129.768 78.4989 129.514 78.3109 129.287 78.1109C127.727 76.8389 126.474 75.2363 125.447 73.4163C125.061 72.7389 124.714 72.0296 124.408 71.2976C123.941 70.2243 123.541 69.0976 123.194 67.9336C122.367 65.0843 121.647 62.1709 121.061 59.2256C120.914 58.4563 120.767 57.6829 120.634 56.9109C120.607 56.7629 120.581 56.6136 120.554 56.4656C120.527 56.2816 120.501 56.0976 120.461 55.9149C119.714 51.4056 119.261 46.8416 119.087 42.3176C119.087 42.1429 119.074 41.9642 119.074 41.7882C118.981 39.1896 118.994 36.6069 119.101 34.0549C119.101 33.9056 119.114 33.7589 119.114 33.6136C119.501 33.6923 119.888 33.7629 120.274 33.8309C120.488 33.8683 120.701 33.9016 120.914 33.9363C123.007 34.2696 125.127 34.4643 127.061 34.6749C128.087 34.7869 129.114 34.8949 130.141 35.0003C130.168 35.1323 130.274 35.2376 130.447 35.2643C131.034 35.3429 131.621 35.4176 132.221 35.4776C135.901 35.8843 139.648 35.9896 143.408 35.9069H143.421C147.767 36.0042 152.114 35.8469 156.367 35.2643C156.554 35.2376 156.648 35.1283 156.674 35.0003C157.168 34.9483 157.674 34.8989 158.167 34.8429C158.701 34.7909 159.234 34.7336 159.754 34.6749C161.701 34.4643 163.807 34.2696 165.914 33.9363C166.127 33.9016 166.341 33.8683 166.541 33.8309C166.941 33.7629 167.327 33.6923 167.701 33.6136C167.714 33.7589 167.714 33.9056 167.727 34.0549C167.834 36.6069 167.834 39.1896 167.754 41.7882Z" fill="#8E8C8D"/>
<path d="M177.46 24.4493C176.847 27.3333 174.594 29.3347 171.86 30.5214C170.114 31.2747 168.247 31.7307 166.354 32.056C166.167 32.092 165.994 32.1187 165.82 32.1493C164.994 32.2853 164.167 32.3907 163.34 32.492C159.727 32.94 156.1 33.2787 152.474 33.5294C149.46 33.736 146.434 33.8333 143.407 33.916C140.394 33.8333 137.367 33.736 134.354 33.5294C130.714 33.2787 127.087 32.94 123.474 32.492C122.66 32.3907 121.834 32.2853 120.994 32.1493C120.82 32.1187 120.647 32.092 120.474 32.056C118.58 31.7307 116.7 31.2747 114.967 30.5214C112.234 29.3347 109.98 27.3333 109.367 24.4493C108.754 21.596 109.7 18.6054 111.114 16.024C111.274 15.708 111.46 15.396 111.647 15.092C113.14 12.6293 115.06 10.396 117.287 8.47468C118.82 7.13734 120.5 5.95068 122.274 4.94401C122.94 4.56001 123.634 4.20938 124.314 3.87871C127.834 2.21205 131.687 1.22269 135.594 0.96003C137.767 0.809361 139.834 0.93734 141.887 1.236C142.394 1.30667 142.9 1.39066 143.407 1.48666C143.927 1.39066 144.434 1.30667 144.94 1.236C146.994 0.93734 149.06 0.809361 151.22 0.96003C155.127 1.22269 158.98 2.21205 162.5 3.87871C164.794 4.96538 166.954 6.33734 168.9 7.93867C169.58 8.48267 170.22 9.05866 170.834 9.66133C172.514 11.2973 173.98 13.1173 175.18 15.092L175.314 15.316C176.94 18.0467 178.127 21.328 177.46 24.4493Z" fill="#929091"/>
<path d="M122.634 72.2346C121.194 72.9839 119.754 73.7226 118.301 74.4346C117.288 74.9279 116.261 75.4106 115.234 75.876C106.461 79.8613 97.3811 83.2293 88.1144 85.92C79.0611 88.5493 69.841 90.5493 60.5597 91.88C51.641 93.156 42.5824 94.048 33.7024 93.6866C25.2278 93.34 16.7478 91.9346 9.78511 87.3759C4.92911 84.196 0.447655 78.0346 1.59565 71.7399C1.97699 69.6386 2.98373 67.5306 4.80907 65.5053C8.11173 61.8426 12.3317 60.1547 16.7757 59.3827C17.6784 59.8467 18.5864 60.276 19.4917 60.6786C27.1517 64.068 35.6717 65.4347 44.1704 66.3773C53.7784 67.4467 63.5344 67.7266 73.3144 67.2626C84.2077 66.7479 95.101 65.3146 105.821 62.9893C110.274 62.024 114.821 60.9933 119.314 59.7293C119.941 63.6079 120.848 67.4586 122.181 71.108C122.328 71.4907 122.474 71.8639 122.634 72.2346Z" fill="#ADABAC"/>
<path d="M118.98 57.4206C116.047 58.3259 113.087 59.1833 110.087 59.9046C100.967 62.1126 91.7136 63.6607 82.4069 64.518C73.3403 65.362 64.2563 65.5686 55.2509 65.1286C46.6243 64.7019 37.9562 63.8926 29.6856 61.9273C26.4269 61.1486 23.1909 60.2046 20.1136 58.9633C19.3349 58.6513 18.5735 58.3179 17.8215 57.9699C14.3615 56.3513 11.1508 54.3033 8.39351 51.638C3.06951 46.4753 -0.769107 36.4726 7.30823 30.1273C15.3722 23.79 26.1589 27.2859 34.3869 28.6539C43.5989 30.1753 52.8416 31.706 62.1069 33.2353C77.4603 35.7686 92.9135 38.2619 108.433 40.6753C111.633 41.1766 114.847 41.6699 118.047 42.1619C117.994 44.9059 118.047 47.6673 118.26 50.4246C118.394 52.2406 118.567 54.078 118.794 55.93C118.82 56.1233 118.834 56.326 118.86 56.5193C118.9 56.822 118.94 57.1166 118.98 57.4206Z" fill="#ADABAC"/>
<path d="M278.434 51.638C275.674 54.3033 272.461 56.3513 268.994 57.9699C268.247 58.3179 267.487 58.6513 266.714 58.9633C263.634 60.2046 260.394 61.1486 257.141 61.9273C248.861 63.8926 240.194 64.7019 231.567 65.1286C222.567 65.5686 213.487 65.362 204.421 64.518C195.114 63.6607 185.847 62.1126 176.741 59.9046C173.741 59.1833 170.781 58.3259 167.834 57.4206C167.887 57.1166 167.927 56.822 167.954 56.5193C167.981 56.326 168.007 56.1233 168.021 55.93C168.247 54.078 168.421 52.2406 168.554 50.4246C168.767 47.6673 168.821 44.9059 168.767 42.1619C172.314 41.6166 175.861 41.0713 179.394 40.522C194.581 38.1513 209.687 35.7153 224.714 33.2353C233.981 31.706 243.221 30.1753 252.434 28.6539C260.661 27.2859 271.447 23.79 279.514 30.1273C279.887 30.4166 280.234 30.7166 280.554 31.0246C287.234 37.382 283.501 46.7126 278.434 51.638Z" fill="#ADABAC"/>
<path d="M285.381 72.9039C285.821 78.7879 281.594 84.3946 277.034 87.3759C270.074 91.9346 261.594 93.34 253.114 93.6866C244.248 94.048 235.181 93.156 226.261 91.88C216.981 90.5493 207.768 88.5493 198.701 85.92C189.434 83.2293 180.368 79.8613 171.594 75.876C170.381 75.3293 169.181 74.7586 167.994 74.176C166.714 73.5453 165.448 72.8959 164.194 72.2346C164.341 71.8639 164.501 71.4907 164.634 71.108C165.981 67.4586 166.874 63.6079 167.501 59.7293C171.994 60.9933 176.554 62.024 181.008 62.9893C191.728 65.3146 202.608 66.7479 213.501 67.2626C223.288 67.7266 233.048 67.4467 242.648 66.3773C251.154 65.4347 259.674 64.068 267.328 60.6786C268.234 60.276 269.141 59.8467 270.048 59.3827C274.488 60.1547 278.714 61.8426 282.008 65.5053C284.181 67.9053 285.194 70.4293 285.381 72.9039Z" fill="#ADABAC"/>
<path d="M278.421 51.6376C275.674 54.3029 272.461 56.3522 269.007 57.9696C268.247 58.3189 267.487 58.6522 266.714 58.9629C263.634 60.2056 260.394 61.1522 257.141 61.9296C248.861 63.8936 240.194 64.7029 231.567 65.1283C222.567 65.5696 213.487 65.3629 204.421 64.5202C195.114 63.6602 185.847 62.1122 176.741 59.9069C173.741 59.1829 170.781 58.3269 167.834 57.4202C167.874 57.1189 167.927 56.8216 167.954 56.5202C167.981 56.3242 168.007 56.1255 168.021 55.9296C168.247 54.0815 168.421 52.2429 168.554 50.4256C168.767 47.6682 168.821 44.9056 168.767 42.1616C187.541 39.2882 206.194 36.2935 224.714 33.2349C233.981 31.7069 243.221 30.1763 252.434 28.6523C260.661 27.2896 271.447 23.7909 279.514 30.1269C287.594 36.4709 283.754 46.4762 278.421 51.6376ZM282.007 65.5056C289.314 73.6069 283.514 83.1349 277.034 87.3762C270.074 91.9349 261.594 93.3402 253.114 93.6869C244.247 94.0482 235.181 93.1563 226.261 91.8803C216.981 90.5496 207.767 88.5496 198.701 85.9202C189.434 83.2296 180.367 79.8616 171.594 75.8762C169.087 74.7389 166.621 73.5096 164.194 72.2349C164.341 71.8642 164.501 71.4909 164.634 71.1083C165.981 67.4589 166.874 63.6082 167.501 59.7296C171.994 60.9935 176.554 62.0242 181.007 62.9896C191.727 65.3149 202.607 66.7482 213.501 67.2629C223.287 67.7269 233.047 67.4469 242.647 66.3776C251.154 65.4349 259.674 64.0682 267.327 60.6789C268.234 60.2762 269.141 59.8469 270.047 59.3829C274.487 60.1549 278.714 61.8429 282.007 65.5056ZM162.421 71.2976C162.101 72.0296 161.754 72.7389 161.367 73.4163C160.354 75.2363 159.101 76.8389 157.541 78.1109C157.301 78.3109 157.061 78.4989 156.807 78.6776C155.501 79.6163 153.994 80.3349 152.274 80.7776C151.981 80.8509 151.701 80.9122 151.421 80.9736C151.407 80.7776 151.287 80.5936 151.061 80.6176C148.581 80.8709 145.994 81.2149 143.407 81.3789C140.821 81.2149 138.234 80.8709 135.754 80.6176C135.541 80.5936 135.421 80.7776 135.407 80.9736C135.127 80.9122 134.834 80.8509 134.554 80.7776C132.834 80.3349 131.327 79.6163 130.007 78.6776C129.767 78.4989 129.514 78.3109 129.287 78.1109C127.727 76.8389 126.474 75.2363 125.447 73.4163C125.061 72.7389 124.714 72.0296 124.407 71.2976C123.941 70.2242 123.541 69.0976 123.194 67.9336C122.367 65.0842 121.647 62.1709 121.061 59.2256C120.914 58.4562 120.767 57.6829 120.634 56.9109C120.607 56.7629 120.581 56.6136 120.554 56.4655C120.527 56.2816 120.501 56.0976 120.461 55.9149C119.714 51.4056 119.261 46.8416 119.087 42.3176C119.087 42.1429 119.074 41.9642 119.074 41.7882C118.981 39.1895 118.994 36.6069 119.101 34.0549C119.101 33.9055 119.114 33.7589 119.114 33.6136C119.501 33.6923 119.887 33.7629 120.274 33.8309C120.487 33.8682 120.701 33.9016 120.914 33.9362C123.007 34.2696 125.127 34.4643 127.061 34.6749C128.087 34.7869 129.114 34.8949 130.141 35.0002C130.167 35.1322 130.274 35.2376 130.447 35.2643C134.714 35.8469 139.047 36.0042 143.407 35.9069H143.421C147.767 36.0042 152.114 35.8469 156.367 35.2643C156.554 35.2376 156.647 35.1283 156.674 35.0002C157.701 34.8949 158.741 34.7869 159.754 34.6749C161.701 34.4643 163.807 34.2696 165.914 33.9362C166.127 33.9016 166.341 33.8682 166.541 33.8309C166.941 33.7629 167.327 33.6923 167.701 33.6136C167.714 33.7589 167.714 33.9055 167.727 34.0549C167.834 36.6069 167.834 39.1895 167.754 41.7882C167.741 41.9642 167.741 42.1429 167.727 42.3176C167.554 46.8416 167.101 51.4056 166.354 55.9149C166.327 56.0976 166.301 56.2816 166.261 56.4655C166.234 56.6136 166.207 56.7629 166.194 56.9109C166.061 57.6829 165.914 58.4562 165.754 59.2256C165.167 62.1709 164.461 65.0842 163.621 67.9336C163.287 69.0976 162.887 70.2242 162.421 71.2976ZM154.314 112.952C152.701 142.571 151.781 173.918 151.954 206.987C151.994 214.732 152.261 222.66 151.927 230.598C151.634 237.458 150.607 245.05 146.461 250.216C145.554 251.359 144.527 252.314 143.407 253.087C142.301 252.314 141.274 251.359 140.354 250.216C136.221 245.05 135.181 237.458 134.901 230.598C134.554 222.66 134.821 214.732 134.861 206.987C135.034 173.918 134.127 142.571 132.514 112.952C131.927 102.175 131.101 91.6349 130.234 81.2976C131.234 81.8669 132.314 82.3256 133.474 82.6669C136.754 83.6283 140.101 83.6776 143.407 83.2256C146.727 83.6776 150.061 83.6283 153.341 82.6669C154.514 82.3256 155.594 81.8669 156.594 81.2976C155.727 91.6349 154.901 102.175 154.314 112.952ZM115.234 75.8762C106.461 79.8616 97.3806 83.2296 88.1139 85.9202C79.0606 88.5496 69.8406 90.5496 60.5593 91.8803C51.6406 93.1563 42.582 94.0482 33.702 93.6869C25.2273 93.3402 16.7473 91.9349 9.78465 87.3762C3.30598 83.1349 -2.49273 73.6069 4.80861 65.5056C8.11127 61.8429 12.3313 60.1549 16.7753 59.3829C17.6779 59.8469 18.586 60.2762 19.4913 60.6789C27.1513 64.0682 35.6713 65.4349 44.1699 66.3776C53.7779 67.4469 63.5339 67.7269 73.3139 67.2629C84.2073 66.7482 95.1006 65.3149 105.821 62.9896C110.274 62.0242 114.821 60.9935 119.314 59.7296C119.941 63.6082 120.847 67.4589 122.181 71.1083C122.327 71.4909 122.474 71.8642 122.634 72.2349C120.207 73.5096 117.741 74.7389 115.234 75.8762ZM8.39663 51.6376C3.07129 46.4762 -0.77003 36.4709 7.3073 30.1269C15.3726 23.7909 26.1579 27.2896 34.3859 28.6523C43.5979 30.1763 52.8419 31.7069 62.1086 33.2349C80.6339 36.2935 99.2739 39.2882 118.061 42.1616C117.994 44.9056 118.047 47.6682 118.261 50.4256C118.407 52.2429 118.567 54.0815 118.794 55.9296C118.821 56.1255 118.847 56.3242 118.861 56.5202C118.901 56.8216 118.941 57.1189 118.981 57.4202C116.047 58.3269 113.087 59.1829 110.087 59.9069C100.967 62.1122 91.714 63.6602 82.4073 64.5202C73.3406 65.3629 64.258 65.5696 55.2513 65.1283C46.6246 64.7029 37.9593 63.8936 29.6873 61.9296C26.4259 61.1522 23.1926 60.2056 20.1139 58.9629C19.3366 58.6522 18.5739 58.3189 17.8219 57.9696C14.3606 56.3522 11.154 54.3029 8.39663 51.6376ZM114.967 30.5215C112.234 29.3349 109.967 27.3336 109.367 24.4523C108.674 21.2469 109.954 17.8682 111.634 15.0935C114.567 10.2789 119.114 6.34692 124.314 3.88026C127.834 2.21492 131.687 1.2229 135.594 0.958908C137.754 0.812241 139.834 0.938889 141.874 1.23755C142.394 1.30688 142.901 1.39223 143.407 1.48691C143.914 1.39223 144.434 1.30688 144.941 1.23755C146.994 0.938889 149.061 0.812241 151.221 0.958908C155.127 1.2229 158.981 2.21492 162.501 3.88026C167.701 6.34692 172.247 10.2789 175.181 15.0935C176.874 17.8682 178.141 21.2469 177.461 24.4523C176.847 27.3336 174.594 29.3349 171.861 30.5215C170.127 31.2735 168.247 31.7335 166.354 32.0575C166.167 32.0949 165.994 32.1216 165.821 32.1509C164.994 32.2856 164.167 32.3936 163.341 32.4949C159.727 32.9429 156.101 33.2802 152.474 33.5309C149.461 33.7376 146.434 33.8349 143.407 33.9163C140.394 33.8349 137.367 33.7376 134.354 33.5309C130.714 33.2802 127.087 32.9429 123.474 32.4949C122.661 32.3936 121.834 32.2856 120.994 32.1509C120.821 32.1216 120.647 32.0949 120.474 32.0575C118.581 31.7335 116.701 31.2735 114.967 30.5215ZM284.274 45.6723C285.581 42.5696 286.074 38.9363 284.861 35.4136C283.661 31.9536 280.927 29.2176 277.781 27.5256C273.887 25.4282 269.621 25.0336 265.594 25.3363C260.754 25.7003 256.021 26.7242 251.274 27.5149C241.367 29.1642 231.434 30.8189 221.474 32.4869C203.981 35.4096 186.407 38.4362 168.754 41.6056C168.687 39.0416 168.527 36.4895 168.274 33.9575C168.261 33.8269 168.247 33.6989 168.234 33.5682V33.5016C169.967 33.1149 171.647 32.5949 173.167 31.8482C174.674 31.0989 176.034 30.1269 177.127 28.8376C181.327 23.8682 178.701 17.0403 175.194 12.3443C168.247 3.04425 155.021 -2.08374 143.407 0.805588C131.794 -2.08374 118.567 3.04425 111.621 12.3443C108.114 17.0403 105.501 23.8682 109.701 28.8376C111.874 31.4189 115.127 32.7375 118.594 33.5016L118.581 33.5682C118.567 33.6989 118.554 33.8269 118.541 33.9575C118.301 36.4895 118.127 39.0416 118.061 41.6056C100.407 38.4362 82.834 35.4096 65.346 32.4869C55.3833 30.8189 45.4525 29.1642 35.5499 27.5149C30.8045 26.7242 26.0646 25.7003 21.2313 25.3363C17.1953 25.0336 12.9299 25.4282 9.0392 27.5256C5.90054 29.2176 3.16053 31.9536 1.9672 35.4136C0.749866 38.9363 1.24588 42.5696 2.54454 45.6723C4.90988 51.3242 9.74057 55.4576 15.0379 58.4482C11.9179 59.1349 8.85265 60.3669 6.15131 62.4989C3.18065 64.8456 0.807241 68.1936 0.176575 71.9856C-0.463425 75.8403 0.701976 79.4816 2.61264 82.4083C7.05398 89.2269 15.2219 92.6829 22.9219 94.4376C31.4592 96.3802 40.4979 96.0803 49.4152 95.3496C59.4619 94.5309 69.4859 92.8842 79.3672 90.4842C90.3405 87.8202 101.101 84.2416 111.487 79.8122C115.514 78.0949 119.607 76.3029 123.634 74.3215C125.074 76.9815 126.981 79.2162 129.407 80.7935C129.421 80.9775 129.421 81.1656 129.434 81.3509C129.847 90.9922 130.167 100.81 130.567 110.8C131.181 126.332 131.701 142.315 132.074 158.754C132.474 175.831 132.794 193.44 132.874 211.571C132.914 219.427 132.541 227.57 133.394 235.575C134.087 242 135.874 248.562 140.034 252.934C140.474 253.406 140.954 253.846 141.434 254.242C142.061 254.775 142.727 255.243 143.407 255.656C144.087 255.243 144.754 254.775 145.394 254.242C145.874 253.846 146.341 253.406 146.794 252.934C150.954 248.562 152.741 242 153.421 235.575C154.274 227.57 153.914 219.427 153.954 211.571C154.021 193.44 154.354 175.831 154.741 158.754C155.127 142.315 155.647 126.332 156.261 110.8C156.661 100.81 156.981 90.9922 157.394 81.3509C157.394 81.1656 157.407 80.9775 157.421 80.7935C158.621 80.0042 159.714 79.0482 160.674 77.9616C161.634 76.8709 162.474 75.6495 163.194 74.3215C167.207 76.3029 171.314 78.0949 175.341 79.8122C185.727 84.2416 196.487 87.8202 207.447 90.4842C217.341 92.8842 227.354 94.5309 237.407 95.3496C246.327 96.0803 255.367 96.3802 263.901 94.4376C271.607 92.6829 279.767 89.2269 284.207 82.4083C286.114 79.4816 287.287 75.8403 286.647 71.9856C286.021 68.1936 283.647 64.8456 280.674 62.4989C277.967 60.3669 274.901 59.1349 271.781 58.4482C277.087 55.4576 281.914 51.3242 284.274 45.6723Z" fill="#4F4C4D"/>
<path d="M143.408 81.3789C140.821 81.2149 138.234 80.8709 135.754 80.6176C135.741 80.6162 135.728 80.6149 135.728 80.6149C135.528 80.6149 135.408 80.7896 135.408 80.9736C135.128 80.9122 134.834 80.8509 134.554 80.7776C132.834 80.3349 131.328 79.6163 130.008 78.6776C129.768 78.4989 129.514 78.3109 129.288 78.1109C127.728 76.8389 126.474 75.2363 125.448 73.4163C125.061 72.7389 124.714 72.0296 124.408 71.2976C123.941 70.2243 123.541 69.0976 123.194 67.9336C122.368 65.0843 121.648 62.1709 121.061 59.2256C120.914 58.4563 120.768 57.6829 120.634 56.9109C120.608 56.7629 120.581 56.6136 120.554 56.4656C120.528 56.2816 120.501 56.0976 120.461 55.9149C119.714 51.4056 119.261 46.8416 119.088 42.3176C119.088 42.1429 119.074 41.9642 119.074 41.7882C119.034 40.5709 119.008 39.3562 119.008 38.1456C119.008 36.7749 119.034 35.4109 119.101 34.0549C119.101 33.9056 119.114 33.7589 119.114 33.6136C119.501 33.6923 119.888 33.7629 120.274 33.8309C120.488 33.8683 120.701 33.9016 120.914 33.9363C123.008 34.2696 125.128 34.4643 127.061 34.6749C128.088 34.7869 129.114 34.8949 130.141 35.0003C130.168 35.1323 130.274 35.2376 130.448 35.2643C131.034 35.3443 131.621 35.4163 132.208 35.4803C129.128 40.4349 127.661 46.7616 127.768 52.8322C127.888 59.1242 129.514 65.6656 133.541 70.4136C136.514 73.9229 140.954 76.1882 145.341 76.1882C146.928 76.1882 148.514 75.8882 150.021 75.2402C153.941 73.5416 156.781 69.8083 158.688 65.8163C163.328 56.1069 162.874 44.1962 158.168 34.8456C158.354 34.8269 158.528 34.8069 158.714 34.7882C159.061 34.7509 159.408 34.7136 159.754 34.6749C161.701 34.4643 163.808 34.2696 165.914 33.9363C166.128 33.9016 166.341 33.8683 166.541 33.8309C166.941 33.7629 167.328 33.6923 167.701 33.6136C167.714 33.7589 167.714 33.9056 167.728 34.0549C167.781 35.4109 167.808 36.7749 167.808 38.1456C167.808 39.3562 167.794 40.5709 167.754 41.7882C167.741 41.9642 167.741 42.1429 167.728 42.3176C167.554 46.8416 167.101 51.4056 166.354 55.9149C166.328 56.0976 166.301 56.2816 166.261 56.4656C166.234 56.6136 166.208 56.7629 166.194 56.9109C166.061 57.6829 165.914 58.4563 165.754 59.2256C165.168 62.1709 164.461 65.0843 163.621 67.9336C163.288 69.0976 162.888 70.2243 162.421 71.2976C162.101 72.0296 161.754 72.7389 161.368 73.4163C160.354 75.2363 159.101 76.8389 157.541 78.1109C157.301 78.3109 157.061 78.4989 156.808 78.6776C155.501 79.6163 153.994 80.3349 152.274 80.7776C151.981 80.8509 151.701 80.9122 151.421 80.9736C151.408 80.7896 151.301 80.6149 151.101 80.6149C151.088 80.6149 151.074 80.6162 151.061 80.6176C148.581 80.8709 145.994 81.2149 143.408 81.3789Z" fill="#68696B"/>
<path d="M143.408 81.3789C140.821 81.2149 138.234 80.8709 135.754 80.6176C135.741 80.6162 135.728 80.6149 135.728 80.6149C135.528 80.6149 135.408 80.7896 135.408 80.9736C135.128 80.9122 134.834 80.8509 134.554 80.7776C132.834 80.3349 131.328 79.6163 130.008 78.6776C129.768 78.4989 129.514 78.3109 129.288 78.1109C127.728 76.8389 126.474 75.2363 125.448 73.4163C125.061 72.7389 124.714 72.0296 124.408 71.2976C123.941 70.2243 123.541 69.0976 123.194 67.9336C122.368 65.0843 121.648 62.1709 121.061 59.2256C120.914 58.4563 120.768 57.6829 120.634 56.9109C120.608 56.7629 120.581 56.6136 120.554 56.4656C120.528 56.2816 120.501 56.0976 120.461 55.9149C119.714 51.4056 119.261 46.8416 119.088 42.3176C119.088 42.1429 119.074 41.9642 119.074 41.7882C119.034 40.5709 119.008 39.3562 119.008 38.1456C119.008 39.3562 119.034 40.5709 119.074 41.7882C119.074 41.9642 119.088 42.1429 119.088 42.3176C119.261 46.8416 119.714 51.4056 120.461 55.9149C120.501 56.0976 120.528 56.2816 120.554 56.4656C120.581 56.6136 120.608 56.7629 120.634 56.9109C120.768 57.6829 120.914 58.4563 121.061 59.2256C121.648 62.1709 122.368 65.0843 123.194 67.9336C123.541 69.0976 123.941 70.2243 124.408 71.2976C124.714 72.0296 125.061 72.7389 125.448 73.4163C126.474 75.2363 127.728 76.8389 129.288 78.1109C129.514 78.3109 129.768 78.4989 130.008 78.6776C131.328 79.6163 132.834 80.3349 134.554 80.7776C134.834 80.8509 135.128 80.9122 135.408 80.9736C135.408 80.7896 135.528 80.6149 135.728 80.6149C135.728 80.6149 135.741 80.6162 135.754 80.6176C138.234 80.8709 140.821 81.2149 143.408 81.3789C145.994 81.2149 148.581 80.8709 151.061 80.6176C151.074 80.6162 151.088 80.6149 151.101 80.6149C151.301 80.6149 151.408 80.7896 151.421 80.9736C151.701 80.9122 151.981 80.8509 152.274 80.7776C153.994 80.3349 155.501 79.6163 156.808 78.6776C157.061 78.4989 157.301 78.3109 157.541 78.1109C159.101 76.8389 160.354 75.2363 161.368 73.4163C161.754 72.7389 162.101 72.0296 162.421 71.2976C162.888 70.2243 163.288 69.0976 163.621 67.9336C164.461 65.0843 165.168 62.1709 165.754 59.2256C165.914 58.4563 166.061 57.6829 166.194 56.9109C166.208 56.7629 166.234 56.6136 166.261 56.4656C166.301 56.2816 166.328 56.0976 166.354 55.9149C167.101 51.4056 167.554 46.8416 167.728 42.3176C167.741 42.1429 167.741 41.9642 167.754 41.7882C167.794 40.5709 167.808 39.3562 167.808 38.1456C167.808 39.3562 167.794 40.5709 167.754 41.7882C167.741 41.9642 167.741 42.1429 167.728 42.3176C167.554 46.8416 167.101 51.4056 166.354 55.9149C166.328 56.0976 166.301 56.2816 166.261 56.4656C166.234 56.6136 166.208 56.7629 166.194 56.9109C166.061 57.6829 165.914 58.4563 165.754 59.2256C165.168 62.1709 164.461 65.0843 163.621 67.9336C163.288 69.0976 162.888 70.2243 162.421 71.2976C162.101 72.0296 161.754 72.7389 161.368 73.4163C160.354 75.2363 159.101 76.8389 157.541 78.1109C157.301 78.3109 157.061 78.4989 156.808 78.6776C155.501 79.6163 153.994 80.3349 152.274 80.7776C151.981 80.8509 151.701 80.9122 151.421 80.9736C151.408 80.7896 151.301 80.6149 151.101 80.6149C151.088 80.6149 151.074 80.6162 151.061 80.6176C148.581 80.8709 145.994 81.2149 143.408 81.3789ZM132.208 35.4803C131.621 35.4163 131.034 35.3443 130.448 35.2643C131.034 35.3429 131.621 35.4176 132.221 35.4776C132.221 35.4789 132.208 35.4803 132.208 35.4803ZM158.168 34.8456C158.168 34.8456 158.168 34.8442 158.168 34.8429C158.354 34.8256 158.528 34.8069 158.714 34.7882C158.528 34.8069 158.354 34.8269 158.168 34.8456Z" fill="#2B2929"/>
<path d="M133.848 142.416C133.674 137.449 133.461 132.531 133.248 127.655C133.021 122.708 132.781 117.808 132.514 112.952C131.928 102.175 131.101 91.6347 130.234 81.2973C131.234 81.8667 132.314 82.3253 133.474 82.6667C135.474 83.2547 137.501 83.5013 139.541 83.5013C140.834 83.5013 142.128 83.4013 143.408 83.2253C144.701 83.4013 145.994 83.5013 147.288 83.5013C149.314 83.5013 151.341 83.2547 153.341 82.6667C154.514 82.3253 155.594 81.8667 156.594 81.2973C155.728 91.6347 154.901 102.175 154.314 112.952C154.221 114.525 154.141 116.101 154.061 117.688C152.474 101.413 149.781 89.616 145.181 89.616C145.154 89.616 145.128 89.616 145.101 89.6173C137.968 89.8253 135.021 115.401 133.848 142.416Z" fill="#68696B"/>
<path d="M133.848 142.455C133.674 137.476 133.461 132.543 133.248 127.654C133.461 132.53 133.674 137.448 133.848 142.415C133.848 142.428 133.848 142.442 133.848 142.455ZM154.314 112.951C154.901 102.174 155.728 91.6338 156.594 81.2964C155.728 91.6338 154.901 102.174 154.314 112.951ZM132.514 112.951C131.928 102.174 131.101 91.6338 130.234 81.2964C131.101 91.6338 131.928 102.174 132.514 112.951Z" fill="#2B2929"/>
<path d="M118.301 74.4316C117.461 70.969 114.674 67.857 111.421 66.6437C109.541 65.9424 107.567 65.681 105.567 65.681C102.341 65.681 99.0073 66.361 95.7807 66.9637C84.194 69.1263 72.474 70.2077 60.838 70.2077C48.9326 70.209 37.1166 69.0757 25.6113 66.8117C22.1953 66.1383 18.7433 65.3663 15.2206 65.3663C14.0753 65.3663 12.9232 65.4477 11.7619 65.641C7.97391 66.2743 3.98868 68.409 1.59668 71.7383C1.97935 69.641 2.98466 67.529 4.80866 65.505C8.11133 61.8423 12.3313 60.1544 16.7753 59.3824C17.678 59.8464 18.586 60.2757 19.4913 60.6783C27.1513 64.0677 35.6713 65.4344 44.17 66.377C50.8113 67.1157 57.5233 67.4783 64.2673 67.4783C67.2793 67.4783 70.2967 67.4063 73.314 67.2623C84.2073 66.7476 95.1006 65.3143 105.821 62.989C110.274 62.0237 114.821 60.993 119.314 59.729C119.941 63.6076 120.847 67.4583 122.181 71.1077C122.327 71.4903 122.474 71.8636 122.634 72.2343C121.901 72.6143 121.181 72.9917 120.447 73.3637C119.727 73.725 119.021 74.081 118.301 74.4316Z" fill="#7A7B7C"/>
<path d="M118.301 74.4336C118.301 74.4323 118.301 74.4323 118.301 74.4309C119.021 74.0803 119.728 73.7243 120.448 73.363C119.728 73.7256 119.021 74.0829 118.301 74.4336ZM1.5957 71.7389C1.97704 69.6376 2.98378 67.5296 4.80911 65.5043C2.98511 67.5283 1.9798 69.6403 1.59714 71.7376C1.5958 71.7376 1.5957 71.7376 1.5957 71.7389Z" fill="#272525"/>
<path d="M167.994 74.1738C166.714 73.5432 165.448 72.8951 164.194 72.2338C164.341 71.8631 164.501 71.4898 164.634 71.1072C165.981 67.4578 166.874 63.6071 167.501 59.7284C171.994 60.9924 176.554 62.0231 181.008 62.9885C191.728 65.3138 202.608 66.7471 213.501 67.2618C216.528 67.4044 219.541 67.4778 222.554 67.4778C229.301 67.4778 236.008 67.1152 242.648 66.3765C251.154 65.4338 259.674 64.0671 267.328 60.6778C268.234 60.2751 269.141 59.8458 270.048 59.3818C274.488 60.1538 278.714 61.8418 282.008 65.5045C282.021 65.5192 282.034 65.5338 282.048 65.5485C282.061 65.5498 282.061 65.5525 282.061 65.5551C282.074 65.5685 282.088 65.5832 282.101 65.5965C282.101 65.5992 282.101 65.6018 282.101 65.6058C282.114 65.6191 282.128 65.6325 282.141 65.6471C282.141 65.6485 282.141 65.6498 282.141 65.6512C282.154 65.6632 282.168 65.6764 282.181 65.6898C282.181 65.6924 282.181 65.6952 282.181 65.6992C282.194 65.7125 282.208 65.7245 282.221 65.7378C282.221 65.7418 282.221 65.7445 282.234 65.7485C282.234 65.7618 282.248 65.7751 282.261 65.7885C282.261 65.7911 282.261 65.7924 282.274 65.7951C282.274 65.8071 282.288 65.8205 282.301 65.8338C282.301 65.8365 282.301 65.8378 282.301 65.8405C282.314 65.8538 282.328 65.8672 282.341 65.8818C282.341 65.8845 282.341 65.8871 282.354 65.8898C282.368 65.9031 282.368 65.9178 282.381 65.9325C282.381 65.9338 282.394 65.9351 282.394 65.9365C282.421 65.9671 282.434 65.9965 282.461 66.0271C282.461 66.0285 282.461 66.0298 282.461 66.0298C284.314 68.2712 285.208 70.6072 285.381 72.9018C283.141 68.9085 278.688 66.3445 274.474 65.6405C273.314 65.4472 272.154 65.3658 271.008 65.3658C267.488 65.3658 264.034 66.1378 260.621 66.8111C249.114 69.0751 237.301 70.2072 225.394 70.2072C213.754 70.2085 202.048 69.1258 190.461 66.9632C187.221 66.3605 183.901 65.6805 180.661 65.6805C178.661 65.6805 176.688 65.9418 174.808 66.6432C171.634 67.8205 168.914 70.8138 167.994 74.1738Z" fill="#7A7B7C"/>
<path d="M167.994 74.1758C166.714 73.5451 165.448 72.8958 164.194 72.2344C165.448 72.8958 166.714 73.5438 167.994 74.1745C167.994 74.1745 167.994 74.1744 167.994 74.1758ZM285.381 72.9038C285.381 72.9038 285.381 72.9038 285.381 72.9025C285.208 70.6078 284.314 68.2718 282.461 66.0305C284.314 68.2718 285.208 70.6091 285.381 72.9038ZM282.461 66.0278C282.434 65.9971 282.421 65.9678 282.394 65.9371C282.421 65.9678 282.434 65.9971 282.461 66.0278ZM282.381 65.9331C282.368 65.9185 282.368 65.9038 282.354 65.8904C282.368 65.9051 282.368 65.9185 282.381 65.9331ZM282.341 65.8825C282.328 65.8678 282.314 65.8545 282.301 65.8411C282.314 65.8545 282.328 65.8678 282.341 65.8825ZM282.301 65.8344C282.288 65.8211 282.274 65.8078 282.274 65.7958C282.274 65.8078 282.288 65.8211 282.301 65.8344ZM282.261 65.7891C282.248 65.7758 282.234 65.7625 282.234 65.7492C282.234 65.7625 282.248 65.7758 282.261 65.7891ZM282.221 65.7385C282.208 65.7251 282.194 65.7131 282.181 65.6998C282.194 65.7118 282.208 65.7251 282.221 65.7385ZM282.181 65.6904C282.168 65.6771 282.154 65.6638 282.141 65.6518C282.154 65.6638 282.168 65.6771 282.181 65.6904ZM282.141 65.6478C282.128 65.6331 282.114 65.6198 282.101 65.6064C282.114 65.6198 282.128 65.6331 282.141 65.6478ZM282.101 65.5971C282.088 65.5838 282.074 65.5691 282.061 65.5558C282.074 65.5691 282.088 65.5825 282.101 65.5971ZM282.048 65.5492C282.034 65.5345 282.021 65.5198 282.008 65.5051C282.021 65.5198 282.034 65.5345 282.048 65.5492Z" fill="#272525"/>
<path d="M250.234 86.7656C234.1 86.7656 215.78 84.3297 215.62 81.7723C215.354 77.8377 232.634 75.4337 248.527 75.4337C262.22 75.4337 274.887 77.223 274.34 81.363C273.82 85.3176 262.674 86.7656 250.234 86.7656Z" fill="#D1D1CF"/>
<path d="M57.121 87.5547C41.4864 87.5547 11.9917 82.276 13.2531 77.6867C13.5411 76.6347 16.3624 76.192 20.5704 76.192C35.8184 76.192 69.2584 82.0187 66.3144 85.8854C65.4224 87.056 61.9264 87.5547 57.121 87.5547Z" fill="#D1D1CF"/>
<path d="M64.1323 57.0898C57.3056 57.0898 50.0723 56.5792 42.9376 55.3712C15.3843 50.7085 8.08159 36.5179 12.1163 32.8312C12.5029 32.4778 13.8109 32.3165 15.8429 32.3165C33.0989 32.3165 102.46 43.9739 101.287 48.7779C100.3 52.8099 83.9003 57.0898 64.1323 57.0898Z" fill="#D1D1CF"/>
<path d="M218.181 57.0898C198.408 57.0898 182.034 52.8099 181.061 48.7779C179.914 43.9739 249.328 32.3165 266.581 32.3165C268.608 32.3165 269.914 32.4778 270.301 32.8312C274.328 36.5179 266.954 50.7085 239.381 55.3712C232.248 56.5792 225.008 57.0898 218.181 57.0898Z" fill="#D1D1CF"/>
<path d="M144.034 233.055C134.528 233.055 138.874 119.524 143.968 119.524C149.861 119.524 153.528 233.055 144.034 233.055Z" fill="#929292"/>
<path d="M145.074 68.8086C136.074 68.8086 138.821 41.502 145.034 41.502C150.501 41.502 154.061 68.8086 145.074 68.8086Z" fill="#929292"/>
<path d="M109.234 21.5801C109.474 19.3001 110.448 17.0467 111.648 15.0934C111.461 15.3974 111.274 15.7094 111.114 16.0254C110.168 17.7494 109.434 19.6547 109.234 21.5801ZM177.274 19.8454C176.861 18.2547 176.141 16.7147 175.314 15.3174L175.234 15.1854C175.541 15.6988 175.834 16.2321 176.114 16.7801C176.594 17.7627 176.994 18.7934 177.274 19.8454Z" fill="#E8E7E6"/>
<path d="M127.914 30.9453C116.981 30.9453 109.034 23.2253 111.114 16.0253C110.168 17.7493 109.434 19.6547 109.234 21.58C109.434 19.6547 110.168 17.7493 111.114 16.0253C111.274 15.7093 111.461 15.3973 111.648 15.0933C113.141 12.6306 115.061 10.3973 117.288 8.47598C110.941 19.828 116.181 26.0706 123.461 26.0706C124.328 26.0706 125.234 25.98 126.154 25.796C134.954 24.0373 142.581 18.176 143.168 7.03333C142.581 18.4667 147.261 23.452 153.128 24.0373C153.501 24.0746 153.914 24.0947 154.341 24.0947C160.554 24.0947 171.434 20.0013 168.954 8.20664L168.901 7.93997C169.008 8.02397 169.114 8.10933 169.221 8.19466C171.568 10.18 173.608 12.5093 175.181 15.0933C175.194 15.124 175.221 15.1547 175.234 15.1854L175.314 15.3173C176.141 16.7147 176.861 18.2546 177.274 19.8453C176.861 18.2546 176.141 16.7147 175.314 15.3173C176.234 22.256 169.074 30.6053 158.234 30.6053C153.821 30.6053 148.794 29.2213 143.448 25.796C138.088 29.46 132.714 30.9453 127.914 30.9453Z" fill="#6D6E70"/>
<path d="M176.114 16.7793C175.834 16.2313 175.541 15.698 175.234 15.1846C175.221 15.154 175.194 15.1232 175.181 15.0926C173.607 12.5086 171.567 10.1793 169.221 8.19395C169.767 8.66328 170.314 9.15258 170.834 9.66191C172.514 11.2979 173.981 13.1179 175.181 15.0926C175.514 15.6339 175.821 16.198 176.114 16.7793Z" fill="#2B2929"/>
<path d="M177.461 24.4512C177.781 22.9485 177.674 21.4085 177.288 19.9112C177.514 20.8005 177.648 21.7059 177.648 22.6085C177.648 23.2259 177.581 23.8418 177.461 24.4512ZM109.368 24.4512C109.234 23.8378 109.181 23.2192 109.181 22.5979C109.181 22.2699 109.194 21.9405 109.234 21.6125C109.128 22.5605 109.168 23.5125 109.368 24.4512Z" fill="#5F6062"/>
<path d="M109.234 21.5938C109.234 21.5898 109.234 21.5845 109.234 21.5805C109.234 21.5845 109.234 21.5898 109.234 21.5938ZM177.288 19.9058C177.288 19.8965 177.288 19.8871 177.274 19.8778C177.288 19.8871 177.288 19.8965 177.288 19.9058ZM177.274 19.8538C177.274 19.8511 177.274 19.8484 177.274 19.8458C177.274 19.8484 177.274 19.8511 177.274 19.8538Z" fill="#5F6062"/>
<path d="M143.408 33.916C140.394 33.8347 137.368 33.7373 134.354 33.5307C133.101 33.4453 131.861 33.3493 130.621 33.2426C128.234 33.036 125.848 32.788 123.474 32.4933C123.048 32.44 122.621 32.3866 122.181 32.3266C121.821 32.2786 121.474 32.2253 121.114 32.1693C121.074 32.1627 121.034 32.156 120.994 32.1507C120.834 32.1213 120.661 32.0947 120.488 32.0613C120.488 32.06 120.474 32.0586 120.474 32.0573C120.194 32.0093 119.914 31.9586 119.634 31.904C119.408 31.86 119.181 31.8133 118.954 31.764C117.581 31.4653 116.234 31.072 114.968 30.5213C113.914 30.068 112.941 29.4933 112.101 28.7973C110.741 27.6747 109.741 26.2307 109.368 24.4507C109.168 23.512 109.128 22.56 109.234 21.612C109.234 21.6053 109.234 21.6 109.234 21.5933C109.234 21.5893 109.234 21.584 109.234 21.58C109.434 19.6547 110.168 17.7493 111.114 16.0253C109.034 23.2253 116.981 30.9453 127.914 30.9453C132.714 30.9453 138.088 29.46 143.448 25.796C148.794 29.2213 153.821 30.6053 158.234 30.6053C169.074 30.6053 176.234 22.256 175.314 15.3173C176.141 16.7147 176.861 18.2546 177.274 19.8453C177.274 19.848 177.274 19.8507 177.274 19.8533C177.274 19.8613 177.274 19.8693 177.274 19.8773C177.288 19.8867 177.288 19.896 177.288 19.9053C177.288 19.9067 177.288 19.9093 177.288 19.9107C177.674 21.408 177.781 22.948 177.461 24.4507C177.301 25.1773 177.048 25.848 176.701 26.464C175.674 28.2907 173.901 29.6333 171.861 30.5213C170.554 31.0853 169.181 31.484 167.781 31.7854C167.768 31.7854 167.768 31.7853 167.768 31.7867C167.768 31.7867 167.768 31.7866 167.768 31.788C167.594 31.8253 167.408 31.86 167.234 31.8947C166.941 31.9533 166.648 32.0066 166.354 32.0573C166.341 32.0586 166.341 32.06 166.328 32.0613C166.154 32.0947 165.994 32.1213 165.821 32.1507C165.754 32.16 165.701 32.1707 165.634 32.18C165.301 32.2333 164.968 32.2827 164.634 32.328C164.194 32.3867 163.768 32.44 163.341 32.4933C160.901 32.7973 158.448 33.0506 155.994 33.26C154.821 33.36 153.648 33.4493 152.474 33.5307C149.461 33.7373 146.434 33.8347 143.408 33.916Z" fill="#555658"/>
<path d="M143.407 33.916C140.394 33.8333 137.367 33.736 134.354 33.5294C133.101 33.444 131.861 33.348 130.621 33.2413C131.861 33.348 133.101 33.444 134.354 33.5294C137.367 33.736 140.394 33.8334 143.407 33.9147C146.434 33.8334 149.461 33.736 152.474 33.5294C153.647 33.448 154.821 33.3587 155.994 33.2587C154.821 33.3587 153.647 33.448 152.474 33.5294C149.461 33.736 146.434 33.8333 143.407 33.916ZM164.634 32.3267C164.967 32.2814 165.301 32.232 165.634 32.1787C165.301 32.232 164.967 32.2814 164.634 32.3267ZM122.181 32.3253C121.834 32.2773 121.474 32.2254 121.114 32.168C121.474 32.224 121.821 32.2773 122.181 32.3253ZM120.487 32.06C120.487 32.0587 120.474 32.0573 120.474 32.056C120.194 32.008 119.914 31.9573 119.634 31.9027C119.914 31.9573 120.194 32.008 120.474 32.056C120.474 32.0573 120.487 32.0587 120.487 32.06ZM166.327 32.06C166.341 32.0587 166.341 32.0573 166.354 32.056C166.647 32.0053 166.941 31.952 167.234 31.8934C166.941 31.952 166.647 32.0053 166.354 32.056C166.341 32.0573 166.341 32.0587 166.327 32.06ZM167.767 31.7867C167.767 31.7853 167.767 31.7854 167.767 31.7854C167.767 31.7854 167.767 31.7853 167.767 31.7867ZM167.781 31.784C169.181 31.4827 170.554 31.084 171.861 30.52C173.901 29.632 175.674 28.2894 176.701 26.4627C175.687 28.2907 173.901 29.6334 171.861 30.5214C170.554 31.0854 169.181 31.4827 167.781 31.784ZM118.954 31.7627C117.581 31.464 116.234 31.072 114.967 30.5214C113.914 30.0667 112.941 29.4934 112.101 28.796C112.941 29.492 113.914 30.0667 114.967 30.52C116.234 31.0707 117.581 31.464 118.954 31.7627Z" fill="#232221"/>
<path d="M124.661 15.5059C121.754 15.5059 121.101 12.2872 124.687 6.74186C125.554 5.40853 126.874 4.85254 128.221 4.85254C131.901 4.85254 135.714 9.03252 130.554 12.8979C128.181 14.6752 126.127 15.5059 124.661 15.5059Z" fill="#969696"/>
<path d="M158.194 15.5059C156.727 15.5059 154.674 14.6752 152.301 12.8979C147.141 9.03252 150.954 4.85254 154.634 4.85254C155.981 4.85254 157.301 5.40853 158.167 6.74186C161.754 12.2872 161.101 15.5059 158.194 15.5059Z" fill="#969696"/>
<path d="M64.487 65.3535C61.4017 65.3522 58.3231 65.2776 55.2511 65.1269C49.1924 64.8282 43.1151 64.3402 37.1684 63.3962C34.6471 62.9949 32.1497 62.5122 29.6857 61.9269C27.3911 61.3789 25.1071 60.7482 22.8804 59.9895C21.9471 59.6709 21.0231 59.3282 20.1137 58.9615C19.3364 58.6509 18.5737 58.3176 17.8217 57.9682C14.3603 56.3509 11.1538 54.3015 8.39642 51.6362C5.46842 48.7975 2.98838 44.4949 2.69238 40.1415C2.67372 39.8562 2.66309 39.5722 2.66309 39.2868C2.66175 36.0082 3.9644 32.7536 7.3084 30.1269C2.7444 48.0762 17.1057 56.2815 49.3537 61.8522C55.9657 62.9949 62.5284 63.4842 68.7977 63.4842C93.1137 63.4842 113.034 56.1336 114.434 51.0042C115.354 47.6189 111.914 43.6669 108.434 40.6762C108.78 40.7309 109.127 40.7842 109.474 40.8376C112.327 41.2829 115.194 41.7229 118.047 42.1615C118.034 42.8042 118.034 43.4482 118.034 44.0936C118.034 46.1776 118.1 48.2682 118.26 50.3562C118.26 50.3789 118.26 50.4016 118.26 50.4242C118.26 50.4402 118.26 50.4576 118.274 50.4736C118.38 51.9136 118.5 53.3655 118.674 54.8282C118.714 55.1949 118.754 55.5615 118.794 55.9282C118.807 56.0082 118.807 56.0882 118.82 56.1682C118.834 56.2856 118.847 56.4042 118.86 56.5189C118.874 56.5895 118.887 56.6602 118.887 56.7309C118.914 56.9602 118.954 57.1882 118.98 57.4189C116.22 58.2709 113.434 59.0789 110.62 59.7749C110.434 59.8189 110.26 59.8616 110.087 59.9042C108.994 60.1696 107.887 60.4256 106.794 60.6709C101.274 61.9069 95.7003 62.9015 90.1003 63.6495C87.5403 63.9909 84.9804 64.2802 82.4071 64.5176C76.4338 65.0736 70.4497 65.3535 64.487 65.3535Z" fill="#7A7B7C"/>
<path d="M64.4857 65.3535C61.4004 65.3535 58.3218 65.2789 55.2511 65.1282C49.1924 64.8282 43.1151 64.3402 37.1684 63.3962C43.1151 64.3402 49.1924 64.8282 55.2511 65.1269C58.3231 65.2776 61.4017 65.3522 64.487 65.3535H64.4857ZM90.1003 63.6495C95.7003 62.9015 101.274 61.9069 106.794 60.6709C101.274 61.9082 95.7003 62.9029 90.1003 63.6495ZM22.8804 59.9895C21.9471 59.6709 21.0231 59.3296 20.1137 58.9629C19.3351 58.6509 18.5737 58.3175 17.8217 57.9695C14.3617 56.3509 11.151 54.3029 8.39369 51.6376C5.46569 48.7989 2.98705 44.4949 2.69238 40.1415C2.98838 44.4949 5.46842 48.7975 8.39642 51.6362C11.1538 54.3015 14.3603 56.3509 17.8217 57.9682C18.5737 58.3176 19.3364 58.6509 20.1137 58.9615C21.0231 59.3282 21.9471 59.6709 22.8804 59.9895ZM110.62 59.7749C113.434 59.0789 116.22 58.2709 118.98 57.4189C118.954 57.1882 118.914 56.9602 118.887 56.7309C118.914 56.9602 118.954 57.1882 118.98 57.4202C116.22 58.2722 113.434 59.0815 110.62 59.7749ZM118.82 56.1682C118.807 56.0882 118.807 56.0082 118.794 55.9282C118.754 55.5615 118.714 55.1949 118.674 54.8282C118.714 55.1949 118.754 55.5616 118.794 55.9296C118.807 56.0082 118.807 56.0882 118.82 56.1682ZM118.274 50.4736C118.26 50.4576 118.26 50.4402 118.26 50.4242C118.26 50.4016 118.26 50.3789 118.26 50.3562C118.26 50.3789 118.26 50.4016 118.26 50.4242C118.26 50.4402 118.26 50.4562 118.274 50.4736ZM109.474 40.8376C109.127 40.7842 108.78 40.7309 108.434 40.6762V40.6749C108.78 40.7295 109.127 40.7842 109.474 40.8376Z" fill="#272525"/>
<path d="M222.341 65.3535C216.367 65.3535 210.394 65.0736 204.421 64.5176C201.794 64.2749 199.167 63.9789 196.554 63.6282C191.021 62.8842 185.514 61.8989 180.061 60.6789C178.954 60.4296 177.847 60.1722 176.741 59.9042C176.554 59.8602 176.367 59.8149 176.181 59.7695C173.367 59.0749 170.594 58.2695 167.834 57.4189C167.861 57.3069 167.874 57.1936 167.887 57.0816C167.914 56.8949 167.941 56.7082 167.954 56.5189C167.981 56.3909 167.994 56.2589 168.007 56.1282C168.007 56.0615 168.021 55.9949 168.021 55.9282C168.047 55.7229 168.074 55.5189 168.101 55.3135C168.287 53.6962 168.434 52.0882 168.554 50.4975C168.554 50.4735 168.554 50.4482 168.554 50.4242C168.554 50.4069 168.567 50.3896 168.567 50.3736C168.727 48.2789 168.794 46.1829 168.794 44.0936C168.794 43.4482 168.781 42.8042 168.767 42.1615C172.314 41.6162 175.861 41.0709 179.394 40.5216C175.861 43.5296 172.274 47.5616 173.221 51.0042C174.607 56.1322 194.541 63.4842 218.847 63.4842C225.127 63.4842 231.687 62.9949 238.301 61.8522C270.007 56.3735 284.421 48.3536 280.554 31.0242C283.127 33.4696 284.154 36.3562 284.154 39.2629C284.154 40.5002 283.981 41.7402 283.647 42.9522C283.647 42.9562 283.647 42.9589 283.647 42.9629C283.647 42.9722 283.634 42.9802 283.634 42.9882C283.634 42.9976 283.634 43.0069 283.634 43.0149C283.634 43.0189 283.634 43.0215 283.621 43.0255C282.714 46.3375 280.701 49.4295 278.421 51.6362C275.674 54.3015 272.461 56.3509 269.007 57.9682C268.247 58.3176 267.487 58.6509 266.714 58.9615C265.781 59.3335 264.847 59.6802 263.901 60.0029C261.687 60.7549 259.421 61.3816 257.141 61.9269C254.674 62.5122 252.181 62.9949 249.661 63.3962C243.714 64.3402 237.634 64.8282 231.567 65.1269C228.501 65.2776 225.421 65.3522 222.341 65.3535Z" fill="#7A7B7C"/>
<path d="M222.341 65.3535C225.421 65.3522 228.501 65.2776 231.567 65.1269C237.634 64.8282 243.714 64.3402 249.661 63.3962C243.714 64.3402 237.634 64.8282 231.567 65.1282C228.501 65.2775 225.421 65.3535 222.341 65.3535ZM196.554 63.6282C191.021 62.8855 185.514 61.9002 180.061 60.6789C185.514 61.8989 191.021 62.8842 196.554 63.6282ZM263.901 60.0029C264.847 59.6802 265.781 59.3335 266.714 58.9615C267.487 58.6509 268.247 58.3176 269.007 57.9682C272.461 56.3509 275.674 54.3015 278.421 51.6362C280.701 49.4295 282.714 46.3375 283.621 43.0255C282.714 46.3375 280.701 49.4309 278.434 51.6376C275.674 54.3029 272.461 56.3509 268.994 57.9695C268.247 58.3175 267.487 58.6509 266.714 58.9629C265.781 59.3349 264.847 59.6802 263.901 60.0029ZM176.181 59.7695C173.367 59.0775 170.594 58.2695 167.834 57.4202C167.861 57.3068 167.874 57.1936 167.887 57.0816C167.874 57.1936 167.861 57.3069 167.834 57.4189C170.594 58.2695 173.367 59.0749 176.181 59.7695ZM168.007 56.1282C168.007 56.0615 168.021 55.9949 168.021 55.9296C168.047 55.7242 168.074 55.5189 168.101 55.3135C168.074 55.5189 168.047 55.7229 168.021 55.9282C168.021 55.9949 168.007 56.0615 168.007 56.1282ZM168.554 50.4975C168.554 50.4735 168.554 50.4482 168.554 50.4242C168.554 50.4069 168.567 50.3896 168.567 50.3736C168.567 50.3896 168.554 50.4069 168.554 50.4242C168.554 50.4482 168.554 50.4735 168.554 50.4975ZM283.634 43.0149C283.634 43.0069 283.634 42.9976 283.634 42.9882C283.634 42.9976 283.634 43.0056 283.634 43.0149ZM283.647 42.9629C283.647 42.9589 283.647 42.9562 283.647 42.9522C283.647 42.9562 283.647 42.9589 283.647 42.9629Z" fill="#272525"/>
</svg>
