<svg width="272" height="213" viewBox="0 0 272 213" fill="none" xmlns="http://www.w3.org/2000/svg">
<path d="M264.908 130.313C263.785 131.167 262.523 131.873 261.161 132.487C253.805 135.767 243.512 135.82 236.335 135.513C232.209 135.34 228.141 134.927 224.117 134.3C228.588 124.233 233.112 114.047 237.025 103.727C237.211 103.233 237.396 102.753 237.573 102.26C238.26 100.433 238.923 98.6067 239.555 96.7667C242.923 97.8067 246.244 98.9933 249.491 100.353C259.684 104.62 275.004 114.34 268.632 126.073C267.72 127.753 266.445 129.153 264.908 130.313ZM248.216 140.233C238.967 143.833 228.931 145.86 218.763 146.313C219.667 144.313 220.563 142.313 221.453 140.3C222.157 138.7 222.869 137.087 223.583 135.487C227.8 136.167 232.072 136.62 236.411 136.82C243.084 137.127 251.059 137.207 257.908 135.3C255.008 137.38 251.556 138.927 248.216 140.233ZM216.464 146.393L216.463 146.407C216.184 147.033 215.907 147.647 215.621 148.26C212.565 154.98 209.424 161.661 206.192 168.313C204.751 171.283 203.287 174.248 201.791 177.197C201.629 177.536 201.461 177.865 201.292 178.195C201.012 178.753 200.728 179.355 200.433 179.984C199.217 182.615 197.804 185.628 195.24 187.068L195.172 187.111C194.819 187.301 194.468 187.451 194.105 187.556C191.868 188.221 189.589 187.227 188.313 185.237C187.085 183.323 187.281 180.901 187.641 178.843C188.363 174.689 189.696 170.571 190.872 166.507C192.788 159.86 194.931 153.247 197.292 146.7C197.471 146.193 197.659 145.673 197.855 145.153C199.64 140.273 201.533 135.433 203.541 130.647C203.689 130.273 203.847 129.913 204.003 129.54C204.517 128.313 205.039 127.1 205.568 125.887C208.404 119.38 211.505 113.007 214.789 106.713C218.845 105.047 222.811 103.247 226.677 101.3H226.685C227.509 100.887 228.319 100.473 229.136 100.047C231.656 98.7266 234.141 97.34 236.579 95.9C236.811 95.9667 237.044 96.0334 237.268 96.1C236.528 97.9 235.801 99.7133 235.091 101.54C234.889 102.033 234.695 102.54 234.5 103.047C231.363 111.047 228.332 119.1 224.972 126.993C223.988 129.327 222.989 131.633 221.981 133.94C221.813 134.34 221.647 134.727 221.464 135.127C219.831 138.9 218.159 142.647 216.464 146.393ZM206.983 187.771C214.759 194.485 224.991 196.955 234.005 201.833C236.805 203.348 240.375 206.34 236.904 209.176C233.999 211.551 229.427 209.949 226.279 208.712C221.359 206.772 216.705 204.308 212.299 201.549C206.239 197.767 201.227 193.411 196.636 188.581C198.073 187.629 199.311 186.283 200.211 184.873C200.78 183.989 201.317 183.088 201.84 182.171C203.359 184.292 205.177 186.209 206.983 187.771ZM176.349 139.473C175.796 139.26 175.243 139.047 174.7 138.807C175.285 138.313 175.849 137.78 176.383 137.247C178.344 135.287 179.983 133.127 181.237 131.06C182.685 128.647 183.723 126.113 184.369 123.5C190.012 125.887 195.728 128.087 201.539 129.993C199.411 134.873 197.42 139.807 195.577 144.78C188.997 143.62 182.52 141.847 176.349 139.473ZM173.027 137.753C172.8 137.78 172.581 137.807 172.364 137.833C171.928 137.887 171.501 137.927 171.075 137.953H171.067C170.357 138.02 169.659 138.06 168.961 138.1C163.081 138.38 157.188 138.02 151.347 137.14C149.664 136.007 147.952 134.927 146.224 133.86C139.151 129.527 131.708 125.687 123.969 122.393C119.316 120.407 114.585 118.567 109.748 116.98C105.359 115.553 101.009 114.273 96.3081 114.913C96.1054 114.94 95.9027 114.98 95.6987 115.007C94.9094 114.527 94.1214 114.033 93.3334 113.54C92.8521 112.847 92.3881 112.14 91.9721 111.433C90.0774 108.22 88.324 104.953 86.6627 101.647C84.8813 98.1 83.2241 94.5 81.6827 90.86C81.3854 90.18 81.096 89.4867 80.8147 88.7934L80.7947 88.74L80.9427 88.7C83.8574 87.9 86.5894 86.6067 88.9867 84.9267L88.996 84.9133C90.5493 83.8333 91.952 82.5933 93.168 81.2199C102.099 85.4999 111.188 89.5666 120.127 93.78C123.471 95.3533 126.817 96.9266 130.163 98.4866C129.576 98.7666 128.989 99.0467 128.411 99.3267C127.369 99.8334 126.328 100.34 125.295 100.86C124.911 101.273 124.555 101.7 124.229 102.167C123.859 102.673 123.533 103.207 123.245 103.767C121.067 108.047 121.685 113.46 126.344 116.34C128.763 117.833 131.789 118.46 134.585 119.073C137.741 119.753 140.935 120.3 144.149 120.713C145.584 120.9 147.028 121.06 148.467 121.193C149.891 121.327 151.363 121.46 152.859 121.58C157.692 121.14 162.525 120.553 167.335 119.793C169.395 119.473 171.457 119.127 173.505 118.753C176.704 120.207 179.921 121.633 183.159 123.007C182.46 125.567 181.372 128.06 179.907 130.393C178.005 133.42 175.644 135.7 173.027 137.753ZM156.248 148.047C155.768 148.207 155.161 148.22 154.523 148.14C153.844 148.06 153.128 147.873 152.477 147.687C151.951 147.527 151.464 147.353 151.069 147.233C148.791 146.487 146.515 145.7 144.252 144.873C143.881 144.74 143.512 144.607 143.144 144.46C131.263 140.06 119.639 134.7 108.375 129.34C105.236 127.847 102.119 126.313 99.0267 124.753C97.3693 123.94 95.3814 123.153 93.9747 121.98C91.8987 120.247 92.236 118.567 93.5867 117.353C93.9107 117.073 94.2894 116.807 94.7107 116.58C94.8721 116.487 95.048 116.407 95.2227 116.327C95.7587 116.087 96.344 115.887 96.932 115.767H96.94C97.6094 115.62 98.2787 115.553 98.9241 115.567C99.3854 115.58 99.8347 115.633 100.283 115.7C102.443 116.047 104.535 116.833 106.601 117.473C108.8 118.153 110.979 118.86 113.137 119.633C117.463 121.14 121.723 122.82 125.888 124.66C133.077 127.847 140.009 131.527 146.595 135.66C147.081 135.967 147.563 136.26 148.049 136.58C149.572 137.553 151.083 138.553 152.568 139.58C153.255 140.047 153.933 140.527 154.603 141.02C156.284 142.233 162.051 146.073 156.248 148.047ZM129.557 166.955C125.064 170.671 120.563 174.379 116.039 178.076C113.927 179.795 111.896 181.565 109.879 183.364C108.915 184.223 107.916 185.099 106.649 185.552C105.317 186.019 103.749 185.967 102.441 185.403C101.792 185.119 101.167 184.667 100.989 184.047C100.879 183.639 100.979 183.211 101.099 182.812C101.492 181.513 102.128 180.276 102.967 179.164C105.668 175.572 109.037 172.473 112.268 169.253C115.941 165.589 119.855 162.084 123.983 158.753C129.899 153.993 136.253 149.633 142.961 145.633C145.573 146.647 148.311 147.913 151.099 148.7C143.509 154.367 136.689 161.057 129.557 166.955ZM123.551 183.936C128.812 184.948 130.096 186.459 130.161 187.088C130.211 187.539 130.015 187.985 129.693 188.321C129.372 188.664 128.939 188.911 128.489 189.099C126.956 189.737 125.177 189.727 123.475 189.591C120.22 189.333 117.163 188.465 114.008 187.765C112.104 187.34 110.248 186.828 108.433 186.22C110.149 185.275 112.664 183.285 114.092 182.035C115.792 182.269 122.055 183.644 123.551 183.936ZM80.1827 87.2199C79.9121 87.2866 79.6347 87.3534 79.3587 87.3934C68.8694 89.54 56.7267 84.7267 55.0227 74.1667C54 67.8334 56.1427 61.5534 60.1307 56.3667C60.2827 56.5134 60.5321 56.5799 60.6747 56.3533C62.2907 53.6866 64.444 51.66 66.9094 50.2466C67.164 50.1 67.4254 49.9533 67.6867 49.8199L67.9467 49.6866C69.0054 49.1799 70.1 48.7667 71.232 48.4601C71.576 48.3667 71.92 48.2866 72.2627 48.22C72.4093 48.1799 72.5561 48.1534 72.7027 48.1267C79.6494 46.8334 87.4294 49.3933 92.3881 55.7133C95.3374 59.46 96.66 63.7667 96.5534 67.9934L96.54 68.2067C96.5427 68.42 96.528 68.6333 96.5067 68.8466C96.476 69.3933 96.4121 69.94 96.3241 70.5C95.9347 72.9534 95.064 75.3267 93.7507 77.5C93.368 78.1267 92.9547 78.7533 92.496 79.34C92.2013 79.7133 91.9 80.1001 91.576 80.4601C89.9454 82.3 87.9481 83.8999 85.6027 85.1533C85.0787 85.4466 84.5254 85.7133 83.9654 85.9533C82.7547 86.4866 81.4827 86.9133 80.1827 87.2199ZM64.5774 45.7533C59.8694 40.3533 54.7054 35.2866 49.1454 30.58C40.372 23.14 30.6427 16.6467 20.1013 11.3934C19.812 11.2601 19.516 11.1 19.2267 10.9667C18.992 11.0867 18.7481 11.1933 18.5054 11.3133C14.7134 13.06 10.4227 14.4467 6.32934 12.7667C2.84934 11.34 -0.218619 7.26001 2.13605 4.00667C3.68405 1.87334 7.00402 1.18001 9.71202 1.47334C15.1694 2.04668 20.2454 5.92664 24.5854 8.7133C28.5894 11.2866 32.4547 14.0333 36.2134 16.8866C48.3827 26.0999 59.032 36.5401 69.7281 46.9934C68.6534 47.2734 67.6174 47.6599 66.6574 48.1533C65.9574 47.34 65.2641 46.5399 64.5774 45.7533ZM98.0801 70.66C102.893 71.14 107.723 71.6067 112.465 72.4733L141.512 77.6199L141.225 77.5267C151.224 79.3667 161.225 81.1934 171.217 83.0334C170.765 83.1534 170.323 83.2733 169.871 83.4067C167.347 84.14 164.843 84.9 162.359 85.7133L159.147 86.7667C149.687 89.9534 140.485 93.6466 131.572 97.8199C128.44 96.3399 125.3 94.8734 122.168 93.3934C112.816 89.0067 103.516 84.4333 94.1054 80.0866C94.7014 79.2999 95.2467 78.5 95.7214 77.66C96.9734 75.4601 97.7547 73.0867 98.0801 70.66ZM212.484 107.647C208.687 114.593 205.192 121.713 202.015 128.913C196.117 127.007 190.323 124.78 184.616 122.393C184.227 122.233 183.836 122.06 183.445 121.9C180.751 120.767 178.075 119.593 175.419 118.38C178.341 117.82 181.253 117.193 184.148 116.513C184.491 116.447 184.835 116.353 185.169 116.273C188.548 115.46 191.888 114.567 195.203 113.593L197.572 112.887C202.639 111.34 207.619 109.593 212.484 107.647ZM177.972 82.6199C188.144 80.06 198.499 78.06 208.972 76.6199C212.979 76.0866 217 75.62 221.029 75.2334C226.469 74.7134 232.539 73.7399 237.913 75.2866C242.761 76.6866 246.915 80.7 245.288 85.4334C244.635 87.3267 243.307 88.9267 241.681 90.3267C240.772 91.1134 239.773 91.8333 238.748 92.5133C237.885 93.06 237.003 93.5933 236.163 94.0866H236.145C235.484 94.4733 234.815 94.86 234.147 95.2334C231.565 96.7 228.933 98.0866 226.253 99.4199C225.355 99.8599 224.456 100.3 223.551 100.74C221.136 101.887 218.677 102.993 216.201 104.047C215.457 104.367 214.709 104.673 213.959 104.98C208.38 107.287 202.664 109.34 196.861 111.153C196.087 111.393 195.304 111.633 194.523 111.873C192.941 112.353 191.355 112.807 189.761 113.247C188.209 113.687 186.652 114.087 185.095 114.487C184.784 114.567 184.464 114.647 184.153 114.713C180.404 115.647 176.617 116.473 172.8 117.207C172.165 117.327 171.531 117.447 170.897 117.553C164.953 118.633 158.939 119.46 152.885 120.047C146.781 119.713 140.701 118.9 134.729 117.647C131.492 116.967 127.988 116.26 125.613 114.007C122.981 111.527 122.747 108.087 123.901 105.02C124.465 103.54 125.339 102.247 126.419 101.113C127.969 100.38 129.528 99.6467 131.1 98.94C131.585 98.7133 132.069 98.4999 132.555 98.2866C141.723 94.2066 151.161 90.6066 160.819 87.5133C161.908 87.1666 162.997 86.8199 164.084 86.4866C167.452 85.4599 170.839 84.4866 174.251 83.58C175.489 83.26 176.727 82.9266 177.972 82.6199ZM266.329 108.86C259.843 102.033 249.765 98.0334 240.097 95.1934C240.321 94.5534 240.54 93.9 240.748 93.2466C245.345 89.94 249.532 85.06 246.655 79.6466C242.956 72.7 233.32 72.5667 226.065 73.1C208.652 74.4067 191.433 77.5267 174.789 82.0334C158.545 79.0334 142.296 76.0199 126.021 73.1533C116.781 71.5399 107.528 69.9666 98.26 68.4866L98.2654 68.1934C98.352 61.2334 94.8614 54.2066 88.3454 49.8866C84.0654 47.0466 78.136 45.7667 72.7654 46.3934C72.7813 46.2467 72.6214 46.0867 72.4054 46.1667C72.0241 46.3134 71.648 46.4734 71.2734 46.6334C71.1347 46.66 70.9961 46.6866 70.8574 46.7133C55.8481 30.7533 39.1387 15.2733 19.7334 3.95328C15.5427 1.51329 10.5694 -1.02005 5.49204 0.419952C2.1307 1.36662 -0.489278 3.99339 0.077389 7.32672C0.685389 10.8734 4.35068 13.7934 8.23201 14.3934C12.264 15.0334 16.1747 13.7667 19.4454 11.8067C30.3627 17.6067 40.58 24.4066 49.7094 32.3533C54.5894 36.5933 59.152 41.1267 63.348 45.9C64.1507 46.82 64.9187 47.74 65.6707 48.6733C64.8827 49.1267 64.1507 49.66 63.4907 50.2601C62.5601 51.1134 61.7667 52.0866 61.1334 53.2199C56.7934 57.3933 53.8494 62.6866 53.1054 68.5533C51.8321 78.5666 58.2693 87.2467 69.6627 89.2733C73.12 89.9 76.6161 89.74 79.9187 88.9667L80.0241 89.2733C80.2881 89.98 80.552 90.6866 80.8254 91.38C82.14 94.8066 83.5867 98.18 85.1814 101.527C86.768 104.873 88.4974 108.153 90.3254 111.393C90.392 111.513 90.468 111.633 90.5347 111.767C91.088 112.767 91.6187 113.847 92.1734 114.913C92.3827 115.287 92.5894 115.687 92.8067 116.06C91.2694 116.993 90.3867 118.46 91.1241 120.487C91.7107 122.1 93.3334 123.193 94.8734 124.073C98.5547 126.193 102.54 127.98 106.393 129.833C114.431 133.713 122.603 137.367 130.884 140.807C134.509 142.313 138.16 143.767 141.833 145.193C133.067 150.127 124.96 155.78 117.627 162.1C112.967 166.117 108.64 170.401 104.66 174.884C102.389 177.443 98.012 181.517 99.8174 185.139C101.087 187.68 104.143 187.84 106.713 186.973C110.239 188.419 113.957 189.459 117.885 190.081C121.177 190.597 128.511 191.896 130.995 189.189C135.155 184.668 123.212 182.373 114.716 181.304C117.805 178.771 120.896 176.224 123.977 173.683C129.829 168.851 135.657 164.011 141.463 159.153C145.384 155.887 149.635 152.687 153.393 149.207C156.755 149.753 161.144 148.727 160.144 144.887C159.601 142.82 157.311 141.313 155.569 140.047L155.384 139.913C160.089 140.433 164.823 140.58 169.528 140.313C169.825 140.3 170.113 140.287 170.411 140.26C171.351 140.193 172.311 140.1 173.265 139.98C173.783 139.9 174.293 139.833 174.813 139.74H174.821C181.28 142.66 188.077 144.833 195.029 146.26C191.905 154.753 189.187 163.357 186.863 171.997C185.484 177.124 182.733 184.292 188.212 188.461C190.709 190.363 193.263 190.301 195.468 189.243C200.359 195.123 206.597 200.387 213.059 204.456C219.085 208.256 233.716 217.439 239.777 209.733C245.903 201.951 228.308 196.907 223.248 194.684C217.049 191.957 210.845 188.812 206.305 184.037C205 182.667 203.957 181.28 203.12 179.859V179.851C205.835 174.697 208.08 169.219 210.541 164.045C213.051 158.78 215.507 153.513 217.901 148.22C228.375 147.887 238.763 145.86 248.512 142.113C253.196 140.313 258.408 137.46 262.063 133.833H262.071H262.08L262.088 133.82C263.819 133.047 265.424 132.087 266.851 130.913C274.099 124.98 272.368 115.233 266.329 108.86Z" fill="#646262"/>
<path d="M64.5778 45.7533C65.2645 46.54 65.9578 47.34 66.6591 48.1533C67.6178 47.66 68.6538 47.2734 69.7285 46.9934C59.0325 36.5401 48.3832 26.1 36.2138 16.8867C32.4552 14.0333 28.5898 11.2867 24.5858 8.71335C20.2472 5.92668 15.1698 2.04671 9.71246 1.47337C7.00446 1.18004 3.68448 1.87337 2.13648 4.00671C-0.218186 7.26004 2.84977 11.3401 6.32977 12.7667C10.4231 14.4467 14.7138 13.06 18.5058 11.3133C18.7485 11.1933 18.9924 11.0867 19.2271 10.9667C19.5164 11.1001 19.8124 11.2601 20.1018 11.3934C30.6431 16.6468 40.3725 23.14 49.1458 30.58C54.7058 35.2867 59.8698 40.3533 64.5778 45.7533Z" fill="#A5A3A4"/>
<path d="M129.694 188.322C129.372 188.664 128.939 188.911 128.49 189.099C126.956 189.738 125.178 189.727 123.475 189.591C120.22 189.334 117.163 188.466 114.008 187.766C113.478 187.649 112.955 187.526 112.434 187.395C111.08 187.046 109.747 186.656 108.434 186.22C110.15 185.275 112.664 183.286 114.092 182.035C114.722 182.119 115.99 182.368 117.398 182.651C119.791 183.14 122.611 183.75 123.551 183.936C128.812 184.948 130.096 186.459 130.162 187.088C130.211 187.539 130.015 187.986 129.694 188.322Z" fill="#A5A3A4"/>
<path d="M236.904 209.176C233.998 211.551 229.426 209.95 226.278 208.712C221.358 206.772 216.705 204.309 212.298 201.55C207.154 198.342 202.762 194.714 198.75 190.735C198.03 190.032 197.329 189.311 196.636 188.582C198.073 187.63 199.31 186.283 200.21 184.874C200.78 183.99 201.317 183.089 201.84 182.171C203.282 184.186 204.997 186.014 206.712 187.531L206.982 187.771C214.758 194.486 224.99 196.955 234.005 201.834C236.805 203.348 240.374 206.34 236.904 209.176Z" fill="#A5A3A4"/>
<path d="M151.099 148.701C143.509 154.367 136.689 161.058 129.557 166.955C125.064 170.671 120.563 174.379 116.039 178.077C113.927 179.795 111.896 181.566 109.879 183.365C108.915 184.223 107.916 185.099 106.649 185.553C105.317 186.019 103.749 185.967 102.441 185.403C101.792 185.119 101.167 184.667 100.989 184.047C100.943 183.879 100.937 183.702 100.945 183.534C100.961 183.294 101.027 183.046 101.099 182.813C101.492 181.514 102.128 180.277 102.967 179.165C105.668 175.573 109.037 172.474 112.268 169.254C115.941 165.59 119.855 162.085 123.983 158.754C129.899 153.994 136.253 149.634 142.961 145.634C143.531 145.847 144.105 146.087 144.68 146.327C146.765 147.181 148.917 148.087 151.099 148.701Z" fill="#A5A3A4"/>
<path d="M257.908 135.3C255.008 137.38 251.556 138.927 248.216 140.234C240.92 143.087 233.125 144.94 225.167 145.82C223.043 146.06 220.903 146.22 218.763 146.313C219.667 144.313 220.563 142.314 221.453 140.3C222.157 138.7 222.869 137.087 223.583 135.487C226.833 136.02 230.115 136.407 233.427 136.647C234.417 136.727 235.409 136.78 236.411 136.82C243.084 137.127 251.059 137.207 257.908 135.3Z" fill="#A5A3A4"/>
<path d="M268.632 126.073C267.72 127.753 266.445 129.153 264.908 130.313C263.785 131.166 262.522 131.873 261.161 132.486C253.805 135.766 243.512 135.82 236.335 135.513C236.096 135.5 235.865 135.5 235.628 135.473C231.744 135.287 227.913 134.887 224.117 134.3C228.588 124.233 233.112 114.047 237.025 103.727C237.21 103.233 237.396 102.753 237.573 102.26C238.26 100.433 238.922 98.6065 239.554 96.7665C242.922 97.8065 246.244 98.9931 249.49 100.353C250.74 100.873 252.058 101.473 253.404 102.153C263.105 107.033 274.229 115.78 268.632 126.073Z" fill="#B5B3B4"/>
<path d="M237.268 96.1C236.528 97.9 235.802 99.7133 235.091 101.54C234.89 102.033 234.695 102.54 234.5 103.047C233.93 104.513 233.359 105.98 232.787 107.447C230.244 113.993 227.716 120.54 224.972 126.993C223.988 129.327 222.99 131.633 221.982 133.94C221.814 134.34 221.647 134.727 221.464 135.127C219.831 138.9 218.159 142.647 216.464 146.393L216.463 146.407C216.184 147.033 215.907 147.647 215.622 148.26C212.566 154.98 209.424 161.661 206.192 168.313C204.751 171.283 203.287 174.248 201.791 177.197C201.63 177.536 201.462 177.865 201.292 178.195C201.012 178.753 200.728 179.355 200.434 179.984C199.218 182.615 197.804 185.628 195.24 187.068L195.172 187.111C194.819 187.301 194.468 187.451 194.106 187.556C191.868 188.221 189.59 187.227 188.314 185.237C187.086 183.323 187.282 180.901 187.642 178.843C188.363 174.689 189.696 170.571 190.872 166.507C192.186 161.955 193.602 157.42 195.134 152.913C195.83 150.833 196.55 148.767 197.292 146.7C197.471 146.193 197.659 145.673 197.855 145.153C199.64 140.273 201.534 135.433 203.542 130.647C203.69 130.273 203.847 129.913 204.003 129.54C204.518 128.313 205.039 127.1 205.568 125.887C208.404 119.38 211.506 113.007 214.79 106.713C218.846 105.047 222.811 103.247 226.678 101.3H226.686C227.51 100.887 228.319 100.473 229.136 100.047C231.656 98.7266 234.142 97.34 236.579 95.9C236.811 95.9667 237.044 96.0334 237.268 96.1Z" fill="#A5A3A4"/>
<path d="M201.539 129.994C201.072 131.06 200.621 132.127 200.171 133.194C198.547 137.02 197.016 140.887 195.578 144.78C189.656 143.74 183.809 142.194 178.204 140.167C177.579 139.94 176.964 139.714 176.35 139.474C175.796 139.26 175.243 139.047 174.7 138.807C175.286 138.314 175.85 137.78 176.383 137.247C178.344 135.287 179.983 133.127 181.237 131.06C182.685 128.647 183.723 126.114 184.37 123.5C190.012 125.887 195.728 128.087 201.539 129.994Z" fill="#A5A3A4"/>
<path d="M185.17 116.274C184.835 116.354 184.491 116.447 184.148 116.514C181.254 117.194 178.342 117.821 175.419 118.381C178.075 119.594 180.751 120.767 183.446 121.901C183.836 122.061 184.227 122.234 184.616 122.394C190.323 124.781 196.118 127.007 202.015 128.914C205.192 121.714 208.687 114.594 212.484 107.647C207.619 109.594 202.639 111.341 197.572 112.887L195.203 113.594C191.888 114.567 188.548 115.461 185.17 116.274Z" fill="#B5B3B4"/>
<path d="M245.288 85.4336C244.634 87.3269 243.306 88.927 241.681 90.327C240.772 91.1136 239.773 91.8335 238.748 92.5135C237.885 93.0602 237.002 93.5935 236.162 94.0869H236.145C235.484 94.4735 234.814 94.8603 234.146 95.2336C231.565 96.7003 228.933 98.0869 226.253 99.4202C225.354 99.8602 224.456 100.3 223.55 100.74C221.136 101.887 218.677 102.994 216.201 104.047C215.457 104.367 214.709 104.674 213.958 104.98C208.38 107.287 202.664 109.34 196.861 111.154C196.086 111.394 195.304 111.634 194.522 111.874C192.941 112.354 191.354 112.807 189.761 113.247C188.209 113.687 186.652 114.087 185.094 114.487C184.784 114.567 184.464 114.647 184.153 114.714C180.404 115.647 176.617 116.474 172.8 117.207C172.165 117.327 171.53 117.447 170.897 117.554C164.953 118.634 158.938 119.46 152.885 120.047C146.781 119.714 140.701 118.9 134.729 117.647C131.492 116.967 127.988 116.26 125.613 114.007C124.278 112.754 123.561 111.247 123.328 109.674C123.1 108.14 123.333 106.54 123.901 105.02C124.465 103.54 125.338 102.247 126.418 101.114C127.969 100.38 129.528 99.6469 131.1 98.9402C131.585 98.7136 132.069 98.5002 132.554 98.2868C141.722 94.2069 151.161 90.6069 160.818 87.5135C161.908 87.1669 162.997 86.8202 164.084 86.4869C167.452 85.4602 170.838 84.4869 174.25 83.5802C175.489 83.2602 176.726 82.9268 177.972 82.6202C188.144 80.0602 198.498 78.0602 208.972 76.6202C212.978 76.0869 217 75.6203 221.029 75.2336C226.469 74.7136 232.538 73.7402 237.913 75.2868C240.552 76.0469 242.982 77.5802 244.385 79.5802C245.573 81.2602 246.033 83.2736 245.288 85.4336Z" fill="#A5A3A4"/>
<path d="M183.159 123.007C182.46 125.567 181.372 128.06 179.907 130.394C178.006 133.42 175.644 135.7 173.027 137.753C172.8 137.78 172.582 137.807 172.364 137.834C171.928 137.887 171.502 137.927 171.075 137.953H171.067C170.358 138.02 169.659 138.06 168.962 138.1C163.082 138.38 157.188 138.02 151.347 137.14C150.904 136.847 150.471 136.554 150.028 136.26C148.771 135.447 147.503 134.647 146.224 133.86C139.151 129.527 131.708 125.687 123.97 122.394C119.316 120.407 114.586 118.567 109.748 116.98C105.359 115.553 101.01 114.273 96.3083 114.913C96.1056 114.94 95.9029 114.98 95.6989 115.007C94.9096 114.527 94.1216 114.034 93.3336 113.54C92.8523 112.847 92.3883 112.14 91.9723 111.434C90.0776 108.22 88.3242 104.953 86.6629 101.647C84.8816 98.1001 83.2243 94.5002 81.6829 90.8602C81.3856 90.1802 81.0962 89.4869 80.8149 88.7936L80.7949 88.7402L80.9429 88.7002C83.0776 88.1135 85.119 87.2602 86.991 86.1936C87.6776 85.8069 88.3429 85.3802 88.9869 84.9269L88.9962 84.9135C90.5496 83.8335 91.9522 82.5934 93.1682 81.2201C102.099 85.5001 111.188 89.5668 120.127 93.7801C123.471 95.3535 126.818 96.9268 130.163 98.4868C129.576 98.7668 128.99 99.0469 128.411 99.3269C127.37 99.8336 126.328 100.34 125.295 100.86C124.92 101.26 124.572 101.687 124.256 102.127L124.23 102.167C123.859 102.674 123.534 103.207 123.246 103.767C121.067 108.047 121.686 113.46 126.344 116.34C128.763 117.833 131.79 118.46 134.586 119.073C137.742 119.753 140.935 120.3 144.15 120.713C145.584 120.9 147.028 121.06 148.467 121.194C149.891 121.327 151.363 121.46 152.859 121.58C157.692 121.14 162.526 120.554 167.335 119.794C167.48 119.767 167.635 119.753 167.782 119.713C169.695 119.433 171.603 119.1 173.506 118.753C176.704 120.207 179.922 121.633 183.159 123.007Z" fill="#A5A3A4"/>
<path d="M122.168 93.3937C125.3 94.8737 128.44 96.3403 131.572 97.8203C140.485 93.647 149.687 89.9537 159.147 86.7671L162.359 85.7137C164.843 84.9003 167.347 84.1404 169.871 83.407C170.323 83.2737 170.765 83.1537 171.217 83.0337C161.225 81.1937 151.224 79.3671 141.225 77.5271L141.512 77.6203L112.465 72.4737C107.723 71.607 102.893 71.1404 98.0801 70.6604C97.7548 73.0871 96.9735 75.4604 95.7215 77.6604C95.2468 78.5004 94.7015 79.3003 94.1055 80.087C103.516 84.4336 112.816 89.0071 122.168 93.3937Z" fill="#B5B3B4"/>
<path d="M156.248 148.047C155.768 148.207 155.162 148.221 154.523 148.141C153.844 148.061 153.129 147.874 152.478 147.687C151.951 147.527 151.465 147.354 151.07 147.234C148.791 146.487 146.515 145.701 144.253 144.874C143.882 144.741 143.513 144.607 143.145 144.461C131.263 140.061 119.639 134.701 108.375 129.341C105.237 127.847 102.119 126.314 99.0271 124.754C97.3698 123.941 95.3818 123.154 93.9752 121.981C91.8992 120.247 92.2365 118.567 93.5872 117.354L93.7271 117.234C94.0151 116.994 94.3485 116.767 94.7112 116.581C94.8725 116.487 95.0485 116.407 95.2232 116.327C95.7592 116.087 96.3445 115.887 96.9325 115.767H96.9405C97.6098 115.621 98.2792 115.554 98.9245 115.567C99.3859 115.581 99.8352 115.634 100.283 115.701C102.443 116.047 104.535 116.834 106.602 117.474C108.8 118.154 110.979 118.861 113.138 119.634C117.463 121.141 121.723 122.821 125.889 124.661C133.078 127.847 140.01 131.527 146.595 135.661C147.082 135.967 147.563 136.261 148.05 136.581C149.573 137.554 151.083 138.554 152.568 139.581C153.255 140.047 153.934 140.527 154.603 141.021C156.285 142.234 162.051 146.074 156.248 148.047Z" fill="#A5A3A4"/>
<path d="M96.3246 70.5001C95.9352 72.9534 95.0645 75.3267 93.7512 77.5001C93.3685 78.1267 92.9552 78.7534 92.4965 79.34C92.2018 79.7134 91.9005 80.1001 91.5765 80.4601C89.9459 82.3001 87.9485 83.9 85.6032 85.1533C85.0792 85.4466 84.5258 85.7133 83.9658 85.9533C82.7552 86.4866 81.4832 86.9133 80.1832 87.22C80.0272 87.26 79.8645 87.3001 79.7005 87.3268L79.3592 87.3934C68.8699 89.5401 56.7272 84.7267 55.0232 74.1667C54.0005 67.8334 56.1432 61.5534 60.1312 56.3667C60.2832 56.5134 60.5326 56.58 60.6752 56.3533C61.4592 55.06 62.3632 53.94 63.3739 52.94C64.4472 51.8734 65.6379 50.98 66.9099 50.2467C67.1645 50.1 67.4259 49.9533 67.6872 49.82L67.9472 49.6867C69.0059 49.18 70.1005 48.7668 71.2325 48.4601C71.5765 48.3668 71.9205 48.2867 72.2632 48.22C72.4098 48.18 72.5565 48.1534 72.7032 48.1268C79.6499 46.8334 87.4299 49.3933 92.3886 55.7133C95.3379 59.46 96.6605 63.7668 96.5539 67.9934L96.5405 68.2067C96.5432 68.42 96.5285 68.6333 96.5072 68.8467C96.4765 69.3933 96.4126 69.9401 96.3246 70.5001Z" fill="#A5A3A4"/>
<path d="M125.5 105.834H240.113V77.1288H125.5V105.834Z" fill="#AAA9A8"/>
<path d="M188.969 184.918C188.916 184.918 188.873 184.887 188.844 184.827C187.306 181.605 211.088 114.647 218.43 110.434C218.762 110.221 219.036 110.114 219.254 110.114C222.182 110.114 215.288 128.807 207.324 147.514C199.358 166.215 190.324 184.918 188.969 184.918Z" fill="#AAA9A8"/>
<path d="M150.935 146.62C145.727 146.62 88.8924 121.38 92.7577 119.22C93.0884 119.047 93.563 118.953 94.1657 118.953C104.692 118.953 154.068 145.54 151.194 146.58C151.131 146.607 151.044 146.62 150.935 146.62Z" fill="#AAA9A8"/>
<path d="M104.956 179.349C104.75 179.349 104.608 179.286 104.54 179.157C103.039 176.283 137.136 147.834 143.271 147.834C143.518 147.834 143.719 147.874 143.871 147.967C146.026 149.314 109.506 179.353 104.956 179.349Z" fill="#AAA9A8"/>
<path d="M100.18 112.554C99.2318 112.554 98.1731 112.34 96.9571 111.86C92.0945 109.954 80.9185 93.7538 85.6211 89.7271C85.8425 89.5405 86.1478 89.4471 86.5224 89.4471C91.5811 89.4471 109.401 105.567 106.886 108.38C104.862 110.66 103.025 112.554 100.18 112.554Z" fill="#AAA9A8"/>
<path d="M68.3023 84.3271C67.929 84.3271 67.5063 84.2471 67.0343 84.0738C57.7876 80.7804 56.681 60.4204 62.465 58.1404C62.5356 58.1138 62.609 58.1005 62.685 58.1005C64.3624 58.1005 67.4597 64.6471 69.2904 71.2071C71.121 77.7671 71.6877 84.3271 68.3023 84.3271Z" fill="#AAA9A8"/>
<path d="M150.348 86.1006C141.928 86.1006 99.0663 74.9805 98.929 73.8472C98.9196 73.7672 99.1823 73.7273 99.681 73.7273C106.692 73.7273 160.476 81.1006 160.566 82.6606C160.665 84.3139 151.452 85.9805 151.452 85.9805C151.209 86.0605 150.836 86.1006 150.348 86.1006Z" fill="#B9B8B7"/>
<path d="M152.885 120.047C146.781 119.714 140.701 118.9 134.729 117.647C131.492 116.967 127.988 116.26 125.613 114.007C124.5 112.967 123.816 111.74 123.484 110.447C123.483 110.447 123.483 110.434 123.481 110.434C123.417 110.18 123.367 109.927 123.328 109.674C123.709 110.407 124.264 111.074 124.927 111.634C126.449 112.914 128.441 113.66 130.417 114.26C136.239 116.007 142.256 116.7 148.325 116.7C157.393 116.7 166.579 115.167 175.413 113.38C194.856 109.434 214.239 104.194 230.937 94.6868C235.019 92.3668 238.996 89.727 241.649 86.127C243.083 84.1936 244.079 81.9135 244.385 79.5802C245.179 80.7002 245.648 81.9669 245.649 83.3402C245.651 84.0202 245.536 84.7136 245.288 85.4336C244.635 87.3269 243.307 88.927 241.681 90.327C240.772 91.1136 239.773 91.8335 238.748 92.5135C237.885 93.0602 237.003 93.5935 236.163 94.0868H236.146C235.484 94.4735 234.815 94.8603 234.147 95.2336C231.565 96.7003 228.933 98.0868 226.253 99.4202C225.355 99.8602 224.456 100.3 223.551 100.74C221.136 101.887 218.677 102.994 216.201 104.047C215.457 104.367 214.709 104.674 213.959 104.98C208.38 107.287 202.664 109.34 196.861 111.154C196.087 111.394 195.304 111.634 194.523 111.874C192.941 112.354 191.355 112.807 189.761 113.247C188.209 113.687 186.652 114.087 185.095 114.487C184.784 114.567 184.464 114.647 184.153 114.714C180.404 115.647 176.617 116.474 172.8 117.207C172.165 117.327 171.531 117.447 170.897 117.554C164.953 118.634 158.939 119.46 152.885 120.047Z" fill="#727475"/>
<path d="M195.134 152.914C195.83 150.834 196.55 148.767 197.292 146.701C197.471 146.194 197.659 145.674 197.855 145.154C199.64 140.274 201.534 135.434 203.542 130.647C203.69 130.274 203.847 129.914 204.003 129.541C204.518 128.314 205.039 127.101 205.568 125.887C208.404 119.381 211.506 113.007 214.79 106.714C218.846 105.047 222.811 103.247 226.678 101.301H226.686C227.51 100.887 228.319 100.474 229.136 100.047C231.656 98.7274 234.142 97.3408 236.579 95.9008C236.811 95.9675 237.044 96.0341 237.268 96.1008C236.528 97.9008 235.802 99.7141 235.091 101.541C234.89 102.034 234.695 102.541 234.5 103.047C233.93 104.514 233.359 105.981 232.787 107.447C232.084 106.354 231.003 105.434 229.714 104.914C228.687 104.514 227.594 104.327 226.494 104.327C224.231 104.327 221.939 105.101 220.13 106.314C217.442 108.127 215.627 110.767 214.02 113.407C210.51 119.154 207.679 125.234 204.856 131.287C201.523 138.461 198.174 145.634 195.134 152.914Z" fill="#727475"/>
<path d="M218.763 146.313C219.667 144.313 220.563 142.314 221.453 140.3C222.157 138.7 222.869 137.087 223.583 135.487C226.833 136.02 230.115 136.407 233.427 136.647C229.172 138.153 225.893 141.767 225.167 145.82C223.043 146.06 220.903 146.22 218.763 146.313Z" fill="#727475"/>
<path d="M235.628 135.474C231.744 135.287 227.913 134.887 224.117 134.3C228.588 124.234 233.112 114.047 237.025 103.727C237.21 103.234 237.396 102.754 237.573 102.26C238.26 100.434 238.922 98.607 239.554 96.767C242.922 97.807 246.244 98.9936 249.49 100.354C250.74 100.874 252.058 101.474 253.404 102.154C249.536 102.354 245.713 103.62 242.581 105.62C237.361 108.954 233.883 114.087 231.74 119.487C230.555 122.474 229.728 125.674 230.377 128.82C230.937 131.567 232.846 134.247 235.628 135.474Z" fill="#818283"/>
<path d="M198.75 190.735C198.502 190.494 198.257 190.25 198.014 190.005C197.63 189.618 197.25 189.226 196.873 188.831C196.817 188.771 196.76 188.713 196.704 188.653C196.681 188.63 196.658 188.606 196.636 188.582C198.073 187.63 199.31 186.283 200.21 184.874C200.78 183.99 201.317 183.089 201.84 182.171C203.282 184.186 204.997 186.014 206.712 187.531C206.665 187.531 206.618 187.531 206.572 187.531C204.69 187.531 202.84 187.881 201.224 188.683C200.224 189.178 199.309 189.865 198.75 190.735Z" fill="#727475"/>
<path d="M178.204 140.167C178.067 140.114 177.931 140.06 177.796 140.02C177.311 139.847 176.83 139.66 176.35 139.474C175.796 139.26 175.243 139.047 174.7 138.807C175.286 138.314 175.85 137.78 176.383 137.247C178.344 135.287 179.983 133.127 181.237 131.06C182.685 128.647 183.723 126.114 184.37 123.5C190.012 125.887 195.728 128.087 201.539 129.994C201.072 131.06 200.621 132.127 200.171 133.194C199.601 132.66 198.954 132.194 198.25 131.82C196.534 130.9 194.558 130.474 192.574 130.474C190.879 130.474 189.179 130.794 187.631 131.367C184.274 132.62 181.598 135.007 179.676 137.754C179.135 138.527 178.647 139.34 178.204 140.167Z" fill="#727475"/>
<path d="M124.257 102.127C121.494 101.114 118.771 100.02 116.125 98.7936C109.934 95.9136 104.167 92.3135 97.8885 89.5802C94.4312 88.0869 90.7419 86.8336 86.9912 86.1936C87.6779 85.807 88.3432 85.3803 88.9872 84.927L88.9965 84.9135C90.5498 83.8335 91.9525 82.5935 93.1685 81.2202C102.099 85.5002 111.188 89.5669 120.127 93.7802C123.471 95.3535 126.818 96.9268 130.163 98.4868C129.576 98.7668 128.99 99.047 128.411 99.327C127.37 99.8336 126.329 100.34 125.295 100.86C124.921 101.26 124.573 101.687 124.257 102.127Z" fill="#727475"/>
<path d="M165.018 138.193C160.45 138.193 155.883 137.82 151.347 137.14C150.927 136.86 150.515 136.58 150.095 136.313C150.074 136.287 150.051 136.287 150.028 136.26C152.244 136.54 154.456 136.713 156.646 136.713C159.871 136.713 163.046 136.353 166.11 135.42C168.9 134.58 171.683 133.113 172.812 130.687C173.84 128.5 173.275 125.873 171.89 123.78C170.844 122.193 169.38 120.887 167.782 119.713C169.695 119.433 171.603 119.1 173.506 118.753C176.704 120.207 179.922 121.633 183.159 123.007C182.46 125.567 181.372 128.06 179.907 130.393C178.006 133.42 175.644 135.7 173.027 137.753C172.8 137.78 172.582 137.807 172.364 137.833C171.928 137.887 171.502 137.927 171.075 137.953H171.067C170.358 138.02 169.659 138.06 168.962 138.1C167.647 138.167 166.332 138.193 165.018 138.193Z" fill="#727475"/>
<path d="M79.6997 87.3271C85.4624 83.3005 90.5051 76.047 90.0158 67.287C89.5678 59.287 83.117 50.8204 72.7677 50.8204C69.917 50.8204 66.7717 51.4738 63.373 52.9404C64.4464 51.8738 65.637 50.9804 66.909 50.2471C67.1637 50.1004 67.4251 49.9537 67.6864 49.8204L67.9464 49.687C69.0051 49.1804 70.0997 48.7672 71.2317 48.4605C71.5757 48.3671 71.9197 48.287 72.2624 48.2204C72.409 48.1804 72.5557 48.1538 72.7024 48.1272C73.8691 47.9138 75.0597 47.8071 76.2557 47.8071C82.1837 47.8071 88.2624 50.4471 92.3878 55.7137C95.2224 59.3137 96.5544 63.4338 96.5584 67.5005C96.5597 67.6605 96.5571 67.8205 96.5531 67.9938L96.5397 68.2071C96.5397 68.2204 96.5397 68.2337 96.5397 68.2471C96.541 68.4471 96.5264 68.6471 96.5064 68.8471C96.4757 69.3937 96.4118 69.9405 96.3238 70.5005C95.9344 72.9538 95.0637 75.3271 93.7504 77.5005C93.3677 78.1271 92.9544 78.7538 92.4957 79.3404C92.201 79.7138 91.8997 80.1005 91.5757 80.4605C89.945 82.3005 87.9477 83.9004 85.6024 85.1537C85.0784 85.447 84.525 85.7137 83.965 85.9537C82.7544 86.487 81.4824 86.9137 80.1824 87.2204C80.1664 87.2204 80.1504 87.2205 80.1344 87.2338C79.993 87.2738 79.8464 87.3005 79.6997 87.3271Z" fill="#727475"/>
<path d="M156.248 148.047C156.248 148.047 155.235 143.46 138.485 132.807C122.981 122.94 102.504 117.22 94.3919 117.22C94.1599 117.22 93.9372 117.234 93.7266 117.234C94.0146 116.994 94.3479 116.767 94.7106 116.58C94.8719 116.487 95.0479 116.407 95.2226 116.327C95.7586 116.087 96.3439 115.887 96.9319 115.767H96.9399C97.5292 115.634 98.1199 115.567 98.6946 115.567C98.7706 115.567 98.8466 115.567 98.924 115.567C99.3853 115.58 99.8346 115.634 100.283 115.7C102.443 116.047 104.535 116.834 106.601 117.474C108.8 118.154 110.979 118.86 113.137 119.634C117.463 121.14 121.723 122.82 125.888 124.66C133.077 127.847 140.009 131.527 146.595 135.66C147.081 135.967 147.563 136.26 148.049 136.58C149.572 137.554 151.083 138.554 152.568 139.58C153.255 140.047 153.933 140.527 154.603 141.02C155.745 141.847 158.775 143.887 158.777 145.727C158.779 146.594 158.107 147.42 156.248 148.047Z" fill="#727475"/>
<path d="M104.745 185.868C103.954 185.868 103.158 185.712 102.441 185.403C101.792 185.119 101.166 184.667 100.989 184.047C100.954 183.921 100.942 183.79 100.942 183.662C100.942 183.618 100.944 183.575 100.945 183.534C101.602 183.855 102.268 184.004 102.954 184.004C107.764 184.004 113.573 176.619 124.445 169.129C136.3 160.955 144.638 150.767 144.68 146.327C146.765 147.18 148.917 148.087 151.098 148.7C143.509 154.367 136.689 161.058 129.557 166.955C125.064 170.671 120.562 174.379 116.038 178.076C113.926 179.795 111.896 181.565 109.878 183.364C108.914 184.223 107.916 185.099 106.649 185.552C106.048 185.763 105.397 185.868 104.745 185.868Z" fill="#727475"/>
<path d="M112.434 187.395C111.08 187.045 109.747 186.656 108.434 186.22C110.15 185.274 112.664 183.285 114.092 182.035C114.722 182.119 115.99 182.368 117.398 182.651C115.48 183.229 113.724 184.333 112.875 185.953C112.638 186.402 112.492 186.891 112.434 187.395Z" fill="#727475"/>
</svg>
