<svg width="284" height="169" viewBox="0 0 284 169" fill="none" xmlns="http://www.w3.org/2000/svg">
<path d="M68.3621 49.565C67.0501 48.5784 65.7813 47.5557 64.4256 46.5863C64.2955 46.4997 64.1647 46.4063 64.034 46.309C63.4949 45.9383 62.7761 45.6824 62.074 45.601C60.9906 45.4757 59.9673 45.7584 59.7168 46.6677C59.5803 47.1797 59.8037 47.8663 59.9069 48.3943C60.196 49.8863 60.7236 51.3223 61.4584 52.717C61.5569 52.9023 61.6548 53.0863 61.7636 53.2663C65.6017 60.001 74.1387 65.6037 82.5553 70.541C83.5787 67.9997 84.7333 65.4836 85.996 63.0063C82.9747 60.6983 80.0345 58.3357 77.024 56.065C74.1329 53.8984 71.2474 51.737 68.3621 49.565Z" fill="#838182"/>
<path d="M42.0937 30.1399C41.391 30.5746 41.1843 31.2666 41.1734 31.8813C41.1463 33.0746 42.1426 34.2066 43.0354 35.2626C44.941 37.4893 47.0041 39.6719 49.1494 41.8119C52.3562 45.0079 55.8025 48.1279 59.4775 51.1279C58.6879 49.3746 58.0838 47.4199 58.6879 45.8253C59.0311 44.8986 59.989 44.3866 61.1921 44.3986C57.8333 39.716 55.0297 34.8 48.6973 31.3266C48.3598 31.136 48.001 30.9506 47.6358 30.7653C47.4781 30.6893 47.3093 30.6079 47.1349 30.5199C45.6541 29.8133 43.8082 29.0772 42.0937 30.1399Z" fill="#838182"/>
<path d="M37.8799 11.7656C38.1084 13.8989 38.386 16.0388 38.7127 18.1735C39.3122 22.0602 40.0523 25.9482 40.9944 29.8242C41.4079 29.5296 41.9794 29.2842 42.7418 29.1055C44.1356 28.7842 45.5944 29.1162 46.9392 29.6656C46.5584 27.9842 46.1772 26.3069 45.7851 24.6135C44.8704 20.6829 44.3966 16.5722 42.6002 12.7068C42.2027 11.8468 41.571 10.1922 40.4876 9.53353C40.2371 8.9722 39.6928 8.87353 38.8762 9.22819C37.7928 9.09219 37.4116 9.30952 37.7168 9.89219C37.4715 10.3935 37.8256 11.2149 37.8799 11.7656Z" fill="#838182"/>
<path d="M21.4049 90.975C22.1565 89.9457 23.4904 89.3523 24.9221 88.987C23.2669 87.9803 21.6117 86.9737 19.9461 85.9657C16.0585 83.6244 12.3456 80.8923 7.86998 79.1003C6.87945 78.6977 5.06118 77.859 3.72731 77.995C3.09038 77.7283 2.61118 77.9683 2.30598 78.6977C1.40225 79.215 1.30438 79.591 2.00705 79.8417C2.23558 80.347 3.17211 80.7443 3.66171 81.115C5.57265 82.547 7.52731 83.935 9.50905 85.307C13.1294 87.8003 16.8481 90.2124 20.7132 92.499C20.7737 92.0524 20.9913 91.547 21.4049 90.975Z" fill="#838182"/>
<path d="M21.7753 92.106C21.6228 92.8247 22.0362 93.4394 22.5321 93.9034C23.4905 94.7847 25.14 95.0407 26.6586 95.2967C29.866 95.8353 33.1592 96.2434 36.4748 96.5767C41.4296 97.0767 46.4982 97.3767 51.6373 97.458C49.6228 96.6353 47.5868 95.558 46.7212 94.05C46.2092 93.1727 46.4925 92.2527 47.38 91.578C41.0914 90.086 35.0269 88.0993 27.5624 89.1887C27.1597 89.2473 26.7462 89.3127 26.3378 89.39C26.1524 89.422 25.9618 89.4607 25.766 89.498C24.1056 89.83 22.1566 90.3527 21.7753 92.106Z" fill="#838182"/>
<path d="M51.0176 91.3486C50.3206 91.3819 49.5858 91.6046 49.0081 91.9486C48.1097 92.4713 47.5982 93.2713 48.1586 94.0713C48.4801 94.5286 49.2045 94.8993 49.7108 95.2259C51.1425 96.1459 52.7108 96.8966 54.3821 97.4899C54.605 97.5673 54.8285 97.6486 55.0572 97.7192C61.2853 99.7552 68.9129 99.8152 76.6332 99.2059C76.6384 96.4566 76.8181 93.7126 77.1556 90.9846C74.2534 90.9899 71.3577 90.9793 68.4774 91.0286C64.5957 91.11 60.7138 91.1753 56.8373 91.2459C55.0733 91.2726 53.3144 91.2566 51.5348 91.3273C51.3602 91.3273 51.1858 91.3379 51.0176 91.3486Z" fill="#838182"/>
<path d="M78.984 116.829C69.2715 119.323 59.2486 122.416 53.1783 127.75C53.009 127.902 52.846 128.045 52.6824 128.197C51.4684 129.329 50.434 130.56 49.6012 131.905C49.307 132.379 48.8387 132.972 48.7788 133.5C48.6756 134.42 49.5464 134.964 50.6246 135.123C51.3215 135.225 52.1002 135.172 52.7475 134.953C52.9111 134.899 53.0688 134.845 53.2272 134.791C54.8767 134.224 56.4611 133.581 58.0726 132.988C61.622 131.676 65.172 130.364 68.7267 129.057C72.9794 127.484 77.1876 125.764 81.4887 124.168C80.634 122.067 79.8882 119.933 79.2564 117.777C79.1636 117.461 79.0767 117.145 78.984 116.829Z" fill="#838182"/>
<path d="M47.4892 134.022C47.5111 132.357 48.8064 130.658 50.2111 129.198C45.6001 131.088 41.1627 133.162 36.9272 135.362C34.0908 136.842 31.3193 138.378 28.6845 140C27.4376 140.773 26.0767 141.59 25.6517 142.722C25.4397 143.321 25.3741 144.024 25.8803 144.622C27.1163 146.076 29.1417 145.858 30.8132 145.57C31.0147 145.537 31.2053 145.5 31.3845 145.466C31.7985 145.39 32.2069 145.302 32.5985 145.216C39.9105 143.556 44.4023 139.614 49.3403 136.032C48.1912 135.732 47.4673 134.997 47.4892 134.022Z" fill="#838182"/>
<path d="M26.1144 145.771C25.4556 145.411 24.9982 145.025 24.7149 144.638C22.3795 148.079 20.229 151.586 18.2149 155.119C17.1149 157.062 16.0529 159.017 15.0409 160.987C14.7848 161.499 14.142 162.197 14.1857 162.73C13.6796 163.203 13.9624 163.514 15.0409 163.666C15.6884 164.211 16.2441 164.254 16.6848 163.791C17.9644 163.449 19.1837 162.033 19.8753 161.319C23.0222 158.118 24.9982 154.335 27.3342 150.829C28.3357 149.331 29.3212 147.829 30.3066 146.326C28.8253 146.506 27.3176 146.441 26.1144 145.771Z" fill="#838182"/>
<path d="M267.969 160.987C266.955 159.017 265.894 157.062 264.794 155.119C262.779 151.586 260.63 148.079 258.294 144.638C258.01 145.025 257.554 145.411 256.894 145.771C255.691 146.441 254.183 146.506 252.702 146.326C253.687 147.829 254.674 149.331 255.675 150.829C258.01 154.335 259.987 158.118 263.134 161.319C263.825 162.033 265.045 163.449 266.323 163.791C266.765 164.254 267.321 164.211 267.969 163.666C269.046 163.514 269.329 163.203 268.823 162.73C268.867 162.197 268.225 161.499 267.969 160.987Z" fill="#838182"/>
<path d="M257.129 144.622C257.635 144.024 257.57 143.321 257.358 142.722C256.933 141.59 255.571 140.773 254.325 140C251.69 138.378 248.918 136.842 246.082 135.362C241.846 133.162 237.41 131.088 232.798 129.198C234.203 130.658 235.498 132.357 235.521 134.022C235.542 134.997 234.818 135.732 233.669 136.032C238.607 139.614 243.099 143.556 250.41 145.216C250.802 145.302 251.21 145.39 251.625 145.466C251.803 145.5 251.995 145.537 252.197 145.57C253.867 145.858 255.893 146.076 257.129 144.622Z" fill="#838182"/>
<path d="M280.702 78.6977C280.398 77.9683 279.919 77.7283 279.282 77.995C277.947 77.859 276.128 78.6977 275.138 79.1003C270.663 80.8923 266.95 83.6244 263.063 85.9657C261.396 86.9737 259.742 87.9803 258.087 88.987C259.518 89.3523 260.852 89.9457 261.603 90.975C262.018 91.547 262.235 92.0524 262.295 92.499C266.16 90.2124 269.879 87.8003 273.499 85.307C275.482 83.935 277.436 82.547 279.347 81.115C279.836 80.7443 280.774 80.347 281.002 79.8417C281.704 79.591 281.606 79.215 280.702 78.6977Z" fill="#838182"/>
<path d="M236.287 94.05C235.422 95.558 233.386 96.6353 231.371 97.458C236.511 97.3767 241.579 97.0767 246.534 96.5767C249.85 96.2434 253.143 95.8353 256.35 95.2967C257.868 95.0407 259.518 94.7847 260.476 93.9034C260.972 93.4394 261.386 92.8247 261.234 92.106C260.852 90.3527 258.903 89.83 257.243 89.498C257.047 89.4607 256.856 89.422 256.671 89.39C256.263 89.3127 255.85 89.2473 255.446 89.1887C247.982 88.0993 241.916 90.086 235.628 91.578C236.516 92.2527 236.799 93.1727 236.287 94.05Z" fill="#838182"/>
<path d="M234.85 94.0713C235.411 93.2713 234.899 92.4713 234 91.9486C233.423 91.6046 232.688 91.3819 231.992 91.3486C231.823 91.3379 231.648 91.3273 231.475 91.3273C229.695 91.2566 227.936 91.2726 226.172 91.2459C222.295 91.1753 218.414 91.11 214.532 91.0286C211.652 90.9793 208.755 90.9899 205.854 90.9846C206.191 93.7126 206.371 96.4566 206.376 99.2059C214.096 99.8152 221.724 99.7552 227.952 97.7192C228.18 97.6486 228.404 97.5673 228.627 97.4899C230.299 96.8966 231.867 96.1459 233.299 95.2259C233.804 94.8993 234.528 94.5286 234.85 94.0713Z" fill="#838182"/>
<path d="M234.23 133.5C234.17 132.972 233.702 132.379 233.407 131.905C232.575 130.56 231.541 129.329 230.326 128.197C230.163 128.045 229.999 127.902 229.83 127.75C223.761 122.416 213.738 119.323 204.025 116.829C203.933 117.145 203.845 117.461 203.753 117.777C203.121 119.933 202.375 122.067 201.521 124.168C205.821 125.764 210.03 127.484 214.282 129.057C217.837 130.364 221.387 131.676 224.937 132.988C226.547 133.581 228.133 134.224 229.782 134.791C229.939 134.845 230.098 134.899 230.261 134.953C230.909 135.172 231.687 135.225 232.385 135.123C233.462 134.964 234.333 134.42 234.23 133.5Z" fill="#838182"/>
<path d="M240.267 29.1055C241.029 29.2842 241.601 29.5296 242.015 29.8242C242.956 25.9482 243.697 22.0602 244.296 18.1735C244.623 16.0388 244.9 13.8989 245.129 11.7656C245.183 11.2149 245.537 10.3935 245.292 9.89219C245.597 9.30952 245.216 9.09219 244.132 9.22819C243.316 8.87353 242.772 8.9722 242.521 9.53353C241.437 10.1922 240.805 11.8468 240.408 12.7068C238.612 16.5722 238.137 20.6829 237.224 24.6135C236.832 26.3069 236.451 27.9842 236.069 29.6656C237.415 29.1162 238.873 28.7842 240.267 29.1055Z" fill="#838182"/>
<path d="M224.32 45.8253C224.926 47.4199 224.32 49.3746 223.531 51.1279C227.206 48.1279 230.652 45.0079 233.859 41.8119C236.004 39.6719 238.068 37.4893 239.974 35.2626C240.866 34.2066 241.863 33.0746 241.835 31.8813C241.824 31.2666 241.618 30.5746 240.915 30.1399C239.2 29.0772 237.355 29.8133 235.874 30.5199C235.699 30.6079 235.531 30.6893 235.372 30.7653C235.008 30.9506 234.648 31.136 234.311 31.3266C227.979 34.8 225.175 39.716 221.816 44.3986C223.019 44.3866 223.978 44.8986 224.32 45.8253Z" fill="#838182"/>
<path d="M221.245 53.2663C221.354 53.0863 221.451 52.9023 221.55 52.717C222.285 51.3223 222.813 49.8863 223.102 48.3943C223.205 47.8663 223.429 47.1797 223.293 46.6677C223.042 45.7584 222.018 45.4757 220.934 45.601C220.233 45.6824 219.514 45.9383 218.974 46.309C218.845 46.4063 218.714 46.4997 218.583 46.5863C217.227 47.5557 215.958 48.5784 214.647 49.565C211.761 51.737 208.875 53.8984 205.985 56.065C202.974 58.3357 200.034 60.6983 197.013 63.0063C198.275 65.4836 199.429 67.9997 200.453 70.541C208.87 65.6037 217.407 60.001 221.245 53.2663Z" fill="#838182"/>
<path d="M133.134 1.64883C129.823 3.65283 127.021 6.2488 124.902 9.1888C123.601 11.0021 122.643 12.8701 121.951 14.7861C125.555 14.0021 129.192 13.5502 132.839 13.3382C131.827 9.53282 131.963 5.45416 133.134 1.64883Z" fill="#838182"/>
<path d="M150.17 13.3382C153.816 13.5502 157.454 14.0021 161.052 14.7861C160.36 12.8701 159.403 11.0021 158.107 9.1888C155.988 6.2488 153.186 3.65283 149.875 1.64883C150.518 3.7395 150.85 5.91145 150.85 8.07279C150.85 9.85279 150.626 11.6222 150.17 13.3382Z" fill="#838182"/>
<path d="M188.519 43.9731C188.399 45.2584 188.132 46.5212 187.719 47.7518L187.675 47.8878C187.588 48.1438 187.489 48.4051 187.385 48.6611C185.791 52.6785 182.623 56.2398 177.94 58.8198C168.369 64.0905 155.739 65.5878 144.539 66.0878C143.527 66.1318 142.513 66.1638 141.507 66.1758C140.5 66.1638 139.487 66.1318 138.469 66.0878C127.269 65.5878 114.639 64.0905 105.068 58.8198C100.385 56.2398 97.2173 52.6785 95.6213 48.6611C95.5186 48.4051 95.42 48.1438 95.3333 47.8878L95.2893 47.7518C94.876 46.5212 94.6093 45.2584 94.4893 43.9731C94.2066 41.0718 94.6533 38.0612 95.84 35.0878C95.9213 34.8918 96.0026 34.7011 96.0906 34.5051C96.4933 33.5638 96.972 32.6545 97.516 31.7838C100.555 26.8505 105.531 22.9958 111.307 20.2518C113.747 19.0878 116.332 18.1238 118.973 17.3558C119.272 17.2691 119.577 17.1878 119.876 17.1051C120.361 16.9691 120.845 16.8492 121.336 16.7292C125.244 15.7665 129.252 15.1625 133.303 14.8238C133.868 14.7758 134.435 14.7318 135.001 14.6985C137.163 14.5572 139.335 14.4865 141.507 14.4705C143.679 14.4865 145.845 14.5572 148.007 14.6985C148.573 14.7318 149.14 14.7758 149.707 14.8238C153.756 15.1625 157.764 15.7665 161.667 16.7292H161.672C162.163 16.8492 162.647 16.9691 163.132 17.1051C163.431 17.1878 163.731 17.2691 164.029 17.3558H164.035C171.156 19.4185 177.869 22.9371 182.476 27.8638C183.619 29.0825 184.625 30.3838 185.487 31.7771L185.492 31.7838C186.036 32.6545 186.515 33.5638 186.917 34.5051C187.005 34.7011 187.087 34.8918 187.168 35.0878C188.355 38.0612 188.801 41.0718 188.519 43.9731Z" fill="#838182"/>
<path d="M187.897 52.9077V52.9678C187.897 63.7411 185.143 73.8198 179.503 82.1264C175.991 87.2984 171.357 91.7798 165.571 95.3131C158.612 99.5598 150.321 101.901 141.507 102.581C132.692 101.901 124.395 99.5598 117.437 95.3131C111.345 91.5944 106.527 86.8197 102.956 81.2891C97.6854 73.1491 95.1094 63.3824 95.1094 52.9678V52.9077C96.0787 54.3931 97.2934 55.7877 98.752 57.0611C101.937 59.8384 105.836 61.8691 110.071 63.3824C112.707 64.3238 115.472 65.0704 118.276 65.6637C122.375 66.5397 126.552 67.1011 130.536 67.5251C134.124 67.9064 137.8 68.1624 141.507 68.2611C145.215 68.1624 148.884 67.9064 152.472 67.5251C156.392 67.1117 160.503 66.557 164.536 65.7064C167.411 65.1024 170.241 64.3464 172.943 63.3824C177.179 61.8691 181.076 59.8384 184.256 57.0611C185.715 55.7877 186.929 54.3931 187.897 52.9077Z" fill="#838182"/>
<path d="M203.731 98.9775C203.731 99.1469 203.724 99.3148 203.719 99.4842C203.588 104.983 202.82 110.471 201.395 115.823L201.307 116.15C200.653 118.544 199.871 120.919 198.944 123.248C198.824 123.554 198.699 123.864 198.569 124.175C196.281 129.716 193.216 135.024 189.34 139.924C186.537 143.474 183.313 146.811 179.649 149.876C169.267 158.571 155.744 164.234 141.507 166.27C127.264 164.234 113.741 158.571 103.359 149.876C99.2867 146.468 95.752 142.728 92.7413 138.732C89.3013 134.164 86.5467 129.27 84.4387 124.175C84.3093 123.864 84.1827 123.554 84.064 123.248C83.1387 120.919 82.3537 118.544 81.7007 116.15L81.6136 115.823C80.1871 110.471 79.4193 104.983 79.2892 99.4842C79.2835 99.3148 79.2783 99.1469 79.2783 98.9775C79.2345 96.3042 79.3381 93.6309 79.5939 90.9695C79.6209 90.6642 79.6537 90.3535 79.6917 90.0442C79.91 87.9695 80.2199 85.9055 80.6225 83.8642C81.4288 79.7695 82.534 75.7309 83.9213 71.7562L84.0413 71.4135C84.9453 68.8602 85.964 66.3388 87.096 63.8455C87.2427 63.5188 87.3893 63.1975 87.5427 62.8762C89.3773 58.9455 91.484 55.1015 93.8467 51.3722C93.8253 51.8895 93.8093 52.4069 93.7987 52.9242C93.5973 61.3522 94.8053 69.5015 98.2627 76.8895C99.504 79.5362 101.001 82.0455 102.737 84.3975C108.857 92.7109 117.889 99.0482 128.527 102.44C132.235 103.616 136.133 104.439 140.179 104.868C140.619 104.912 141.06 104.955 141.507 104.988C141.948 104.955 142.389 104.912 142.829 104.868C146.875 104.439 150.772 103.616 154.48 102.44C165.103 99.0535 174.124 92.7335 180.244 84.4362C181.991 82.0735 183.499 79.5522 184.745 76.8895C188.203 69.5015 189.412 61.3522 189.209 52.9242C189.199 52.4069 189.183 51.8895 189.161 51.3722C191.524 55.1015 193.631 58.9455 195.465 62.8762C195.617 63.1975 195.765 63.5188 195.912 63.8455C197.044 66.3388 198.063 68.8602 198.967 71.4135L199.085 71.7562C200.475 75.7309 201.58 79.7695 202.385 83.8642C202.788 85.9055 203.099 87.9695 203.316 90.0442C203.355 90.3535 203.387 90.6642 203.415 90.9695C203.671 93.6309 203.773 96.3042 203.731 98.9775Z" fill="#9A9899"/>
<path d="M281.002 79.8411C280.772 80.3464 279.836 80.7437 279.347 81.1144C277.435 82.5464 275.48 83.9344 273.499 85.3064C269.879 87.7997 266.16 90.2118 262.295 92.4984C262.235 92.0518 262.018 91.5451 261.604 90.9744C260.852 89.9451 259.518 89.3517 258.087 88.9864C259.742 87.9797 261.396 86.9731 263.063 85.9651C266.95 83.6238 270.663 80.8917 275.138 79.0997C276.13 78.6971 277.947 77.8584 279.282 77.9944C279.918 77.7277 280.398 77.9677 280.702 78.6971C281.606 79.2144 281.704 79.5904 281.002 79.8411ZM260.476 93.9038C259.518 94.7851 257.868 95.0411 256.35 95.2971C253.143 95.8357 249.848 96.2438 246.534 96.5771C241.579 97.0771 236.511 97.3771 231.371 97.4584C233.386 96.6357 235.422 95.5584 236.287 94.0504C236.799 93.1731 236.516 92.2544 235.628 91.5784C241.918 90.0864 247.982 88.0997 255.446 89.1891C255.85 89.2477 256.263 89.3131 256.671 89.3904C256.856 89.4224 257.047 89.4598 257.243 89.4984C258.903 89.8304 260.852 90.3531 261.234 92.1064C261.386 92.8251 260.972 93.4398 260.476 93.9038ZM228.627 97.4904C228.404 97.5678 228.18 97.6491 227.952 97.7197C221.723 99.7557 214.096 99.8157 206.376 99.2064C206.371 96.4571 206.191 93.7131 205.854 90.9851C208.755 90.9904 211.651 90.9798 214.532 91.0291C218.414 91.1104 222.295 91.1758 226.171 91.2464C227.935 91.2731 229.695 91.2571 231.475 91.3277C231.648 91.3277 231.823 91.3384 231.992 91.3504C232.688 91.3824 233.423 91.6051 234 91.9491C234.899 92.4718 235.411 93.2718 234.85 94.0717C234.528 94.5291 233.804 94.8998 233.299 95.2264C231.867 96.1464 230.299 96.8971 228.627 97.4904ZM229.83 127.75C229.999 127.902 230.163 128.044 230.326 128.197C231.54 129.329 232.575 130.56 233.407 131.904C233.702 132.378 234.17 132.972 234.23 133.5C234.332 134.42 233.462 134.964 232.384 135.122C231.687 135.225 230.908 135.172 230.26 134.953C230.098 134.898 229.939 134.844 229.782 134.79C228.132 134.224 226.547 133.581 224.936 132.988C221.387 131.676 217.836 130.364 214.282 129.057C210.03 127.484 205.82 125.764 201.52 124.168C202.375 122.066 203.12 119.933 203.752 117.777C203.844 117.461 203.932 117.145 204.024 116.829C213.738 119.322 223.76 122.416 229.83 127.75ZM246.082 135.362C248.918 136.842 251.69 138.378 254.324 140C255.571 140.773 256.932 141.59 257.358 142.722C257.57 143.321 257.635 144.024 257.128 144.622C255.892 146.076 253.867 145.858 252.196 145.569C251.994 145.537 251.803 145.5 251.624 145.466C251.211 145.39 250.802 145.302 250.41 145.216C243.098 143.556 238.607 139.613 233.668 136.032C234.818 135.732 235.542 134.997 235.52 134.022C235.498 132.357 234.203 130.658 232.798 129.198C237.408 131.088 241.846 133.162 246.082 135.362ZM258.294 144.64C260.63 148.08 262.78 151.586 264.794 155.12C265.894 157.062 266.955 159.017 267.968 160.988C268.224 161.5 268.867 162.197 268.823 162.73C269.328 163.204 269.046 163.514 267.968 163.666C267.32 164.21 266.764 164.254 266.324 163.792C265.044 163.449 263.824 162.033 263.134 161.32C259.986 158.12 258.011 154.336 255.675 150.829C254.674 149.332 253.687 147.829 252.702 146.326C254.183 146.506 255.691 146.441 256.894 145.772C257.554 145.412 258.011 145.025 258.294 144.64ZM201.307 116.149C200.654 118.544 199.871 120.918 198.944 123.248C198.824 123.553 198.699 123.864 198.57 124.174C194.622 133.734 188.372 142.581 179.65 149.876C169.267 158.57 155.744 164.233 141.507 166.269C127.264 164.233 113.742 158.57 103.359 149.876C94.6364 142.581 88.3871 133.734 84.4391 124.174C84.3097 123.864 84.1831 123.553 84.0644 123.248C83.1391 120.918 82.3541 118.544 81.7011 116.149L81.614 115.822C80.1875 110.47 79.4197 104.982 79.2896 99.4837C79.2839 99.3144 79.2787 99.1464 79.2787 98.9771C79.2349 96.3038 79.3385 93.6304 79.5943 90.9691C79.6213 90.6637 79.6541 90.3531 79.6921 90.0438C79.9104 87.9691 80.2203 85.9051 80.6229 83.8637C81.4292 79.7691 82.5344 75.7304 83.9217 71.7557L84.0417 71.4131C84.9457 68.8598 85.9644 66.3384 87.0964 63.8451C87.2431 63.5184 87.3897 63.1971 87.5431 62.8757C89.3777 58.9451 91.4844 55.1011 93.8471 51.3717C93.8257 51.8891 93.8097 52.4064 93.7991 52.9238C93.5977 61.3518 94.8057 69.5011 98.2631 76.8891C103.882 88.8944 114.879 98.0891 128.527 102.44C132.235 103.616 136.134 104.438 140.179 104.868C140.619 104.912 141.06 104.954 141.507 104.988C141.948 104.954 142.39 104.912 142.83 104.868C146.875 104.438 150.772 103.616 154.48 102.44C168.13 98.0891 179.127 88.8944 184.746 76.8891C188.203 69.5011 189.412 61.3518 189.21 52.9238C189.199 52.4064 189.183 51.8891 189.162 51.3717C191.524 55.1011 193.631 58.9451 195.466 62.8757C195.618 63.1971 195.766 63.5184 195.912 63.8451C197.044 66.3384 198.063 68.8598 198.967 71.4131L199.086 71.7557C200.475 75.7304 201.58 79.7691 202.386 83.8637C202.788 85.9051 203.099 87.9691 203.316 90.0438C203.355 90.3531 203.387 90.6637 203.415 90.9691C203.671 93.6304 203.774 96.3038 203.731 98.9771C203.731 99.1464 203.724 99.3144 203.719 99.4837C203.588 104.982 202.82 110.47 201.395 115.822L201.307 116.149ZM68.7276 129.057C65.1724 130.364 61.6224 131.676 58.0729 132.988C56.4609 133.581 54.8771 134.224 53.2271 134.79C53.0692 134.844 52.9115 134.898 52.7479 134.953C52.1005 135.172 51.3219 135.225 50.6249 135.122C49.5468 134.964 48.6755 134.42 48.7792 133.5C48.8391 132.972 49.3073 132.378 49.6016 131.904C50.4344 130.56 51.4688 129.329 52.6828 128.197C52.8464 128.044 53.0093 127.902 53.1781 127.75C59.2489 122.416 69.2719 119.322 78.9844 116.829C79.0771 117.145 79.164 117.461 79.2568 117.777C79.888 119.933 80.6344 122.066 81.4891 124.168C77.1875 125.764 72.9797 127.484 68.7276 129.057ZM32.5989 145.216C32.2068 145.302 31.7984 145.39 31.3849 145.466C31.2052 145.5 31.014 145.537 30.8131 145.569C29.1416 145.858 27.1161 146.076 25.8801 144.622C25.374 144.024 25.4396 143.321 25.6516 142.722C26.076 141.59 27.4375 140.773 28.6844 140C31.3192 138.378 34.0907 136.842 36.9271 135.362C41.1631 133.162 45.5995 131.088 50.2109 129.198C48.8063 130.658 47.5109 132.357 47.4891 134.022C47.4672 134.997 48.1911 135.732 49.3401 136.032C44.4021 139.613 39.9104 143.556 32.5989 145.216ZM27.3339 150.829C24.9984 154.336 23.0224 158.12 19.8754 161.32C19.1844 162.033 17.9645 163.449 16.6849 163.792C16.2443 164.254 15.6885 164.21 15.0411 163.666C13.9625 163.514 13.6797 163.204 14.1859 162.73C14.1427 162.197 14.7849 161.5 15.0411 160.988C16.0531 159.017 17.1151 157.062 18.2145 155.12C20.2292 151.586 22.3797 148.08 24.715 144.64C24.9984 145.025 25.4557 145.412 26.1145 145.772C27.3177 146.441 28.8255 146.506 30.3063 146.326C29.3208 147.829 28.3359 149.332 27.3339 150.829ZM61.764 53.2664C61.6552 53.0864 61.5573 52.9024 61.4588 52.7171C60.724 51.3224 60.1964 49.8864 59.9073 48.3944C59.8041 47.8664 59.5807 47.1798 59.7172 46.6678C59.9677 45.7584 60.9911 45.4758 62.0744 45.6011C62.7765 45.6824 63.4953 45.9384 64.0344 46.3091C64.1651 46.4064 64.2959 46.4997 64.426 46.5864C65.7817 47.5557 67.0505 48.5784 68.3625 49.5651C71.2479 51.7371 74.1333 53.8984 77.0244 56.0651C80.0349 58.3358 82.9751 60.6984 85.9964 63.0064C84.7337 65.4837 83.5791 67.9998 82.5557 70.5411C74.1391 65.6038 65.6021 60.0011 61.764 53.2664ZM49.1495 41.8117C47.0041 39.6731 44.9411 37.4891 43.0354 35.2624C42.1427 34.2064 41.1464 33.0744 41.1735 31.8811C41.1844 31.2664 41.3916 30.5744 42.0937 30.1397C43.8083 29.0771 45.6541 29.8118 47.1355 30.5211C47.3093 30.6078 47.4781 30.6891 47.6358 30.7651C48.001 30.9504 48.3599 31.1358 48.6979 31.3264C55.0297 34.7998 57.8333 39.7157 61.1921 44.3971C59.9891 44.3864 59.0312 44.8984 58.688 45.8238C58.0839 47.4198 58.688 49.3744 59.4776 51.1277C55.8025 48.1277 52.3563 45.0077 49.1495 41.8117ZM38.7125 18.173C38.3859 16.0384 38.1083 13.8985 37.8797 11.7651C37.8255 11.2144 37.4713 10.3931 37.7167 9.89174C37.4115 9.30908 37.7927 9.09175 38.876 9.22774C39.6921 8.87308 40.2369 8.97179 40.488 9.53178C41.5708 10.1918 42.2025 11.8464 42.6 12.7064C44.3964 16.5717 44.8703 20.6824 45.7849 24.6131C46.1765 26.3064 46.5583 27.9825 46.9391 29.6651C45.5943 29.1158 44.1355 28.7838 42.7416 29.1051C41.9792 29.2838 41.4073 29.5291 40.9943 29.8238C40.0521 25.9464 39.312 22.0597 38.7125 18.173ZM187.898 52.9078V52.9678C187.898 70.4544 180.635 86.1131 165.571 95.3131C158.612 99.5598 150.322 101.901 141.507 102.581C132.692 101.901 124.395 99.5598 117.438 95.3131C102.374 86.1131 95.1097 70.4544 95.1097 52.9678V52.9078C96.0791 54.3931 97.2937 55.7877 98.7524 57.0611C101.938 59.8384 105.836 61.8691 110.071 63.3824C116.55 65.7011 123.823 66.8117 130.536 67.5251C134.124 67.9064 137.8 68.1624 141.507 68.2611C145.215 68.1624 148.884 67.9064 152.472 67.5251C159.184 66.8117 166.459 65.7011 172.943 63.3824C177.179 61.8691 181.076 59.8384 184.256 57.0611C185.715 55.7877 186.93 54.3931 187.898 52.9078ZM95.8404 35.0878C95.9217 34.8918 96.0031 34.7011 96.0911 34.5051C96.4937 33.5638 96.9724 32.6544 97.5164 31.7837C101.84 24.7664 110.088 19.9317 118.974 17.3557C119.272 17.2691 119.578 17.1878 119.876 17.1051C120.362 16.9691 120.846 16.8491 121.336 16.7291C125.244 15.7664 129.252 15.1624 133.303 14.8238C133.868 14.7758 134.435 14.7318 135.002 14.6984C137.163 14.5571 139.335 14.4865 141.507 14.4705C143.679 14.4865 145.846 14.5571 148.007 14.6984C148.574 14.7318 149.14 14.7758 149.707 14.8238C153.756 15.1624 157.764 15.7664 161.667 16.7291H161.672C162.163 16.8491 162.647 16.9691 163.132 17.1051C163.431 17.1878 163.731 17.2691 164.03 17.3557H164.035C172.922 19.9317 181.163 24.7664 185.487 31.7771L185.492 31.7837C186.036 32.6544 186.515 33.5638 186.918 34.5051C187.006 34.7011 187.087 34.8918 187.168 35.0878C188.355 38.0611 188.802 41.0717 188.519 43.9731C188.399 45.2584 188.132 46.5211 187.719 47.7518L187.675 47.8878C187.588 48.1438 187.49 48.4051 187.386 48.6611C185.791 52.6784 182.623 56.2397 177.94 58.8197C168.37 64.0904 155.739 65.5878 144.539 66.0878C143.527 66.1318 142.514 66.1637 141.507 66.1757C140.5 66.1637 139.487 66.1318 138.47 66.0878C127.27 65.5878 114.639 64.0904 105.068 58.8197C100.386 56.2397 97.2177 52.6784 95.6217 48.6611C95.5191 48.4051 95.4204 48.1438 95.3337 47.8878L95.2897 47.7518C94.8764 46.5211 94.6097 45.2584 94.4897 43.9731C94.2071 41.0717 94.6537 38.0611 95.8404 35.0878ZM124.902 9.18907C127.02 6.24907 129.824 3.65176 133.134 1.64909C131.963 5.45444 131.827 9.53175 132.839 13.3384C129.192 13.5504 125.555 14.0024 121.951 14.7864C122.643 12.8691 123.6 11.0024 124.902 9.18907ZM158.107 9.18907C159.402 11.0024 160.36 12.8691 161.052 14.7864C157.454 14.0024 153.816 13.5504 150.168 13.3384C150.627 11.6224 150.85 9.85306 150.85 8.07306C150.85 5.91173 150.518 3.73976 149.875 1.64909C153.186 3.65176 155.988 6.24907 158.107 9.18907ZM205.984 56.0651C208.875 53.8984 211.76 51.7371 214.647 49.5651C215.958 48.5784 217.227 47.5557 218.583 46.5864C218.714 46.4997 218.844 46.4064 218.974 46.3091C219.514 45.9384 220.232 45.6824 220.934 45.6011C222.018 45.4758 223.042 45.7584 223.292 46.6678C223.428 47.1798 223.204 47.8664 223.102 48.3944C222.812 49.8864 222.284 51.3224 221.55 52.7171C221.451 52.9024 221.354 53.0864 221.244 53.2664C217.407 60.0011 208.87 65.6038 200.452 70.5411C199.428 67.9998 198.275 65.4837 197.012 63.0064C200.034 60.6984 202.974 58.3358 205.984 56.0651ZM234.311 31.3264C234.648 31.1358 235.008 30.9504 235.372 30.7651C235.531 30.6891 235.699 30.6078 235.874 30.5211C237.355 29.8118 239.2 29.0771 240.915 30.1397C241.618 30.5744 241.824 31.2664 241.835 31.8811C241.863 33.0744 240.866 34.2064 239.974 35.2624C238.068 37.4891 236.004 39.6731 233.859 41.8117C230.652 45.0077 227.206 48.1277 223.531 51.1277C224.32 49.3744 224.926 47.4198 224.32 45.8238C223.978 44.8984 223.019 44.3864 221.816 44.3971C225.175 39.7157 227.979 34.7998 234.311 31.3264ZM237.224 24.6131C238.138 20.6824 238.612 16.5717 240.408 12.7064C240.806 11.8464 241.438 10.1918 242.522 9.53178C242.772 8.97179 243.316 8.87308 244.132 9.22774C245.216 9.09175 245.598 9.30908 245.292 9.89174C245.538 10.3931 245.183 11.2144 245.128 11.7651C244.9 13.8985 244.623 16.0384 244.296 18.173C243.698 22.0597 242.956 25.9464 242.015 29.8238C241.6 29.5291 241.03 29.2838 240.267 29.1051C238.874 28.7838 237.415 29.1158 236.07 29.6651C236.451 27.9825 236.832 26.3064 237.224 24.6131ZM76.6323 99.2064C68.9125 99.8157 61.2849 99.7557 55.0563 97.7197C54.8281 97.6491 54.6052 97.5678 54.3812 97.4904C52.7099 96.8971 51.1416 96.1464 49.7104 95.2264C49.2041 94.8998 48.4797 94.5291 48.1588 94.0717C47.5979 93.2718 48.1099 92.4718 49.0077 91.9491C49.5849 91.6051 50.3197 91.3824 51.0172 91.3504C51.1855 91.3384 51.3599 91.3277 51.5339 91.3277C53.3145 91.2571 55.0729 91.2731 56.8369 91.2464C60.7135 91.1758 64.5948 91.1104 68.4771 91.0291C71.3568 90.9798 74.2531 90.9904 77.1552 90.9851C76.8177 93.7131 76.638 96.4571 76.6323 99.2064ZM36.4749 96.5771C33.1593 96.2438 29.8661 95.8357 26.6588 95.2971C25.1401 95.0411 23.4907 94.7851 22.5323 93.9038C22.0369 93.4398 21.6229 92.8251 21.7754 92.1064C22.1568 90.3531 24.1057 89.8304 25.7661 89.4984C25.962 89.4598 26.1525 89.4224 26.338 89.3904C26.7458 89.3131 27.1599 89.2477 27.5631 89.1891C35.0265 88.0997 41.0916 90.0864 47.3801 91.5784C46.4921 92.2544 46.2093 93.1731 46.7213 94.0504C47.5869 95.5584 49.6229 96.6357 51.6375 97.4584C46.4984 97.3771 41.4297 97.0771 36.4749 96.5771ZM21.4052 90.9744C20.9916 91.5451 20.7734 92.0518 20.714 92.4984C16.8484 90.2118 13.1297 87.7997 9.50932 85.3064C7.52759 83.9344 5.57292 82.5464 3.66198 81.1144C3.17185 80.7437 2.23545 80.3464 2.00732 79.8411C1.30465 79.5904 1.40252 79.2144 2.30678 78.6971C2.61198 77.9677 3.09065 77.7277 3.72705 77.9944C5.06145 77.8584 6.87972 78.6971 7.87025 79.0997C12.3459 80.8917 16.0588 83.6238 19.9459 85.9651C21.612 86.9731 23.2672 87.9797 24.9224 88.9864C23.4907 89.3517 22.1568 89.9451 21.4052 90.9744ZM280.359 77.0744C277.61 76.7477 274.986 77.9571 273.031 78.8824C270.342 80.1504 267.968 81.7464 265.512 83.2158C262.867 84.8171 260.21 86.4064 257.547 87.9904C257.172 88.2144 256.786 88.4371 256.394 88.6544C255.615 88.5358 254.863 88.4638 254.222 88.4038C250.694 88.0611 247.312 88.3118 244.095 88.7744C240.768 89.2531 237.632 90.0264 234.447 90.7291C234.311 90.7611 234.164 90.7944 234.023 90.8211L233.979 90.8051C232.51 90.4091 230.896 90.4424 229.387 90.4744C228.838 90.4864 228.303 90.4984 227.794 90.4891L221.011 90.3757C216.16 90.2877 211.308 90.2064 206.463 90.1251L205.744 90.1144C204.874 83.5971 203.11 77.1731 200.604 70.9117C206.675 67.5424 212.703 64.0077 217.188 59.7451C219.535 57.5131 221.516 55.1064 222.818 52.5864C222.955 52.3197 223.091 52.0411 223.227 51.7584C228.535 47.6651 233.391 43.3744 237.719 38.8397C239.483 36.9891 244.503 32.4424 242.391 30.1504C243.876 24.9504 245.096 19.7411 245.891 14.5091C246.092 13.1637 246.299 11.8131 246.442 10.4691C246.512 9.78242 246.779 8.83577 246.175 8.22644C245.324 7.38245 243.686 7.57706 242.554 8.24239C240.283 9.57573 239.363 11.9611 238.694 13.7518C237.774 16.2184 237.343 18.7331 236.762 21.2158C236.14 23.8944 235.503 26.5731 234.862 29.2464C234.768 29.6331 234.671 30.0091 234.562 30.3944C233.898 30.7544 233.292 31.1251 232.776 31.4518C229.918 33.2211 227.658 35.3384 225.692 37.5104C223.662 39.7651 222.007 42.1278 220.259 44.4571L220.026 44.7624L219.982 44.7837C218.076 45.5357 216.634 47.0171 215.212 48.0837L210.171 51.8837C206.562 54.5957 202.963 57.3064 199.359 60.0238C198.432 60.7144 197.491 61.4064 196.538 62.0971C194.551 58.2757 192.298 54.5464 189.815 50.9251C189.668 50.6971 189.51 50.4744 189.352 50.2451C191.911 44.4904 191.334 37.8811 188.268 32.1211C187.463 30.6078 186.494 29.1864 185.378 27.8691C185.083 27.5091 184.774 27.1611 184.458 26.8131C179.312 21.2651 171.674 17.5078 163.622 15.4011C163.639 15.3091 163.59 15.2051 163.459 15.1944L163.41 15.1891H163.404C161.27 9.18907 155.919 3.8051 149.494 0.510422C149.151 0.331757 148.802 0.162415 148.454 -0.000244141C148.579 0.337082 148.688 0.679733 148.786 1.01707C149.984 5.05173 149.81 9.24374 148.519 13.2557C146.183 13.1691 143.848 13.1744 141.507 13.2451C139.166 13.1744 136.826 13.1691 134.49 13.2557C133.199 9.24374 133.024 5.05173 134.223 1.01707C134.32 0.679733 134.43 0.337082 134.555 -0.000244141C134.207 0.162415 133.858 0.331757 133.515 0.510422C127.086 3.8051 121.739 9.19441 119.599 15.1891L119.55 15.1944C119.419 15.2051 119.371 15.3091 119.387 15.4011C111.334 17.5078 103.696 21.2651 98.5511 26.8131C98.2351 27.1611 97.9257 27.5091 97.6311 27.8691C96.5151 29.1864 95.5457 30.6078 94.7404 32.1211C91.675 37.8811 91.0977 44.4904 93.6564 50.2451C93.4991 50.4744 93.3417 50.6971 93.1937 50.9251C90.7111 54.5464 88.4577 58.2757 86.471 62.0971C85.5177 61.4064 84.5751 60.7144 83.6497 60.0238C80.0464 57.3064 76.4473 54.5957 72.8375 51.8837L67.7964 48.0837C66.3755 47.0171 64.9328 45.5357 63.0271 44.7837L62.9839 44.7624L62.7495 44.4571C61.0021 42.1278 59.3468 39.7651 57.3161 37.5104C55.3511 35.3384 53.0911 33.2211 50.2333 31.4518C49.7156 31.1251 49.1115 30.7544 48.4473 30.3944C48.338 30.0091 48.2401 29.6331 48.1479 29.2464C47.5052 26.5731 46.8688 23.8944 46.2479 21.2158C45.6651 18.7331 45.2349 16.2184 44.315 13.7518C43.6453 11.9611 42.7255 9.57573 40.4552 8.24239C39.3224 7.57706 37.6839 7.38245 36.8344 8.22644C36.2301 8.83577 36.4968 9.78242 36.5677 10.4691C36.7093 11.8131 36.9161 13.1637 37.1177 14.5091C37.9125 19.7411 39.1317 24.9504 40.6183 30.1504C38.5063 32.4424 43.5255 36.9891 45.2896 38.8397C49.6177 43.3744 54.474 47.6651 59.7823 51.7584C59.9183 52.0411 60.0541 52.3197 60.1907 52.5864C61.4921 55.1064 63.4735 57.5131 65.8197 59.7451C70.3063 64.0077 76.3333 67.5424 82.4036 70.9117C79.8989 77.1731 78.1355 83.5971 77.264 90.1144L76.5453 90.1251C71.7 90.2064 66.8494 90.2877 61.9984 90.3757L55.2145 90.4891C54.7052 90.4984 54.1708 90.4864 53.6224 90.4744C52.1131 90.4424 50.4989 90.4091 49.0297 90.8051L48.9859 90.8211C48.8448 90.7944 48.6979 90.7611 48.5615 90.7291C45.3765 90.0264 42.2407 89.2531 38.914 88.7744C35.6964 88.3118 32.3156 88.0611 28.788 88.4038C28.1453 88.4638 27.3943 88.5358 26.6156 88.6544C26.2235 88.4371 25.8369 88.2144 25.4615 87.9904C22.7989 86.4064 20.1421 84.8171 17.4964 83.2158C15.041 81.7464 12.6672 80.1504 9.97758 78.8824C8.02292 77.9571 5.39892 76.7477 2.64945 77.0744C1.28332 77.2331 -0.0729483 78.0277 0.00305168 79.1331C0.0582517 79.9224 1.02705 80.4558 1.64212 80.9184C2.84585 81.8224 4.09785 82.6877 5.35572 83.5477C10.2115 86.9077 15.3672 90.0104 20.7083 92.9557C21.0401 95.8357 28.4281 96.2771 31.2323 96.6197C38.1031 97.4531 45.1531 97.8064 52.3781 97.7531C52.7099 97.8824 53.0312 98.0024 53.3525 98.1171C56.3631 99.2171 59.7765 99.8371 63.3213 100.121C67.6005 100.469 72.0916 100.246 76.638 99.7837C76.6651 105.325 77.3839 110.9 78.8807 116.448C72.0161 118.054 65.1615 119.834 59.45 122.649C56.3849 124.162 53.6082 125.938 51.4306 127.99C51.2021 128.208 50.9683 128.437 50.7339 128.67C44.1683 131.181 37.9562 133.996 32.1577 137.185C29.7896 138.486 23.327 141.502 24.4869 144.23C21.1333 148.788 18.0407 153.421 15.3401 158.184C14.6432 159.409 13.9468 160.64 13.3151 161.886C12.988 162.518 12.3844 163.346 12.7323 164.086C13.2224 165.11 14.8557 165.349 16.1729 165.006C18.8301 164.336 20.5943 162.305 21.8953 160.776C23.6864 158.674 25.0307 156.393 26.5068 154.188C28.0964 151.804 29.6968 149.418 31.3031 147.045C31.5317 146.708 31.7713 146.37 32.0109 146.033C32.7781 145.864 33.4916 145.662 34.1068 145.493C37.4765 144.552 40.4167 143.13 43.0901 141.574C45.8615 139.957 48.3057 138.144 50.8369 136.38L51.1749 136.152L51.2235 136.145C53.3145 135.928 55.2416 134.893 56.9839 134.245L63.1907 131.949C67.6276 130.304 72.0588 128.665 76.4911 127.021C78.2604 126.373 80.0734 125.741 81.8755 125.105C90.1404 144.584 107.851 161.01 131.908 167.081C132.899 167.325 133.907 167.565 134.924 167.777C137.103 168.24 139.302 168.616 141.507 168.898C143.712 168.61 145.906 168.24 148.084 167.777C149.102 167.565 150.104 167.325 151.1 167.081C175.159 161.01 192.868 144.584 201.134 125.105C202.935 125.741 204.748 126.373 206.518 127.021C210.95 128.665 215.382 130.304 219.818 131.949L226.024 134.245C227.767 134.893 229.695 135.928 231.784 136.145L231.834 136.152L232.171 136.38C234.703 138.144 237.148 139.957 239.919 141.574C242.592 143.13 245.532 144.552 248.902 145.493C249.518 145.662 250.23 145.864 250.998 146.033C251.238 146.37 251.476 146.708 251.706 147.045C253.312 149.418 254.912 151.804 256.503 154.188C257.978 156.393 259.323 158.674 261.114 160.776C262.415 162.305 264.179 164.336 266.835 165.006C268.154 165.349 269.787 165.11 270.276 164.086C270.624 163.346 270.02 162.518 269.694 161.886C269.062 160.64 268.366 159.409 267.668 158.184C264.968 153.421 261.876 148.788 258.522 144.23C259.682 141.502 253.219 138.486 250.851 137.185C245.052 133.996 238.84 131.181 232.275 128.67C232.04 128.437 231.807 128.208 231.578 127.99C229.4 125.938 226.624 124.162 223.559 122.649C217.847 119.834 210.994 118.054 204.128 116.448C205.624 110.9 206.343 105.325 206.371 99.7837C210.916 100.246 215.408 100.469 219.687 100.121C223.232 99.8371 226.646 99.2171 229.656 98.1171C229.978 98.0024 230.299 97.8824 230.631 97.7531C237.855 97.8064 244.906 97.4531 251.776 96.6197C254.58 96.2771 261.968 95.8357 262.3 92.9557C267.642 90.0104 272.796 86.9077 277.654 83.5477C278.911 82.6877 280.163 81.8224 281.367 80.9184C281.982 80.4558 282.951 79.9224 283.006 79.1331C283.082 78.0277 281.726 77.2331 280.359 77.0744Z" fill="#524F4F"/>
<path d="M141.507 66.1758C140.501 66.1638 139.487 66.1318 138.47 66.0878C127.27 65.5878 114.639 64.0905 105.069 58.8198C100.386 56.2398 97.2179 52.6785 95.6219 48.6611C95.5192 48.4051 95.4206 48.1438 95.3339 47.8878L95.2899 47.7518C94.8766 46.5212 94.6099 45.2584 94.4899 43.9731C94.4352 43.4064 94.4072 42.8358 94.4072 42.2625C94.4099 39.8972 94.8859 37.4798 95.8406 35.0878C95.9219 34.8918 96.0032 34.7011 96.0912 34.5051C96.4939 33.5638 96.9726 32.6545 97.5166 31.7838C97.5326 31.7571 97.5486 31.7331 97.5646 31.7064C97.5672 31.7024 97.5699 31.6985 97.5712 31.6945C99.4926 28.6091 102.173 25.9478 105.331 23.7185C105.341 23.7118 105.349 23.7052 105.358 23.6985C105.37 23.6905 105.382 23.6824 105.394 23.6731C107.225 22.3878 109.213 21.2478 111.307 20.2518C108.341 22.5985 105.71 25.3371 103.767 28.5718C100.55 33.9171 99.4552 40.8212 102.09 46.4825C104.083 50.7625 107.975 53.9358 112.277 55.8798C116.573 57.8292 121.287 58.6625 125.965 59.2771C132.958 60.1918 140.007 60.6505 147.059 60.6505C149.285 60.6505 151.511 60.6052 153.735 60.5132C161.069 60.2078 168.734 59.2825 174.778 55.1118C181.403 50.5398 185.193 42.1545 184.246 34.1625C183.983 31.9852 183.374 29.8611 182.477 27.8638C183.619 29.0825 184.626 30.3838 185.487 31.7771L185.493 31.7838C186.037 32.6545 186.515 33.5638 186.918 34.5051C187.006 34.7011 187.087 34.8918 187.169 35.0878C188.125 37.4798 188.599 39.8972 188.602 42.2625C188.602 42.8358 188.574 43.4064 188.519 43.9731C188.399 45.2584 188.133 46.5212 187.719 47.7518L187.675 47.8878C187.589 48.1438 187.49 48.4051 187.386 48.6611C185.791 52.6785 182.623 56.2398 177.941 58.8198C168.37 64.0905 155.739 65.5878 144.539 66.0878C143.527 66.1318 142.514 66.1638 141.507 66.1758Z" fill="#525355"/>
<path d="M141.507 66.1758C140.501 66.1638 139.487 66.1318 138.47 66.0878C127.27 65.5878 114.639 64.0905 105.069 58.8198C100.386 56.2398 97.2179 52.6785 95.6219 48.6611C95.5192 48.4051 95.4206 48.1438 95.3339 47.8878L95.2899 47.7518C94.8766 46.5212 94.6099 45.2584 94.4899 43.9731C94.4352 43.4064 94.4072 42.8358 94.4072 42.2625C94.4072 42.8358 94.4352 43.4064 94.4899 43.9731C94.6099 45.2584 94.8766 46.5212 95.2899 47.7518L95.3339 47.8878C95.4206 48.1438 95.5192 48.4051 95.6219 48.6611C97.2179 52.6785 100.386 56.2398 105.069 58.8198C114.639 64.0905 127.27 65.5878 138.47 66.0878C139.487 66.1318 140.501 66.1638 141.507 66.1758C142.514 66.1638 143.527 66.1318 144.539 66.0878C155.739 65.5878 168.37 64.0905 177.941 58.8198C182.623 56.2398 185.791 52.6785 187.386 48.6611C187.49 48.4051 187.589 48.1438 187.675 47.8878L187.719 47.7518C188.133 46.5212 188.399 45.2584 188.519 43.9731C188.574 43.4064 188.602 42.8358 188.602 42.2625C188.602 42.8358 188.574 43.4064 188.519 43.9731C188.399 45.2584 188.133 46.5212 187.719 47.7518L187.675 47.8878C187.589 48.1438 187.49 48.4051 187.386 48.6611C185.791 52.6785 182.623 56.2398 177.941 58.8198C168.37 64.0905 155.739 65.5878 144.539 66.0878C143.527 66.1318 142.514 66.1638 141.507 66.1758ZM97.5166 31.7838C97.5326 31.7585 97.5486 31.7318 97.5646 31.7064C97.5486 31.7331 97.5326 31.7571 97.5166 31.7838ZM97.5712 31.6945C99.4926 28.6091 102.173 25.9478 105.331 23.7185C102.173 25.9478 99.4926 28.6091 97.5712 31.6945ZM105.358 23.6985C105.37 23.6905 105.382 23.6824 105.394 23.6731C105.382 23.6824 105.37 23.6905 105.358 23.6985Z" fill="#272626"/>
<path d="M92.7402 138.727C91.4708 137.041 90.2922 135.311 89.2068 133.541C89.2002 133.531 89.1948 133.521 89.1882 133.511C89.1762 133.491 89.1642 133.471 89.1522 133.451C87.3228 130.457 85.7548 127.355 84.4388 124.175C84.3095 123.864 84.1828 123.553 84.0642 123.248C83.1388 120.919 82.3539 118.544 81.7008 116.149L81.6138 115.823C80.1872 110.471 79.4195 104.983 79.2894 99.4839C79.2836 99.3145 79.2784 99.1465 79.2784 98.9772C79.2722 98.6012 79.269 98.2252 79.2686 97.8492C79.267 95.5532 79.3742 93.2572 79.594 90.9692C79.6211 90.6639 79.6539 90.3532 79.6919 90.0439C79.9102 87.9692 80.22 85.9052 80.6227 83.8639C81.429 79.7692 82.5342 75.7305 83.9215 71.7559L84.0415 71.4132C84.9455 68.8599 85.9642 66.3385 87.0962 63.8452C87.2428 63.5185 87.3895 63.1972 87.5428 62.8759C89.3775 58.9452 91.4842 55.1012 93.8468 51.3719C93.8255 51.8892 93.8095 52.4066 93.7988 52.9239C93.7842 53.5159 93.7775 54.1079 93.7775 54.6972C93.7775 62.4945 95.0482 70.0212 98.2628 76.8892C99.5015 79.5359 101.002 82.0466 102.734 84.3986C88.7068 85.4306 82.2028 112.504 92.7402 138.727Z" fill="#66686A"/>
<path d="M92.7415 138.731C91.4708 137.045 90.2935 135.311 89.2068 133.541C90.2922 135.31 91.4708 137.041 92.7402 138.726C92.7402 138.727 92.7415 138.73 92.7415 138.731ZM89.1882 133.51C89.1762 133.49 89.1641 133.47 89.1521 133.45C89.1641 133.47 89.1762 133.49 89.1882 133.51ZM84.4388 124.174C84.3095 123.863 84.1828 123.553 84.0642 123.247C83.1388 120.918 82.3539 118.543 81.7008 116.149L81.6138 115.822C80.1872 110.47 79.4195 104.982 79.2894 99.4834C79.2836 99.3141 79.2784 99.1461 79.2784 98.9768C79.2722 98.6008 79.269 98.2248 79.2686 97.8488C79.269 98.2248 79.2722 98.6008 79.2784 98.9768C79.2784 99.1461 79.2836 99.3141 79.2894 99.4834C79.4195 104.982 80.1872 110.47 81.6138 115.822L81.7008 116.149C82.3539 118.543 83.1388 120.918 84.0642 123.247C84.1828 123.553 84.3095 123.863 84.4388 124.174ZM102.733 84.3981C101.001 82.0461 99.5015 79.5354 98.2628 76.8887C99.5042 79.5354 101.001 82.0447 102.737 84.3967C102.736 84.3967 102.735 84.3968 102.733 84.3981ZM93.7775 54.6967C93.7775 54.1074 93.7842 53.5154 93.7988 52.9234C93.8095 52.4061 93.8255 51.8888 93.8468 51.3714C93.8255 51.8888 93.8095 52.4061 93.7988 52.9234C93.7842 53.5154 93.7775 54.1074 93.7775 54.6967Z" fill="#272626"/>
<path d="M102.956 81.2891C101.123 78.4584 99.6174 75.4331 98.4307 72.2504C98.4307 72.2504 98.4307 72.2504 98.4307 72.2491C98.4187 72.2184 98.4067 72.1864 98.396 72.1557C98.3894 72.1397 98.384 72.1237 98.3787 72.109C98.3734 72.0931 98.3667 72.0771 98.3614 72.0624C98.3534 72.0411 98.3454 72.0211 98.3387 71.9997C98.3347 71.9904 98.332 71.9811 98.328 71.9717C98.3187 71.9464 98.3094 71.9224 98.3014 71.8971C98.3001 71.8957 98.3 71.8944 98.2987 71.8931C96.4707 66.8651 95.4347 61.4531 95.1747 55.8211C95.1747 55.8198 95.1747 55.8184 95.1747 55.8171C95.168 55.6531 95.1614 55.4891 95.1547 55.3251C95.1547 55.3197 95.1547 55.3131 95.1534 55.3077C95.1534 55.2797 95.152 55.2531 95.1507 55.2251C95.1507 55.2157 95.1507 55.2078 95.1494 55.1984C95.1494 55.1731 95.148 55.1464 95.1467 55.1211C95.1467 55.1104 95.1467 55.0984 95.1454 55.0878C95.1454 55.0624 95.144 55.0358 95.144 55.0104C95.1427 55.0038 95.1427 54.9944 95.1427 54.9878C95.14 54.9264 95.1387 54.8677 95.1374 54.8077C95.1374 54.8064 95.1374 54.8064 95.1374 54.8051C95.136 54.7824 95.1361 54.7598 95.1347 54.7371C95.1347 54.7224 95.1347 54.7078 95.1334 54.6931C95.1334 54.6704 95.132 54.6477 95.132 54.6251C95.132 54.6117 95.1307 54.5984 95.1307 54.5837C95.1307 54.5624 95.1294 54.5384 95.1294 54.5171C95.1294 54.5011 95.128 54.4851 95.128 54.4691C95.128 54.4491 95.1267 54.4277 95.1267 54.4077C95.1267 54.3891 95.1254 54.3718 95.1254 54.3518C95.1254 54.3344 95.124 54.3158 95.124 54.2984C95.1227 54.2624 95.1227 54.2277 95.1214 54.1917C95.1214 54.1771 95.1214 54.1624 95.1214 54.1477C95.12 54.1251 95.12 54.0998 95.12 54.0771C95.12 54.0624 95.1187 54.0477 95.1187 54.0331C95.1187 54.0091 95.1187 53.9864 95.1174 53.9624C95.1174 53.9478 95.1174 53.9331 95.1174 53.9184C95.1174 53.8958 95.116 53.8717 95.116 53.8477C95.116 53.8331 95.116 53.8184 95.116 53.8038C95.1147 53.7784 95.1147 53.7531 95.1147 53.7291C95.1147 53.7158 95.1147 53.7037 95.1147 53.6917C95.1134 53.6544 95.1134 53.6157 95.1134 53.5784C95.1134 53.5731 95.1134 53.5678 95.1134 53.5624C95.112 53.5304 95.112 53.4971 95.112 53.4651C95.112 53.4518 95.112 53.4411 95.112 53.4291C95.112 53.4038 95.1107 53.3771 95.1107 53.3518C95.1107 53.3384 95.1107 53.3238 95.1107 53.3104C95.1107 53.2851 95.1107 53.2611 95.1107 53.2357C95.1107 53.2224 95.1107 53.2091 95.1107 53.1944C95.1107 53.1677 95.1107 53.1411 95.1107 53.1144C95.1107 53.1037 95.1107 53.0917 95.1107 53.0811C95.1094 53.0437 95.1094 53.0051 95.1094 52.9678V52.9077C96.0787 54.3931 97.2934 55.7877 98.752 57.0611C101.937 59.8384 105.836 61.8691 110.071 63.3824C112.703 64.3238 115.467 65.0678 118.269 65.6651C109.241 67.2878 101.953 72.1984 102.956 81.2891Z" fill="#525355"/>
<path d="M98.4313 72.251C98.4313 72.251 98.4313 72.251 98.4313 72.2497C98.4313 72.251 98.4313 72.251 98.4313 72.251ZM98.3967 72.1563C98.39 72.1403 98.3847 72.1256 98.3793 72.1096C98.3847 72.1243 98.39 72.1403 98.3967 72.1563ZM98.362 72.063C98.354 72.0417 98.346 72.0217 98.3393 72.0003C98.346 72.0217 98.354 72.0417 98.362 72.063ZM98.3287 71.9723C98.3193 71.9483 98.31 71.923 98.302 71.8977C98.31 71.923 98.3193 71.947 98.3287 71.9723ZM98.2993 71.8937C96.47 66.8657 95.4353 61.4537 95.1753 55.8217C95.4353 61.4537 96.4713 66.8657 98.2993 71.8937ZM118.27 65.6657C115.467 65.0684 112.703 64.3243 110.071 63.383C112.707 64.3243 115.473 65.071 118.277 65.6643C118.274 65.6643 118.273 65.6644 118.27 65.6657ZM95.1753 55.8176C95.1687 55.6536 95.162 55.4897 95.1553 55.3257C95.162 55.4897 95.1687 55.6536 95.1753 55.8176ZM95.154 55.3083C95.154 55.2803 95.1527 55.2523 95.1513 55.2257C95.1527 55.2537 95.154 55.2803 95.154 55.3083ZM95.15 55.199C95.15 55.1724 95.1487 55.147 95.1473 55.1217C95.1487 55.147 95.15 55.1737 95.15 55.199ZM95.146 55.0883C95.146 55.0617 95.1447 55.0377 95.1447 55.011C95.1447 55.0363 95.146 55.063 95.146 55.0883ZM95.1433 54.9883C95.1407 54.9283 95.1393 54.8683 95.138 54.8083C95.1393 54.8683 95.1407 54.927 95.1433 54.9883ZM95.138 54.8057C95.1367 54.783 95.1367 54.7604 95.1353 54.7377C95.1367 54.7604 95.1367 54.783 95.138 54.8057ZM95.134 54.6937C95.134 54.671 95.1327 54.6483 95.1327 54.6257C95.1327 54.6483 95.134 54.671 95.134 54.6937ZM95.1313 54.5843C95.1313 54.563 95.13 54.5403 95.13 54.5176C95.13 54.539 95.1313 54.563 95.1313 54.5843ZM95.1287 54.4697C95.1287 54.4497 95.1273 54.4283 95.1273 54.4083C95.1273 54.4283 95.1287 54.4497 95.1287 54.4697ZM95.126 54.3523C95.126 54.335 95.1247 54.3164 95.1247 54.299C95.1247 54.3164 95.126 54.335 95.126 54.3523ZM95.122 54.1923C95.122 54.1777 95.122 54.163 95.122 54.1483C95.122 54.163 95.122 54.1777 95.122 54.1923ZM95.1207 54.0777C95.1207 54.063 95.1193 54.0483 95.1193 54.0337C95.1193 54.0483 95.1207 54.063 95.1207 54.0777ZM95.118 53.963C95.118 53.9497 95.118 53.9337 95.118 53.919C95.118 53.9337 95.118 53.9484 95.118 53.963ZM95.1167 53.8483C95.1167 53.8336 95.1167 53.819 95.1167 53.8044C95.1167 53.819 95.1167 53.8336 95.1167 53.8483ZM95.1153 53.7297C95.1153 53.7164 95.1153 53.7043 95.1153 53.6923C95.1153 53.7043 95.1153 53.7164 95.1153 53.7297ZM95.114 53.579C95.114 53.5736 95.114 53.5684 95.114 53.563C95.114 53.5684 95.114 53.5736 95.114 53.579ZM95.1127 53.4657C95.1127 53.4537 95.1127 53.4417 95.1127 53.4297C95.1127 53.4417 95.1127 53.4524 95.1127 53.4657ZM95.1113 53.3523C95.1113 53.339 95.1113 53.3243 95.1113 53.311C95.1113 53.3243 95.1113 53.339 95.1113 53.3523ZM95.1113 53.2363C95.1113 53.223 95.1113 53.2097 95.1113 53.195C95.1113 53.2097 95.1113 53.223 95.1113 53.2363ZM95.1113 53.115C95.1113 53.1043 95.1113 53.0923 95.1113 53.0816C95.1113 53.0923 95.1113 53.1043 95.1113 53.115Z" fill="#272626"/>
<path d="M179.504 82.1201C181.04 72.5815 173.726 67.4228 164.539 65.7081C167.411 65.1028 170.246 64.3468 172.943 63.3828C177.179 61.8695 181.076 59.8388 184.256 57.0615C185.715 55.7881 186.93 54.3935 187.898 52.9081V52.9682C187.898 53.0055 187.898 53.0455 187.898 53.0828C187.898 53.0961 187.898 53.1082 187.898 53.1215C187.898 53.1468 187.898 53.1735 187.898 53.2001C187.898 53.2135 187.898 53.2295 187.898 53.2441C187.898 53.2681 187.898 53.2935 187.898 53.3188C187.898 53.3321 187.896 53.3455 187.896 53.3602C187.896 53.3895 187.896 53.4188 187.896 53.4481C187.896 53.4574 187.896 53.4668 187.896 53.4775C187.896 53.5148 187.895 53.5521 187.895 53.5895C187.895 53.6028 187.895 53.6148 187.895 53.6281C187.895 53.6535 187.894 53.6788 187.894 53.7042C187.894 53.7202 187.894 53.7362 187.894 53.7521C187.892 53.7748 187.892 53.7975 187.892 53.8215C187.892 53.8375 187.892 53.8535 187.892 53.8695C187.891 53.8921 187.891 53.9148 187.891 53.9388C187.891 53.9548 187.89 53.9708 187.89 53.9855C187.89 54.0228 187.888 54.0561 187.888 54.0921C187.888 54.1095 187.887 54.1268 187.887 54.1441C187.887 54.1655 187.886 54.1854 187.886 54.2068C187.886 54.2254 187.886 54.2455 187.884 54.2655C187.884 54.2828 187.884 54.3015 187.883 54.3201C187.883 54.3415 187.883 54.3601 187.882 54.3814C187.882 54.3961 187.882 54.4121 187.882 54.4281C187.88 54.4508 187.88 54.4748 187.879 54.4975C187.879 54.5068 187.879 54.5162 187.879 54.5242C187.878 54.5762 187.876 54.6281 187.875 54.6801C187.875 54.6881 187.874 54.6974 187.874 54.7068C187.874 54.7321 187.872 54.7601 187.872 54.7868C187.871 54.7961 187.871 54.8054 187.871 54.8148C187.87 54.8428 187.87 54.8708 187.868 54.8988C187.868 54.9055 187.868 54.9108 187.868 54.9174C187.554 64.9548 184.802 74.3201 179.504 82.1201Z" fill="#525355"/>
<path d="M179.503 82.126C179.503 82.1246 179.504 82.1219 179.504 82.1193C184.801 74.3193 187.553 64.9539 187.868 54.9166C187.553 64.9553 184.801 74.322 179.503 82.126ZM164.539 65.7073C164.537 65.7073 164.537 65.7059 164.536 65.7059C167.411 65.1019 170.241 64.346 172.943 63.382C170.245 64.346 167.411 65.102 164.539 65.7073ZM187.868 54.898C187.869 54.87 187.869 54.8419 187.871 54.8139C187.869 54.8419 187.869 54.87 187.868 54.898ZM187.872 54.7859C187.872 54.7593 187.873 54.7313 187.873 54.7059C187.873 54.7326 187.872 54.7593 187.872 54.7859ZM187.875 54.6793C187.876 54.6273 187.877 54.5753 187.879 54.5233C187.877 54.5753 187.876 54.6273 187.875 54.6793ZM187.879 54.4966C187.88 54.4739 187.88 54.4499 187.881 54.4273C187.88 54.4499 187.88 54.4726 187.879 54.4966ZM187.881 54.3806C187.883 54.3593 187.883 54.3406 187.883 54.3193C187.883 54.3393 187.883 54.3593 187.881 54.3806ZM187.884 54.2647C187.885 54.2446 187.885 54.2246 187.885 54.2059C187.885 54.2246 187.885 54.2446 187.884 54.2647ZM187.887 54.1433C187.887 54.126 187.888 54.1086 187.888 54.0913C187.888 54.1086 187.887 54.126 187.887 54.1433ZM187.889 53.9846C187.889 53.97 187.891 53.954 187.891 53.938C187.891 53.9526 187.889 53.97 187.889 53.9846ZM187.892 53.8686C187.892 53.8526 187.892 53.8366 187.892 53.8206C187.892 53.8366 187.892 53.8526 187.892 53.8686ZM187.893 53.7513C187.893 53.7353 187.893 53.7193 187.893 53.7033C187.893 53.7193 187.893 53.7353 187.893 53.7513ZM187.895 53.6273C187.895 53.6139 187.895 53.6019 187.895 53.5886C187.895 53.6019 187.895 53.6153 187.895 53.6273ZM187.896 53.4766C187.896 53.466 187.896 53.4566 187.896 53.4473C187.896 53.4566 187.896 53.4673 187.896 53.4766ZM187.896 53.3593C187.896 53.3446 187.897 53.3313 187.897 53.318C187.897 53.3313 187.896 53.3446 187.896 53.3593ZM187.897 53.2433C187.897 53.2286 187.897 53.2126 187.897 53.1993C187.897 53.214 187.897 53.2286 187.897 53.2433ZM187.897 53.1206C187.897 53.1073 187.897 53.0953 187.897 53.082C187.897 53.0953 187.897 53.1073 187.897 53.1206ZM187.897 52.9673V52.9073V52.9673Z" fill="#272626"/>
<path d="M189.34 139.924C200.458 113.592 194.199 85.9851 180.247 84.4358C181.991 82.0731 183.5 79.5505 184.746 76.8891C187.96 70.0211 189.231 62.4945 189.231 54.6971C189.232 54.1078 189.224 53.5158 189.21 52.9238C189.199 52.4065 189.183 51.8891 189.162 51.3718C191.524 55.1012 193.631 58.9451 195.466 62.8758C195.618 63.1971 195.766 63.5185 195.912 63.8451C197.044 66.3385 198.063 68.8598 198.967 71.4132L199.086 71.7558C200.475 75.7305 201.58 79.7691 202.386 83.8638C202.788 85.9051 203.099 87.9692 203.316 90.0438C203.355 90.3532 203.387 90.6638 203.415 90.9691C203.635 93.2571 203.742 95.5532 203.74 97.8492C203.74 98.2252 203.736 98.6012 203.731 98.9771C203.731 99.1465 203.724 99.3145 203.719 99.4838C203.588 104.982 202.82 110.47 201.395 115.822L201.307 116.149C200.654 118.544 199.871 120.918 198.944 123.248C198.824 123.553 198.699 123.864 198.57 124.174C197.168 127.568 195.475 130.873 193.486 134.05C193.479 134.061 193.472 134.073 193.464 134.084C193.452 134.104 193.44 134.124 193.427 134.144C192.183 136.124 190.82 138.053 189.34 139.924Z" fill="#66686A"/>
<path d="M193.427 134.144C193.44 134.124 193.452 134.104 193.464 134.084C193.452 134.104 193.44 134.124 193.427 134.144ZM193.485 134.05C195.475 130.873 197.168 127.568 198.569 124.174C198.699 123.864 198.824 123.553 198.944 123.248C199.871 120.918 200.653 118.544 201.307 116.149L201.395 115.822C202.82 110.47 203.588 104.982 203.719 99.4835C203.724 99.3142 203.731 99.1462 203.731 98.9769C203.736 98.6009 203.74 98.2249 203.74 97.8489C203.74 98.2249 203.736 98.6009 203.731 98.9769C203.731 99.1462 203.724 99.3142 203.719 99.4835C203.588 104.982 202.82 110.47 201.395 115.822L201.307 116.149C200.653 118.544 199.871 120.918 198.944 123.248C198.824 123.553 198.699 123.864 198.569 124.174C197.168 127.568 195.477 130.872 193.485 134.05ZM180.247 84.4356C180.245 84.4356 180.244 84.4356 180.244 84.4356C181.991 82.0729 183.499 79.5515 184.745 76.8889C183.5 79.5502 181.991 82.0729 180.247 84.4356ZM189.231 54.6969C189.232 54.1075 189.224 53.5156 189.209 52.9236C189.199 52.4062 189.183 51.8889 189.161 51.3716C189.183 51.8889 189.199 52.4062 189.209 52.9236C189.224 53.5156 189.232 54.1075 189.231 54.6969Z" fill="#272626"/>
<path d="M140.955 98.5225C113.733 98.5225 115.911 85.0932 140.955 85.0932C165.999 85.0932 167.813 98.5225 140.955 98.5225Z" fill="#797A7C"/>
<path d="M141.42 157.362C141.141 157.362 140.864 157.349 140.592 157.321C130.067 156.232 114.823 140.261 114.096 132.277C113.371 124.292 120.297 110.454 138.052 109.41C139.28 109.338 140.465 109.302 141.612 109.302C157.728 109.302 165.684 116.328 166.361 126.832C167.069 137.793 151.933 157.364 141.42 157.362Z" fill="#9D9D9C"/>
<path d="M141.682 45.8936C103.426 45.8936 108.843 22.6482 140.236 22.6482C140.714 22.6482 141.192 22.6535 141.682 22.6642C175.066 23.4069 180.518 45.8936 141.682 45.8936Z" fill="#797A7C"/>
</svg>
