<svg width="237" height="164" viewBox="0 0 237 164" fill="none" xmlns="http://www.w3.org/2000/svg">
<path d="M176.048 151.925C175.668 151.585 175.142 151.36 174.702 151.111C172.626 149.905 170.892 148.876 169.832 146.615C168.816 144.44 168.606 141.964 168.592 139.599C168.581 138.319 168.636 137.033 168.756 135.753L168.472 135.999C166.776 137.389 164.666 137.729 162.905 136.244L162.84 136.184C162.321 140.089 163.056 144.105 164.83 147.72C165.996 150.091 167.581 152.236 169.621 153.931C171.062 155.132 173.368 156.787 175.382 156.227C177.777 155.556 177.477 153.201 176.048 151.925Z" fill="#B4B2B3"/>
<path d="M183.664 113.296C183.428 113.716 183.189 114.125 182.938 114.53C181.988 116.07 181.024 117.601 180.028 119.11C179.353 120.141 178.662 121.161 177.957 122.172C176.157 124.746 174.262 127.257 172.312 129.722C171.806 130.357 171.212 131.228 170.541 132.113C170.052 132.764 169.521 133.418 168.961 133.998C167.786 135.213 166.47 136.093 165.076 135.853C164.176 135.698 163.53 135.304 163.085 134.748C162.936 134.568 162.805 134.373 162.705 134.162C161.645 132.113 162.361 128.753 162.965 126.766C163.896 123.686 165.59 120.861 167.621 118.381C168.586 117.201 169.632 116.096 170.737 115.04C172.862 113.005 175.197 111.17 177.582 109.425C177.622 109.545 177.668 109.66 177.713 109.774C178.938 112.83 181.313 113.79 183.664 113.296Z" fill="#B4B2B3"/>
<path d="M232.97 72.8307C232.814 76.2961 232.254 79.7054 231.08 83.1961C229.829 86.9014 227.884 90.6281 225.309 93.7681C223.614 95.8428 221.644 97.664 219.418 99.0587C216.853 100.659 210.628 103.124 209.392 98.5734C208.392 94.9027 211.837 91.5374 213.588 88.7067C213.873 88.2467 214.148 87.7774 214.408 87.2974C215.542 85.2667 216.482 83.1161 217.198 80.8907C223.504 80.7507 229.505 77.9801 232.97 72.8307Z" fill="#B4B2B3"/>
<path d="M196.271 73.3003C196.211 74.2857 196.146 75.2604 196.051 76.2217C195.891 77.8964 195.706 79.567 195.495 81.231C195.18 83.7323 194.806 86.2177 194.331 88.6923C193.62 92.4123 192.706 96.099 191.48 99.6884C190.635 102.17 189.684 105.1 188.229 107.546C187.633 108.55 186.955 109.47 186.159 110.246C185.739 110.655 185.279 111 184.804 111.266C183.128 112.206 181.214 112.14 179.848 110.246C179.434 109.671 179.163 109.046 178.998 108.4C178.958 108.255 178.928 108.11 178.903 107.964C178.623 106.415 178.888 104.74 179.183 103.19C179.928 99.2537 180.988 95.343 182.064 91.483C182.804 88.8084 183.604 86.147 184.45 83.5017C185.295 80.887 186.19 78.2817 187.139 75.7003C187.484 75.795 187.834 75.8804 188.179 75.9657C188.55 75.891 188.924 75.811 189.295 75.7203C191.65 75.171 193.975 74.375 196.271 73.3003Z" fill="#B4B2B3"/>
<path d="M176.597 72.5005C176.453 73.0659 176.303 73.6352 176.148 74.2005C174.908 78.6819 173.452 83.1019 171.762 87.4272C170.986 89.4126 170.167 91.3978 169.292 93.3738C166.327 100.079 162.75 106.63 158.365 112.406C156.549 114.806 153.624 117.277 150.569 117.871C149.673 118.047 148.769 118.062 147.879 117.871C146.908 117.657 145.953 117.197 145.048 116.422C142.713 114.431 141.753 111.246 141.337 108.166C141.308 107.955 141.283 107.745 141.257 107.535C141.168 106.75 141.108 105.975 141.068 105.235C140.968 103.405 140.942 101.574 140.993 99.7445C141.093 95.8485 141.503 91.9686 142.103 88.1019C142.133 87.8979 142.163 87.6979 142.197 87.4925V87.4872C143.057 87.1218 143.917 86.7472 144.773 86.3725C152.535 82.9672 160.23 79.2565 167.67 75.1112C168.106 74.8659 168.536 74.6259 168.967 74.3752C170.621 73.4459 172.267 72.4859 173.892 71.4952C174.792 71.8405 175.692 72.1752 176.597 72.5005Z" fill="#B4B2B3"/>
<path d="M146.298 119.267C143.682 121.527 140.908 123.602 137.772 125.388C136.252 126.252 134.692 127.052 133.101 127.783C127.976 130.148 122.53 131.794 116.949 132.648C113.269 133.214 109.528 133.414 105.808 133.259C105.222 133.234 104.528 133.214 103.777 133.174C103.557 133.163 103.333 133.148 103.102 133.134C101.262 133.014 99.2063 132.734 97.6316 131.978C97.1916 131.763 96.797 131.519 96.4463 131.223C95.6263 130.538 95.0903 129.603 95.041 128.328C94.8517 123.376 101.626 121.076 105.242 119.422C109.368 117.536 113.584 115.856 117.864 114.371C121.565 113.091 125.316 111.931 129.106 110.916C132.566 109.986 136.062 109.175 139.577 108.495C140.102 112.651 141.552 116.686 145.208 118.742C145.573 118.947 145.938 119.122 146.298 119.267Z" fill="#B4B2B3"/>
<path d="M102.757 134.398C102.137 136.588 101.377 138.744 100.468 140.824C98.0424 146.385 94.5464 151.425 89.7758 155.321C81.2291 162.302 69.0171 164.232 59.1758 159.092C63.5024 155.866 69.2385 155.792 74.3438 154.581C78.7145 153.545 82.7891 151.51 86.3105 148.734C89.3505 146.34 91.9611 143.409 93.9958 140.134C95.3664 137.929 96.4718 135.568 97.2811 133.108C98.8771 133.798 100.828 134.188 102.757 134.398Z" fill="#B4B2B3"/>
<path d="M233.996 62.6282C233.931 63.6536 233.785 64.6483 233.565 65.6043C233.405 66.3389 233.2 67.0549 232.945 67.7443C230.689 74.0149 225.079 78.2056 217.863 78.5362L217.653 78.5456C217.473 78.5509 217.299 78.5562 217.117 78.5562C212.292 78.6109 207.692 77.0456 203.561 74.5749C202.07 73.6856 200.676 72.6803 199.311 71.6243C202.707 69.4643 205.456 66.6443 207.607 63.4043C211.643 57.3483 213.603 49.8176 213.853 42.3656C213.948 39.4656 213.782 36.5709 213.377 33.7803C213.237 32.8096 213.073 31.8389 212.888 30.8842C212.817 30.5296 212.748 30.1842 212.673 29.8336C217.839 32.5402 222.424 36.1949 226.169 40.7603C230.635 46.1963 233.776 53.0069 234.025 60.0883C234.06 60.9336 234.051 61.7789 233.996 62.6282Z" fill="#B4B2B3"/>
<path d="M210.668 52.1826C208.786 59.5586 204.676 66.2893 198.196 70.4439L197.985 70.5799L197.885 70.6452C197.641 70.7946 197.39 70.9453 197.14 71.0893C196.89 71.2346 196.636 71.3746 196.38 71.5146C196.19 71.6146 196 71.7146 195.805 71.8146C193.189 73.1599 190.394 74.0853 187.518 74.6706C187.253 74.7253 186.993 74.7746 186.729 74.8199C186.598 74.8453 186.473 74.8706 186.344 74.8906C183.573 74.08 180.828 73.1599 178.122 72.1399C177.688 71.9799 177.253 71.8092 176.817 71.6399C176.177 71.3946 175.542 71.1399 174.912 70.8799C174.048 70.5239 173.192 70.1639 172.337 69.7893C172.102 69.6839 171.866 69.5786 171.632 69.4746C165.136 66.5693 158.91 63.068 153.08 58.988C147.273 54.928 141.657 50.3826 136.812 45.196C131.876 39.916 126.985 32.4946 129.106 24.9279C129.541 23.3626 130.241 21.948 131.136 20.668C133.046 17.9226 135.846 15.7973 138.832 14.1466C139.012 14.0466 139.197 13.9466 139.382 13.852C140.342 13.3413 141.322 12.8813 142.293 12.4613C148.784 9.65593 155.974 8.03591 163.016 7.47591C176.657 6.39057 191.2 9.62128 201.416 19.1826C203.706 21.3279 205.721 23.6933 207.437 26.2333C207.812 26.7839 208.172 27.3439 208.512 27.9133C209.417 29.3986 210.222 30.9386 210.922 32.5199L210.937 32.5986V32.604C212.142 39.0453 212.348 45.5906 210.668 52.1826Z" fill="#B4B2B3"/>
<path d="M171.202 70.4294C169.321 71.4947 167.432 72.5347 165.525 73.5601C165.121 73.7801 164.716 74 164.305 74.2107C157.229 77.996 150.018 81.5161 142.668 84.7267C142.353 84.8667 142.038 85.0067 141.722 85.1374C133.592 88.6627 125.29 91.808 116.814 94.5134C103.368 98.808 89.5904 102.079 75.6438 104.279C62.2411 106.395 48.3051 108 34.7131 107.38C23.4304 106.869 10.1504 103.924 4.64378 92.8681C-1.14689 81.2361 4.42911 67.3894 10.3744 56.6574C10.8598 55.7721 11.3544 54.912 11.8397 54.0774C24.5211 32.2947 44.6238 13.7774 68.8384 5.8654C91.0798 -1.39993 116.629 0.634727 136.621 12.7521C133.937 14.3574 131.512 16.3467 129.621 18.8627C121.28 29.9534 129.841 41.7414 138.712 49.972C140.608 51.7267 142.517 53.3267 144.277 54.7174C152.444 61.1733 161.56 66.4441 171.202 70.4294Z" fill="#B4B2B3"/>
<path d="M233.996 62.6285C233.93 63.6538 233.785 64.6485 233.565 65.6045C233.405 66.3392 233.2 67.0551 232.945 67.7445C230.689 74.0151 225.078 78.2058 217.862 78.5365L217.653 78.5458C217.473 78.5511 217.298 78.5565 217.117 78.5565C212.292 78.6111 207.692 77.0458 203.561 74.5751C202.07 73.6858 200.676 72.6805 199.31 71.6245C209.057 65.4245 213.472 53.8032 213.853 42.3658C213.948 39.4658 213.782 36.5711 213.377 33.7805C213.237 32.8098 213.073 31.8391 212.888 30.8844C212.817 30.5298 212.748 30.1845 212.673 29.8338C217.838 32.5405 222.424 36.1952 226.169 40.7605C231.165 46.8472 234.51 54.6525 233.996 62.6285ZM231.08 83.1965C229 89.3525 225.009 95.5591 219.418 99.0591C216.853 100.659 210.628 103.124 209.392 98.5738C208.392 94.9031 211.837 91.5378 213.588 88.7071C215.088 86.2778 216.313 83.6365 217.198 80.8912C223.504 80.7512 229.505 77.9805 232.97 72.8311C232.814 76.2965 232.254 79.7058 231.08 83.1965ZM197.985 70.5805L197.885 70.6458C197.641 70.7951 197.39 70.9458 197.14 71.0898C196.89 71.2351 196.636 71.3751 196.38 71.5151C196.19 71.6151 196 71.7151 195.805 71.8151C193.189 73.1604 190.394 74.0858 187.518 74.6712C187.253 74.7258 186.993 74.7751 186.729 74.8205C186.598 74.8458 186.473 74.8712 186.344 74.8912C183.573 74.0805 180.828 73.1604 178.122 72.1404C177.688 71.9804 177.253 71.8098 176.817 71.6404C176.177 71.3951 175.542 71.1405 174.912 70.8805C174.048 70.5245 173.192 70.1645 172.337 69.7898C172.102 69.6845 171.866 69.5791 171.632 69.4751C165.136 66.5698 158.91 63.0685 153.08 58.9885C147.273 54.9285 141.657 50.3832 136.812 45.1965C131.876 39.9165 126.985 32.4951 129.106 24.9285C130.481 20.0125 134.452 16.5671 138.832 14.1471C139.012 14.0471 139.197 13.9471 139.382 13.8525C140.342 13.3418 141.322 12.8818 142.293 12.4618C148.784 9.65646 155.974 8.03644 163.016 7.47644C176.657 6.39111 191.2 9.62181 201.416 19.1832C203.706 21.3285 205.721 23.6938 207.437 26.2338C207.812 26.7845 208.172 27.3445 208.512 27.9138C209.417 29.3991 210.222 30.9391 210.922 32.5204C212.142 38.9911 212.353 45.5618 210.668 52.1832C208.786 59.5592 204.676 66.2898 198.196 70.4445L197.985 70.5805ZM196.05 76.2218C195.645 80.4018 195.12 84.5671 194.33 88.6925C193.62 92.4125 192.705 96.0992 191.48 99.6885C190.634 102.17 189.684 105.1 188.229 107.546C187.633 108.55 186.954 109.47 186.158 110.246C185.738 110.655 185.278 111.001 184.804 111.266C183.128 112.206 181.213 112.14 179.848 110.246C179.433 109.671 179.162 109.046 178.997 108.4C178.957 108.255 178.928 108.11 178.902 107.964C178.622 106.415 178.888 104.74 179.182 103.19C179.928 99.2538 180.988 95.3431 182.064 91.4832C183.538 86.1618 185.233 80.8911 187.138 75.7005C187.484 75.7951 187.833 75.8805 188.178 75.9658C188.549 75.8912 188.924 75.8111 189.294 75.7205C191.649 75.1711 193.974 74.3751 196.27 73.3005C196.21 74.2858 196.145 75.2605 196.05 76.2218ZM182.938 114.531C181.344 117.116 179.697 119.682 177.957 122.172C176.157 124.747 174.262 127.258 172.312 129.723C171.806 130.358 171.212 131.228 170.541 132.114C170.052 132.764 169.521 133.419 168.961 133.999C167.786 135.214 166.47 136.094 165.076 135.854C164.176 135.699 163.53 135.304 163.085 134.748C162.936 134.568 162.805 134.374 162.705 134.163C161.645 132.114 162.361 128.754 162.965 126.767C163.896 123.687 165.59 120.862 167.621 118.382C170.452 114.931 173.962 112.075 177.582 109.426C177.622 109.546 177.668 109.66 177.713 109.775C178.938 112.831 181.313 113.791 183.664 113.297C183.428 113.717 183.189 114.126 182.938 114.531ZM169.832 146.615C170.892 148.876 172.626 149.906 174.702 151.111C175.142 151.36 175.668 151.586 176.048 151.926C177.477 153.202 177.777 155.557 175.382 156.227C173.368 156.787 171.061 155.131 169.621 153.931C167.581 152.236 165.996 150.091 164.83 147.72C163.056 144.106 162.321 140.09 162.841 136.184L162.905 136.244C164.666 137.728 166.776 137.39 168.472 135.999L168.756 135.754C168.636 137.034 168.581 138.319 168.59 139.599C168.606 141.966 168.816 144.44 169.832 146.615ZM176.148 74.2005C174.908 78.6818 173.452 83.1018 171.762 87.4272C168.361 96.1485 164.045 104.93 158.365 112.406C156.549 114.806 153.624 117.277 150.569 117.871C149.673 118.047 148.769 118.062 147.878 117.871C146.908 117.657 145.953 117.196 145.048 116.422C142.713 114.431 141.753 111.246 141.337 108.166C141.308 107.955 141.282 107.745 141.257 107.535C141.168 106.75 141.108 105.975 141.068 105.235C140.748 99.5085 141.222 93.7832 142.102 88.1018C142.133 87.8978 142.162 87.6978 142.197 87.4925V87.4871C143.057 87.1218 143.917 86.7471 144.773 86.3725C152.534 82.9671 160.23 79.2565 167.67 75.1111C168.106 74.8658 168.536 74.6258 168.966 74.3751C170.621 73.4458 172.266 72.4858 173.892 71.4951C174.792 71.8405 175.692 72.1751 176.597 72.5005C176.453 73.0658 176.302 73.6351 176.148 74.2005ZM137.772 125.388C131.346 129.048 124.26 131.528 116.949 132.648C113.269 133.214 109.528 133.414 105.808 133.259C105.222 133.234 104.528 133.214 103.777 133.174C103.557 133.163 103.333 133.148 103.102 133.134C101.262 133.014 99.2064 132.734 97.6317 131.978C97.1917 131.763 96.7971 131.519 96.4465 131.223C95.6265 130.538 95.0904 129.603 95.0411 128.328C94.8518 123.376 101.626 121.076 105.242 119.422C109.368 117.536 113.584 115.857 117.864 114.371C124.94 111.921 132.206 109.915 139.577 108.495C140.102 112.651 141.552 116.686 145.208 118.742C145.573 118.947 145.938 119.122 146.298 119.267C143.682 121.527 140.908 123.602 137.772 125.388ZM89.7757 155.322C81.2291 162.303 69.0171 164.232 59.1758 159.092C63.5024 155.867 69.2385 155.792 74.3438 154.582C78.7145 153.546 82.7891 151.511 86.3105 148.735C91.3904 144.731 95.2758 139.23 97.2811 133.108C98.8771 133.799 100.828 134.189 102.757 134.399C100.482 142.45 96.3304 149.971 89.7757 155.322ZM116.814 94.5138C103.368 98.8085 89.5905 102.079 75.6438 104.279C62.2411 106.395 48.3051 108 34.7131 107.38C23.4305 106.87 10.1505 103.925 4.64379 92.8685C-1.62154 80.2818 5.41842 65.1045 11.8398 54.0778C24.5211 32.2951 44.6238 13.7778 68.8384 5.86583C91.0798 -1.39951 116.629 0.635147 136.621 12.7525C133.937 14.3578 131.512 16.3472 129.621 18.8632C119.5 32.3245 134.266 46.8071 144.277 54.7178C152.444 61.1738 161.56 66.4445 171.202 70.4298C169.321 71.4952 167.432 72.5352 165.525 73.5605C165.121 73.7805 164.716 74.0005 164.305 74.2111C157.229 77.9965 150.018 81.5165 142.668 84.7272C142.353 84.8672 142.038 85.0072 141.722 85.1378C133.592 88.6632 125.29 91.8085 116.814 94.5138ZM230.954 44.5071C226.565 37.3604 219.864 31.7205 212.297 28.1698L212.062 28.0591C211.768 27.9245 211.472 27.7885 211.172 27.6645C210.437 26.3938 209.637 25.1685 208.786 23.9885C208.146 23.1045 207.481 22.2485 206.792 21.4231C197.356 10.1471 182.753 5.0058 168.326 4.96179C160.59 4.93646 152.814 6.29111 145.493 8.77644C142.682 9.73111 139.842 10.8964 137.217 12.4071L136.941 12.2378C119.754 1.32584 98.1571 -2.33955 78.1491 1.44577C52.3011 6.33112 30.0371 23.1992 15.1851 44.4912C7.68913 55.2432 0.223751 68.2645 0.00375067 81.7218C-0.201583 94.4538 8.04377 103.75 19.8558 107.361C32.2931 111.155 46.0691 109.875 58.8011 108.695C73.6784 107.315 88.4451 104.72 102.902 100.948C115.934 97.5485 128.706 93.1885 141.108 87.9472C140.188 92.3778 139.513 96.8431 139.357 101.384C139.292 103.335 139.273 105.57 139.502 107.8C132.052 108.98 124.716 110.715 117.534 113.171C112.709 114.821 107.973 116.742 103.352 118.897C99.9571 120.482 95.5611 122.193 94.1611 126.038C93.0104 129.203 94.0518 131.214 96.0811 132.483C93.9011 139.354 89.3904 145.406 83.2651 149.411C79.2491 152.031 74.8731 153.346 70.1878 154.166C65.6078 154.971 61.1211 155.747 57.3758 158.697C56.9904 159.002 57.1705 159.607 57.5211 159.833C67.2771 166.078 80.6438 164.008 89.5558 157.182C96.8664 151.586 101.322 143.301 103.477 134.469C105.668 134.669 107.768 134.659 109.213 134.634C117.549 134.503 125.81 132.579 133.412 129.172C138.548 126.872 143.938 123.727 148.469 119.807C153.824 120.327 158.394 114.876 161.185 110.68C165.785 103.744 169.606 96.3031 172.697 88.5871C174.537 84.0018 176.117 79.3165 177.452 74.5605C177.602 74.0258 177.753 73.4911 177.897 72.9511C180.208 73.7458 182.548 74.4658 184.904 75.1111C185.334 75.2311 185.764 75.3458 186.194 75.4605L186.438 75.5258C184.704 79.7858 183.113 84.1018 181.708 88.4871C180.473 92.3325 179.342 96.2032 178.353 100.119C177.648 102.904 176.673 106.055 177.437 108.935C172.672 112.121 168.141 115.631 164.91 120.482C162.536 124.047 158.805 131.708 162.34 135.688C161.52 139.75 161.93 144.021 163.61 147.871C165.39 151.941 170.772 159.152 176.057 157.376C177.977 156.732 179.302 154.727 178.468 152.742C177.377 150.146 173.812 149.666 172.066 147.68C169.337 144.58 169.662 139.354 170.041 135.524C170.081 135.144 170.121 134.759 170.177 134.383C172.032 132.403 173.622 129.994 175.206 127.923C177.608 124.778 179.908 121.556 182.122 118.282C183.433 116.342 184.964 114.286 186.244 112.155C187.009 111.635 187.714 110.961 188.309 110.166C192.385 104.745 194.22 96.9045 195.545 90.3885C196.354 86.4378 196.91 82.4311 197.345 78.4205C197.516 76.8605 197.72 75.2712 197.901 73.6605C202.741 77.5805 208.726 80.2764 214.682 80.8071C215.242 80.8564 215.802 80.8872 216.358 80.8912C215.918 82.1112 215.398 83.3018 214.788 84.4671C212.897 88.0778 209.542 90.9032 207.946 94.6192C206.901 97.0538 207.142 100.174 209.352 101.89C211.782 103.775 215.257 103.17 217.868 102.059C224.544 99.2245 229.37 92.3578 232.02 85.8365C233.95 81.0871 234.965 75.4605 234.44 70.1498C234.6 69.7952 234.745 69.4298 234.88 69.0552C237.796 60.9538 235.31 51.6031 230.954 44.5071Z" fill="#6D6B6B"/>
<path d="M186.344 74.8906C183.574 74.08 180.828 73.1599 178.123 72.1399C177.688 71.9799 177.254 71.8092 176.818 71.6399C176.178 71.3946 175.543 71.1399 174.912 70.8799C174.048 70.5239 173.192 70.1639 172.338 69.7893C172.103 69.6839 171.867 69.5786 171.632 69.4746C165.136 66.5693 158.911 63.068 153.08 58.988C147.274 54.928 141.658 50.3826 136.812 45.196C132.687 40.7813 128.592 34.872 128.598 28.632C128.599 27.4066 128.759 26.1693 129.107 24.9279C129.544 23.3639 130.244 21.9493 131.136 20.6693C129.598 24.9239 130.262 29.88 132.336 33.9493C134.692 38.5746 138.652 42.1906 142.928 45.1306C154.35 52.9866 168.107 56.5226 181.543 59.9186C184.344 60.628 187.25 61.3346 190.107 61.3346C191.376 61.3346 192.638 61.1946 193.875 60.8533C198.671 59.5279 202.156 55.4319 204.892 51.2773C207.392 47.4666 209.563 43.3559 210.512 38.8946C210.952 36.8399 211.112 34.7 210.938 32.604C211.535 35.8 211.887 39.02 211.884 42.26C211.884 42.2826 211.884 42.304 211.884 42.3266C211.884 42.3346 211.884 42.3426 211.884 42.3506C211.884 42.3626 211.884 42.376 211.884 42.388C211.884 42.4066 211.884 42.4239 211.884 42.4426C211.884 42.4452 211.884 42.4493 211.884 42.452C211.867 45.68 211.496 48.924 210.668 52.1826C208.787 59.5586 204.676 66.2893 198.196 70.4439L197.986 70.5799L197.886 70.6452C197.642 70.7946 197.391 70.9453 197.14 71.0893C196.891 71.2346 196.636 71.3746 196.38 71.5146C196.191 71.6146 196 71.7146 195.806 71.8146C193.19 73.1599 190.395 74.0853 187.519 74.6706C187.254 74.7253 186.994 74.7746 186.73 74.8199C186.599 74.8453 186.474 74.8706 186.344 74.8906Z" fill="#808182"/>
<path d="M186.344 74.8906C183.574 74.08 180.828 73.1599 178.123 72.1399C177.688 71.9799 177.254 71.8092 176.818 71.6399C176.178 71.3946 175.543 71.1399 174.912 70.8799C174.048 70.5239 173.192 70.1639 172.338 69.7893C172.103 69.6839 171.867 69.5786 171.632 69.4746C165.136 66.5693 158.911 63.068 153.08 58.988C147.274 54.928 141.658 50.3826 136.812 45.196C132.687 40.7813 128.592 34.872 128.598 28.632C128.592 34.872 132.687 40.7813 136.812 45.196C141.658 50.3826 147.274 54.928 153.08 58.988C158.911 63.068 165.136 66.5693 171.632 69.4746C171.867 69.5786 172.103 69.6839 172.338 69.7893C173.192 70.1639 174.048 70.5239 174.912 70.8799C175.543 71.1399 176.178 71.3946 176.818 71.6399C177.254 71.8092 177.688 71.9799 178.123 72.1399C180.828 73.1599 183.574 74.08 186.344 74.8906C186.474 74.8706 186.599 74.8453 186.73 74.8199C186.994 74.7746 187.254 74.7253 187.519 74.6706C190.395 74.0853 193.19 73.1599 195.806 71.8146C196 71.7146 196.191 71.6146 196.38 71.5146C196.636 71.3746 196.891 71.2346 197.14 71.0893C197.391 70.9453 197.642 70.7946 197.886 70.6452L197.986 70.5799L198.196 70.4439C204.676 66.2893 208.787 59.5586 210.668 52.1826C211.496 48.9239 211.867 45.68 211.884 42.452C211.868 45.68 211.498 48.9253 210.668 52.1826C208.787 59.5586 204.676 66.2893 198.196 70.4439L197.986 70.5799L197.886 70.6452C197.642 70.7946 197.391 70.9453 197.14 71.0893C196.891 71.2346 196.636 71.3746 196.38 71.5146C196.191 71.6146 196 71.7146 195.806 71.8146C193.19 73.1599 190.395 74.0853 187.519 74.6706C187.254 74.7253 186.994 74.7746 186.73 74.8199C186.599 74.8453 186.474 74.8706 186.344 74.8906ZM211.884 42.4426C211.884 42.4239 211.884 42.4066 211.884 42.388C211.884 42.4066 211.884 42.4252 211.884 42.4426ZM211.884 42.3506C211.884 42.3426 211.884 42.3346 211.884 42.3266C211.884 42.3346 211.884 42.3426 211.884 42.3506ZM129.107 24.9279C129.542 23.3626 130.242 21.948 131.136 20.668C131.136 20.668 131.136 20.6679 131.136 20.6693C130.244 21.9493 129.544 23.3639 129.107 24.9279Z" fill="#3F3E40"/>
<path d="M216.872 78.5576C212.136 78.5576 207.621 77.0043 203.561 74.5749C202.07 73.6856 200.676 72.6803 199.311 71.6243C199.333 71.6096 199.357 71.5949 199.38 71.5803C199.388 71.5749 199.396 71.571 199.404 71.5656C199.42 71.555 199.436 71.5443 199.452 71.5336C199.46 71.5283 199.469 71.5229 199.477 71.5176C199.499 71.5042 199.52 71.4909 199.541 71.4762C199.551 71.4696 199.561 71.463 199.571 71.4576C199.583 71.4496 199.596 71.4403 199.608 71.4336C199.619 71.4256 199.631 71.4176 199.643 71.4096C199.656 71.4016 199.668 71.3936 199.68 71.3856C199.696 71.3749 199.713 71.3642 199.729 71.3536C199.742 71.3442 199.756 71.3349 199.771 71.3256C199.783 71.3176 199.793 71.3109 199.805 71.3029C199.816 71.2949 199.827 71.2882 199.837 71.2816C199.849 71.2722 199.861 71.2643 199.875 71.2563C199.88 71.2523 199.886 71.2482 199.893 71.2429C199.918 71.2256 199.945 71.2083 199.971 71.191C199.98 71.1856 199.988 71.1789 199.996 71.1736C200.009 71.1642 200.023 71.1563 200.036 71.1469C200.044 71.1403 200.053 71.1349 200.062 71.1283C200.084 71.1136 200.106 71.0976 200.129 71.0829C200.138 71.0763 200.148 71.0696 200.157 71.063C200.171 71.055 200.183 71.0456 200.195 71.0376C200.204 71.031 200.213 71.0242 200.224 71.0176C200.236 71.0082 200.249 70.999 200.262 70.991C200.269 70.9856 200.276 70.9802 200.283 70.9762C200.308 70.9589 200.332 70.9416 200.356 70.9243C200.364 70.919 200.373 70.9122 200.381 70.9069C200.395 70.8976 200.408 70.8882 200.421 70.8789C200.429 70.8722 200.439 70.867 200.447 70.8603C200.471 70.8443 200.495 70.8269 200.519 70.8096C200.525 70.8042 200.533 70.7989 200.54 70.7949C200.553 70.7843 200.565 70.7763 200.579 70.7669C200.588 70.7589 200.597 70.7536 200.607 70.7456C200.619 70.7376 200.629 70.7296 200.641 70.7216C200.656 70.7109 200.669 70.7003 200.684 70.6896C200.699 70.6789 200.714 70.6683 200.729 70.6576C200.74 70.6496 200.753 70.6389 200.765 70.6309C200.776 70.6229 200.785 70.6163 200.796 70.6083C200.809 70.5989 200.823 70.5882 200.836 70.5789C200.844 70.5722 200.852 70.567 200.86 70.5603C200.881 70.5456 200.903 70.5296 200.923 70.5149C200.929 70.5096 200.936 70.5043 200.943 70.5003C200.96 70.4869 200.976 70.475 200.993 70.463C200.998 70.4576 201.005 70.4522 201.012 70.4482C201.057 70.4149 201.101 70.3803 201.147 70.3469C201.151 70.3429 201.156 70.3403 201.16 70.3363C201.181 70.3203 201.204 70.3029 201.225 70.2856C201.227 70.2856 201.226 70.2856 201.226 70.2856C203.754 68.3496 205.872 66.0176 207.605 63.4149C207.373 65.3869 207.633 67.4176 208.652 69.1043C209.943 71.2496 212.337 72.5949 214.817 72.9749C215.384 73.0616 215.953 73.1029 216.524 73.1029C218.448 73.1029 220.376 72.6403 222.173 71.935C227.535 69.835 231.791 65.3736 234.025 60.0883C234.039 60.4056 234.045 60.7229 234.045 61.0389C234.047 61.4869 234.034 61.9363 234.01 62.3856C234.009 62.3896 234.009 62.3936 234.009 62.3976C234.008 62.4189 234.006 62.4403 234.005 62.4616C234.005 62.4736 234.004 62.4856 234.004 62.4976C234.003 62.5136 234.001 62.5283 234.001 62.5443C233.999 62.5723 233.997 62.6003 233.996 62.6283C233.931 63.6536 233.785 64.6483 233.565 65.6043C233.405 66.339 233.2 67.0549 232.945 67.7443C230.689 74.0149 225.079 78.2056 217.863 78.5363L217.653 78.5456C217.473 78.5509 217.299 78.5563 217.117 78.5563C217.036 78.5576 216.953 78.5576 216.872 78.5576Z" fill="#808182"/>
<path d="M216.872 78.5576C212.136 78.5576 207.621 77.0043 203.561 74.5749C202.07 73.6856 200.676 72.6803 199.311 71.6243C200.676 72.6803 202.07 73.6856 203.561 74.5749C207.621 77.0043 212.136 78.5576 216.872 78.5576C216.953 78.5576 217.036 78.5576 217.117 78.5563C217.299 78.5563 217.473 78.5509 217.653 78.5456L217.863 78.5363C225.079 78.2056 230.689 74.0149 232.945 67.7443C233.2 67.0549 233.405 66.339 233.565 65.6043C233.785 64.6483 233.931 63.6536 233.996 62.6283C233.997 62.6003 233.999 62.5723 234.001 62.5443C233.999 62.5723 233.997 62.6003 233.996 62.6283C233.931 63.6536 233.785 64.6483 233.565 65.6043C233.405 66.339 233.2 67.0549 232.945 67.7443C230.689 74.0149 225.079 78.2056 217.863 78.5363L217.653 78.5456C217.473 78.5509 217.299 78.5563 217.117 78.5563C217.036 78.5576 216.953 78.5576 216.872 78.5576ZM199.311 71.6243C199.333 71.6096 199.357 71.5949 199.38 71.5803C199.357 71.5949 199.333 71.6096 199.311 71.6243ZM199.404 71.5656C199.42 71.555 199.436 71.5443 199.452 71.5336C199.436 71.5443 199.42 71.555 199.404 71.5656ZM199.477 71.5176C199.499 71.5042 199.52 71.4909 199.541 71.4762C199.52 71.4909 199.499 71.5042 199.477 71.5176ZM199.571 71.4576C199.583 71.4496 199.596 71.4403 199.608 71.4336C199.596 71.4403 199.583 71.4496 199.571 71.4576ZM199.643 71.4096C199.655 71.4016 199.668 71.3936 199.68 71.3856C199.668 71.3936 199.656 71.4016 199.643 71.4096ZM199.729 71.3536C199.743 71.3442 199.756 71.3349 199.771 71.3256C199.756 71.3349 199.743 71.3442 199.729 71.3536ZM199.805 71.3029C199.816 71.2949 199.827 71.2882 199.837 71.2816C199.827 71.2882 199.816 71.2949 199.805 71.3029ZM199.875 71.2563C199.88 71.2523 199.886 71.2482 199.893 71.2429C199.886 71.2482 199.88 71.2523 199.875 71.2563ZM199.971 71.191C199.98 71.1856 199.988 71.1789 199.996 71.1736C199.988 71.1789 199.98 71.1856 199.971 71.191ZM200.036 71.1469C200.044 71.1403 200.053 71.1349 200.063 71.1283C200.053 71.1349 200.044 71.1403 200.036 71.1469ZM200.129 71.0829C200.139 71.0763 200.148 71.0696 200.157 71.063C200.148 71.0696 200.139 71.0763 200.129 71.0829ZM200.195 71.0376C200.204 71.031 200.213 71.0242 200.224 71.0176C200.213 71.0242 200.204 71.031 200.195 71.0376ZM200.263 70.991C200.269 70.9856 200.276 70.9802 200.283 70.9762C200.276 70.9802 200.269 70.9856 200.263 70.991ZM200.356 70.9243C200.365 70.919 200.373 70.9122 200.381 70.9069C200.373 70.9122 200.364 70.919 200.356 70.9243ZM200.421 70.8789C200.429 70.8722 200.439 70.867 200.447 70.8603C200.439 70.867 200.429 70.8722 200.421 70.8789ZM200.519 70.8096C200.525 70.8042 200.532 70.7989 200.54 70.7949C200.533 70.7989 200.525 70.8042 200.519 70.8096ZM200.579 70.7669C200.588 70.7603 200.597 70.7522 200.607 70.7456C200.597 70.7536 200.588 70.7589 200.579 70.7669ZM200.641 70.7216C200.656 70.7109 200.671 70.7003 200.684 70.6896C200.669 70.7003 200.656 70.7109 200.641 70.7216ZM200.729 70.6576C200.741 70.6483 200.753 70.6403 200.765 70.6309C200.753 70.6389 200.74 70.6496 200.729 70.6576ZM200.796 70.6083C200.809 70.5989 200.823 70.5882 200.836 70.5789C200.823 70.5882 200.809 70.5989 200.796 70.6083ZM200.86 70.5603C200.881 70.5456 200.903 70.5296 200.923 70.5149C200.903 70.5296 200.881 70.5456 200.86 70.5603ZM200.943 70.5003C200.96 70.4869 200.976 70.475 200.993 70.463C200.976 70.475 200.96 70.4869 200.943 70.5003ZM201.012 70.4482C201.057 70.4149 201.101 70.3803 201.147 70.3469C201.101 70.3803 201.057 70.4149 201.012 70.4482ZM201.16 70.3363C201.181 70.3189 201.204 70.3029 201.225 70.2856C201.204 70.3029 201.181 70.3203 201.16 70.3363ZM201.226 70.2856C203.757 68.3469 205.877 66.011 207.607 63.4043C207.607 63.4083 207.606 63.4109 207.605 63.4149C205.872 66.0176 203.754 68.3496 201.226 70.2856ZM234.004 62.4976C234.004 62.4856 234.005 62.4736 234.005 62.4616C234.005 62.4736 234.004 62.4856 234.004 62.4976ZM234.009 62.3976C234.009 62.3936 234.009 62.3896 234.01 62.3856C234.009 62.3896 234.009 62.3936 234.009 62.3976Z" fill="#3F3E40"/>
<path d="M225.309 93.7686C225.884 92.0432 226.109 90.2032 225.915 88.3872C225.775 87.1018 225.404 85.7618 224.455 84.8872C223.691 84.1818 222.712 83.9005 221.68 83.9005C220.46 83.9005 219.165 84.2925 218.063 84.8365C216.748 85.4845 215.521 86.3112 214.42 87.2872C214.927 86.3738 215.396 85.4352 215.824 84.4765C216.347 83.3098 216.807 82.1112 217.199 80.8912C223.504 80.7512 229.505 77.9805 232.971 72.8312C232.815 76.2965 232.255 79.7059 231.08 83.1965C230.237 85.6925 229.08 88.1965 227.629 90.5245C226.925 91.6539 226.151 92.7419 225.309 93.7686Z" fill="#808182"/>
<path d="M227.63 90.5244C229.08 88.1964 230.238 85.6924 231.08 83.1964C232.255 79.7058 232.815 76.2964 232.971 72.8311C232.815 76.2964 232.255 79.7058 231.08 83.1964C230.239 85.6911 229.082 88.1951 227.63 90.5244ZM214.408 87.2977C214.92 86.3804 215.394 85.439 215.824 84.4764C215.396 85.435 214.927 86.3737 214.42 87.287C214.416 87.2897 214.412 87.2937 214.408 87.2977Z" fill="#3F3E40"/>
<path d="M140.993 99.7441C141.016 98.8321 141.056 97.9201 141.112 97.0108C141.113 96.9948 141.115 96.9788 141.116 96.9628C141.116 96.9482 141.117 96.9321 141.119 96.9174C141.303 93.9708 141.649 91.0308 142.103 88.1015C142.133 87.8975 142.163 87.6975 142.197 87.4921V87.4868C143.057 87.1215 143.917 86.7468 144.773 86.3721C152.535 82.9668 160.231 79.2561 167.671 75.1108C168.107 74.8655 168.536 74.6255 168.967 74.3748C170.621 73.4455 172.267 72.4855 173.892 71.4948C174.792 71.8401 175.692 72.1748 176.597 72.5001C176.453 73.0655 176.303 73.6348 176.148 74.2001C174.908 78.6815 173.452 83.1015 171.762 87.4268C170.986 89.4122 170.167 91.3974 169.292 93.3734C169.332 92.5721 169.312 91.7721 169.187 90.9828C168.912 89.2081 168.021 87.4375 166.471 86.5215C165.544 85.9748 164.492 85.7828 163.412 85.7828C162.407 85.7828 161.376 85.9495 160.396 86.1521C155.86 87.0815 151.369 88.6268 147.628 91.3575C144.713 93.4828 142.282 96.3988 140.993 99.7441Z" fill="#808182"/>
<path d="M141.112 97.0107C141.114 96.9947 141.115 96.9788 141.116 96.9628C141.115 96.9788 141.114 96.9947 141.112 97.0107ZM141.119 96.9174C141.303 93.9707 141.648 91.0321 142.103 88.1014C141.65 91.0308 141.303 93.9707 141.119 96.9174ZM171.763 87.4268C173.452 83.1014 174.908 78.6814 176.148 74.2001C176.303 73.6347 176.454 73.0654 176.598 72.5001C176.454 73.0654 176.303 73.6347 176.148 74.2001C174.908 78.6814 173.452 83.1014 171.763 87.4268Z" fill="#3F3E40"/>
<path d="M133.101 127.783C134.072 125.627 134.817 123.367 134.982 121.017C135.186 118.071 134.386 114.951 132.316 112.842C131.436 111.946 130.312 111.277 129.106 110.917C132.566 109.986 136.062 109.175 139.577 108.495C140.102 112.651 141.552 116.686 145.208 118.742C145.573 118.947 145.938 119.122 146.298 119.267C143.682 121.527 140.908 123.602 137.772 125.389C136.252 126.253 134.692 127.053 133.101 127.783Z" fill="#808182"/>
<path d="M100.468 140.824C100.323 140.619 100.147 140.424 99.9521 140.25C99.1761 139.548 98.1588 139.24 97.1108 139.24C96.1201 139.24 95.1015 139.516 94.2361 139.995L93.9961 140.135C94.3534 139.56 94.6921 138.975 95.0121 138.382C95.0188 138.37 95.0241 138.359 95.0308 138.347C95.0308 138.347 95.0321 138.346 95.0321 138.344C95.9334 136.668 96.6894 134.915 97.2814 133.108C98.8774 133.799 100.828 134.188 102.757 134.399C102.137 136.588 101.377 138.744 100.468 140.824Z" fill="#808182"/>
<path d="M95.0117 138.382C95.0184 138.37 95.0237 138.359 95.0304 138.347C95.0237 138.359 95.0184 138.37 95.0117 138.382ZM95.0317 138.345C95.933 136.667 96.6864 134.915 97.2811 133.109C96.6891 134.915 95.933 136.669 95.0317 138.345Z" fill="#3F3E40"/>
<path d="M180.028 119.111C180.019 118.667 179.983 118.222 179.908 117.782C179.628 116.167 178.728 114.566 177.232 113.881C176.664 113.621 176.065 113.511 175.456 113.511C174.087 113.511 172.663 114.063 171.407 114.697C171.181 114.811 170.957 114.926 170.737 115.041C171.997 113.834 173.332 112.698 174.705 111.609C174.709 111.606 174.712 111.603 174.715 111.602C174.739 111.583 174.761 111.565 174.785 111.546C175.704 110.821 176.64 110.117 177.583 109.426C177.623 109.546 177.668 109.661 177.713 109.775C178.737 112.33 180.564 113.419 182.509 113.419C182.891 113.419 183.277 113.377 183.664 113.297C183.428 113.717 183.189 114.126 182.939 114.531C182.192 115.742 181.435 116.947 180.661 118.143C180.451 118.467 180.24 118.79 180.028 119.111Z" fill="#808182"/>
<path d="M180.661 118.143C181.434 116.947 182.192 115.741 182.938 114.531C183.189 114.125 183.428 113.716 183.664 113.296C183.428 113.716 183.189 114.125 182.938 114.531C182.19 115.743 181.434 116.948 180.661 118.143ZM174.705 111.608C174.709 111.605 174.712 111.603 174.714 111.601C174.712 111.603 174.709 111.605 174.705 111.608ZM174.785 111.545C175.704 110.82 176.638 110.116 177.582 109.425C176.64 110.116 175.704 110.82 174.785 111.545Z" fill="#3F3E40"/>
<path d="M184.454 83.4961C185.297 80.8801 186.191 78.2801 187.138 75.7001C187.483 75.7947 187.833 75.8801 188.178 75.9654C188.549 75.8908 188.923 75.8107 189.294 75.7201C191.649 75.1707 193.974 74.3747 196.27 73.3001C196.21 74.2854 196.145 75.2601 196.05 76.2214C195.962 77.1308 195.867 78.04 195.766 78.948C195.681 79.7107 195.59 80.4707 195.494 81.2307C194.323 80.7667 193.045 80.5307 191.765 80.5307C190.593 80.5307 189.419 80.7294 188.329 81.1307C186.886 81.6601 185.589 82.4788 184.454 83.4961Z" fill="#808182"/>
<path d="M184.449 83.502C185.295 80.8873 186.189 78.2819 187.139 75.7006C186.192 78.2806 185.297 80.8806 184.455 83.4966C184.453 83.4979 184.451 83.5006 184.449 83.502ZM195.767 78.9486C195.868 78.0406 195.963 77.1313 196.051 76.2219C196.145 75.2606 196.211 74.2859 196.271 73.3006C196.211 74.2859 196.145 75.2606 196.051 76.2219C195.963 77.1313 195.869 78.0406 195.767 78.9486Z" fill="#3F3E40"/>
<path d="M40.7575 107.515C38.7375 107.515 36.7215 107.472 34.7135 107.38C23.4308 106.869 10.1508 103.924 4.64415 92.868C4.63215 92.844 4.62145 92.82 4.60945 92.796C4.60545 92.7894 4.60147 92.7813 4.59747 92.7733C4.58947 92.7573 4.58145 92.7413 4.57345 92.7253C4.56945 92.716 4.56544 92.7067 4.5601 92.6973C4.55344 92.6827 4.54681 92.668 4.53881 92.6533C4.53481 92.644 4.5295 92.6333 4.52417 92.6227C4.5175 92.6107 4.51215 92.5973 4.50548 92.584C4.50015 92.572 4.4948 92.5613 4.48947 92.5507C4.4828 92.5373 4.47745 92.5253 4.47078 92.512C4.46545 92.5 4.46016 92.4893 4.45483 92.4773C4.4495 92.4667 4.44278 92.4533 4.43745 92.4413C4.43211 92.4307 4.42683 92.4173 4.4215 92.4053C4.41483 92.3947 4.40945 92.3827 4.40411 92.3707C4.39878 92.3587 4.39346 92.3467 4.3868 92.3347C4.38146 92.3227 4.37611 92.312 4.37078 92.3C4.36545 92.288 4.36013 92.2747 4.35346 92.2613C4.34946 92.252 4.34412 92.2413 4.34012 92.2307C4.33345 92.2173 4.3268 92.2027 4.32013 92.1893C4.31613 92.18 4.31215 92.172 4.30815 92.1627C4.30148 92.148 4.29483 92.1333 4.28816 92.1173C4.2855 92.1107 4.28145 92.104 4.27879 92.096C4.27079 92.08 4.2628 92.0627 4.25613 92.0467C4.2548 92.0453 4.2548 92.0427 4.25346 92.0413C4.2268 91.9813 4.19881 91.92 4.17215 91.8587C4.16948 91.852 4.16677 91.844 4.16277 91.8374C4.15611 91.8214 4.14948 91.8054 4.14148 91.788C4.13882 91.7814 4.13611 91.7747 4.13211 91.7667C4.12544 91.7507 4.11879 91.7347 4.11212 91.72C4.10812 91.7107 4.10544 91.704 4.10144 91.6947C4.09478 91.68 4.08812 91.664 4.08146 91.648C4.07879 91.6413 4.07481 91.632 4.07215 91.624C4.06548 91.6094 4.05883 91.5933 4.05216 91.5773C4.04816 91.5693 4.04548 91.5613 4.04148 91.5533C4.03482 91.5373 4.02816 91.5213 4.0215 91.5053C4.01883 91.4987 4.01479 91.4907 4.01212 91.4827C4.00545 91.4667 3.9988 91.4507 3.99213 91.4333C3.98947 91.4267 3.98682 91.4213 3.98282 91.4133C3.97616 91.396 3.96947 91.3787 3.96147 91.3613C3.96014 91.356 3.95747 91.352 3.95613 91.3467C3.94813 91.328 3.94011 91.308 3.93211 91.2893C3.93078 91.2867 3.93077 91.284 3.92944 91.2813C2.72411 88.3053 2.20678 85.204 2.20411 82.0613C2.19611 73.2893 6.19482 64.2027 10.3748 56.6574C7.64415 64.7494 6.12949 73.36 9.48016 81.0107C12.8055 88.6227 20.4962 93.6534 28.5522 95.668C32.4895 96.6534 36.5241 97.0146 40.5841 97.0146C44.8308 97.0146 49.1041 96.6187 53.3201 96.128C75.0295 93.5933 96.3961 88.6173 117.335 82.3413C122.511 80.7907 127.845 79.056 131.807 75.38C136.197 71.3053 138.347 65.2693 138.878 59.3027C139.152 56.192 139.027 53.0827 138.712 49.972C140.16 51.3147 141.615 52.5614 143.007 53.696C143.425 54.0387 143.839 54.3707 144.245 54.6907C144.256 54.7 144.267 54.708 144.277 54.7173C152.444 61.1733 161.56 66.444 171.203 70.4294C169.321 71.4947 167.432 72.5347 165.525 73.56C165.121 73.78 164.716 74 164.305 74.2107C157.229 77.996 150.019 81.516 142.668 84.7267C142.353 84.8667 142.039 85.0067 141.723 85.1374C133.592 88.6627 125.291 91.808 116.815 94.5133C103.368 98.808 89.5908 102.079 75.6441 104.279C64.2228 106.083 52.4108 107.515 40.7575 107.515Z" fill="#808182"/>
<path d="M40.7577 107.515C38.7378 107.515 36.7217 107.472 34.7137 107.38C23.4311 106.869 10.1511 103.924 4.6444 92.868C4.6324 92.844 4.62037 92.82 4.6097 92.796C4.6217 92.82 4.6324 92.844 4.6444 92.868C10.1511 103.924 23.4311 106.869 34.7137 107.38C36.7217 107.472 38.7378 107.515 40.7577 107.515C52.4111 107.515 64.2231 106.083 75.6444 104.279C89.5911 102.079 103.368 98.808 116.815 94.5133C125.291 91.808 133.592 88.6627 141.723 85.1374C142.039 85.0067 142.354 84.8667 142.668 84.7267C150.019 81.516 157.23 77.996 164.306 74.2107C164.716 74 165.122 73.78 165.526 73.56C167.432 72.5347 169.322 71.4947 171.203 70.4294C169.322 71.4947 167.432 72.5347 165.526 73.56C165.122 73.78 164.716 74 164.306 74.2107C157.23 77.996 150.019 81.516 142.668 84.7267C142.354 84.8667 142.039 85.0067 141.723 85.1374C133.592 88.6627 125.291 91.808 116.815 94.5133C103.368 98.808 89.5911 102.079 75.6444 104.279C64.2231 106.083 52.4111 107.515 40.7577 107.515ZM4.59772 92.7733C4.58972 92.756 4.58303 92.7413 4.5737 92.7253C4.5817 92.7413 4.58972 92.7573 4.59772 92.7733ZM4.56035 92.6973C4.55368 92.6827 4.54706 92.668 4.53906 92.6533C4.54706 92.668 4.55368 92.6827 4.56035 92.6973ZM4.52441 92.6227C4.51908 92.6107 4.5124 92.596 4.50573 92.584C4.5124 92.5973 4.51775 92.6107 4.52441 92.6227ZM4.48971 92.5507C4.48305 92.5373 4.4777 92.524 4.47103 92.512C4.4777 92.5253 4.48305 92.5373 4.48971 92.5507ZM4.45508 92.4773C4.44974 92.4653 4.44436 92.4533 4.4377 92.4413C4.44303 92.4533 4.44974 92.4667 4.45508 92.4773ZM4.42174 92.4053C4.41508 92.3933 4.4097 92.3827 4.40436 92.3707C4.4097 92.3827 4.41508 92.3947 4.42174 92.4053ZM4.38704 92.3347C4.38171 92.3227 4.37636 92.3107 4.37103 92.3C4.37636 92.312 4.38171 92.3227 4.38704 92.3347ZM4.35371 92.2613C4.34971 92.2507 4.34436 92.2413 4.34036 92.2307C4.34436 92.2413 4.34971 92.252 4.35371 92.2613ZM4.32038 92.1893C4.31638 92.18 4.3124 92.172 4.3084 92.1627C4.3124 92.172 4.31638 92.18 4.32038 92.1893ZM4.28841 92.1173C4.28441 92.1107 4.2817 92.104 4.27904 92.096C4.2817 92.104 4.28574 92.1107 4.28841 92.1173ZM4.25638 92.0467C4.25505 92.0453 4.25504 92.0427 4.25371 92.0413C4.25504 92.0427 4.25505 92.0453 4.25638 92.0467ZM4.1724 91.8587C4.16973 91.8507 4.16702 91.844 4.16302 91.8374C4.16702 91.844 4.16973 91.852 4.1724 91.8587ZM4.14173 91.788C4.13907 91.7814 4.13636 91.7747 4.13236 91.7667C4.13636 91.7747 4.13907 91.7814 4.14173 91.788ZM4.11237 91.72C4.1097 91.712 4.10569 91.7027 4.10169 91.6947C4.10569 91.704 4.10837 91.7107 4.11237 91.72ZM4.08171 91.648C4.07904 91.6413 4.07506 91.632 4.0724 91.624C4.07506 91.632 4.07904 91.6413 4.08171 91.648ZM4.05241 91.5773C4.04841 91.5693 4.04573 91.5613 4.04173 91.5533C4.04573 91.5613 4.04841 91.5693 4.05241 91.5773ZM4.02174 91.5053C4.01908 91.4987 4.01504 91.4907 4.01237 91.4827C4.01504 91.4907 4.01908 91.4987 4.02174 91.5053ZM3.99238 91.4333C3.98972 91.4267 3.98707 91.4213 3.98307 91.4133C3.98707 91.4213 3.98972 91.4267 3.99238 91.4333ZM3.96172 91.3613C3.96039 91.356 3.95771 91.352 3.95638 91.3467C3.95771 91.352 3.96039 91.356 3.96172 91.3613ZM3.93236 91.2893C3.93236 91.2867 3.93102 91.284 3.92969 91.2813C3.93102 91.284 3.93102 91.2867 3.93236 91.2893ZM144.278 54.7173C144.267 54.708 144.256 54.7 144.246 54.6907C144.256 54.7 144.267 54.708 144.278 54.7173ZM143.007 53.696C141.615 52.5614 140.16 51.3147 138.712 49.972C140.159 51.312 141.615 52.5614 143.007 53.696Z" fill="#3F3E40"/>
<path d="M43.8863 53.9805C39.1436 53.9805 36.1876 52.7298 36.0876 49.7325C35.5876 34.7298 54.8516 18.5151 84.8449 9.47644C88.1103 8.49244 91.577 8.05247 95.013 8.05247C110.778 8.05247 125.9 17.3125 118.1 25.7285C110.496 33.9311 62.8729 53.9818 43.8863 53.9805Z" fill="#B8B7B6"/>
<path d="M194.827 34.5693C183.987 34.5693 161.24 23.0907 157.606 18.728C155.146 15.776 164.119 12.0987 174.527 12.0987C185.28 12.0987 197.566 16.0227 200.362 28.728C201.29 32.9493 198.896 34.5693 194.827 34.5693Z" fill="#B8B7B6"/>
<path d="M218.977 62.4658C218.677 62.4658 218.388 62.3911 218.113 62.2338C214.613 60.2338 213.862 39.2311 217.613 38.4805C218.017 38.3991 218.414 38.3591 218.801 38.3591C221.994 38.3591 224.526 41.1018 225.864 46.2311C227.436 52.2551 222.501 62.4658 218.977 62.4658Z" fill="#B8B7B6"/>
<path d="M152.364 109.919C149.359 109.919 147.598 106.347 148.354 103.239C149.97 96.6003 152.42 94.2109 154.624 94.2109C158.56 94.2109 161.703 101.84 157.855 106.49C155.808 108.963 153.92 109.92 152.364 109.919Z" fill="#B8B7B6"/>
<path d="M184.015 107.492C181.975 107.492 181.681 103.491 182.421 99.4882C183.16 95.4869 184.929 91.4842 187.013 91.4842C187.045 91.4842 187.077 91.4855 187.109 91.4882C190.115 91.6642 188.36 107.24 184.109 107.49C184.077 107.492 184.045 107.492 184.015 107.492Z" fill="#B8B7B6"/>
<path d="M214.053 97.4961C213.989 97.4961 213.925 97.4934 213.862 97.4881C211.018 97.2694 213.726 89.1988 217.632 89.1988C218.189 89.1988 218.77 89.3628 219.364 89.7374C221.985 91.3934 217.301 97.4961 214.053 97.4961Z" fill="#B8B7B6"/>
<path d="M166.371 132.47C165.902 132.47 165.468 132.323 165.106 131.994C162.356 129.492 167.107 123.242 170.107 123.242C170.392 123.242 170.6 123.218 170.747 123.175C170.855 123.272 170.974 123.378 171.107 123.492C174.146 126.098 169.459 132.471 166.371 132.47ZM170.747 123.175C169.851 122.364 169.783 122.091 169.995 122.091C170.367 122.091 171.599 122.928 170.747 123.175Z" fill="#B8B7B6"/>
<path d="M111.631 128.033C107.114 128.033 102.658 127.044 102.348 125.492C101.782 122.663 108.018 120.955 113.495 120.955C117.7 120.955 121.459 121.961 121.351 124.241C121.222 126.936 116.392 128.033 111.631 128.033Z" fill="#B8B7B6"/>
</svg>
