<svg width="203" height="249" viewBox="0 0 203 249" fill="none" xmlns="http://www.w3.org/2000/svg">
<path d="M132.279 236.547C127.213 240.153 121.466 242.699 115.426 244.323C112.466 245.127 109.426 245.699 106.373 246.074C104.639 246.283 102.906 246.421 101.173 246.491H101.119C99.386 246.421 97.6527 246.283 95.9193 246.074C92.506 245.655 89.106 244.983 85.8127 244.031C80.1594 242.398 74.786 239.938 70.0127 236.547C85.586 229.994 91.0793 209.941 94.2926 194.939C96.866 182.926 98.066 170.666 98.586 158.399C98.8393 152.181 98.9193 145.962 98.8926 139.738C98.8926 139.457 98.8926 139.171 98.8926 138.89C98.8793 138.307 98.8793 137.729 98.8659 137.146C98.7593 132.413 98.466 127.703 98.2127 122.975C99.1994 122.987 100.173 122.981 101.159 122.949C102.133 122.981 103.106 122.987 104.079 122.975C103.839 127.703 103.533 132.413 103.439 137.146C103.426 137.729 103.413 138.307 103.413 138.89C103.413 139.171 103.399 139.457 103.399 139.738C103.386 145.962 103.453 152.181 103.719 158.399C104.226 170.666 105.426 182.926 108.013 194.939C111.226 209.941 116.719 229.994 132.279 236.547Z" fill="#8F8D8E"/>
<path d="M193.838 155.052C190.625 150.683 187.785 146 185.465 141.091C181.585 132.869 179.345 124.109 178.345 115.123C165.999 111.325 154.585 104.567 145.279 95.6134C144.812 97.0227 144.238 98.404 143.585 99.736C143.238 100.429 142.865 101.111 142.479 101.772L142.558 101.925C146.332 105.629 150.225 109.189 154.705 112.304C159.598 115.695 164.838 118.683 170.332 121.22C170.478 121.291 170.638 121.363 170.798 121.435C171.265 121.655 171.745 121.864 172.212 122.072C172.265 122.309 172.318 122.551 172.358 122.788C172.718 124.516 173.052 126.249 173.505 127.917C174.558 131.819 175.852 135.665 177.372 139.412C179.945 145.78 183.292 151.712 186.958 157.473C187.225 157.892 187.492 158.304 187.758 158.717C187.572 158.827 187.412 158.948 187.279 159.087C185.332 160.869 186.905 164.227 189.665 165.068C191.532 165.635 193.678 165.475 195.558 165.079C197.372 164.693 199.078 163.995 200.652 163.065C198.105 160.671 195.892 157.837 193.838 155.052Z" fill="#8F8D8E"/>
<path d="M57.0122 95.6134C47.7188 104.567 36.2921 111.325 23.9494 115.123C22.9587 124.109 20.7082 132.869 16.8295 141.091C14.5122 146 11.6775 150.683 8.45879 155.052C6.40012 157.837 4.19884 160.671 1.64551 163.065C3.22017 163.995 4.92013 164.693 6.73613 165.079C8.6188 165.475 10.7708 165.635 12.6348 165.068C15.3922 164.225 16.9722 160.869 15.0242 159.087C14.8815 158.948 14.7215 158.828 14.5402 158.717C14.8042 158.304 15.0734 157.892 15.3374 157.473C19.0028 151.712 22.3588 145.78 24.9295 139.412C26.4428 135.665 27.7361 131.819 28.7975 127.917C29.2495 126.249 29.5854 124.516 29.9321 122.788C29.9854 122.551 30.0388 122.309 30.0921 122.072C30.5588 121.863 31.0387 121.655 31.5054 121.435C31.6654 121.363 31.8254 121.291 31.9721 121.22C37.4654 118.683 42.7055 115.695 47.5855 112.304C52.0655 109.189 55.9721 105.629 59.7321 101.925L59.8122 101.772C59.4255 101.112 59.0655 100.429 58.7188 99.736C58.0655 98.404 57.4922 97.0227 57.0122 95.6134Z" fill="#8F8D8E"/>
<path d="M48.4385 41.7937C48.5985 41.9097 48.7586 42.0204 48.9186 42.135C51.4252 43.875 53.8652 45.7123 56.1985 47.683C60.8518 51.6283 64.9852 55.987 68.7318 60.7083L68.7452 60.7363C70.1452 59.7617 71.5985 58.8697 73.0919 58.0497V58.0443C73.2385 57.951 73.3852 57.8577 73.5318 57.7697C69.6652 53.2577 65.3719 49.075 60.8252 45.327C57.5319 42.6137 54.0919 40.0497 50.4519 37.815L50.1718 37.651C49.9451 37.5124 49.7319 37.3804 49.4919 37.2537C49.6252 36.787 49.7586 36.319 49.9186 35.8564C51.9052 29.555 55.1719 23.7164 59.7852 18.7911C65.3586 12.8538 72.8519 7.98309 80.9186 6.06309C80.5452 5.57242 80.1586 5.10572 79.7452 4.66439C79.1719 4.03772 78.5452 3.45505 77.8919 2.92572L77.8786 2.9097C77.4119 2.53504 76.9319 2.1884 76.4252 1.86973L76.6519 1.82038C75.5719 1.09905 74.2252 0.785679 72.6919 1.08301C70.5719 1.48968 69.0652 2.90971 68.3318 4.72038C68.2652 4.90171 68.1986 5.08303 68.1452 5.27103C67.9719 5.83237 67.8651 6.42039 67.8385 7.02572C67.7051 7.09772 67.5586 7.16831 67.4119 7.24564C63.3586 9.39231 59.5986 12.0563 56.2519 15.5003C51.4386 20.4483 47.6919 26.479 45.4119 33.011C45.1986 33.6057 44.9985 34.2057 44.8252 34.811C44.4385 36.0923 44.0919 37.3924 43.8252 38.707C44.5585 39.1964 45.2785 39.6817 45.9985 40.1484C46.8118 40.6884 47.6251 41.2377 48.4385 41.7937Z" fill="#8F8D8E"/>
<path d="M142.506 18.7911C147.119 23.7164 150.399 29.555 152.386 35.8564C152.532 36.319 152.679 36.787 152.799 37.2537C152.572 37.3804 152.346 37.5124 152.132 37.651L151.852 37.815C148.199 40.0497 144.772 42.6137 141.479 45.327C136.932 49.075 132.626 53.2577 128.772 57.7697C128.919 57.8577 129.052 57.951 129.199 58.0443L129.212 58.0497C130.706 58.8697 132.159 59.7617 133.546 60.7363L133.572 60.7083C137.319 55.987 141.452 51.6283 146.106 47.683C148.439 45.7123 150.879 43.875 153.372 42.135C153.532 42.0204 153.692 41.9097 153.866 41.7937C154.666 41.239 155.479 40.6884 156.306 40.1484C157.012 39.6817 157.732 39.1964 158.479 38.707C158.199 37.3924 157.866 36.0937 157.479 34.811C157.292 34.2057 157.092 33.6057 156.892 33.011C154.612 26.479 150.866 20.4483 146.052 15.5003C142.706 12.055 138.946 9.39231 134.892 7.24564C134.746 7.16964 134.599 7.09772 134.452 7.02572C134.426 6.42039 134.332 5.83103 134.159 5.27103C134.106 5.08303 134.039 4.90171 133.959 4.72038C133.226 2.90971 131.732 1.48968 129.599 1.08301C128.066 0.785679 126.732 1.09905 125.652 1.82038L125.879 1.86973C125.372 2.1884 124.892 2.53504 124.426 2.9097L124.412 2.92572C123.746 3.45505 123.132 4.03772 122.546 4.66439C122.132 5.10572 121.746 5.57242 121.386 6.06309C129.439 7.98442 136.946 12.8538 142.506 18.7911Z" fill="#8F8D8E"/>
<path d="M83.7051 53.4935L83.7452 53.4828C86.6786 52.5241 89.6918 51.7815 92.7318 51.2642C95.5185 50.7855 98.3319 50.4948 101.159 50.3842C103.972 50.4948 106.785 50.7855 109.559 51.2642C112.599 51.7815 115.612 52.5241 118.559 53.4828L118.585 53.4935C121.519 54.1375 124.319 55.2322 126.865 56.6309C125.212 49.6135 121.105 43.1642 115.172 38.9868C110.958 36.0162 106.132 34.3975 101.159 33.9361C96.1719 34.3975 91.3452 36.0162 87.1186 38.9868C81.1986 43.1642 77.0785 49.6135 75.4385 56.6309C77.9851 55.2322 80.7718 54.1375 83.7051 53.4935Z" fill="#8F8D8E"/>
<path d="M144.146 93.7042C144.092 93.9082 144.025 94.1122 143.959 94.3148C143.332 96.2855 142.519 98.1895 141.532 100C141.412 100.192 141.319 100.379 141.199 100.567V100.577C140.945 101.017 140.692 101.452 140.412 101.876C140.026 102.487 139.625 103.082 139.199 103.659C134.492 110.064 128.439 114.28 121.692 116.965C116.425 119.068 110.732 120.235 104.905 120.796C104.665 120.817 104.425 120.84 104.199 120.863C103.185 120.949 102.172 121.022 101.159 121.076C100.132 121.022 99.1188 120.949 98.1054 120.863C97.8654 120.84 97.6255 120.817 97.3855 120.796C84.1189 119.519 71.4788 115.067 63.0922 103.659C62.6788 103.082 62.2655 102.487 61.8922 101.876C61.6122 101.452 61.3588 101.017 61.1054 100.577L61.0922 100.567C60.9855 100.379 60.8788 100.192 60.7721 100C59.7854 98.1895 58.9722 96.2855 58.3455 94.3148C58.2789 94.1122 58.2122 93.9082 58.1455 93.7042C57.1589 90.3975 56.7055 86.9348 56.8655 83.5068C56.9455 81.9108 57.1721 80.3162 57.5321 78.7522C57.7588 77.7508 58.0522 76.7548 58.4122 75.7801C59.7055 72.2535 61.7588 69.1935 64.2922 66.5575C65.7988 64.9842 67.4789 63.5642 69.2522 62.2815C69.3988 62.1722 69.5589 62.0668 69.7189 61.9628C69.8655 61.8522 70.0121 61.7481 70.1721 61.6441C71.5054 60.7361 72.8921 59.8989 74.3054 59.1282L74.5588 58.9908C74.7055 58.9082 74.8655 58.8255 75.0122 58.7482L75.0522 58.7375C76.5855 57.9295 78.1455 57.2028 79.7188 56.5482C82.7988 55.2548 85.9721 54.2029 89.1988 53.3842C89.9055 53.1962 90.6255 53.0255 91.3455 52.8655C94.5855 52.1508 97.8522 51.6668 101.159 51.4135C102.652 51.5295 104.145 51.6935 105.639 51.9081C107.425 52.1561 109.186 52.4748 110.946 52.8655C111.666 53.0255 112.385 53.1962 113.105 53.3842C116.332 54.2029 119.506 55.2548 122.586 56.5482C124.146 57.2028 125.719 57.9295 127.252 58.7375L127.279 58.7482C127.439 58.8255 127.586 58.9082 127.746 58.9908L127.999 59.1282C129.412 59.8989 130.799 60.7361 132.132 61.6441C132.279 61.7481 132.439 61.8522 132.586 61.9628C132.746 62.0668 132.892 62.1722 133.039 62.2815C134.825 63.5642 136.492 64.9842 137.999 66.5575C140.545 69.1935 142.599 72.2535 143.892 75.7801C144.252 76.7548 144.532 77.7508 144.772 78.7522C145.132 80.3162 145.359 81.9108 145.425 83.5068C145.599 86.9348 145.132 90.3975 144.146 93.7042Z" fill="#8F8D8E"/>
<path d="M97.3721 122.733V122.964C97.3188 127.488 97.2789 132.017 97.2122 136.54C97.2122 136.744 97.2122 136.948 97.2122 137.151C97.1989 137.779 97.1855 138.405 97.1855 139.033C97.1189 143.077 97.0522 147.117 96.9588 151.151C96.7188 161.728 96.0522 172.316 94.4789 182.788C93.0256 192.544 90.8789 202.319 87.3456 211.552C84.4122 219.24 80.1855 227.153 73.2522 231.941C71.4522 233.191 69.5721 234.12 67.6655 234.764C66.8388 235.044 66.0121 235.276 65.1721 235.447C55.9988 237.389 46.3588 233.212 39.5721 226.333C36.9854 223.72 34.8121 220.715 33.2388 217.512C24.3188 199.373 29.8828 177.301 35.7721 159.092C38.6121 150.297 41.9855 141.724 45.6655 133.277C47.9988 127.917 50.4388 122.607 52.9588 117.329C53.1988 116.8 53.4521 116.277 53.7054 115.749C55.1588 112.717 56.6254 109.691 58.1054 106.669C58.3988 106.059 58.7055 105.441 58.9988 104.832C59.5721 104.292 60.1322 103.736 60.6789 103.169C65.5589 110.664 73.2789 116.063 81.5855 119.239C82.5189 119.601 83.4655 119.932 84.4255 120.229C85.2255 120.488 86.0255 120.719 86.8255 120.933C90.2788 121.852 93.7988 122.436 97.3721 122.733Z" fill="#C4C3C3"/>
<path d="M169.066 217.512C163.333 229.152 149.786 238.127 137.119 235.447C136.279 235.276 135.453 235.044 134.639 234.764H134.626C133.813 234.49 132.999 234.159 132.199 233.768C131.133 233.262 130.079 232.651 129.039 231.942C122.106 227.154 117.893 219.24 114.959 211.552C111.426 202.319 109.279 192.544 107.813 182.788C106.253 172.316 105.586 161.728 105.346 151.151C105.253 147.118 105.173 143.078 105.119 139.034C105.106 138.406 105.093 137.779 105.093 137.151V136.97C105.026 132.303 104.973 127.631 104.933 122.964V122.734C108.493 122.436 112.026 121.852 115.466 120.934C117.239 120.46 118.999 119.899 120.719 119.239C122.226 118.662 123.719 118.011 125.173 117.286C131.733 114.032 137.639 109.3 141.626 103.17C142.173 103.736 142.733 104.292 143.306 104.832C143.599 105.442 143.906 106.059 144.199 106.67C145.666 109.691 147.146 112.718 148.586 115.75C148.853 116.278 149.093 116.8 149.346 117.33C151.946 122.81 154.493 128.319 156.893 133.888C160.479 142.136 163.759 150.507 166.533 159.092C172.413 177.302 177.986 199.374 169.066 217.512Z" fill="#C4C3C3"/>
<path d="M195.559 165.079C193.679 165.475 191.532 165.635 189.665 165.069C186.905 164.227 185.332 160.87 187.279 159.087C187.412 158.949 187.572 158.827 187.759 158.718C187.492 158.305 187.225 157.893 186.959 157.474C183.292 151.713 179.945 145.781 177.372 139.413C175.852 135.666 174.559 131.819 173.505 127.918C173.052 126.25 172.719 124.517 172.359 122.789C172.319 122.551 172.265 122.31 172.212 122.073C171.745 121.865 171.265 121.655 170.799 121.435C170.639 121.363 170.479 121.291 170.332 121.221C164.839 118.683 159.599 115.695 154.705 112.305C150.225 109.19 146.332 105.63 142.559 101.926L142.479 101.773C142.865 101.111 143.239 100.43 143.585 99.7367C144.239 98.4047 144.812 97.0233 145.279 95.614C154.585 104.567 165.999 111.326 178.345 115.123C179.345 124.11 181.585 132.87 185.465 141.091C187.785 146.001 190.625 150.683 193.839 155.053C195.892 157.838 198.105 160.671 200.652 163.066C199.079 163.995 197.372 164.694 195.559 165.079ZM148.585 115.75C148.852 116.278 149.092 116.801 149.345 117.33C155.825 130.933 161.879 144.718 166.532 159.093C172.412 177.302 177.985 199.374 169.065 217.513C163.332 229.153 149.785 238.127 137.119 235.447C136.279 235.277 135.452 235.045 134.639 234.765H134.625C132.719 234.121 130.852 233.191 129.039 231.942C122.105 227.154 117.892 219.241 114.959 211.553C111.425 202.319 109.279 192.545 107.812 182.789C106.252 172.317 105.585 161.729 105.345 151.151C105.252 147.118 105.172 143.078 105.119 139.034C105.105 138.406 105.092 137.779 105.092 137.151C105.025 132.425 104.972 127.693 104.932 122.965V122.959V122.734C108.492 122.437 112.025 121.853 115.465 120.934C117.239 120.461 118.999 119.899 120.719 119.239C129.012 116.063 136.745 110.665 141.625 103.17C142.172 103.737 142.732 104.293 143.305 104.833C143.599 105.442 143.905 106.059 144.199 106.67C145.665 109.691 147.145 112.718 148.585 115.75ZM106.372 246.074C104.639 246.283 102.905 246.421 101.172 246.491H101.119C99.3854 246.421 97.6521 246.283 95.9187 246.074C86.6387 244.946 77.5721 241.919 70.0121 236.547C85.5854 229.994 91.0787 209.941 94.2921 194.939C96.8654 182.926 98.0654 170.666 98.5854 158.399C98.8387 152.181 98.9187 145.962 98.8921 139.738C98.8921 139.457 98.8921 139.171 98.8921 138.89C98.8787 138.307 98.8787 137.729 98.8654 137.146C98.7587 132.413 98.4654 127.703 98.2121 122.975C99.1988 122.987 100.172 122.981 101.159 122.949C102.132 122.981 103.105 122.987 104.079 122.975C103.839 127.703 103.532 132.413 103.439 137.146C103.425 137.729 103.412 138.307 103.412 138.89C103.412 139.171 103.399 139.457 103.399 139.738C103.385 145.962 103.452 152.181 103.719 158.399C104.225 170.666 105.425 182.926 108.012 194.939C111.225 209.941 116.719 229.994 132.279 236.547C124.732 241.919 115.665 244.946 106.372 246.074ZM67.6654 234.765C66.8387 235.045 66.012 235.277 65.172 235.447C52.5053 238.127 38.9587 229.153 33.2387 217.513C24.3187 199.374 29.8827 177.302 35.772 159.093C40.412 144.718 46.4787 130.933 52.9587 117.33C53.1987 116.801 53.452 116.278 53.7053 115.75C55.1587 112.718 56.6253 109.691 58.1053 106.67C58.3987 106.059 58.7054 105.442 58.9987 104.833C59.572 104.293 60.1321 103.737 60.6788 103.17C65.5588 110.665 73.2787 116.063 81.5854 119.239C83.3054 119.899 85.0521 120.461 86.8254 120.934C90.2787 121.853 93.7987 122.437 97.372 122.734V122.959V122.965C97.3187 127.693 97.2788 132.425 97.2121 137.151C97.1988 137.779 97.1854 138.406 97.1854 139.034C97.1187 143.078 97.052 147.118 96.9587 151.151C96.7187 161.729 96.0521 172.317 94.4788 182.789C93.0254 192.545 90.8788 202.319 87.3454 211.553C84.4121 219.241 80.1854 227.154 73.2521 231.942C71.4521 233.191 69.572 234.121 67.6654 234.765ZM47.5854 112.305C42.7054 115.695 37.4653 118.683 31.972 121.221C31.8253 121.291 31.6653 121.363 31.5053 121.435C31.0387 121.655 30.5587 121.865 30.0921 122.073C30.0387 122.31 29.9854 122.551 29.932 122.789C29.5854 124.517 29.2494 126.25 28.7987 127.918C27.736 131.819 26.4428 135.666 24.9294 139.413C22.3601 145.781 19.0027 151.713 15.3374 157.474C15.0734 157.893 14.8041 158.305 14.5401 158.718C14.7214 158.827 14.8814 158.949 15.0241 159.087C16.9721 160.87 15.3921 164.227 12.6348 165.069C10.7708 165.635 8.61873 165.475 6.73607 165.079C4.92007 164.694 3.22011 163.995 1.64544 163.066C4.19878 160.671 6.40006 157.838 8.45872 155.053C11.6774 150.683 14.512 146.001 16.828 141.091C20.708 132.87 22.96 124.11 23.9493 115.123C36.292 111.326 47.7188 104.567 57.0121 95.614C57.4921 97.0233 58.0654 98.4047 58.7187 99.7367C59.0654 100.43 59.4254 101.111 59.8121 101.773L59.732 101.926C55.972 105.63 52.0654 109.19 47.5854 112.305ZM56.8654 83.5074C56.9454 81.9114 57.172 80.3167 57.532 78.7527C57.7587 77.7513 58.0521 76.7553 58.4121 75.7807C59.7054 72.254 61.7587 69.194 64.2921 66.558C65.7987 64.9847 67.4787 63.5647 69.2521 62.282C69.3987 62.1727 69.5587 62.0674 69.7187 61.9634C69.8654 61.8527 70.012 61.7487 70.172 61.6447C71.5053 60.7367 72.892 59.8994 74.3053 59.1287L74.5587 58.9913C74.7054 58.9087 74.8654 58.826 75.0121 58.7487L75.0521 58.738C76.5854 57.93 78.1454 57.2034 79.7187 56.5487C82.7987 55.2554 85.972 54.2034 89.1987 53.3847C89.9054 53.1967 90.6254 53.026 91.3454 52.866C94.5854 52.1514 97.8521 51.6673 101.159 51.414C104.452 51.6727 107.719 52.1514 110.945 52.866C111.665 53.026 112.385 53.1967 113.105 53.3847C116.332 54.2034 119.505 55.2554 122.585 56.5487C124.145 57.2034 125.719 57.93 127.252 58.738L127.279 58.7487C127.439 58.826 127.585 58.9087 127.745 58.9913L127.999 59.1287C129.412 59.8994 130.799 60.7367 132.132 61.6447C132.279 61.7487 132.439 61.8527 132.585 61.9634C132.745 62.0674 132.892 62.1727 133.039 62.282C134.825 63.5647 136.492 64.9847 137.999 66.558C140.545 69.194 142.599 72.254 143.892 75.7807C144.252 76.7553 144.532 77.7513 144.772 78.7527C145.132 80.3167 145.359 81.9114 145.425 83.5074C145.599 86.9354 145.132 90.398 144.145 93.7047C144.092 93.9087 144.025 94.1127 143.959 94.3154C143.332 96.286 142.519 98.19 141.532 100.001C141.412 100.193 141.319 100.379 141.199 100.567V100.578C140.945 101.018 140.692 101.453 140.412 101.877C140.025 102.487 139.625 103.082 139.199 103.659C130.812 115.067 118.185 119.519 104.905 120.797C104.665 120.818 104.425 120.841 104.199 120.863C103.185 120.95 102.172 121.022 101.159 121.077C100.132 121.022 99.1187 120.95 98.1053 120.863C97.8653 120.841 97.6254 120.818 97.3854 120.797C84.1187 119.519 71.4787 115.067 63.0921 103.659C62.6787 103.082 62.2654 102.487 61.8921 101.877C61.6121 101.453 61.3587 101.018 61.1053 100.578L61.0921 100.567C60.9854 100.379 60.8787 100.193 60.772 100.001C59.7853 98.19 58.9721 96.286 58.3454 94.3154C58.2788 94.1127 58.2121 93.9087 58.1454 93.7047C57.1588 90.398 56.7054 86.9354 56.8654 83.5074ZM56.1987 47.6833C53.8654 45.7127 51.4254 43.8754 48.9187 42.1354C48.7587 42.0207 48.5987 41.91 48.4387 41.794C47.6253 41.2393 46.812 40.6887 45.9987 40.1487C45.2787 39.682 44.5587 39.1967 43.8254 38.7074C44.0921 37.3927 44.4387 36.094 44.8254 34.8113C44.9987 34.206 45.1988 33.606 45.4121 33.0113C47.6921 26.4793 51.4254 20.4487 56.2521 15.5007C59.5987 12.0553 63.3588 9.39264 67.4121 7.24597C67.5588 7.16998 67.7053 7.09805 67.8387 7.02606C67.8653 6.42072 67.9721 5.83138 68.1454 5.27136C68.1988 5.08337 68.2654 4.90205 68.332 4.72072C69.0654 2.91005 70.5721 1.49002 72.6921 1.08334C74.2254 0.786011 75.5721 1.09938 76.6521 1.82072L76.4254 1.87007C76.9321 2.18874 77.4121 2.53537 77.8788 2.91003L77.8921 2.92606C78.5454 3.45538 79.1721 4.03806 79.7454 4.66473C80.1588 5.10606 80.5454 5.57275 80.9187 6.06343C72.8521 7.98476 65.3587 12.8541 59.7854 18.7914C55.1721 23.7168 51.9054 29.5554 49.9187 35.8567C49.7587 36.3194 49.6254 36.7874 49.4921 37.254C49.7321 37.3807 49.9453 37.5127 50.172 37.6514L50.4521 37.8154C54.0921 40.05 57.5321 42.614 60.8254 45.3274C65.3721 49.0754 69.6654 53.258 73.532 57.77C73.3854 57.858 73.2387 57.9513 73.0921 58.0447V58.05C71.5987 58.87 70.1454 59.762 68.7454 60.7367L68.732 60.7087C64.9854 55.9873 60.852 51.6287 56.1987 47.6833ZM87.1187 38.9874C91.3454 36.0167 96.1721 34.398 101.159 33.9367C106.132 34.398 110.959 36.0167 115.172 38.9874C121.105 43.1647 125.212 49.6141 126.865 56.6314C124.319 55.2327 121.519 54.138 118.585 53.494L118.559 53.4833C115.612 52.5247 112.599 51.7821 109.559 51.2647C106.785 50.7861 103.972 50.4954 101.159 50.3847C98.3321 50.4954 95.5187 50.7861 92.732 51.2647C89.692 51.7821 86.6788 52.5247 83.7454 53.4833L83.7053 53.494C80.772 54.138 77.9853 55.2327 75.4387 56.6314C77.0787 49.6141 81.1987 43.1647 87.1187 38.9874ZM141.479 45.3274C144.772 42.614 148.199 40.05 151.852 37.8154L152.132 37.6514C152.345 37.5127 152.572 37.3807 152.799 37.254C152.679 36.7874 152.532 36.3194 152.385 35.8567C150.399 29.5554 147.119 23.7168 142.505 18.7914C136.945 12.8541 129.439 7.98476 121.385 6.06343C121.745 5.57275 122.132 5.10606 122.545 4.66473C123.132 4.03806 123.745 3.45538 124.412 2.92606L124.425 2.91003C124.892 2.53537 125.372 2.18874 125.879 1.87007L125.652 1.82072C126.732 1.09938 128.065 0.786011 129.599 1.08334C131.732 1.49002 133.225 2.91005 133.959 4.72072C134.039 4.90205 134.105 5.08337 134.159 5.27136C134.332 5.83138 134.425 6.42072 134.452 7.02606C134.599 7.09805 134.745 7.16998 134.892 7.24597C138.945 9.39264 142.705 12.0553 146.052 15.5007C150.865 20.4487 154.612 26.4793 156.892 33.0113C157.092 33.606 157.292 34.206 157.479 34.8113C157.865 36.094 158.199 37.3927 158.479 38.7074C157.732 39.1967 157.012 39.682 156.305 40.1487C155.479 40.6887 154.665 41.2393 153.865 41.794C153.692 41.91 153.532 42.0207 153.372 42.1354C150.879 43.8754 148.439 45.7127 146.105 47.6833C141.452 51.6287 137.319 55.9873 133.572 60.7087L133.545 60.7367C132.159 59.762 130.705 58.87 129.212 58.05L129.199 58.0447C129.052 57.9513 128.919 57.858 128.772 57.77C132.625 53.258 136.932 49.0754 141.479 45.3274ZM201.892 162.273C199.479 159.378 196.932 156.589 194.719 153.523C191.892 149.589 189.399 145.411 187.265 141.058C183.292 132.935 180.319 124.242 178.919 115.294L178.879 115.046C178.812 114.606 178.745 114.165 178.679 113.725C178.519 113.681 178.345 113.631 178.185 113.582C165.945 109.945 154.825 103.622 145.492 94.9714C146.239 92.6434 146.719 90.2327 146.932 87.806C147.025 86.7047 147.052 85.6047 147.039 84.51C146.959 80.0634 145.905 75.6607 143.732 71.6874C141.372 67.4007 137.972 63.9113 134.039 61.0887C137.879 56.642 142.119 52.5207 146.612 48.8167C148.892 46.9393 151.225 45.1407 153.652 43.4673C153.799 43.3633 153.959 43.2581 154.105 43.1594C155.052 42.5154 156.012 41.8994 156.985 41.2994C157.559 40.942 158.159 40.6007 158.772 40.2753C158.919 40.1927 159.052 40.122 159.199 40.0447C159.132 39.566 159.065 39.0927 158.985 38.6194L158.945 38.3994C158.719 37.078 158.439 35.774 158.119 34.4807C157.959 33.854 157.785 33.2314 157.599 32.6154C155.639 25.9901 152.292 19.8487 147.465 14.7087C143.892 10.9061 139.532 7.53267 134.732 5.106C134.185 2.58467 132.305 0.527405 129.465 0.0754089C127.319 -0.26593 125.145 0.571335 123.812 2.106C123.612 2.24467 123.439 2.3873 123.252 2.53529C122.105 3.46597 121.105 4.57672 120.305 5.82605C120.052 6.21672 119.825 6.62471 119.612 7.04338C119.919 7.1367 120.212 7.23534 120.505 7.33934C128.185 9.94867 135.265 13.5967 141.092 19.578C145.719 24.338 149.359 30.0954 151.665 36.3354C151.492 36.446 151.332 36.5554 151.172 36.6607C147.639 38.9874 144.199 41.458 140.972 44.194C136.252 48.1833 132.079 52.6087 128.292 57.3954L128.265 57.4447C128.079 57.3353 127.905 57.2247 127.732 57.1207V57.1154C127.692 56.906 127.652 56.7021 127.612 56.4927C126.252 49.2234 122.292 42.5261 116.225 37.9981C114.065 36.3847 111.679 35.0927 109.159 34.146C106.585 33.1714 103.879 32.55 101.159 32.3127C98.412 32.55 95.7188 33.166 93.1454 34.146C90.6254 35.0927 88.2388 36.3847 86.0788 37.9981C80.0121 42.5261 76.0521 49.2234 74.6788 56.4927C74.6388 56.7021 74.612 56.906 74.572 57.1154V57.1207C74.3853 57.2247 74.212 57.3353 74.0387 57.4447L73.9987 57.39C70.212 52.6087 66.0387 48.1833 61.332 44.194C58.092 41.458 54.6654 38.9874 51.132 36.6607C50.972 36.5554 50.7987 36.446 50.6387 36.3354C52.9453 30.0954 56.5721 24.338 61.2121 19.578C67.0254 13.5967 74.1187 9.94867 81.7854 7.33934C82.0787 7.23534 82.3854 7.1367 82.6788 7.04338C82.4788 6.62471 82.252 6.21672 81.9987 5.82605C81.1987 4.57672 80.1854 3.46597 79.0521 2.53529C78.8654 2.3873 78.6787 2.24467 78.4921 2.106C77.1454 0.571335 74.9853 -0.26593 72.8387 0.0754089C69.9853 0.527405 68.1054 2.58467 67.5587 5.106C62.7587 7.53267 58.3987 10.9061 54.8387 14.7087C50.012 19.8487 46.6654 25.9901 44.6921 32.6154C44.5187 33.2314 44.3454 33.854 44.1854 34.4807C43.8521 35.774 43.5854 37.078 43.3587 38.3994L43.3187 38.6247C43.2387 39.098 43.1587 39.5713 43.1053 40.0447C43.2387 40.122 43.3854 40.1927 43.532 40.2753C44.1454 40.6007 44.7321 40.942 45.3187 41.2994C46.2921 41.8994 47.252 42.5154 48.1987 43.1594C48.3454 43.2581 48.5054 43.3633 48.6521 43.4673C51.0787 45.1407 53.4121 46.9393 55.6921 48.8167C60.1721 52.5207 64.4254 56.642 68.2521 61.0887C64.3321 63.9113 60.9187 67.4007 58.572 71.6874C56.3853 75.6607 55.3454 80.0634 55.2521 84.51C55.2387 85.6047 55.2787 86.7047 55.372 87.806C55.5853 90.2327 56.0654 92.6434 56.8121 94.9714C47.4788 103.622 36.3587 109.945 24.1094 113.582C23.9494 113.631 23.7787 113.681 23.6147 113.725C23.5534 114.165 23.488 114.606 23.4214 115.046L23.3827 115.294C21.98 124.242 19.0134 132.935 15.0294 141.058C12.8988 145.411 10.4121 149.589 7.57878 153.523C5.37211 156.589 2.81877 159.378 0.401432 162.273C0.264099 162.433 0.132 162.593 0 162.758C0.358667 163.038 0.732109 163.307 1.11211 163.561C4.83744 166.087 9.5654 167.583 13.6974 165.866C15.6241 165.063 17.4174 163.214 17.4068 160.997C17.4014 159.763 16.84 158.603 15.9374 157.87C20.0147 152.323 23.2787 146.171 26.0027 139.865C27.6254 136.101 29.0174 132.238 30.1454 128.291C30.7188 126.317 31.3587 124.214 31.7987 122.085C37.932 119.702 43.6921 116.642 49.0121 112.905C51.8921 110.881 54.7454 108.695 57.3987 106.323C55.9987 108.965 54.6121 111.611 53.2521 114.27V114.275C52.9721 114.809 52.6921 115.343 52.4254 115.877C45.9987 128.518 40.0788 141.417 35.4121 154.794C28.7428 173.95 23.1627 195.527 29.9587 215.41C34.9187 229.955 51.5988 242.183 67.2788 237.527L67.532 237.445C71.9854 240.955 77.0387 243.586 82.4254 245.419C85.1987 246.359 88.0387 247.091 90.932 247.621C94.2387 248.226 97.6654 248.638 101.159 248.819C104.625 248.638 108.052 248.226 111.372 247.621C114.252 247.091 117.105 246.359 119.865 245.419C125.252 243.586 130.319 240.955 134.759 237.445L135.025 237.527C150.705 242.183 167.372 229.955 172.345 215.41C179.132 195.527 173.559 173.95 166.892 154.794C162.225 141.417 156.305 128.518 149.865 115.877C149.599 115.343 149.332 114.809 149.052 114.275V114.27C147.692 111.611 146.305 108.965 144.905 106.323C147.559 108.695 150.412 110.881 153.292 112.905C158.599 116.642 164.372 119.702 170.492 122.085C170.932 124.214 171.585 126.317 172.159 128.291C173.279 132.238 174.679 136.101 176.292 139.865C179.025 146.171 182.279 152.323 186.359 157.87C185.465 158.603 184.892 159.763 184.892 160.997C184.879 163.214 186.679 165.063 188.599 165.866C192.732 167.583 197.465 166.087 201.185 163.561C201.572 163.307 201.945 163.038 202.292 162.758C202.172 162.593 202.039 162.433 201.892 162.273Z" fill="#696667"/>
<path d="M90.199 113.345C78.9857 113.342 64.7057 96.0541 64.0124 83.5447C63.3591 71.8514 77.9457 59.4101 88.1857 59.4101C89.5057 59.4101 90.759 59.6194 91.8924 60.0648C102.159 64.1008 102.892 111.794 91.5191 113.261C91.0924 113.317 90.6523 113.345 90.199 113.345Z" fill="#858686"/>
<path d="M121.692 116.966C125.425 113.846 128.545 110.038 130.772 105.702C137.919 91.7618 135.185 73.4031 124.279 62.1671C119.252 56.9938 112.665 53.5045 105.639 51.9085C106.199 51.9871 106.759 52.0725 107.319 52.1645C108.532 52.3658 109.745 52.5992 110.945 52.8658C111.665 53.0258 112.385 53.1965 113.105 53.3845C116.332 54.2032 119.505 55.2552 122.585 56.5485C124.145 57.2032 125.719 57.9298 127.252 58.7378L127.279 58.7485C127.439 58.8258 127.585 58.9085 127.745 58.9911L127.999 59.1285C129.412 59.8992 130.799 60.7365 132.132 61.6445C132.279 61.7485 132.439 61.8525 132.585 61.9632C132.745 62.0671 132.892 62.1725 133.039 62.2818C134.825 63.5645 136.492 64.9845 137.999 66.5578C140.545 69.1938 142.599 72.2538 143.892 75.7805C144.252 76.7551 144.532 77.7511 144.772 78.7525C145.132 80.3165 145.359 81.9112 145.425 83.5072C145.452 83.9632 145.465 84.4191 145.465 84.8751C145.465 87.8525 145.012 90.8365 144.145 93.7045C144.092 93.9085 144.025 94.1125 143.959 94.3152C143.332 96.2858 142.519 98.1898 141.532 100C141.412 100.192 141.319 100.379 141.199 100.567V100.578C140.945 101.018 140.692 101.452 140.412 101.876C140.025 102.487 139.625 103.082 139.199 103.659C134.492 110.065 128.439 114.28 121.692 116.966Z" fill="#686A6C"/>
<path d="M139.199 103.659C139.626 103.082 140.026 102.487 140.413 101.876C140.693 101.452 140.946 101.018 141.199 100.578V100.567C141.319 100.379 141.413 100.192 141.533 100C142.519 98.1898 143.333 96.2858 143.959 94.3152C144.026 94.1125 144.093 93.9085 144.146 93.7045C145.013 90.8365 145.466 87.8525 145.466 84.8751C145.466 87.8525 145.013 90.8365 144.146 93.7045C144.093 93.9085 144.026 94.1125 143.959 94.3152C143.333 96.2858 142.519 98.1898 141.533 100C141.413 100.192 141.319 100.379 141.199 100.567V100.578C140.946 101.018 140.693 101.452 140.413 101.876C140.026 102.487 139.626 103.082 139.199 103.659ZM110.946 52.8658C109.746 52.5992 108.533 52.3659 107.319 52.1645C108.533 52.3645 109.746 52.5992 110.946 52.8658Z" fill="#434244"/>
<path d="M83.6259 119.97C82.9326 119.743 82.2526 119.499 81.5859 119.239C82.2526 119.498 82.9326 119.74 83.6259 119.97Z" fill="#E8E7E6"/>
<path d="M45.666 133.277C46.8927 130.445 48.1594 127.629 49.4527 124.823C50.5994 122.317 51.7727 119.82 52.9594 117.329C53.1994 116.8 53.4527 116.277 53.706 115.749C55.1593 112.717 56.626 109.691 58.106 106.669C58.3993 106.059 58.706 105.441 58.9993 104.832C59.5727 104.292 60.1328 103.736 60.6794 103.169C65.5594 110.664 73.2794 116.063 81.5861 119.239C82.2527 119.499 82.9327 119.743 83.626 119.969C83.8927 120.06 84.1594 120.148 84.426 120.235C85.4794 121.895 86.3727 123.639 87.1327 125.433C82.8927 122.532 77.9727 120.659 72.8393 120.256C72.1193 120.2 71.4127 120.173 70.706 120.173C60.9327 120.173 51.3727 125.371 45.666 133.277Z" fill="#A5A5A4"/>
<path d="M49.4521 124.823C50.5988 122.317 51.7721 119.819 52.9588 117.33C51.7721 119.821 50.5988 122.318 49.4521 124.823Z" fill="#434244"/>
<path d="M86.8253 120.934C86.3053 120.792 85.772 120.644 85.252 120.487C85.772 120.643 86.3053 120.792 86.8253 120.934Z" fill="#E8E7E6"/>
<path d="M105.093 136.97C105.026 132.303 104.973 127.631 104.933 122.964V122.734C108.493 122.436 112.026 121.852 115.466 120.934C117.239 120.46 118.999 119.899 120.719 119.239C122.226 118.662 123.719 118.01 125.173 117.286C127.639 118.516 129.959 120.102 132.146 121.922C126.733 122.032 121.333 123.563 116.653 126.299C111.973 129.04 108.066 132.655 105.093 136.97Z" fill="#A5A5A4"/>
<path d="M141.572 103.244C141.586 103.219 141.612 103.195 141.626 103.169C141.612 103.195 141.586 103.219 141.572 103.244Z" fill="#E8E7E6"/>
<path d="M130.159 114.43C130.173 114.428 130.172 114.428 130.172 114.427C130.172 114.428 130.159 114.428 130.159 114.43Z" fill="#E8E7E6"/>
<path d="M130.346 114.307C130.359 114.299 130.372 114.291 130.386 114.284C130.372 114.291 130.359 114.299 130.346 114.307Z" fill="#E8E7E6"/>
<path d="M130.426 114.259C130.439 114.248 130.452 114.237 130.466 114.227C130.452 114.237 130.439 114.248 130.426 114.259Z" fill="#E8E7E6"/>
<path d="M130.572 114.155C131.212 113.729 131.839 113.285 132.452 112.825C131.839 113.285 131.212 113.729 130.572 114.155Z" fill="#E8E7E6"/>
<path d="M132.452 112.824C132.532 112.762 132.625 112.698 132.705 112.635C132.625 112.699 132.532 112.762 132.452 112.824Z" fill="#E8E7E6"/>
<path d="M132.705 112.634C132.732 112.615 132.758 112.596 132.772 112.578C132.758 112.596 132.732 112.615 132.705 112.634Z" fill="#E8E7E6"/>
<path d="M132.799 112.562C132.812 112.548 132.839 112.532 132.852 112.519C132.839 112.533 132.812 112.547 132.799 112.562Z" fill="#E8E7E6"/>
<path d="M132.879 112.5C132.892 112.487 132.919 112.473 132.932 112.459C132.919 112.473 132.892 112.487 132.879 112.5Z" fill="#E8E7E6"/>
<path d="M132.959 112.439C132.986 112.421 133.012 112.402 133.026 112.383C133.012 112.402 132.986 112.421 132.959 112.439Z" fill="#E8E7E6"/>
<path d="M133.065 112.354C133.079 112.344 133.092 112.336 133.105 112.328C133.092 112.336 133.079 112.344 133.065 112.354Z" fill="#E8E7E6"/>
<path d="M133.146 112.291C133.159 112.284 133.172 112.278 133.172 112.271C133.172 112.278 133.159 112.284 133.146 112.291Z" fill="#E8E7E6"/>
<path d="M133.226 112.231C133.226 112.227 133.239 112.222 133.239 112.218C133.239 112.222 133.226 112.227 133.226 112.231Z" fill="#E8E7E6"/>
<path d="M45.6526 212.067C45.1726 212.067 44.6925 212.029 44.1992 211.949C19.2512 207.914 52.9992 134.122 56.6659 131.238C58.1992 130.039 59.5592 129.486 60.7725 129.486C68.1858 129.486 69.9059 150.133 67.0259 170.777C64.1326 191.423 56.6526 212.069 45.6526 212.067Z" fill="#D8D7D5"/>
<path d="M135.225 219.297C135.092 219.296 134.959 219.293 134.812 219.286C110.239 218.186 107.719 139.757 118.665 132.338C119.119 132.041 119.572 131.897 120.065 131.897C126.119 131.897 135.625 153.749 140.772 175.597C145.919 197.448 146.679 219.298 135.225 219.297Z" fill="#D8D7D5"/>
<path d="M85.8386 50.7734C83.572 50.7734 81.7587 50.3441 81.252 49.2414C80.172 46.9014 90.0387 37.6747 93.532 37.6747C93.5987 37.6747 93.6654 37.6774 93.7187 37.6854C97.0254 38.0521 100.692 45.5734 97.9454 47.7734C96.1454 49.2174 90.1586 50.7734 85.8386 50.7734Z" fill="#858686"/>
<path d="M60.5723 235.925C56.3456 235.925 52.1456 234.765 48.2656 232.77C48.2656 232.767 48.2657 232.765 48.2523 232.763C48.239 232.754 48.2256 232.746 48.199 232.737C48.199 232.733 48.1856 232.727 48.1723 232.722C48.1589 232.711 48.1323 232.701 48.119 232.691C48.1057 232.682 48.079 232.674 48.0656 232.666C48.0656 232.662 48.0523 232.657 48.0389 232.653C48.0256 232.641 47.999 232.63 47.9857 232.619C47.9723 232.618 47.9723 232.617 47.9723 232.615C44.8923 230.991 42.0389 228.842 39.5723 226.334C41.0123 226.983 42.5057 227.534 44.0257 227.969C46.7857 228.757 49.6657 229.161 52.5457 229.161C57.919 229.161 63.279 227.753 67.759 224.821C77.9457 218.173 82.0256 205.45 84.8656 193.618C88.319 179.222 90.999 164.546 91.0923 149.742C91.1457 141.626 90.3723 133.365 87.3056 125.849C87.2523 125.71 87.199 125.573 87.1323 125.434C91.2923 128.283 94.799 132.125 97.2124 136.541C97.2124 136.615 97.2124 136.69 97.2124 136.763C97.2124 136.893 97.2124 137.022 97.2124 137.151C97.199 137.779 97.1857 138.406 97.1857 139.034C97.119 143.078 97.0523 147.118 96.959 151.151C96.719 161.729 96.0524 172.317 94.479 182.789C93.0257 192.545 90.879 202.319 87.3457 211.553C84.4124 219.241 80.1857 227.154 73.2523 231.942C71.4523 233.191 69.5723 234.121 67.6656 234.765C66.839 235.045 66.0123 235.277 65.1723 235.447C63.6523 235.77 62.1056 235.925 60.5723 235.925Z" fill="#A5A5A4"/>
<path d="M60.5727 235.925C56.346 235.925 52.146 234.763 48.266 232.77C52.146 234.765 56.346 235.925 60.5727 235.925C62.106 235.925 63.6527 235.77 65.1727 235.447C66.0127 235.277 66.8393 235.045 67.666 234.765C69.5727 234.121 71.4527 233.191 73.2527 231.942C80.1861 227.154 84.4128 219.241 87.3461 211.553C90.8794 202.319 93.0261 192.545 94.4794 182.789C96.0528 172.317 96.7194 161.729 96.9594 151.152C97.0527 147.118 97.1194 143.078 97.1861 139.034C97.1861 138.406 97.1994 137.78 97.2128 137.152C97.2128 137.022 97.2128 136.893 97.2128 136.763C97.2128 136.893 97.2128 137.022 97.2128 137.152C97.1994 137.78 97.1861 138.406 97.1861 139.034C97.1194 143.078 97.0527 147.118 96.9594 151.152C96.7194 161.729 96.0528 172.317 94.4794 182.789C93.0261 192.545 90.8794 202.319 87.3461 211.553C84.4128 219.241 80.1861 227.154 73.2527 231.942C71.4527 233.191 69.5727 234.121 67.666 234.765C66.8393 235.045 66.0127 235.277 65.1727 235.447C63.6527 235.77 62.106 235.925 60.5727 235.925ZM48.2527 232.763C48.2394 232.754 48.226 232.746 48.1993 232.737C48.226 232.746 48.2394 232.754 48.2527 232.763ZM48.1727 232.722C48.1593 232.711 48.1327 232.701 48.1194 232.691C48.1327 232.701 48.1593 232.711 48.1727 232.722ZM48.066 232.666C48.066 232.662 48.0527 232.657 48.0393 232.653C48.0527 232.657 48.066 232.662 48.066 232.666ZM47.9861 232.619C47.9727 232.618 47.9727 232.617 47.9727 232.615C47.9727 232.617 47.9727 232.618 47.9861 232.619Z" fill="#434244"/>
<path d="M85.2525 120.487C84.9725 120.405 84.7058 120.321 84.4258 120.235C84.4258 120.233 84.4258 120.231 84.4258 120.23C84.7058 120.318 84.9725 120.403 85.2525 120.487Z" fill="#434244"/>
<path d="M97.2125 136.541C94.7992 132.125 91.2924 128.284 87.1324 125.434C86.3724 123.64 85.4791 121.896 84.4258 120.236C84.7058 120.321 84.9725 120.405 85.2525 120.488C85.7725 120.645 86.3058 120.793 86.8258 120.934C90.2791 121.853 93.7991 122.437 97.3724 122.734V122.965C97.3191 127.489 97.2792 132.018 97.2125 136.541Z" fill="#929393"/>
<path d="M141.732 235.925C140.185 235.925 138.652 235.77 137.119 235.447C136.279 235.277 135.452 235.045 134.639 234.765H134.625C134.212 234.625 133.799 234.47 133.385 234.302C132.985 234.139 132.585 233.961 132.199 233.769C133.559 234.033 134.959 234.163 136.372 234.163C139.865 234.163 143.399 233.354 146.519 231.798C153.945 228.096 159.145 220.782 161.652 212.874C164.145 204.959 164.185 196.469 163.319 188.221C161.225 168.509 153.946 149.369 142.412 133.25C139.492 129.173 136.039 125.173 132.146 121.922C132.359 121.918 132.559 121.917 132.772 121.917C136.119 121.917 139.465 122.467 142.625 123.619C148.199 125.65 152.985 129.398 156.892 133.889C160.105 141.297 163.079 148.803 165.665 156.475C165.665 156.482 165.665 156.486 165.665 156.493C165.692 156.548 165.705 156.605 165.732 156.661C165.732 156.673 165.732 156.685 165.746 156.697C165.759 156.754 165.772 156.81 165.799 156.866C165.799 156.874 165.799 156.881 165.799 156.889C165.825 156.953 165.852 157.018 165.865 157.083C165.865 157.086 165.866 157.089 165.879 157.093C165.892 157.152 165.905 157.21 165.932 157.269C165.932 157.287 165.946 157.307 165.946 157.327C165.959 157.369 165.972 157.409 165.985 157.45C165.999 157.477 166.012 157.503 166.012 157.53C166.026 157.566 166.039 157.601 166.052 157.637C166.065 157.663 166.066 157.689 166.079 157.714C166.092 157.754 166.105 157.793 166.119 157.832C166.119 157.857 166.132 157.878 166.146 157.903C166.159 157.963 166.185 158.023 166.199 158.083C166.199 158.097 166.212 158.109 166.212 158.122C166.226 158.17 166.239 158.219 166.265 158.267C166.265 158.293 166.279 158.317 166.279 158.342C166.292 158.381 166.305 158.418 166.319 158.457C166.332 158.482 166.332 158.507 166.346 158.533C166.359 158.57 166.372 158.607 166.385 158.645C166.385 158.67 166.399 158.696 166.412 158.721C166.426 158.761 166.439 158.802 166.452 158.842C166.452 158.863 166.465 158.886 166.465 158.906C166.492 158.969 166.505 159.03 166.532 159.093C170.199 170.438 173.745 183.283 173.732 195.742C173.732 203.279 172.425 210.675 169.065 217.513C164.025 227.749 152.945 235.925 141.732 235.925Z" fill="#A5A5A4"/>
<path d="M141.732 235.925C140.186 235.925 138.652 235.77 137.119 235.447C136.279 235.277 135.452 235.045 134.639 234.765H134.626C134.212 234.625 133.799 234.471 133.386 234.302C133.799 234.47 134.212 234.625 134.626 234.765H134.639C135.452 235.045 136.279 235.277 137.119 235.447C138.652 235.77 140.186 235.925 141.732 235.925C152.946 235.925 164.026 227.749 169.066 217.513C172.426 210.675 173.732 203.279 173.732 195.742C173.732 203.279 172.426 210.675 169.066 217.513C164.026 227.749 152.946 235.925 141.732 235.925ZM166.466 158.906C166.466 158.886 166.452 158.863 166.452 158.842C166.452 158.863 166.466 158.885 166.466 158.906ZM166.412 158.721C166.399 158.696 166.386 158.67 166.386 158.645C166.386 158.67 166.399 158.696 166.412 158.721ZM166.346 158.533C166.332 158.507 166.332 158.482 166.319 158.457C166.332 158.482 166.332 158.507 166.346 158.533ZM166.279 158.342C166.279 158.317 166.266 158.293 166.266 158.267C166.266 158.293 166.279 158.317 166.279 158.342ZM166.212 158.122C166.212 158.109 166.199 158.097 166.199 158.083C166.199 158.097 166.212 158.109 166.212 158.122ZM166.146 157.903C166.132 157.878 166.119 157.857 166.119 157.832C166.119 157.856 166.132 157.879 166.146 157.903ZM166.079 157.714C166.066 157.689 166.066 157.663 166.052 157.637C166.066 157.662 166.066 157.689 166.079 157.714ZM166.012 157.53C166.012 157.503 165.999 157.477 165.986 157.45C165.999 157.477 166.012 157.503 166.012 157.53ZM165.946 157.327C165.946 157.307 165.932 157.287 165.932 157.269C165.932 157.287 165.946 157.307 165.946 157.327ZM165.879 157.093C165.866 157.089 165.866 157.086 165.866 157.083C165.866 157.086 165.866 157.089 165.879 157.093ZM165.799 156.889C165.799 156.881 165.799 156.874 165.799 156.866C165.799 156.874 165.799 156.881 165.799 156.889ZM165.746 156.697C165.732 156.685 165.732 156.673 165.732 156.661C165.732 156.673 165.732 156.685 165.746 156.697ZM165.666 156.493C165.666 156.486 165.666 156.482 165.666 156.475C165.666 156.482 165.666 156.486 165.666 156.493Z" fill="#434244"/>
<path d="M125.172 117.286C126.892 116.434 128.559 115.482 130.159 114.43C128.559 115.482 126.892 116.434 125.172 117.286Z" fill="#434244"/>
<path d="M130.172 114.427C130.225 114.387 130.292 114.347 130.345 114.307C130.292 114.347 130.225 114.387 130.172 114.427Z" fill="#434244"/>
<path d="M130.466 114.227C130.479 114.221 130.493 114.215 130.493 114.209C130.493 114.215 130.479 114.221 130.466 114.227Z" fill="#434244"/>
<path d="M130.559 114.168C130.559 114.164 130.572 114.159 130.572 114.155C130.572 114.159 130.559 114.164 130.559 114.168Z" fill="#434244"/>
<path d="M132.772 112.578C132.786 112.573 132.786 112.568 132.799 112.562C132.786 112.568 132.786 112.573 132.772 112.578Z" fill="#434244"/>
<path d="M132.933 112.459C132.946 112.452 132.946 112.446 132.959 112.439C132.946 112.446 132.946 112.452 132.933 112.459Z" fill="#434244"/>
<path d="M133.025 112.383C133.039 112.373 133.052 112.363 133.065 112.354C133.052 112.363 133.039 112.373 133.025 112.383Z" fill="#434244"/>
<path d="M133.105 112.328C133.119 112.315 133.132 112.303 133.146 112.291C133.132 112.303 133.119 112.315 133.105 112.328Z" fill="#434244"/>
<path d="M133.172 112.271C133.185 112.258 133.212 112.245 133.225 112.232C133.212 112.245 133.185 112.258 133.172 112.271Z" fill="#434244"/>
<path d="M133.239 112.218C136.453 109.695 139.279 106.722 141.533 103.315C139.279 106.723 136.453 109.695 133.239 112.218Z" fill="#434244"/>
<path d="M141.532 103.311C141.546 103.288 141.559 103.265 141.572 103.244C141.559 103.265 141.546 103.288 141.532 103.311Z" fill="#434244"/>
<path d="M156.892 133.889C152.985 129.398 148.199 125.65 142.625 123.619C139.465 122.467 136.119 121.917 132.772 121.917C132.559 121.917 132.359 121.918 132.145 121.922C129.959 120.102 127.639 118.517 125.172 117.286C126.892 116.434 128.559 115.482 130.159 114.43C130.159 114.429 130.172 114.429 130.172 114.427C130.225 114.387 130.292 114.347 130.345 114.307C130.359 114.299 130.372 114.291 130.385 114.285C130.399 114.277 130.412 114.267 130.425 114.259C130.439 114.249 130.452 114.238 130.465 114.227C130.479 114.222 130.492 114.215 130.492 114.21C130.519 114.195 130.532 114.182 130.559 114.169C130.559 114.165 130.572 114.159 130.572 114.155C131.212 113.729 131.839 113.285 132.452 112.825C132.532 112.762 132.625 112.699 132.705 112.635C132.705 112.634 132.705 112.634 132.705 112.634C132.732 112.615 132.759 112.597 132.772 112.578C132.785 112.573 132.785 112.567 132.799 112.562C132.812 112.547 132.839 112.534 132.852 112.519C132.865 112.513 132.865 112.507 132.879 112.501C132.892 112.487 132.919 112.474 132.932 112.459C132.945 112.453 132.945 112.446 132.959 112.439C132.985 112.421 133.012 112.402 133.025 112.383C133.039 112.374 133.052 112.363 133.065 112.354C133.079 112.345 133.092 112.337 133.105 112.329C133.119 112.315 133.132 112.303 133.145 112.291C133.159 112.285 133.172 112.278 133.172 112.271C133.185 112.258 133.212 112.245 133.225 112.231C133.225 112.227 133.239 112.222 133.239 112.218C136.452 109.695 139.279 106.723 141.532 103.315C141.532 103.313 141.532 103.313 141.532 103.311C141.545 103.289 141.559 103.266 141.572 103.245C141.585 103.219 141.612 103.195 141.625 103.17C142.172 103.737 142.732 104.293 143.305 104.833C143.599 105.442 143.905 106.059 144.199 106.67C145.665 109.691 147.145 112.718 148.585 115.75C148.852 116.278 149.092 116.801 149.345 117.33C151.945 122.81 154.492 128.319 156.892 133.889Z" fill="#929393"/>
<path d="M115.426 244.323C117.853 241.055 121.013 234.297 114.266 226.257C104.733 214.882 101.799 175.998 101.799 175.998C101.799 175.998 99.226 199.474 93.3593 215.982C88.706 229.063 82.2127 238.463 85.8127 244.031C80.1594 242.398 74.786 239.938 70.0127 236.547C85.586 229.994 91.0793 209.941 94.2926 194.939C96.866 182.926 98.066 170.666 98.586 158.399C98.8127 152.861 98.9059 147.322 98.9059 141.781C98.9059 141.099 98.8926 140.419 98.8926 139.738C98.8926 139.457 98.8926 139.171 98.8926 138.89C98.8793 138.307 98.8793 137.729 98.8659 137.146C98.7593 132.413 98.466 127.703 98.2127 122.975C98.506 122.979 98.7993 122.981 99.1059 122.981C99.7859 122.981 100.466 122.971 101.159 122.949C101.839 122.971 102.519 122.981 103.199 122.981C103.493 122.981 103.786 122.979 104.079 122.975C103.839 127.703 103.533 132.413 103.439 137.146C103.426 137.729 103.413 138.307 103.413 138.89C103.413 139.171 103.399 139.457 103.399 139.738C103.399 140.419 103.399 141.099 103.399 141.781C103.399 147.322 103.493 152.861 103.719 158.399C104.226 170.666 105.426 182.926 108.013 194.939C111.226 209.941 116.719 229.994 132.279 236.547C132.253 236.571 132.213 236.594 132.186 236.617C132.159 236.633 132.146 236.647 132.119 236.662C132.119 236.669 132.106 236.675 132.093 236.681C130.159 238.041 128.133 239.247 126.026 240.31C125.999 240.326 125.959 240.341 125.933 240.355C125.933 240.359 125.919 240.363 125.919 240.366C122.573 242.038 119.053 243.347 115.426 244.323Z" fill="#686A6C"/>
<path d="M125.919 240.365C125.919 240.363 125.932 240.359 125.932 240.355C125.932 240.359 125.919 240.363 125.919 240.365ZM126.025 240.309C128.132 239.247 130.159 238.04 132.092 236.68C130.159 238.04 128.132 239.248 126.025 240.309ZM132.119 236.661C132.145 236.647 132.159 236.632 132.185 236.616C132.159 236.632 132.145 236.647 132.119 236.661ZM103.399 141.78C103.399 141.099 103.399 140.419 103.399 139.737C103.399 139.456 103.412 139.171 103.412 138.889C103.412 138.307 103.425 137.728 103.438 137.145C103.532 132.412 103.839 127.703 104.079 122.975C103.839 127.703 103.532 132.412 103.438 137.145C103.425 137.728 103.412 138.307 103.412 138.889C103.412 139.171 103.399 139.456 103.399 139.737C103.399 140.419 103.399 141.099 103.399 141.78ZM98.9051 141.78C98.9051 141.099 98.8919 140.419 98.8919 139.737C98.8919 139.456 98.8919 139.171 98.8919 138.889C98.8785 138.307 98.8785 137.728 98.8652 137.145C98.7585 132.412 98.4652 127.703 98.2119 122.975C98.4652 127.703 98.7585 132.412 98.8652 137.145C98.8785 137.728 98.8785 138.307 98.8919 138.889C98.8919 139.171 98.8919 139.456 98.8919 139.737C98.8919 140.419 98.9051 141.099 98.9051 141.78Z" fill="#434244"/>
</svg>
