<svg width="78" height="48" viewBox="0 0 78 48" fill="none" xmlns="http://www.w3.org/2000/svg">
<path d="M74.0618 20.8505H11.9428L26.7653 6.02705C28.0638 4.72928 28.0638 2.62403 26.7653 1.32645C25.4667 0.0279026 23.3615 0.0279026 22.0649 1.32645L1.56766 21.824C0.269114 23.1218 0.269114 25.2273 1.56766 26.5247L22.0649 47.0232C22.714 47.6727 23.5646 47.9969 24.4151 47.9969C25.2656 47.9969 26.1162 47.6727 26.7653 47.0232C28.0638 45.7254 28.0638 43.6202 26.7653 42.3228L11.9428 27.4986H74.0618C75.8975 27.4986 77.3861 26.0102 77.3861 24.1744C77.3861 22.3387 75.8977 20.8505 74.0618 20.8505Z" fill="white"/>
</svg>
