<svg width="36" height="63" viewBox="0 0 36 63" fill="none" xmlns="http://www.w3.org/2000/svg">
<path d="M15.3869 3.64881L15.3869 53.3495L4.26807 41.4902C3.29463 40.4512 1.71553 40.4512 0.742231 41.4902C-0.231785 42.5291 -0.231785 44.2135 0.742231 45.2509L16.1171 61.6505C17.0906 62.6894 18.6698 62.6894 19.643 61.6505L35.0186 45.2509C35.5057 44.7316 35.7489 44.051 35.7489 43.3705C35.7489 42.6901 35.5057 42.0095 35.0186 41.4902C34.0451 40.4512 32.466 40.4512 31.4929 41.4902L20.3735 53.3495L20.3735 3.64881C20.3735 2.18009 19.257 0.989071 17.8801 0.989071C16.5032 0.989071 15.3869 2.17994 15.3869 3.64881Z" fill="white"/>
</svg>
