
<svg width="20" height="13" viewBox="0 0 20 13" fill="none" xmlns="http://www.w3.org/2000/svg">
<path d="M9.99577 8.46088L17.478 0.97893C17.6836 0.772915 17.9584 0.659582 18.2514 0.659582C18.5446 0.659582 18.8192 0.772915 19.025 0.97893L19.6803 1.63454C19.8865 1.84023 20 2.11519 20 2.4082C20 2.70121 19.8865 2.97584 19.6803 3.18169L10.772 12.0902C10.5655 12.2968 10.2896 12.41 9.99626 12.4092C9.70163 12.41 9.42602 12.297 9.21935 12.0902L0.319674 3.18999C0.113495 2.98413 0 2.7095 0 2.41633C0 2.12332 0.113495 1.84869 0.319674 1.64267L0.974958 0.987224C1.40146 0.560719 2.09577 0.560719 2.52211 0.987224L9.99577 8.46088Z" fill="white"/>
</svg>
