<svg width="34" height="34" viewBox="0 0 34 34" fill="none" xmlns="http://www.w3.org/2000/svg">
<path d="M19.9598 16.9907L33.1646 3.78587C33.985 2.96617 33.985 1.63617 33.1646 0.816472C32.3442 -0.00392808 31.0156 -0.00392808 30.1952 0.816472L16.9904 14.0213L3.7849 0.816472C2.9645 -0.00392808 1.6359 -0.00392808 0.815495 0.816472C-0.00490467 1.63617 -0.00490467 2.96617 0.815495 3.78587L14.021 16.9907L0.815495 30.1955C-0.00490467 31.0152 -0.00490467 32.3452 0.815495 33.1649C1.2257 33.5744 1.7633 33.7795 2.3002 33.7795C2.8371 33.7795 3.3747 33.5744 3.7849 33.1642L16.9904 19.9594L30.1952 33.1642C30.6054 33.5744 31.143 33.7795 31.6799 33.7795C32.2168 33.7795 32.7544 33.5744 33.1646 33.1642C33.985 32.3445 33.985 31.0145 33.1646 30.1948L19.9598 16.9907Z" fill="white"/>
</svg>
