<svg width="38" height="38" viewBox="0 0 38 38" fill="none" xmlns="http://www.w3.org/2000/svg">
<path d="M22.4409 19.1632L37.0133 4.59074C37.9187 3.68614 37.9187 2.21839 37.0133 1.31379C36.108 0.408423 34.6418 0.408423 33.7364 1.31379L19.1639 15.8862L4.59074 1.31379C3.68537 0.408423 2.21916 0.408423 1.31379 1.31379C0.408423 2.21839 0.408423 3.68614 1.31379 4.59074L15.887 19.1632L1.31379 33.7356C0.408423 34.6402 0.408423 36.108 1.31379 37.0126C1.76648 37.4645 2.35976 37.6908 2.95227 37.6908C3.54477 37.6908 4.13805 37.4645 4.59074 37.0118L19.1639 22.4393L33.7364 37.0118C34.1891 37.4645 34.7823 37.6908 35.3749 37.6908C35.9674 37.6908 36.5606 37.4645 37.0133 37.0118C37.9187 36.1072 37.9187 34.6394 37.0133 33.7348L22.4409 19.1632Z" fill="black"/>
</svg>
