<svg width="56" height="56" viewBox="0 0 56 56" fill="none" xmlns="http://www.w3.org/2000/svg">
<g clip-path="url(#clip0)">
<path d="M27.8287 0.116211C12.4595 0.116211 0 12.5757 0 27.9449C0 41.7292 10.0328 53.145 23.1874 55.3556V33.7507H16.4743V25.976H23.1874V20.2432C23.1874 13.5915 27.25 9.96674 33.1847 9.96674C36.027 9.96674 38.4696 10.1785 39.1787 10.2718V17.2246L35.0626 17.2266C31.8359 17.2266 31.2138 18.7596 31.2138 21.01V25.972H38.9131L37.9089 33.7467H31.2138V55.5415C44.9825 53.8657 55.657 42.1591 55.657 27.9369C55.657 12.5757 43.1975 0.116211 27.8287 0.116211Z" fill="#C8CCD1"/>
</g>
<defs>
<clipPath id="clip0">
<rect width="55.657" height="55.657" fill="white"/>
</clipPath>
</defs>
</svg>
