<svg width="512" height="512" viewBox="0 0 512 512" fill="none" xmlns="http://www.w3.org/2000/svg">
<g clip-path="url(#clip0)">
<path d="M256.002 1.06934C114.617 1.06934 0 115.687 0 257.071C0 383.876 92.2936 488.892 213.306 509.228V310.48H151.551V238.958H213.306V186.221C213.306 125.031 250.679 91.6863 305.272 91.6863C331.419 91.6863 353.89 93.6347 360.413 94.4928V158.453L322.548 158.471C292.865 158.471 287.142 172.574 287.142 193.276V238.922H357.97L348.732 310.443H287.142V510.938C413.803 495.522 512 387.831 512 256.998C512 115.687 397.383 1.06934 256.002 1.06934Z" fill="#518EF8"/>
</g>
<defs>
<clipPath id="clip0">
<rect width="512" height="512" fill="white"/>
</clipPath>
</defs>
</svg>
