<svg width="92" height="92" viewBox="0 0 92 92" fill="none" xmlns="http://www.w3.org/2000/svg">
<path d="M71.1067 32.9234H64.1238C64.9602 31.6385 65.4479 30.1073 65.4479 28.4631C65.4479 23.9408 61.7688 20.2617 57.2465 20.2617C54.248 20.2617 51.6215 21.8801 50.1909 24.2884C49.0034 23.3408 47.5003 22.7722 45.8663 22.7722C44.2322 22.7722 42.7293 23.3408 41.5416 24.2884C40.1112 21.8801 37.4847 20.2617 34.486 20.2617C29.9637 20.2617 26.2846 23.9408 26.2846 28.4631C26.2846 30.107 26.7725 31.6381 27.6087 32.9232H20.626C18.1309 32.9232 16.1013 34.9529 16.1013 37.4482V44.0346C16.1013 45.705 17.0116 47.1657 18.3619 47.9497V78.8877C18.3619 82.4205 21.2361 85.2946 24.769 85.2946H66.9637C70.4964 85.2946 73.3706 82.4205 73.3706 78.8877V47.9499C74.7207 47.1659 75.6312 45.7052 75.6312 44.0348V37.4484C75.6314 34.9533 73.6016 32.9234 71.1067 32.9234ZM52.8127 28.4633C52.8127 26.0184 54.8017 24.0296 57.2467 24.0296C59.6916 24.0296 61.6806 26.0188 61.6806 28.4635C61.6806 30.9082 59.6916 32.8972 57.2467 32.8972H52.8127V28.4633ZM54.7475 36.6912L60.4686 46.7729L59.1213 46.4112C58.6382 46.2819 58.1241 46.3492 57.6911 46.5992C57.2582 46.8492 56.9422 47.2611 56.8132 47.7438L56.4836 48.9748L49.5744 36.691H54.7475V36.6912ZM45.8666 26.5401C47.6194 26.5401 49.0452 27.9657 49.0452 29.7185C49.0452 31.4712 47.6194 32.8971 45.8666 32.8971C44.1139 32.8971 42.688 31.4712 42.688 29.7185C42.688 27.9657 44.1137 26.5401 45.8666 26.5401ZM42.3299 36.6912L36.5632 46.7693L36.2214 45.4918C36.0922 45.0089 35.7764 44.5972 35.3434 44.3472C34.9105 44.0974 34.3963 44.0297 33.9133 44.1592L32.5792 44.5171L37.0427 36.6912H42.3299ZM34.4864 24.0296C36.9313 24.0296 38.9203 26.0186 38.9203 28.4633V32.8972H34.4864C32.0415 32.8972 30.0525 30.9081 30.0525 28.4633C30.0525 26.0186 32.0416 24.0296 34.4864 24.0296ZM19.8694 44.0346V37.4484C19.8694 37.0309 20.2091 36.6912 20.6266 36.6912H32.7052L28.0853 44.7918H20.6266C20.2091 44.7918 19.8694 44.4521 19.8694 44.0346ZM49.2574 81.5271H24.769C23.3138 81.5271 22.1298 80.3431 22.1298 78.8877V48.5596H27.148C27.1702 48.5925 27.1889 48.627 27.2134 48.6587C27.6778 49.2604 28.4586 49.524 29.193 49.3271L33.0686 48.2871L34.1056 52.1637C34.3029 52.9014 34.9259 53.4468 35.6828 53.5451C35.7642 53.5557 35.8454 53.5608 35.926 53.5608C36.5952 53.5608 37.222 53.2037 37.5606 52.6127L38.7074 50.6083V69.6591C38.7074 70.6992 39.5509 71.5429 40.5913 71.5429C41.6317 71.5429 42.4751 70.6992 42.4751 69.6591V48.6705H49.257V81.5271H49.2574ZM41.9725 44.9028L45.9554 37.9422L49.8704 44.9028H41.9725ZM69.603 78.8877C69.603 80.3429 68.4191 81.5271 66.9637 81.5271H53.0251V50.512L55.4664 54.8527C55.8029 55.4509 56.4335 55.813 57.1078 55.813C57.1862 55.813 57.2649 55.8083 57.3441 55.7981C58.1041 55.7022 58.7302 55.1558 58.9282 54.4159L59.9652 50.5393L63.841 51.5793C64.5747 51.7762 65.3547 51.5134 65.8195 50.9125C66.2843 50.3117 66.3427 49.4907 65.9679 48.8299L65.8144 48.5594H69.603V78.8877ZM71.8637 44.0348C71.8637 44.4523 71.524 44.792 71.1065 44.792H63.6762L59.0795 36.6913H71.1065C71.524 36.6912 71.8637 37.0309 71.8637 37.4484V44.0348Z" fill="white"/>
<path d="M43.3409 2.8009L48.0606 2.79422L48.0701 9.50685L43.3505 9.51353L43.3409 2.8009Z" fill="#FFBE00"/>
<path d="M30.0045 7.28757L35.0346 12.1544L31.7529 15.5462L26.7228 10.6794L30.0045 7.28757Z" fill="#FFBE00"/>
<path d="M60.9432 7.28003L64.2091 10.6871L59.1557 15.53L55.8904 12.1228L60.9432 7.28003Z" fill="#FFBE00"/>
</svg>
