<svg width="46" height="46" viewBox="0 0 46 46" fill="none" xmlns="http://www.w3.org/2000/svg">
<g filter="url(#filter0_d)">
<path d="M7.95784 6.83884C8.07948 6.96114 8.2392 7.02159 8.39885 7.02159C8.55857 7.02159 8.71822 6.96106 8.83986 6.83884C9.08379 6.59557 9.08379 6.2001 8.83986 5.95682L7.07517 4.19272C6.83123 3.94878 6.43642 3.94878 6.19315 4.19272C5.94929 4.43599 5.94929 4.83146 6.19315 5.07473L7.95784 6.83884Z" fill="#FFBE00"/>
<path d="M14.5737 7.02217C14.7334 7.02217 14.893 6.96106 15.0147 6.83943L16.7787 5.07473C17.0226 4.8308 17.0226 4.43599 16.7787 4.19272C16.5354 3.94878 16.1406 3.94878 15.8967 4.19272L14.1327 5.95741C13.8887 6.20068 13.8887 6.59615 14.1327 6.83943C14.2542 6.96106 14.4139 7.02217 14.5737 7.02217Z" fill="#FFBE00"/>
<path d="M11.4861 5.74269C11.8304 5.74269 12.1098 5.46323 12.1098 5.11893V2.62376C12.1098 2.27946 11.8304 2 11.4861 2C11.1418 2 10.8623 2.27946 10.8623 2.62376V5.11886C10.8622 5.46323 11.1417 5.74269 11.4861 5.74269Z" fill="#FFBE00"/>
<path d="M7.74335 9.48557C7.74335 9.14128 7.46389 8.86182 7.11959 8.86182H4.62376C4.27946 8.86182 4 9.14128 4 9.48557C4 9.82987 4.27946 10.1093 4.62376 10.1093H7.11952C7.46389 10.1093 7.74335 9.82987 7.74335 9.48557Z" fill="#FFBE00"/>
<path d="M7.95734 12.1322L6.19272 13.8968C5.94878 14.1407 5.94878 14.5355 6.19272 14.7788C6.31435 14.901 6.47407 14.9616 6.63372 14.9616C6.79345 14.9616 6.9531 14.901 7.07473 14.7788L8.83943 13.0141C9.0827 12.7708 9.0827 12.376 8.83943 12.1321C8.59549 11.8882 8.20068 11.8882 7.95734 12.1322Z" fill="#FFBE00"/>
<path d="M41.384 31.0851C40.7041 29.3916 40.5512 28.1546 40.4028 26.9588C40.2026 25.3463 39.996 23.6783 38.5164 21.1152L34.4618 14.0921C33.8088 12.9618 32.185 12.5251 31.0528 13.1788C30.6742 13.3978 30.3586 13.7259 30.1415 14.1182C29.7217 13.5138 29.1091 13.0821 28.3906 12.8894C27.5859 12.6735 26.7457 12.7852 26.024 13.2006C25.3378 13.5968 24.8594 14.2161 24.6267 14.9141C23.6511 14.1082 22.2363 13.946 21.078 14.616C20.4037 15.0052 19.9084 15.6184 19.6713 16.3544L14.3031 8.80494C12.7238 6.65223 11.1705 7.09017 10.3839 7.54485C9.65972 7.96276 9.18187 8.62833 9.03721 9.41992C8.90431 10.1478 9.06089 10.9463 9.48757 11.6836L18.1194 25.7081C18.2997 26.0013 18.684 26.093 18.9771 25.9127C19.2709 25.7318 19.3626 25.3481 19.1817 25.055L10.5586 11.0449C10.2897 10.5783 10.1849 10.0812 10.2648 9.64332C10.3433 9.21225 10.6004 8.86049 11.0077 8.62533C11.2884 8.46313 12.1417 7.96912 13.292 9.53542L19.9689 18.9264C20.1617 19.1971 20.5335 19.2695 20.8148 19.0899C21.0948 18.9096 21.1841 18.541 21.0175 18.2527C20.7673 17.8199 20.7012 17.3158 20.8303 16.8324C20.9594 16.3496 21.2694 15.946 21.7018 15.6965C22.5956 15.1813 23.7434 15.4875 24.2586 16.3815L24.8799 17.4582C24.8811 17.4594 24.8818 17.4606 24.8824 17.4619C25.0545 17.7606 25.4363 17.8617 25.7345 17.6902C26.0327 17.518 26.1349 17.1369 25.9628 16.8381C25.4469 15.9443 25.7538 14.7977 26.6477 14.2818C27.08 14.0317 27.5871 13.9656 28.0675 14.0947C28.5509 14.2245 28.9539 14.5338 29.2034 14.9668L30.1371 16.5836C30.1378 16.5848 30.1384 16.5861 30.139 16.5873C30.3118 16.8855 30.693 16.9872 30.9917 16.8156C31.2899 16.6435 31.3922 16.2623 31.22 15.9635C31.0622 15.6909 31.0229 15.3459 31.1127 15.0178C31.2026 14.691 31.4077 14.4146 31.6766 14.2593C32.223 13.9436 33.067 14.1707 33.3814 14.7158L37.436 21.739C38.7896 24.0826 38.9718 25.5546 39.1645 27.1122C39.308 28.2675 39.4553 29.4583 40.0322 31.0433L27.9645 38.0109C25.8624 35.7473 22.6493 33.3719 18.4039 30.9447C17.9447 30.6821 17.4894 30.4282 17.0422 30.1843C15.8957 29.5593 15.086 28.3167 15.0716 27.1633C15.0654 26.6394 15.23 25.9152 16.0509 25.4417C16.3497 25.2689 16.452 24.8872 16.2799 24.589C16.1071 24.2908 15.7247 24.1886 15.4272 24.3607C14.3792 24.9664 13.8097 25.9669 13.8247 27.1783C13.8434 28.7871 14.897 30.4351 16.4452 31.2803C16.885 31.5199 17.3329 31.7693 17.7845 32.0276C22.1485 34.5227 25.374 36.9411 27.3714 39.2148C27.4931 39.3533 27.6652 39.4269 27.8399 39.4269C27.9466 39.4269 28.0545 39.3995 28.1518 39.3433L41.1171 31.8579C41.3859 31.7027 41.4994 31.3734 41.384 31.0851Z" fill="#FFBE00"/>
</g>
<defs>
<filter id="filter0_d" x="0" y="0" width="45.4289" height="45.4269" filterUnits="userSpaceOnUse" color-interpolation-filters="sRGB">
<feFlood flood-opacity="0" result="BackgroundImageFix"/>
<feColorMatrix in="SourceAlpha" type="matrix" values="0 0 0 0 0 0 0 0 0 0 0 0 0 0 0 0 0 0 127 0"/>
<feOffset dy="2"/>
<feGaussianBlur stdDeviation="2"/>
<feColorMatrix type="matrix" values="0 0 0 0 0 0 0 0 0 0 0 0 0 0 0 0 0 0 0.8 0"/>
<feBlend mode="normal" in2="BackgroundImageFix" result="effect1_dropShadow"/>
<feBlend mode="normal" in="SourceGraphic" in2="effect1_dropShadow" result="shape"/>
</filter>
</defs>
</svg>
