<svg width="69" height="62" viewBox="0 0 69 62" fill="none" xmlns="http://www.w3.org/2000/svg">
<path fill-rule="evenodd" clip-rule="evenodd" d="M31.6872 60.5017C32.4198 61.1433 33.3597 61.4965 34.3347 61.4965C35.3091 61.4965 36.2496 61.1433 36.9816 60.5028C39.7544 58.0779 42.4259 55.8009 44.7833 53.7925L44.7844 53.7916C51.6823 47.9129 57.6393 42.8362 61.7845 37.8342C66.4184 32.243 68.5763 26.9414 68.5763 21.1496C68.5763 15.5224 66.6473 10.331 63.144 6.53097C59.599 2.686 54.7341 0.568359 49.4455 0.568359C45.4924 0.568359 41.8721 1.81815 38.6854 4.28271C37.0767 5.52675 35.6195 7.04928 34.3347 8.82521C33.0504 7.04928 31.5927 5.52675 29.9844 4.28271C26.7978 1.81815 23.1775 0.568359 19.2244 0.568359C13.9352 0.568359 9.0709 2.686 5.52583 6.53097C2.02256 10.331 0.0930176 15.5224 0.0930176 21.1496C0.0930176 26.9414 2.25141 32.243 6.88534 37.8347C11.0307 42.8364 16.9887 47.914 23.8881 53.7935L23.9001 53.804C26.2534 55.8093 28.9207 58.0826 31.6872 60.5017ZM8.47573 9.2512C11.2527 6.23959 15.07 4.58122 19.2254 4.58122C22.2688 4.58122 25.0636 5.54886 27.5313 7.45698C29.731 9.15819 31.2629 11.3087 32.1605 12.8135C32.6224 13.5873 33.4354 14.0492 34.3357 14.0492C35.2359 14.0492 36.0489 13.5873 36.5108 12.8135C37.4089 11.3087 38.9408 9.15819 41.14 7.45698C43.6077 5.54886 46.4025 4.58122 49.4465 4.58122C53.6013 4.58122 57.4191 6.23959 60.1956 9.2512C63.0139 12.3083 64.5662 16.5341 64.5662 21.1508C64.5662 26.022 62.7558 30.3784 58.6971 35.2762C54.7773 40.0062 48.9492 44.9735 42.2007 50.7252L42.1824 50.7408C39.8155 52.757 37.1336 55.0429 34.3299 57.4845C31.543 55.0476 28.8652 52.7654 26.5031 50.7523L26.4905 50.7418L26.4865 50.7384C19.7314 44.9815 13.8973 40.0095 9.97474 35.2762C5.91555 30.3784 4.10513 26.022 4.10513 21.1508C4.10513 16.5341 5.65744 12.3083 8.47573 9.2512Z" fill="black"/>
</svg>
