<svg width="147" height="147" viewBox="0 0 147 147" fill="none" xmlns="http://www.w3.org/2000/svg">
<path fill-rule="evenodd" clip-rule="evenodd" d="M89.9005 8.19968L95.3432 13.6424L87.6023 21.3834L82.1595 15.9407L89.9005 8.19968ZM70.4373 103.253C64.1023 109.588 53.793 109.589 47.4574 103.253C41.1217 96.9173 41.1224 86.608 47.4574 80.2731L82.2787 45.4517L58.1366 21.3096L23.3153 56.1309C3.66832 75.7779 3.66833 107.747 23.316 127.394C42.9629 147.041 74.9318 147.041 94.5787 127.394L129.4 92.573L105.259 68.4316L70.4373 103.253ZM31.6062 124.548L44.9586 111.196C54.3111 117.938 67.4722 117.105 75.8829 108.694L90.7653 93.8119L104.021 107.068L89.1381 121.951C73.4095 137.68 48.3624 138.543 31.6062 124.548ZM43.6422 46.6926L28.7598 61.575C13.0312 77.3036 12.168 102.351 26.1632 119.108L39.5148 105.756C32.7731 96.402 33.6065 83.2417 42.0165 74.8317L56.8989 59.9493L43.6422 46.6926ZM62.3395 54.5049L49.0828 41.2482L58.1363 32.1947L71.393 45.4514L62.3395 54.5049ZM109.46 101.625L118.513 92.5715L105.257 79.3155L96.2036 88.369L109.46 101.625ZM76.2994 16.9206L73.0877 5.96716L65.7017 8.13291L68.9135 19.0864L76.2994 16.9206ZM97.5765 30.4485L95.4101 37.8337L84.4573 34.6213L86.6231 27.2353L97.5765 30.4485ZM142.899 61.1983L137.456 55.7555L129.715 63.4965L135.158 68.9392L142.899 61.1983ZM145.132 78.0037L142.966 85.3896L132.012 82.1764L134.179 74.7912L145.132 78.0037ZM123.856 64.472L120.643 53.5186L113.258 55.685L116.469 66.6385L123.856 64.472Z" fill="black"/>
</svg>
