<svg width="37" height="37" viewBox="0 0 37 37" fill="none" xmlns="http://www.w3.org/2000/svg">
<path opacity="0.85" fill-rule="evenodd" clip-rule="evenodd" d="M30.8531 6.15072C27.45 2.74764 22.9301 0.868774 18.116 0.868774C13.3019 0.868774 8.78207 2.74764 5.37899 6.15072C-1.18571 12.7154 -1.66109 23.2039 4.18678 30.3118C3.3794 31.9643 2.42865 33.066 1.34962 33.5942C0.693152 33.9187 0.323415 34.6279 0.429054 35.3523C0.542239 36.0843 1.10062 36.6502 1.83254 36.7634C2.23246 36.8237 2.66256 36.8615 3.10775 36.8615C5.31863 36.8615 7.64268 36.0993 9.58191 34.7638C12.1927 36.1673 15.1279 36.9067 18.116 36.9067C22.9301 36.9067 27.45 35.0354 30.8531 31.6323C34.2561 28.2292 36.1274 23.7019 36.1274 18.8953C36.1274 14.0887 34.2561 9.5538 30.8531 6.15072ZM29.4112 30.1843C26.3929 33.2026 22.3786 34.8626 18.1153 34.8626C15.2631 34.8626 12.4637 34.1005 10.0264 32.6668C9.86796 32.5763 9.68687 32.5235 9.51332 32.5235C9.29449 32.5235 9.06812 32.5989 8.88703 32.7347C6.57807 34.5231 4.25401 34.7871 3.23535 34.8098C4.4502 33.9043 5.46886 32.5008 6.32151 30.5465C6.47997 30.1843 6.41206 29.7618 6.14796 29.4599C0.564195 23.1518 0.858475 13.5386 6.81953 7.57759C9.83778 4.55934 13.8521 2.8993 18.1153 2.8993C22.3786 2.8993 26.3929 4.55934 29.4112 7.57759C35.6439 13.8178 35.6439 23.9592 29.4112 30.1843ZM10.5712 12.9417H25.6624C26.2208 12.9417 26.6811 13.3945 26.6811 13.9604C26.6811 14.5263 26.2284 14.9791 25.6624 14.9791H10.5712C10.0052 14.9791 9.55251 14.5263 9.55251 13.9604C9.55251 13.3945 10.0052 12.9417 10.5712 12.9417ZM25.6624 17.8705H10.5712C10.0052 17.8705 9.55251 18.3232 9.55251 18.8892C9.55251 19.4551 10.0052 19.9078 10.5712 19.9078H25.6624C26.2284 19.9078 26.6811 19.4551 26.6811 18.8892C26.6811 18.3232 26.2208 17.8705 25.6624 17.8705ZM10.5712 22.798H25.6624C26.2208 22.798 26.6811 23.2508 26.6811 23.8167C26.6811 24.3826 26.2284 24.8354 25.6624 24.8354H10.5712C10.0052 24.8354 9.55251 24.3826 9.55251 23.8167C9.55251 23.2508 10.0052 22.798 10.5712 22.798Z" fill="white"/>
</svg>
