<svg width="78" height="78" viewBox="0 0 78 78" fill="none" xmlns="http://www.w3.org/2000/svg">
<path d="M66.0078 11.5674C58.7616 4.32123 49.1375 0.320557 38.8868 0.320557C28.6361 0.320557 19.012 4.32123 11.7658 11.5674C-2.21243 25.5457 -3.22464 47.8787 9.22724 63.0138C7.50808 66.5325 5.48364 68.8782 3.18607 70.0029C1.78824 70.6938 1.00096 72.2041 1.2259 73.7465C1.4669 75.305 2.65586 76.51 4.21435 76.751C5.0659 76.8796 5.98172 76.9599 6.92967 76.9599C11.6373 76.9599 16.5859 75.3371 20.7151 72.4933C26.2743 75.4817 32.5243 77.0563 38.8868 77.0563C49.1375 77.0563 58.7616 73.0717 66.0078 65.8255C73.254 58.5793 77.2386 48.9391 77.2386 38.7045C77.2386 28.4699 73.254 18.8136 66.0078 11.5674Z" fill="white"/>
<g style="mix-blend-mode:overlay" opacity="0.4">
<path d="M66.0059 11.5674C58.7597 4.32123 49.1356 0.320557 38.8849 0.320557C28.6342 0.320557 19.0101 4.32123 11.7639 11.5674C-2.21438 25.5457 -3.2266 47.8787 9.22529 63.0138C7.50612 66.5325 5.48169 68.8782 3.18411 70.0029C1.78629 70.6938 0.99901 72.2041 1.22395 73.7465C1.46495 75.305 2.65391 76.51 4.2124 76.751C5.06395 76.8796 5.97976 76.9599 6.92771 76.9599C11.6353 76.9599 16.5839 75.3371 20.7132 72.4933C26.2723 75.4817 32.5224 77.0563 38.8849 77.0563C49.1356 77.0563 58.7597 73.0717 66.0059 65.8255C73.2521 58.5793 77.2367 48.9391 77.2367 38.7045C77.2367 28.4699 73.2521 18.8136 66.0059 11.5674Z" fill="url(#paint0_linear)"/>
</g>
<path d="M54.9509 26.0269H22.817C21.612 26.0269 20.6479 26.9909 20.6479 28.1959C20.6479 29.4009 21.612 30.3649 22.817 30.3649H54.9509C56.1559 30.3649 57.1199 29.4009 57.1199 28.1959C57.1199 26.9909 56.1398 26.0269 54.9509 26.0269Z" fill="#030303"/>
<path d="M54.9509 36.5203H22.817C21.612 36.5203 20.6479 37.4843 20.6479 38.6893C20.6479 39.8943 21.612 40.8583 22.817 40.8583H54.9509C56.1559 40.8583 57.1199 39.8943 57.1199 38.6893C57.1199 37.4843 56.1398 36.5203 54.9509 36.5203Z" fill="#030303"/>
<path d="M54.9509 47.009H22.817C21.612 47.009 20.6479 47.973 20.6479 49.1781C20.6479 50.3831 21.612 51.3471 22.817 51.3471H54.9509C56.1559 51.3471 57.1199 50.3831 57.1199 49.1781C57.1199 47.973 56.1398 47.009 54.9509 47.009Z" fill="#030303"/>
<defs>
<linearGradient id="paint0_linear" x1="77.2367" y1="40.1095" x2="0.538574" y2="40.1095" gradientUnits="userSpaceOnUse">
<stop stop-color="white"/>
<stop offset="1" stop-color="white" stop-opacity="0"/>
</linearGradient>
</defs>
</svg>
