<svg width="50" height="50" viewBox="0 0 50 50" fill="none" xmlns="http://www.w3.org/2000/svg">
<path d="M29.0621 24.9631L48.4518 5.57254C49.6565 4.36885 49.6565 2.41582 48.4518 1.21213C47.2472 0.00741521 45.2963 0.00741521 44.0916 1.21213L24.7019 20.6027L5.31109 1.21213C4.10642 0.00741521 2.15553 0.00741521 0.950862 1.21213C-0.253803 2.41582 -0.253803 4.36885 0.950862 5.57254L20.3416 24.9631L0.950862 44.3537C-0.253803 45.5573 -0.253803 47.5104 0.950862 48.7141C1.55319 49.3154 2.3426 49.6166 3.13097 49.6166C3.91935 49.6166 4.70876 49.3154 5.31109 48.713L24.7019 29.3225L44.0916 48.713C44.6939 49.3154 45.4834 49.6166 46.2717 49.6166C47.0601 49.6166 47.8495 49.3154 48.4518 48.713C49.6565 47.5093 49.6565 45.5563 48.4518 44.3526L29.0621 24.9631Z" fill="black"/>
</svg>
