<svg width="71" height="70" viewBox="0 0 71 70" fill="none" xmlns="http://www.w3.org/2000/svg">
<path fill-rule="evenodd" clip-rule="evenodd" d="M49.1941 3.85552C53.3348 -0.284781 60.0479 -0.284781 64.1885 3.85552L66.9533 6.62001C71.0875 10.7631 71.0875 17.47 66.9533 21.6131L24.9198 63.6446C24.6318 63.9327 24.2747 64.1406 23.8826 64.2492L3.92659 69.7773C3.10839 70.0037 2.23222 69.7727 1.63123 69.1727C1.03116 68.5717 0.800147 67.6956 1.02747 66.8775L6.55511 46.9233C6.66371 46.5313 6.87172 46.1742 7.15979 45.8861L49.1941 3.85552ZM46.6968 13.0188L12.2949 47.4185L23.3889 58.5124L57.7916 24.1127L46.6968 13.0188ZM10.0788 51.8645L18.9427 60.7286L6.68179 64.1253L10.0788 51.8645ZM61.1228 20.7815L63.6216 18.283C65.9179 15.9814 65.9179 12.2552 63.6216 9.95268L60.8559 7.18818C58.556 4.88843 54.8267 4.88843 52.5267 7.18818L50.0271 9.68672L61.1228 20.7815Z" fill="white"/>
</svg>
