<svg width="37" height="36" viewBox="0 0 37 36" fill="none" xmlns="http://www.w3.org/2000/svg">
<path opacity="0.8" fill-rule="evenodd" clip-rule="evenodd" d="M18.203 20.1328C23.5279 20.1328 27.8469 15.8138 27.8469 10.4889C27.8469 5.16406 23.5278 0.874512 18.203 0.874512C12.8781 0.874512 8.55903 5.19361 8.55903 10.4889C8.55903 15.7842 12.8781 20.1328 18.203 20.1328ZM18.2018 3.38991C22.1066 3.38991 25.3016 6.58481 25.3016 10.4898C25.3016 14.3947 22.1066 17.5896 18.2018 17.5896C14.2969 17.5896 11.1019 14.3947 11.1019 10.4897C11.1019 6.58475 14.2968 3.38991 18.2018 3.38991ZM1.51838 35.1916H35.006C35.716 35.1916 36.278 34.6295 36.278 33.9195C36.278 27.2634 30.8644 21.8202 24.1787 21.8202H12.3457C5.68956 21.8202 0.246338 27.2338 0.246338 33.9195C0.246338 34.6295 0.8084 35.1916 1.51838 35.1916ZM12.3467 24.3638H24.1797C29.0313 24.3638 33.0249 27.9729 33.6462 32.6469H2.88023C3.50145 28.0025 7.49516 24.3638 12.3467 24.3638Z" fill="white"/>
</svg>
