<svg width="24" height="20" viewBox="0 0 24 20" fill="none" xmlns="http://www.w3.org/2000/svg">
<path d="M5.30107 19.2825C4.00558 19.2825 2.90723 18.8037 2.00601 17.8462C1.16113 16.8323 0.738686 15.565 0.738686 14.0442C0.738686 11.1716 1.55541 8.60875 3.18885 6.35572C4.87863 4.10269 6.85003 2.30027 9.10305 0.94845L10.6238 2.89169C9.77896 3.68025 9.18754 4.49697 8.84959 5.34185C8.51163 6.18674 8.34266 7.25693 8.34266 8.55242C8.34266 9.17201 8.56796 10.1014 9.01857 11.3405C9.58182 12.805 9.86345 13.9597 9.86345 14.8046C9.86345 16.0437 9.41285 17.1139 8.51163 18.0151C7.61042 18.86 6.54023 19.2825 5.30107 19.2825ZM18.3968 19.2825C17.1013 19.2825 16.003 18.8037 15.1017 17.8462C14.2569 16.8323 13.8344 15.565 13.8344 14.0442C13.8344 11.1716 14.6511 8.60875 16.2846 6.35572C17.9744 4.10269 19.9458 2.30027 22.1988 0.94845L23.7196 2.89169C22.8747 3.68025 22.2833 4.49697 21.9453 5.34185C21.6074 6.18674 21.4384 7.25693 21.4384 8.55242C21.4384 9.17201 21.6637 10.1014 22.1143 11.3405C22.6776 12.805 22.9592 13.9597 22.9592 14.8046C22.9592 16.0437 22.5086 17.1139 21.6074 18.0151C20.7062 18.86 19.636 19.2825 18.3968 19.2825Z" fill="white"/>
</svg>
