<svg width="73" height="75" viewBox="0 0 73 75" fill="none" xmlns="http://www.w3.org/2000/svg">
<path d="M33.6511 3.66016L33.6532 11.6999L35.444 11.7203C53.0588 11.9213 66.77 27.6331 64.7408 45.7053C63.1808 59.6511 52.2105 70.8113 38.5299 72.3738C22.4785 74.2016 8.10336 62.8514 5.63007 46.9526C5.3932 45.4259 6.5907 44.0236 8.14352 44.0236C9.39846 44.0236 10.476 44.9483 10.6724 46.1935C12.6819 58.917 23.8959 68.1722 36.7031 67.339C48.9836 66.5412 58.9733 56.3949 59.7872 43.882C60.7382 29.4342 49.6049 17.1804 35.4931 16.9513L33.6532 16.9214L33.6511 24.9951L19.4056 14.3295L33.6511 3.66016Z" fill="white"/>
</svg>
