<svg width="78" height="78" viewBox="0 0 78 78" fill="none" xmlns="http://www.w3.org/2000/svg">
<path fill-rule="evenodd" clip-rule="evenodd" d="M73.7628 31.2263L68.3762 30.3125C67.8151 28.5009 67.0937 26.7535 66.2119 25.0862L69.3862 20.6454C70.7329 18.7537 70.5244 16.1726 68.8732 14.5374L64.0958 9.75995C63.198 8.86217 62.0116 8.36519 60.7451 8.36519C59.7512 8.36519 58.8053 8.6698 58.0037 9.24693L53.5469 12.4212C51.8155 11.5074 50.0039 10.7539 48.1282 10.1928L47.2305 4.87029C46.8457 2.57777 44.8738 0.910477 42.5492 0.910477H35.7999C33.4753 0.910477 31.5034 2.57777 31.1186 4.87029L30.1888 10.3211C28.3933 10.8822 26.6458 11.6196 24.9785 12.5174L20.5698 9.34312C19.7682 8.76598 18.8063 8.46138 17.8124 8.46138C16.5459 8.46138 15.3435 8.95836 14.4618 9.85614L9.6683 14.6336C8.03307 16.2688 7.80863 18.8499 9.15529 20.7416L12.3616 25.2465C11.4799 26.9298 10.7745 28.6773 10.2294 30.4889L4.9069 31.3866C2.61437 31.7714 0.947083 33.7433 0.947083 36.0679V42.8172C0.947083 45.1418 2.61437 47.1137 4.9069 47.4985L10.3577 48.4283C10.9188 50.2238 11.6562 51.9713 12.554 53.6386L9.39576 58.0312C8.0491 59.923 8.25751 62.5041 9.90878 64.1393L14.6862 68.9167C15.584 69.8145 16.7703 70.3115 18.0368 70.3115C19.0308 70.3115 19.9767 70.0069 20.7782 69.4297L25.2831 66.2234C26.9023 67.0731 28.6017 67.7625 30.3491 68.3075L31.2469 73.6942C31.6317 75.9867 33.6036 77.654 35.9281 77.654H42.6935C45.0181 77.654 46.99 75.9867 47.3747 73.6942L48.2885 68.3075C50.1001 67.7464 51.8476 67.025 53.5149 66.1433L57.9556 69.3175C58.7572 69.8947 59.7191 70.1993 60.7131 70.1993C61.9796 70.1993 63.1659 69.7023 64.0637 68.8045L68.8411 64.0271C70.4763 62.3919 70.7008 59.8108 69.3541 57.919L66.1799 53.4622C67.0616 51.7789 67.7991 50.0315 68.3441 48.2359L73.7308 47.3381C76.0233 46.9534 77.6906 44.9815 77.6906 42.6569V35.9076C77.7227 33.583 76.0554 31.6111 73.7628 31.2263ZM73.3929 42.6565C73.3929 42.8649 73.2486 43.0413 73.0402 43.0733L66.3069 44.1956C65.4572 44.3398 64.7839 44.9651 64.5755 45.7827C63.9663 48.1393 63.0364 50.3998 61.7859 52.5C61.3531 53.2374 61.3852 54.1512 61.8821 54.8566L65.842 60.4356C65.9542 60.5959 65.9381 60.8364 65.7939 60.9807L61.0164 65.7581C60.9042 65.8703 60.792 65.8864 60.7118 65.8864C60.6156 65.8864 60.5355 65.8543 60.4714 65.8062L54.9084 61.8464C54.219 61.3494 53.2892 61.3174 52.5517 61.7502C50.4516 63.0007 48.1911 63.9305 45.8344 64.5397C45.0008 64.7481 44.3756 65.4375 44.2473 66.2711L43.1091 73.0044C43.077 73.2128 42.9007 73.3571 42.6922 73.3571H35.9429C35.7345 73.3571 35.5582 73.2128 35.5261 73.0044L34.4039 66.2711C34.2596 65.4215 33.6344 64.7481 32.8167 64.5397C30.5242 63.9465 28.3119 63.0327 26.2438 61.8464C25.9071 61.654 25.5223 61.5578 25.1536 61.5578C24.7208 61.5578 24.2719 61.6861 23.9032 61.9586L18.2921 65.9505C18.2119 65.9986 18.1318 66.0307 18.0516 66.0307C17.9875 66.0307 17.8592 66.0146 17.747 65.9024L12.9696 61.125C12.8253 60.9807 12.8092 60.7563 12.9215 60.5799L16.8653 55.049C17.3622 54.3436 17.3943 53.4138 16.9614 52.6763C15.711 50.5922 14.7491 48.3317 14.1399 45.9751C13.9154 45.1575 13.2421 44.5322 12.4085 44.3879L5.62707 43.2337C5.41865 43.2016 5.27437 43.0252 5.27437 42.8168V36.0675C5.27437 35.8591 5.41865 35.6827 5.62707 35.6507L12.3123 34.5285C13.1619 34.3842 13.8513 33.7589 14.0597 32.9253C14.6529 30.5686 15.5667 28.2922 16.8011 26.192C17.234 25.4546 17.1859 24.5407 16.6889 23.8514L12.697 18.2403C12.5848 18.08 12.6008 17.8395 12.7451 17.6952L17.5226 12.9178C17.6348 12.8056 17.747 12.7895 17.8272 12.7895C17.9233 12.7895 18.0035 12.8216 18.0676 12.8697L23.5986 16.8135C24.3039 17.3105 25.2338 17.3425 25.9712 16.9097C28.0553 15.6592 30.3158 14.6973 32.6725 14.0881C33.4901 13.8637 34.1153 13.1903 34.2596 12.3567L35.4139 5.5753C35.4459 5.36689 35.6223 5.22261 35.8307 5.22261H42.58C42.7884 5.22261 42.9648 5.36689 42.9968 5.5753L44.1191 12.2605C44.2633 13.1102 44.8886 13.7995 45.7222 14.008C48.143 14.6172 50.4516 15.563 52.5998 16.8295C53.3373 17.2624 54.2511 17.2303 54.9565 16.7333L60.4874 12.7575C60.5675 12.7094 60.6477 12.6773 60.7279 12.6773C60.792 12.6773 60.9202 12.6934 61.0325 12.8056L65.8099 17.583C65.9542 17.7273 65.9702 17.9517 65.858 18.1281L61.8982 23.6911C61.4012 24.3804 61.3691 25.3103 61.802 26.0477C63.0524 28.1479 63.9823 30.4083 64.5915 32.765C64.7999 33.5986 65.4893 34.2239 66.3229 34.3521L73.0562 35.4904C73.2646 35.5224 73.4089 35.6988 73.4089 35.9072V42.6565H73.3929ZM39.3269 22.7144C30.1889 22.7144 22.7662 30.1371 22.7662 39.2751C22.7662 48.4132 30.1889 55.8358 39.3269 55.8358C48.4649 55.8358 55.8876 48.4132 55.8876 39.2751C55.8876 30.1371 48.4649 22.7144 39.3269 22.7144ZM39.3252 51.506C32.5758 51.506 27.093 46.0232 27.093 39.2739C27.093 32.5245 32.5758 27.0417 39.3252 27.0417C46.0745 27.0417 51.5573 32.5245 51.5573 39.2739C51.5573 46.0232 46.0745 51.506 39.3252 51.506Z" fill="white"/>
</svg>
