<svg width="78" height="79" viewBox="0 0 78 79" fill="none" xmlns="http://www.w3.org/2000/svg">
<path d="M50.5387 42.9117C52.9762 42.9117 55.1212 41.5792 56.2262 39.5642L67.8612 18.4717C69.0637 16.3267 67.5037 13.6617 65.0337 13.6617H16.9337L13.8787 7.16174H3.25116V13.6617H9.75116L21.4512 38.3292L17.0637 46.2592C14.6912 50.6142 17.8112 55.9117 22.7512 55.9117H61.7512V49.4117H22.7512L26.3262 42.9117H50.5387ZM20.0212 20.1617H59.5087L50.5387 36.4117H27.7237L20.0212 20.1617Z" fill="white"/>
<path d="M19.5 68.2115C19.5 65.1841 21.9494 62.7071 24.9768 62.7071C28.0043 62.7071 30.4812 65.1841 30.4812 68.2115C30.4812 71.2389 28.0043 73.7158 24.9768 73.7158C21.9494 73.7158 19.5 71.2389 19.5 68.2115Z" fill="#FFD200"/>
<path d="M47.0219 68.2115C47.0219 65.1841 49.4713 62.7071 52.4987 62.7071C55.5261 62.7071 58.0031 65.1841 58.0031 68.2115C58.0031 71.2389 55.5261 73.7158 52.4987 73.7158C49.4713 73.7158 47.0219 71.2389 47.0219 68.2115Z" fill="#FFD200"/>
</svg>
