<svg width="132" height="137" viewBox="0 0 132 137" fill="none" xmlns="http://www.w3.org/2000/svg">
<g clip-path="url(#clip0)">
<path d="M101.965 37.7339C94.1291 37.7339 86.7286 40.9197 81.4503 46.4379L66.0508 60.7169L57.7797 68.34H57.8341L43.1964 81.9364C39.7138 85.5773 35.0885 87.5684 30.1367 87.5684C19.961 87.5684 11.6899 78.9782 11.6899 68.34C11.6899 57.7018 19.961 49.1116 30.1367 49.1116C35.0885 49.1116 39.7138 51.1027 43.414 54.9712L49.563 60.66L57.7797 53.037L50.9233 46.7223C45.373 40.9197 37.9725 37.7339 30.1367 37.7339C13.9209 37.7339 0.752441 51.501 0.752441 68.34C0.752441 85.1791 13.9209 98.9461 30.1367 98.9461C37.9725 98.9461 45.373 95.7604 50.6513 90.2422L66.0508 76.02L66.1052 76.0769L74.3219 68.34H74.2675L88.9052 54.7436C92.3878 51.1027 97.0131 49.1116 101.965 49.1116C112.141 49.1116 120.412 57.7018 120.412 68.34C120.412 78.9782 112.141 87.5684 101.965 87.5684C97.0675 87.5684 92.3878 85.5773 88.6875 81.7089L82.4842 75.9631L74.2675 83.5862L81.1782 89.9577C86.7286 95.7035 94.0747 98.8893 101.965 98.8893C118.181 98.8893 131.349 85.1791 131.349 68.2831C131.349 51.3872 118.181 37.7339 101.965 37.7339Z" fill="black"/>
</g>
<defs>
<clipPath id="clip0">
<rect width="130.597" height="136.533" fill="white" transform="translate(0.753906 0.0734863)"/>
</clipPath>
</defs>
</svg>
