<svg width="45" height="44" viewBox="0 0 45 44" fill="none" xmlns="http://www.w3.org/2000/svg">
<path d="M28.8699 18.7263C31.3609 18.7263 33.3645 16.7047 33.3645 14.2137C33.3645 11.7228 31.3609 9.70113 28.8699 9.70113C26.379 9.70113 24.3574 11.7228 24.3574 14.2137C24.3574 16.7047 26.379 18.7263 28.8699 18.7263ZM15.3322 16.9213C18.3286 16.9213 20.7292 14.5025 20.7292 11.5062C20.7292 8.50981 18.3286 6.09106 15.3322 6.09106C12.3358 6.09106 9.9171 8.50981 9.9171 11.5062C9.9171 14.5025 12.3358 16.9213 15.3322 16.9213ZM28.8699 22.3364C25.5667 22.3364 18.9423 23.997 18.9423 27.3002V29.5565C18.9423 30.5493 19.7545 31.3615 20.7473 31.3615H36.9926C37.9854 31.3615 38.7976 30.5493 38.7976 29.5565V27.3002C38.7976 23.997 32.1732 22.3364 28.8699 22.3364ZM15.3322 20.5313C11.1265 20.5313 2.69697 22.6432 2.69697 26.8489V29.5565C2.69697 30.5493 3.50923 31.3615 4.502 31.3615H15.3322V27.3002C15.3322 25.7659 15.9279 23.0764 19.6101 21.0367C18.0397 20.7118 16.5235 20.5313 15.3322 20.5313Z" fill="white"/>
</svg>
